<svg width="422" height="328" viewBox="0 0 422 328" fill="none" xmlns="http://www.w3.org/2000/svg">
<rect x="122" y="53.2866" width="282" height="222" rx="30" fill="#D3D3D3"/>
<rect x="122" y="57.8608" width="282" height="222" rx="30" fill="white"/>
<path d="M0 42H391.333C407.902 42 421.333 55.4315 421.333 72V298C421.333 314.569 407.902 328 391.333 328H30C13.4315 328 0 314.569 0 298V42Z" fill="#2969F6"/>
<path fill-rule="evenodd" clip-rule="evenodd" d="M30 0C13.4315 0 0 13.4315 0 30V40C0 56.5685 13.4315 70 30 70H155.996C172.219 70 183.663 57.9921 185.722 44.2677C188.885 47.0439 195.273 47.2877 198.311 44.1667C199.967 42.4655 204.802 42.9141 208.578 43.2645C209.914 43.3884 211.117 43.5 212 43.5L227 42C215.123 42 190.26 35.131 181.132 23.5842C180.32 22.3618 179.402 21.1706 178.375 20.0195L169.446 10.0195C163.754 3.64475 155.614 0 147.068 0H30Z" fill="#2969F6"/>
</svg>
