<svg width="187" height="60" viewBox="0 0 187 60" fill="none" xmlns="http://www.w3.org/2000/svg">
<rect x="16" y="13" width="36" height="34" rx="10" fill="#E0FC52"/>
<path d="M75.1523 14.6094V25H73.4844V16.5781L70.3125 25H68.4258L65.2266 16.5508V25H63.5586V14.6094H66.2109L69.3828 22.9766L72.5273 14.6094H75.1523ZM78.0508 15.6484V14.0078H79.8555V15.6484H78.0508ZM78.1328 25V16.7969H79.7734V25H78.1328ZM88.1133 16.7969H89.7539V25H88.1133V21.582H84.1211V25H82.4805V16.7969H84.1211V20.0508H88.1133V16.7969ZM92.3789 15.6484V14.0078H94.1836V15.6484H92.3789ZM92.4609 25V16.7969H94.1016V25H92.4609ZM100.309 25.1367C97.875 25.1367 96.207 23.4141 96.207 20.8984C96.207 18.3828 97.875 16.6602 100.309 16.6602C102.086 16.6602 103.508 17.5625 103.973 19.1211L102.414 19.6133C102.059 18.6562 101.32 18.0547 100.309 18.0547C98.8047 18.0547 97.875 19.1758 97.875 20.8984C97.875 22.6211 98.8047 23.7422 100.309 23.7422C101.32 23.7422 102.086 23.1406 102.414 22.1836L103.973 22.6758C103.508 24.2344 102.059 25.1367 100.309 25.1367ZM112.094 16.7969V18.2734H109.141V25H107.5V18.2734H104.547V16.7969H112.094ZM114.281 21.418C114.473 22.8398 115.375 23.7422 116.824 23.7422C118.027 23.7422 118.793 23.2773 119.258 22.6758L120.379 23.6602C119.695 24.4805 118.574 25.1367 116.852 25.1367C114.117 25.1367 112.641 23.332 112.641 20.8984C112.641 18.3828 114.281 16.6602 116.715 16.6602C119.094 16.6602 120.652 18.3281 120.652 20.8984C120.652 21.0898 120.652 21.2266 120.598 21.418H114.281ZM116.715 18.0273C115.402 18.0273 114.555 18.8477 114.309 20.1602H118.984C118.766 18.8203 117.918 18.0273 116.715 18.0273ZM126.914 16.6602C129.074 16.6602 130.496 18.3281 130.496 20.8984C130.496 23.4141 129.02 25.1367 126.914 25.1367C125.793 25.1367 124.836 24.6992 124.207 23.9062V27.7344H122.566V16.7969H123.988L124.098 18.1094C124.754 17.1797 125.738 16.6602 126.914 16.6602ZM126.477 23.7422C127.898 23.7422 128.828 22.6211 128.828 20.8984C128.828 19.1758 127.898 18.0547 126.477 18.0547C125.027 18.0547 124.098 19.1758 124.098 20.8984C124.098 22.6211 125.027 23.7422 126.477 23.7422ZM135.965 25.1367C133.531 25.1367 131.863 23.4141 131.863 20.8984C131.863 18.3828 133.531 16.6602 135.965 16.6602C137.742 16.6602 139.164 17.5625 139.629 19.1211L138.07 19.6133C137.715 18.6562 136.977 18.0547 135.965 18.0547C134.461 18.0547 133.531 19.1758 133.531 20.8984C133.531 22.6211 134.461 23.7422 135.965 23.7422C136.977 23.7422 137.742 23.1406 138.07 22.1836L139.629 22.6758C139.164 24.2344 137.715 25.1367 135.965 25.1367ZM147.75 16.7969V18.2734H144.797V25H143.156V18.2734H140.203V16.7969H147.75ZM154.723 20.7891C155.625 21.1172 156.117 21.7734 156.117 22.7852C156.117 24.2344 155.051 25 153.273 25H149.309V16.7969H152.973C154.777 16.7969 155.898 17.4531 155.898 18.9297C155.898 19.832 155.461 20.4609 154.723 20.7891ZM150.867 18.082V20.1875H152.973C153.875 20.1875 154.285 19.8867 154.285 19.1211C154.285 18.4648 153.82 18.082 153.055 18.082H150.867ZM153.109 23.6875C153.957 23.6875 154.477 23.25 154.477 22.5664C154.477 21.8555 153.93 21.418 153.027 21.418H150.867V23.6875H153.109ZM161.641 25.1367C159.125 25.1367 157.484 23.4688 157.484 20.8984C157.484 18.3828 159.18 16.6602 161.641 16.6602C164.156 16.6602 165.797 18.3281 165.797 20.8984C165.797 23.4141 164.102 25.1367 161.641 25.1367ZM161.641 23.7422C163.145 23.7422 164.129 22.6211 164.129 20.8984C164.129 19.1758 163.145 18.0547 161.641 18.0547C160.137 18.0547 159.152 19.1758 159.152 20.8984C159.152 22.6211 160.137 23.7422 161.641 23.7422ZM70.1484 41.6953C71.1055 42.1328 71.6523 43.0078 71.6523 44.1562C71.6523 45.8789 70.3945 47 68.3438 47H63.5586V36.6094H68.207C70.2031 36.6094 71.4609 37.7031 71.4609 39.3711C71.4609 40.4102 70.9688 41.2031 70.1484 41.6953ZM67.9609 38.0859H65.2266V40.957H67.9609C69.1641 40.957 69.7656 40.4922 69.7656 39.5078C69.7656 38.5508 69.1641 38.0859 67.9609 38.0859ZM67.9883 45.5234C69.3008 45.5234 69.9297 45.0312 69.9297 43.9648C69.9297 42.9258 69.3008 42.4062 67.9883 42.4062H65.2266V45.5234H67.9883ZM73.7578 37.6484V36.0078H75.5625V37.6484H73.7578ZM73.8398 47V38.7969H75.4805V47H73.8398ZM85.2969 45.5234H86.3906V48.9141H84.832V47H78.9258V48.9141H77.3672V45.5234H78.3242C78.4883 44.8672 78.5703 43.8008 78.5703 42.2148V38.7969H85.2969V45.5234ZM79.9102 45.5508H83.6836V40.2461H80.1562V42.2969C80.1562 43.6094 80.0742 44.7305 79.9102 45.5508ZM93.8281 38.7969H95.4688V47H93.8281V43.582H89.8359V47H88.1953V38.7969H89.8359V42.0508H93.8281V38.7969ZM101.594 47.1367C99.0781 47.1367 97.4375 45.4688 97.4375 42.8984C97.4375 40.3828 99.1328 38.6602 101.594 38.6602C104.109 38.6602 105.75 40.3281 105.75 42.8984C105.75 45.4141 104.055 47.1367 101.594 47.1367ZM101.594 45.7422C103.098 45.7422 104.082 44.6211 104.082 42.8984C104.082 41.1758 103.098 40.0547 101.594 40.0547C100.09 40.0547 99.1055 41.1758 99.1055 42.8984C99.1055 44.6211 100.09 45.7422 101.594 45.7422ZM113.133 42.7891C114.035 43.1172 114.527 43.7734 114.527 44.7852C114.527 46.2344 113.461 47 111.684 47H107.719V38.7969H111.383C113.188 38.7969 114.309 39.4531 114.309 40.9297C114.309 41.832 113.871 42.4609 113.133 42.7891ZM109.277 40.082V42.1875H111.383C112.285 42.1875 112.695 41.8867 112.695 41.1211C112.695 40.4648 112.23 40.082 111.465 40.082H109.277ZM111.52 45.6875C112.367 45.6875 112.887 45.25 112.887 44.5664C112.887 43.8555 112.34 43.418 111.438 43.418H109.277V45.6875H111.52ZM123.633 38.7969V47H121.992V40.2734H118.602V43.2266C118.602 46.1797 117.973 47.0547 116.387 47.0547C116.086 47.0547 115.812 47.0273 115.621 47V45.4961H116.059C116.77 45.4961 116.988 45.332 116.988 43.0352V38.7969H123.633ZM127.242 43.418C127.434 44.8398 128.336 45.7422 129.785 45.7422C130.988 45.7422 131.754 45.2773 132.219 44.6758L133.34 45.6602C132.656 46.4805 131.535 47.1367 129.812 47.1367C127.078 47.1367 125.602 45.332 125.602 42.8984C125.602 40.3828 127.242 38.6602 129.676 38.6602C132.055 38.6602 133.613 40.3281 133.613 42.8984C133.613 43.0898 133.613 43.2266 133.559 43.418H127.242ZM129.676 40.0273C128.363 40.0273 127.516 40.8477 127.27 42.1602H131.945C131.727 40.8203 130.879 40.0273 129.676 40.0273ZM141.16 38.7969H142.801V47H141.16V43.582H137.168V47H135.527V38.7969H137.168V42.0508H141.16V38.7969ZM151.004 38.7969H152.645V47H151.004V43.582H147.012V47H145.371V38.7969H147.012V42.0508H151.004V38.7969ZM161.723 38.7969V47H160.082V43.9375H156.883V45.4688C156.883 46.4805 156.309 47 155.297 47H154.559V45.5508H154.859C155.105 45.5508 155.27 45.3867 155.27 45.1406V43.1992H156.582C155.652 42.8711 154.969 42.1328 154.969 41.1758C154.969 39.7539 156.062 38.7969 157.785 38.7969H161.723ZM158.168 40.1094C157.184 40.1094 156.609 40.6016 156.609 41.3672C156.609 42.1328 157.266 42.6523 158.305 42.6523H160.082V40.1094H158.168Z" fill="white"/>
</svg>
