<svg width="228" height="180" viewBox="0 0 228 180" fill="none" xmlns="http://www.w3.org/2000/svg">
<path d="M172.982 1.90122C173.102 1.74839 173.323 1.7213 173.476 1.84058C173.626 1.95681 173.658 2.17034 173.548 2.3248L173.323 2.64132C173.085 2.97587 173.156 3.43883 173.484 3.6863L175.655 5.32731C176.084 5.6513 176.422 6.07981 176.638 6.57188C177.018 7.4369 177.766 8.08534 178.676 8.33772L184.657 9.99578C185.255 10.1616 185.7 10.6621 185.796 11.2753L185.831 11.5029C185.939 12.1951 185.493 12.8526 184.81 13.008L183.776 13.2432C183.206 13.3727 183.001 14.078 183.412 14.493C183.662 14.7451 183.699 15.1384 183.501 15.4328L183.294 15.7388C182.997 16.181 183.028 16.767 183.371 17.1749L186.323 20.6841C186.463 20.8508 186.678 20.9344 186.894 20.9058C187.128 20.8748 187.326 20.717 187.408 20.4957L187.594 19.9949C187.777 19.5037 188.382 19.3284 188.799 19.6462C189.029 19.8217 189.143 20.11 189.095 20.3954L189.086 20.4534C189.011 20.897 189.314 21.3157 189.759 21.3842C190.097 21.4365 190.366 21.6968 190.429 22.0337L191.051 25.3601C191.218 26.2552 191.754 27.0388 192.527 27.5194L193.322 28.0132C194.029 28.4522 194.377 29.293 194.187 30.103L193.984 30.9729C193.944 31.1433 194.002 31.3217 194.135 31.4357L194.312 31.5874C194.5 31.7488 194.448 32.0523 194.218 32.1429C194.108 32.1861 194.029 32.2849 194.012 32.4018L193.799 33.8761C193.747 34.2369 193.858 34.6021 194.103 34.8724C194.623 35.4471 194.484 36.3544 193.817 36.7478L193.367 37.0128C193.091 37.1754 192.738 37.1143 192.533 36.8685C192.297 36.5854 191.873 36.5536 191.597 36.7982L191.505 36.8795C191.195 37.1545 191.157 37.6253 191.419 37.9466L194.906 42.22C195.095 42.451 195.242 42.7125 195.342 42.9933L195.534 43.53C195.878 44.4921 196.896 45.0364 197.887 44.7884C198.928 44.5278 199.99 45.1527 200.283 46.1852C200.5 46.9537 201.155 47.5276 201.947 47.6346L202.214 47.6707C202.933 47.7679 203.57 48.1826 203.95 48.8006L204.092 49.0319C204.373 49.4888 204.525 50.0129 204.534 50.5492L204.543 51.1278C204.578 53.2801 205.96 55.1791 207.998 55.8741L209.631 56.4311C210.288 56.6554 210.864 57.0713 211.283 57.6254L211.829 58.3457C211.974 58.5373 212.182 58.6714 212.417 58.724L212.705 58.7886C213.233 58.907 213.493 59.5037 213.222 59.9713C213.108 60.167 213.082 60.4018 213.151 60.6174L213.917 63.0064C214.013 63.3056 213.934 63.6334 213.713 63.8563C213.343 64.2288 213.4 64.8452 213.833 65.1428L216.552 67.0152C216.785 67.1756 216.815 67.5084 216.614 67.7074C216.526 67.7945 216.478 67.914 216.48 68.0378L216.534 70.512C216.561 71.7799 216.054 73.0008 215.136 73.8758L214.379 74.5974C214.065 74.897 213.651 75.0704 213.218 75.0848C212.289 75.1156 211.543 75.8596 211.509 76.7881L211.404 79.6884C211.393 79.9775 211.255 80.2472 211.027 80.4253C210.494 80.8421 210.534 81.6617 211.105 82.0249L211.323 82.1634C211.696 82.4005 211.902 82.8289 211.855 83.2685L211.74 84.3457C211.694 84.7673 211.787 85.1923 212.004 85.5566L212.105 85.7261C212.409 86.2368 212.968 86.5406 213.562 86.5183C213.932 86.5043 214.295 86.617 214.592 86.8376L215.205 87.2926C215.512 87.521 215.707 87.8702 215.74 88.2518C215.81 89.0496 215.168 89.7292 214.367 89.7055L211.037 89.607C210.364 89.5871 209.705 89.4096 209.114 89.0889L207.143 88.0208C206.411 87.6245 205.61 87.3736 204.784 87.2819L202.88 87.0706C202.455 87.0235 202.066 86.8148 201.791 86.4879C200.991 85.535 199.466 85.7678 198.987 86.9159L198.113 89.0105C198.011 89.2565 197.854 89.476 197.654 89.6526L197.037 90.1995C196.908 90.3131 196.856 90.49 196.902 90.6551L196.909 90.6806C196.956 90.8494 197.106 90.9696 197.281 90.9798C197.593 90.998 197.771 91.3455 197.603 91.6097L197.449 91.852C197.29 92.1016 197.345 92.4308 197.577 92.6154L199.424 94.0893C199.736 94.3383 200.092 94.5269 200.473 94.6455L201.812 95.0617C202.38 95.2382 202.883 95.5791 203.257 96.0413C203.595 96.4594 204.039 96.779 204.543 96.9669L204.954 97.1201C205.392 97.2834 205.759 97.5947 205.992 97.9999L206.576 99.0173C206.822 99.4443 207.372 99.5831 207.79 99.3235C208.096 99.134 208.486 99.1517 208.774 99.368L209.337 99.7925C209.779 100.126 210.346 100.25 210.887 100.131L213.28 99.6075C213.915 99.4684 214.578 99.5226 215.182 99.7632L215.555 99.9114C215.905 100.051 216.207 100.291 216.423 100.601C216.965 101.38 217.994 101.648 218.847 101.232L220.569 100.393C220.851 100.256 221.165 100.199 221.476 100.23L222.26 100.307C223 100.38 223.461 101.146 223.177 101.833C223.113 101.989 223.014 102.128 222.888 102.24L218.64 106.011C218.279 106.331 217.991 106.726 217.796 107.168L217.559 107.708C217.237 108.439 217.318 109.284 217.772 109.941C218.058 110.354 218.471 110.663 218.949 110.819L225.083 112.822C225.73 113.033 226.165 113.639 226.159 114.32C226.153 114.946 225.774 115.508 225.196 115.747L221.89 117.117C221.45 117.299 221.372 117.89 221.75 118.18C221.866 118.268 221.946 118.394 221.978 118.536L222.696 121.738C222.761 122.026 222.717 122.328 222.572 122.586C222.219 123.212 222.495 124.005 223.16 124.278L224.602 124.87C224.735 124.924 224.828 125.045 224.846 125.188C224.874 125.41 224.714 125.611 224.491 125.634L223.502 125.734C223.215 125.763 222.994 126.002 222.988 126.291C222.983 126.558 222.793 126.786 222.531 126.839L216.042 128.162C215.701 128.232 215.369 128.012 215.299 127.672C215.233 127.355 214.938 127.139 214.616 127.173L213.409 127.3C213.163 127.326 212.934 127.17 212.868 126.931C212.815 126.738 212.652 126.594 212.454 126.565L212.117 126.516C211.724 126.458 211.336 126.643 211.133 126.984L211.104 127.034C210.953 127.288 210.941 127.601 211.071 127.865C211.346 128.424 210.965 129.082 210.344 129.122L207.159 129.326C206.978 129.338 206.817 129.214 206.781 129.037C206.727 128.768 206.406 128.655 206.195 128.83L205.646 129.287C205.337 129.545 204.872 129.476 204.651 129.14C204.567 129.012 204.442 128.916 204.296 128.869L203.683 128.669C203.006 128.449 202.345 129.045 202.494 129.74L202.504 129.784C202.619 130.32 202.223 130.831 201.675 130.854C201.243 130.873 200.86 130.576 200.771 130.153L199.542 124.358C199.443 123.892 198.942 123.634 198.506 123.825C198.075 124.013 197.578 123.762 197.473 123.303L197.209 122.145C197.185 122.038 197.216 121.927 197.292 121.848C197.459 121.676 197.386 121.388 197.158 121.315L196.463 121.095C196.296 121.042 196.157 120.922 196.08 120.763C195.86 120.31 195.227 120.275 194.959 120.702L194.533 121.381C194.307 121.742 193.89 121.937 193.467 121.879L191.52 121.614C191.397 121.598 191.278 121.557 191.171 121.494C190.783 121.269 190.606 120.803 190.745 120.377L190.797 120.218C190.87 119.995 190.874 119.755 190.807 119.53L190.406 118.173C190.338 117.943 190.098 117.812 189.868 117.878C189.624 117.948 189.372 117.795 189.322 117.546L189.3 117.439C189.241 117.148 188.957 116.96 188.666 117.02L186.005 117.571C185.792 117.615 185.572 117.539 185.432 117.372L184.956 116.806C184.845 116.673 184.63 116.722 184.588 116.89C184.564 116.982 184.483 117.048 184.387 117.05L183.888 117.063C183.43 117.075 183.059 117.44 183.039 117.898L183.033 118.04C183.011 118.568 182.59 118.992 182.063 119.019L182.017 119.022C181.505 119.048 181.083 119.433 181.009 119.941L180.288 124.927C180.199 125.543 179.527 125.886 178.976 125.596C178.454 125.321 177.813 125.614 177.678 126.188L177.557 126.705C177.447 127.171 177.093 127.54 176.633 127.67L175.12 128.094C174.707 128.21 174.413 128.574 174.385 129.002C174.363 129.348 174.521 129.681 174.802 129.884L175.07 130.078C175.503 130.391 175.753 130.899 175.735 131.434L175.696 132.624C175.688 132.879 175.574 133.119 175.383 133.288C175.224 133.428 175.022 133.509 174.81 133.519L172.828 133.604C172.594 133.614 172.381 133.743 172.264 133.947L172.182 134.089C172.069 134.287 171.832 134.378 171.615 134.307C171.388 134.233 171.249 134.004 171.289 133.768L171.312 133.633C171.38 133.237 171.069 132.877 170.667 132.885L169.228 132.915C168.86 132.923 168.501 132.792 168.224 132.548C167.606 132.005 166.663 132.073 166.129 132.699L165.991 132.861C165.742 133.153 165.4 133.351 165.023 133.423L161.888 134.017C161.667 134.059 161.467 134.175 161.32 134.346L160.813 134.935C160.378 135.44 159.549 135.125 159.56 134.458C159.565 134.192 159.42 133.945 159.186 133.818L155.001 131.565C154.737 131.422 154.444 131.339 154.145 131.321L153.816 131.3C153.515 131.282 153.23 131.152 153.019 130.936L152.592 130.499C152.265 130.165 151.712 130.22 151.457 130.612C151.373 130.74 151.251 130.839 151.108 130.895L148.757 131.808C148.297 131.986 147.8 132.046 147.312 131.982L146.558 131.882C145.57 131.752 144.633 132.356 144.343 133.309C144.042 134.298 143.048 134.905 142.031 134.721L139.664 134.292C139.464 134.256 139.257 134.297 139.086 134.407L138.041 135.078C137.627 135.344 137.129 134.887 137.359 134.452C137.472 134.24 137.41 133.978 137.215 133.839L137.145 133.789C136.916 133.625 136.601 133.651 136.402 133.851L135.888 134.366C135.731 134.523 135.768 134.786 135.961 134.895C136.16 135.007 136.192 135.28 136.024 135.434L135.985 135.47C135.862 135.583 135.829 135.763 135.903 135.912L136.249 136.611C136.47 137.058 136.354 137.598 135.969 137.914L135.534 138.272C135.322 138.446 135.29 138.758 135.461 138.972C135.591 139.134 135.608 139.359 135.503 139.538L134.789 140.755C134.694 140.917 134.721 141.124 134.855 141.256C135.047 141.444 135.009 141.763 134.779 141.902L133.573 142.629C133.236 142.833 133.025 143.194 133.013 143.588C133 144.037 132.729 144.437 132.318 144.617L128.187 146.423C127.985 146.511 127.796 146.628 127.628 146.771L126.38 147.826C126.116 148.05 126.082 148.445 126.304 148.711L126.416 148.845C126.531 148.983 126.54 149.179 126.438 149.327C126.319 149.5 126.085 149.551 125.905 149.443L125.795 149.377C125.505 149.203 125.136 149.412 125.136 149.751C125.136 149.885 125.074 150.011 124.968 150.094L124.099 150.774C123.981 150.866 123.81 150.771 123.826 150.622C123.847 150.436 123.595 150.359 123.508 150.525L123.1 151.303C123.01 151.474 122.795 151.535 122.629 151.435L121.861 150.973C121.563 150.793 121.177 150.972 121.121 151.316C121.083 151.548 120.887 151.721 120.652 151.729L120.144 151.746C119.694 151.762 119.279 151.505 119.093 151.094L118.72 150.273C118.333 149.419 117.381 148.974 116.476 149.225L115.93 149.376C115.317 149.546 114.673 149.233 114.427 148.646C114.255 148.233 113.878 147.943 113.435 147.881L112.494 147.751C112.066 147.692 111.644 147.896 111.425 148.268C111.194 148.661 110.741 148.864 110.294 148.775L109.656 148.648C109.086 148.535 108.504 148.772 108.176 149.25L107.658 150.007C107.505 150.229 107.204 150.291 106.976 150.146C106.76 150.009 106.476 150.057 106.316 150.257L106.05 150.591C105.962 150.701 105.801 150.718 105.693 150.628C105.567 150.525 105.377 150.566 105.306 150.713L105.125 151.087C104.966 151.413 104.55 151.515 104.259 151.299L103.721 150.9C103.531 150.759 103.26 150.813 103.138 151.016C103.037 151.185 102.827 151.256 102.644 151.181L102.095 150.958C101.859 150.862 101.664 150.687 101.544 150.462L100.98 149.409C100.856 149.178 100.576 149.081 100.335 149.185C100.184 149.25 100.011 149.238 99.8706 149.152L98.9877 148.608C98.6751 148.416 98.298 148.358 97.942 148.448L97.4704 148.566C97.2135 148.631 96.9431 148.532 96.7884 148.317C96.6481 148.122 96.4109 148.021 96.173 148.055L94.9979 148.222C94.6204 148.276 94.2394 148.151 93.9665 147.885L93.6681 147.594C93.594 147.522 93.4914 147.486 93.3885 147.498C93.1914 147.519 93.0528 147.702 93.0846 147.897L93.108 148.041C93.1587 148.353 92.9035 148.629 92.5892 148.602L90.5108 148.428C90.0913 148.393 89.7214 148.702 89.6802 149.12C89.6515 149.412 89.4595 149.663 89.185 149.766L89.0971 149.799C88.9456 149.856 88.7819 149.872 88.6223 149.846L85.9066 149.396C85.6395 149.352 85.3962 149.216 85.2184 149.012L84.5921 148.292C84.3251 147.985 83.8297 148.059 83.6643 148.431C83.5456 148.698 83.2412 148.827 82.9668 148.728L80.5884 147.868C80.3284 147.774 80.0442 147.926 79.9787 148.195C79.9314 148.389 79.7655 148.531 79.5666 148.548L78.8356 148.61C78.6446 148.626 78.4523 148.605 78.2692 148.549L77.534 148.321C76.5435 148.013 75.477 148.06 74.5169 148.452L72.3832 149.324C72.1741 149.409 72.0288 149.602 72.0048 149.827L71.9726 150.129C71.9471 150.368 71.7046 150.522 71.4771 150.442C71.2947 150.378 71.0936 150.463 71.0133 150.639L70.3233 152.148C70.2037 152.409 69.9368 152.571 69.6497 152.557C69.0099 152.524 68.6648 153.296 69.1154 153.751L69.7597 154.402C70.0237 154.669 70.1264 155.056 70.0296 155.418L69.7375 156.513C69.4752 157.495 68.7376 158.281 67.7734 158.605L67.2925 158.767C66.7852 158.937 66.3481 159.27 66.0485 159.713L65.726 160.191C65.199 160.971 65.3573 162.025 66.0904 162.615L67.0655 163.401C67.3256 163.611 67.3614 163.994 67.1447 164.248L67.0778 164.327C66.8992 164.536 66.9272 164.852 67.1399 165.026C67.2643 165.129 67.3308 165.285 67.3181 165.446L67.2704 166.047C67.2052 166.868 66.5436 167.515 65.7212 167.562L62.552 167.742C61.82 167.784 61.1053 167.51 60.5884 166.99C59.9526 166.351 59.0278 166.092 58.1527 166.309L57.9114 166.369C56.8286 166.638 55.9841 167.485 55.7184 168.568L55.6341 168.912C55.2869 170.328 54.1177 171.393 52.6758 171.607L51.6709 171.756C51.0858 171.843 50.5325 172.077 50.0635 172.438L50.0107 172.478C49.6258 172.774 49.1784 172.978 48.7027 173.075L46.844 173.452C46.3662 173.549 46.0312 173.981 46.0561 174.468C46.0783 174.902 45.8133 175.299 45.4039 175.446L44.4723 175.779C44.3687 175.816 44.2616 175.843 44.1528 175.859C43.7625 175.918 43.3639 175.839 43.0253 175.636L40.3448 174.031C39.956 173.798 39.4613 173.844 39.122 174.144C38.942 174.304 38.8228 174.52 38.7847 174.758L38.6626 175.518C38.5571 176.175 38.2492 176.782 37.7818 177.255L36.8097 178.239C36.4354 178.618 35.9109 178.809 35.3807 178.759C34.994 178.722 34.6299 178.56 34.3442 178.297L33.0172 177.075C32.2459 176.365 31.1915 176.047 30.1562 176.213L27.2971 176.673C26.7606 176.759 26.2714 176.351 26.2589 175.808C26.2492 175.386 26.536 175.014 26.9472 174.916L27.8165 174.709C28.3287 174.587 28.7141 174.163 28.7878 173.642L28.8854 172.953C28.899 172.856 28.8531 172.761 28.7691 172.711C28.5544 172.585 28.6494 172.256 28.8984 172.263L29.3954 172.279C29.6317 172.286 29.8133 172.071 29.7675 171.839L29.1499 168.715C28.9392 167.649 28.1515 166.79 27.1081 166.488L26.3065 166.256C25.8625 166.127 25.4828 165.837 25.2423 165.442L25.1323 165.261C24.9753 165.004 24.915 164.699 24.9621 164.4C25.0505 163.841 25.4974 163.408 26.0589 163.337L26.7182 163.253C27.2089 163.19 27.6089 162.829 27.7208 162.347L27.8927 161.606C27.9693 161.276 27.7293 160.957 27.3911 160.939C27.1336 160.926 26.9209 160.733 26.8817 160.478L26.8237 160.102C26.7645 159.717 26.4902 159.4 26.1179 159.286L25.2967 159.035C24.9181 158.92 24.6724 158.555 24.7082 158.16C24.7516 157.681 24.3832 157.265 23.9026 157.249L23.4852 157.235C23.1801 157.226 22.8895 157.103 22.67 156.89L20.3993 154.694C20.2864 154.585 20.1377 154.521 19.9808 154.513L19.6016 154.495C19.3283 154.482 19.154 154.197 19.2663 153.948C19.3419 153.78 19.2888 153.581 19.1391 153.474L18.9863 153.363C18.7441 153.189 18.661 152.866 18.7888 152.596L19.1703 151.79C19.2613 151.598 19.4401 151.462 19.6497 151.426C20.1178 151.345 20.3459 150.807 20.0791 150.414L19.2294 149.163C19.1453 149.039 19.1343 148.879 19.2006 148.745C19.3138 148.515 19.1951 148.239 18.9507 148.163L15.0777 146.962C13.6041 146.505 12.5418 145.217 12.3727 143.684L12.1016 141.225C12.0279 140.556 11.6492 139.959 11.0757 139.608C10.5726 139.299 10.2162 138.8 10.0884 138.224L9.67262 136.351C9.63956 136.202 9.56394 136.066 9.45494 135.959L9.43373 135.938C9.13579 135.646 9.1298 135.168 9.42033 134.869C9.77896 134.5 9.67261 133.888 9.21035 133.661L8.47544 133.301C8.21927 133.175 7.91805 133.181 7.66748 133.318C7.31913 133.508 6.88689 133.441 6.61224 133.154L5.1559 131.637C4.88721 131.357 4.85215 130.927 5.07196 130.607L5.14958 130.494C5.33009 130.231 5.29552 129.877 5.06764 129.654C4.84017 129.432 4.80526 129.078 4.98486 128.815L7.36592 125.334C7.52669 125.099 7.45488 124.777 7.20949 124.633C7.06439 124.547 6.97308 124.394 6.96744 124.225L6.95962 123.992C6.93834 123.357 6.29292 122.935 5.7028 123.171L5.12453 123.403C4.49625 123.654 3.77893 123.403 3.44461 122.814L1.86661 120.037C1.76075 119.851 1.84583 119.614 2.04604 119.538L2.11493 119.512C2.20898 119.476 2.27113 119.386 2.27113 119.285C2.27113 119.044 2.58488 118.95 2.71687 119.152L2.81841 119.308C2.95182 119.512 3.26049 119.478 3.34652 119.25L4.37923 116.511C4.56754 116.012 5.11583 115.747 5.62523 115.906C6.33617 116.128 7.03766 115.526 6.91809 114.791C6.83631 114.288 7.14491 113.804 7.63523 113.666L9.81743 113.051C10.1152 112.967 10.313 112.686 10.2911 112.377L10.2833 112.267C10.2634 111.988 10.0309 111.772 9.75084 111.772C9.5482 111.772 9.36304 111.657 9.27285 111.475L9.06044 111.048C8.93967 110.805 8.89772 110.53 8.94044 110.262L9.68146 105.614C9.7213 105.364 9.67193 105.108 9.542 104.891L8.86072 103.752C8.63583 103.376 8.9676 102.913 9.39584 103.005C9.58355 103.045 9.77779 102.975 9.89594 102.823L10.0491 102.627C10.2325 102.392 10.5341 102.283 10.8254 102.345C11.3149 102.451 11.579 102.984 11.3657 103.437L11.1982 103.793C11.1203 103.958 10.9769 104.084 10.8025 104.139C10.3404 104.286 10.1908 104.866 10.524 105.218L11.7438 106.507C12.1582 106.945 12.7671 107.142 13.3595 107.029L15.3478 106.653C15.5984 106.605 15.8529 106.712 15.9942 106.924C16.1635 107.179 16.4901 107.276 16.7713 107.157L18.3476 106.484C18.5056 106.417 18.678 106.39 18.849 106.407L19.591 106.48C20.024 106.523 20.3461 106.088 20.1797 105.686C20.0512 105.376 20.2141 105.022 20.5334 104.918L21.0606 104.746C21.3274 104.659 21.5503 104.473 21.6829 104.225L23.5103 100.817C23.6963 100.47 24.0009 100.202 24.3684 100.061C25.019 99.8114 25.4409 99.178 25.4205 98.4814L25.3915 97.4921C25.3798 97.0956 25.2906 96.7053 25.1289 96.3431L24.6275 95.2205C24.5491 95.0451 24.5408 94.8464 24.6042 94.665L24.6595 94.507C24.7809 94.1597 25.181 93.9995 25.5086 94.167C25.6428 94.2356 25.7977 94.2519 25.9432 94.2126L27.424 93.8125C27.9805 93.6621 28.4723 93.3332 28.8238 92.8763L29.01 92.6343C29.2575 92.3125 29.6081 92.0856 30.003 91.9915C30.2915 91.9227 30.5926 91.9275 30.8788 92.0055L31.3698 92.1392C32.7131 92.505 33.7448 93.5823 34.0522 94.9402L34.3045 96.0549C34.3545 96.2756 34.4579 96.4808 34.6057 96.6522L34.9454 97.0464C35.3646 97.5329 36.1305 97.4919 36.4954 96.9635C36.6983 96.6697 36.7255 96.2889 36.5665 95.9693L36.4107 95.6561C36.1308 95.0936 36.3811 94.4114 36.9584 94.1634L37.0606 94.1195C37.2339 94.045 37.3749 93.9113 37.4584 93.7422L38.1403 92.361C38.2462 92.1465 38.5631 92.1853 38.6142 92.419C38.6414 92.5437 38.7574 92.6286 38.8846 92.6168L40.1048 92.5038C41.1669 92.4055 42.0384 93.3316 41.8758 94.3857L41.74 95.2656C41.5451 96.5292 42.4032 97.7145 43.6646 97.9238L52.3317 99.3618C52.856 99.4488 53.2553 99.8793 53.3026 100.409L53.3576 101.025C53.373 101.198 53.5041 101.338 53.6753 101.364C53.8655 101.393 54.0472 101.274 54.0963 101.088L55.5552 95.5585C55.6485 95.2048 55.9255 94.9292 56.2795 94.8375C56.7629 94.7125 57.0826 94.2533 57.0322 93.7566L56.9683 93.1266C56.9158 92.6095 57.2413 92.1292 57.7409 91.9863C58.1891 91.8581 58.5034 91.4552 58.5185 90.9893L58.5276 90.7078C58.5438 90.2074 58.8155 89.7502 59.2472 89.4967L59.4456 89.3802C60.2363 88.9159 61.2467 89.0908 61.8352 89.7939L63.4936 91.775C63.7673 92.102 64.1719 92.2909 64.5984 92.2909C65.0174 92.2909 65.4157 92.1085 65.6894 91.7912L67.1915 90.0498C67.377 89.8347 67.6765 89.7573 67.9431 89.8554C68.2108 89.954 68.5115 89.8755 68.6968 89.6586L69.0969 89.1904C69.6052 88.5955 70.4746 88.4671 71.1331 88.8896L71.5614 89.1644C71.9029 89.3835 72.2995 89.5014 72.7052 89.5046L73.3261 89.5095C74.1121 89.5157 74.8813 89.7373 75.5502 90.1502L77.3915 91.287C77.9995 91.6624 78.7848 91.5773 79.2983 91.0804C79.593 90.7953 79.9879 90.6374 80.3979 90.6409L81.2471 90.6481C81.7482 90.6524 82.2366 90.4908 82.6363 90.1884C83.0601 89.8678 83.5829 89.706 84.1137 89.7312L87.0528 89.8707C87.5049 89.8921 87.9488 89.7449 88.2984 89.4576L88.4622 89.323C88.7577 89.0802 89.1425 88.9741 89.5208 89.0313C90.1422 89.1252 90.7462 88.7778 90.9775 88.1934L91.3357 87.2883C91.4055 87.1118 91.574 86.994 91.7637 86.989C92.0009 86.9827 92.1968 86.802 92.2223 86.5662L92.4329 84.6166C92.4502 84.4558 92.3882 84.2966 92.2666 84.1899C91.947 83.9097 92.1044 83.3835 92.5254 83.3248L95.9415 82.8486C96.3381 82.7933 96.6975 82.5854 96.9431 82.269C97.1774 81.9671 97.2909 81.5888 97.2613 81.2077L97.2337 80.8522C97.203 80.4585 97.3192 80.0673 97.5598 79.7541L98.5849 78.4195C98.7142 78.2512 98.9683 78.2526 99.0957 78.4222C99.2991 78.6928 99.7286 78.5048 99.6677 78.1718L99.6604 78.1321C99.6311 77.9719 99.7229 77.8142 99.8768 77.7607L100.811 77.4359C101.004 77.3687 101.181 77.2621 101.332 77.1231L101.865 76.6292C102.742 75.8175 103.296 74.7165 103.426 73.5287L103.655 71.4338C103.704 70.9851 103.861 70.5552 104.114 70.1813L104.411 69.7433C104.493 69.6214 104.607 69.5237 104.74 69.4604L104.834 69.4154C105.092 69.2925 105.399 69.3444 105.603 69.5452L105.881 69.8207C106.102 70.0393 106.476 69.9554 106.582 69.6631L106.632 69.5275C106.67 69.4208 106.778 69.3548 106.89 69.3683C107.084 69.3914 107.226 69.189 107.137 69.0148L106.57 67.8956C106.502 67.7621 106.53 67.5998 106.638 67.4965C106.843 67.3014 106.733 66.9561 106.453 66.9151L106.262 66.887C106.024 66.8521 105.86 66.6296 105.896 66.3916L106.109 65.0188C106.151 64.7497 106.253 64.4934 106.407 64.2691L110.715 58.0127C110.82 57.8606 110.864 57.6749 110.839 57.4919L110.745 56.8055C110.706 56.5252 110.992 56.3125 111.249 56.4299C111.433 56.5137 111.65 56.4294 111.729 56.2435L111.767 56.1548C111.858 55.9393 111.77 55.6895 111.564 55.5787L111.154 55.3584C110.766 55.1501 110.569 54.7052 110.675 54.2779L111.136 52.4171C111.178 52.2494 111.284 52.105 111.432 52.0151C111.715 51.8425 111.825 51.4854 111.687 51.1835L111.296 50.3257C111.143 49.9889 111.102 49.6115 111.18 49.2498L111.384 48.3076C111.507 47.7417 111.293 47.1559 110.836 46.8016C110.272 46.3658 110.092 45.5943 110.405 44.9543L111.579 42.5501C111.79 42.1178 111.824 41.6203 111.675 41.1632L111.665 41.1319C111.405 40.3377 111.723 39.4688 112.434 39.0304L113.046 38.6534C113.354 38.4634 113.75 38.4955 114.024 38.7326C114.379 39.0405 114.919 38.9915 115.213 38.6246L116.339 37.2212C116.662 36.8176 117.101 36.5215 117.596 36.3719L122.208 34.9779C122.469 34.8989 122.667 34.6843 122.724 34.4175C122.768 34.2144 122.726 34.0023 122.607 33.8317L121.131 31.7051C121.004 31.5229 120.819 31.3896 120.606 31.3274L120.358 31.2552C120.111 31.1831 119.936 30.9625 119.923 30.7053L119.919 30.623C119.91 30.4627 119.986 30.3096 120.119 30.2192C120.406 30.0238 120.381 29.5928 120.073 29.4321L118.344 28.5298C118.259 28.485 118.157 28.4813 118.068 28.5197C117.751 28.657 117.471 28.2638 117.704 28.0084L117.852 27.8468C118.051 27.6288 117.919 27.2768 117.625 27.2436C117.384 27.2163 117.237 26.9626 117.335 26.7396L117.559 26.2264C117.673 25.9653 117.921 25.788 118.205 25.7645L122.517 25.4084C123.062 25.3634 123.611 25.388 124.15 25.4818L125.128 25.652C125.622 25.738 126.084 25.9551 126.466 26.2806L126.765 26.5356C126.941 26.6859 127.075 26.8798 127.153 27.098C127.259 27.3927 127.257 27.7152 127.148 28.0086L126.364 30.1134C126.033 31.0043 125.874 31.9502 125.897 32.9005L125.923 33.9997C125.937 34.5471 126.069 35.0849 126.312 35.5757L126.731 36.4223C126.973 36.9127 127.426 37.2659 127.961 37.3817L128.3 37.4551C128.67 37.5353 128.976 37.7939 129.118 38.1455L129.221 38.4015C129.359 38.7452 129.716 38.948 130.082 38.8908C130.493 38.8265 130.884 39.0891 130.98 39.4937L131.116 40.068C131.181 40.3422 131.458 40.5098 131.731 40.44C131.931 40.3889 132.08 40.221 132.106 40.0164L132.224 39.1013C132.332 38.2721 132.978 37.6157 133.805 37.4952L133.932 37.4768C134.622 37.3764 135.202 36.9071 135.444 36.2533L135.585 35.8709C135.707 35.5436 135.976 35.2934 136.311 35.1969L136.458 35.1548C136.703 35.0842 136.9 34.9005 136.987 34.6605C137.109 34.3277 137.434 34.1144 137.788 34.1366L137.896 34.1433C138.371 34.1731 138.749 34.5515 138.778 35.0261L138.89 36.8139C138.982 38.2847 140.137 39.4664 141.605 39.5917L143.084 39.718C144.759 39.8609 146.37 39.0481 147.251 37.617L148.188 36.0941C148.334 35.8563 148.584 35.7015 148.862 35.6767C149.336 35.6343 149.692 35.2236 149.666 34.748L149.619 33.8798C149.589 33.3263 149.818 32.7903 150.238 32.4292L150.813 31.935C151.205 31.5986 151.513 31.1756 151.713 30.6996L151.74 30.6338C152.339 29.206 153.779 28.3162 155.324 28.4188L157.158 28.5406C157.471 28.5613 157.744 28.7587 157.863 29.0491C158.131 29.7061 159.051 29.7358 159.361 29.0976L159.552 28.7041C159.654 28.4957 159.681 28.2589 159.629 28.033L159.25 26.3773C158.78 24.3264 159.722 22.2119 161.561 21.1899L162.695 20.5599C162.867 20.4644 163.066 20.4281 163.26 20.4566L163.581 20.5038C163.829 20.5401 164.066 20.3921 164.143 20.1539C164.235 19.8685 164.062 19.5658 163.77 19.4987L160.594 18.769C160.45 18.7359 160.3 18.7363 160.157 18.7701C159.529 18.9177 158.935 18.4213 158.969 17.7774L159.071 15.8618C159.116 15.0187 159.599 14.2608 160.345 13.8648L162.452 12.7459C162.955 12.4786 163.126 11.8399 162.822 11.3576L162.607 11.0156C162.494 10.8364 162.274 10.7568 162.073 10.8225C161.836 10.8998 161.58 10.7751 161.495 10.5408L161.39 10.2512C161.185 9.68481 161.704 9.12247 162.285 9.28232C162.62 9.37466 162.975 9.22145 163.138 8.91381L165.034 5.33156C165.102 5.20306 165.108 5.05075 165.051 4.91695C164.938 4.65065 165.083 4.34523 165.361 4.2646L165.841 4.12528C166.09 4.05307 166.358 4.08847 166.579 4.22289L167.104 4.5409C168.212 5.21321 169.656 4.84797 170.312 3.72958L170.757 2.96944C170.989 2.57316 171.433 2.35048 171.89 2.40094L172.148 2.42954C172.387 2.45594 172.623 2.35715 172.771 2.16826L172.982 1.90122Z" fill="#E0FC52" stroke="#1D1D1D" stroke-width="2" stroke-linecap="round" stroke-linejoin="round"/>
</svg>
