<svg width="208" height="214" viewBox="0 0 208 214" fill="none" xmlns="http://www.w3.org/2000/svg">
<path d="M186.038 1.45167C186.13 1.56336 186.28 1.61044 186.419 1.57189L186.693 1.49643C186.864 1.44914 187.047 1.45986 187.211 1.52693L192.974 3.87382C193.296 4.00513 193.659 3.9946 193.973 3.84484C194.254 3.71131 194.574 3.6879 194.87 3.77925L194.949 3.80351C195.429 3.95141 195.952 3.83999 196.33 3.50907L197.651 2.35314C197.993 2.05351 198.44 1.9009 198.894 1.92838C199.26 1.95054 199.61 2.08854 199.893 2.32242L200.671 2.96699C200.869 3.13045 200.959 3.39016 200.905 3.64082L200.9 3.66664C200.836 3.96487 200.986 4.26768 201.263 4.3968C201.576 4.54326 201.722 4.90833 201.595 5.23017L201.057 6.59233C200.939 6.89185 200.697 7.12581 200.394 7.23419L200.156 7.31922C199.671 7.49273 199.437 8.04326 199.648 8.51342L199.85 8.96263C199.954 9.19391 199.837 9.46461 199.598 9.54801L199.535 9.56994C199.276 9.66019 199.19 9.98387 199.371 10.1904C199.501 10.3391 199.498 10.5617 199.365 10.7071L199.023 11.0793C198.849 11.2687 198.759 11.5204 198.774 11.7771L198.801 12.2416C198.821 12.5915 198.726 12.9385 198.532 13.23L198.258 13.6399C198.173 13.7667 198.038 13.8508 197.887 13.8705C197.553 13.9139 197.344 14.2552 197.458 14.5726L197.648 15.1036C197.745 15.3762 197.718 15.678 197.572 15.9284L196.796 17.2654C196.637 17.5396 196.387 17.75 196.09 17.8609L195.213 18.1881C194.737 18.3655 194.587 18.9644 194.922 19.3457C195.177 19.6362 195.16 20.0762 194.882 20.3452L194.489 20.7251C194.186 21.0184 194.044 21.4409 194.109 21.8578L194.17 22.2515C194.208 22.4921 194.301 22.7207 194.442 22.919L195.415 24.2846C195.565 24.4954 195.462 24.7912 195.214 24.8635C195.079 24.9028 194.978 25.0136 194.95 25.1511L194.668 26.57C194.648 26.6709 194.717 26.7679 194.819 26.782L195.168 26.8302C195.313 26.8503 195.371 26.6497 195.238 26.5888C195.145 26.5459 195.138 26.415 195.227 26.3633L195.751 26.0597C195.872 25.9893 196.02 25.981 196.148 26.0375L200.415 27.9135C200.696 28.037 200.86 28.3335 200.814 28.6372C200.766 28.9633 200.958 29.2775 201.27 29.3828L201.819 29.5678C202.18 29.6897 202.475 29.9569 202.631 30.3051L202.916 30.9386C202.964 31.0457 202.966 31.1679 202.921 31.2762C202.785 31.6001 203.08 31.9392 203.419 31.8495L203.733 31.7668C203.842 31.7379 203.958 31.7415 204.065 31.7772L206.005 32.4211C206.102 32.4533 206.21 32.4313 206.286 32.3632C206.472 32.198 206.765 32.3311 206.763 32.5796L206.74 35.5845C206.733 36.4582 206.035 37.1694 205.162 37.1927L204.92 37.1992C204.687 37.2054 204.457 37.2552 204.242 37.3459L203.418 37.6937C202.446 38.104 201.319 37.7611 200.741 36.8787L200.42 36.3896C200.234 36.1063 199.923 35.9302 199.585 35.9167C199.309 35.9058 199.041 36.0038 198.837 36.1894L197.624 37.294C197.142 37.7332 196.509 37.968 195.857 37.949L194.946 37.9226C194.509 37.9098 194.105 38.1553 193.914 38.5494C193.635 39.1266 193.902 39.8194 194.495 40.0611L195.094 40.3051C195.347 40.4081 195.572 40.5699 195.75 40.7772L196.706 41.8913C197.639 42.9779 197.946 44.4684 197.519 45.8353L196.961 47.6241C196.763 48.256 196.185 48.6917 195.523 48.7069L195.466 48.7082C195.136 48.7158 194.814 48.6054 194.557 48.3968L194.506 48.3549C194.18 48.0897 193.744 48.0036 193.342 48.1253L193.183 48.1734C192.888 48.2626 192.655 48.4898 192.559 48.7823C192.406 49.2479 191.922 49.519 191.445 49.4064L190.905 49.2789C190.458 49.1734 189.991 49.3446 189.719 49.714C189.517 49.9868 189.205 50.1566 188.867 50.1776L187.973 50.2332C187.741 50.2476 187.571 50.4566 187.604 50.6865C187.636 50.9141 187.47 51.1218 187.241 51.1394L185.934 51.2397C185.207 51.2955 184.639 51.8912 184.617 52.6204C184.603 53.1049 184.344 53.549 183.929 53.7997L182.295 54.7871C181.445 55.3008 180.973 56.2639 181.089 57.2504L181.208 58.2702C181.242 58.5539 181.426 58.7973 181.69 58.9061C181.894 58.99 182.053 59.1554 182.129 59.362L182.182 59.5064C182.391 60.0745 182.118 60.7067 181.562 60.9447L181.426 61.0029C181.138 61.1259 180.905 61.3491 180.769 61.6311L179.741 63.7677C179.612 64.0365 179.328 64.195 179.031 64.1635L178.909 64.1506C178.729 64.1315 178.552 64.2119 178.449 64.3603L178.39 64.4439C178.224 64.6818 178.34 65.0128 178.618 65.0945C178.756 65.1348 178.864 65.2419 178.905 65.3792L179.433 67.128C179.6 67.6818 179.892 68.19 180.285 68.6141L180.559 68.9098C181.395 69.8103 181.907 70.9626 182.017 72.186L182.354 75.965C182.38 76.25 182.325 76.5365 182.197 76.7925L181.841 77.5053C181.593 78.0012 181.858 78.6003 182.391 78.751C182.755 78.8537 183.013 79.1761 183.033 79.5533L183.12 81.1438C183.159 81.861 183.445 82.5426 183.93 83.0731L185.401 84.6836C185.546 84.8424 185.739 84.9482 185.951 84.9845L186.537 85.0846C187.057 85.1733 187.263 85.8086 186.895 86.1858C186.768 86.3169 186.59 86.3884 186.407 86.3828L184.096 86.3127C183.759 86.3024 183.457 86.5203 183.36 86.8438C183.309 87.0117 183.32 87.1921 183.389 87.3531L183.97 88.6988C184.1 88.9996 184.328 89.2471 184.618 89.4004C185.022 89.6145 185.3 90.0083 185.368 90.461L185.461 91.0949C185.631 92.2418 185.051 93.3694 184.02 93.8984L183.061 94.3898C182.907 94.469 182.725 94.4753 182.565 94.4068C182.262 94.2765 181.91 94.4242 181.791 94.7322L181.629 95.1508C181.561 95.3266 181.543 95.5178 181.577 95.7031L181.664 96.1731C181.768 96.7325 181.618 97.3091 181.255 97.7473C181.035 98.0129 180.891 98.3329 180.837 98.6736L180.533 100.605C180.472 100.996 180.613 101.393 180.909 101.657L181.15 101.873C181.474 102.162 181.517 102.654 181.249 102.996L181.163 103.105C180.889 103.453 180.998 103.964 181.39 104.169C181.663 104.312 181.812 104.615 181.759 104.918L181.639 105.602C181.586 105.909 181.31 106.127 180.998 106.108C180.765 106.093 180.559 105.946 180.47 105.73L180.368 105.482C180.273 105.249 180.054 105.089 179.803 105.068L179.37 105.032C179.033 105.004 178.797 105.357 178.951 105.658C179.019 105.791 179.152 105.879 179.301 105.891L179.466 105.903C179.816 105.93 180.097 106.203 180.133 106.552L180.137 106.587C180.179 106.995 179.893 107.364 179.487 107.424L178.801 107.527C178.626 107.553 178.447 107.547 178.273 107.511L177.454 107.338C177.076 107.259 176.809 106.918 176.822 106.532C176.833 106.223 176.664 105.936 176.39 105.796L176.153 105.675C175.687 105.436 175.579 104.818 175.936 104.435L176.193 104.159C176.368 103.972 176.346 103.676 176.146 103.517C175.995 103.395 175.781 103.388 175.622 103.499L174.987 103.94C174.391 104.354 174.185 105.141 174.502 105.794L175.104 107.036C175.236 107.308 175.295 107.609 175.277 107.911L175.233 108.657C175.196 109.283 175.7 109.808 176.327 109.795C176.77 109.786 177.173 110.05 177.342 110.459L177.665 111.242C177.898 111.806 177.879 112.443 177.614 112.992L177.322 113.595C177.246 113.752 177.108 113.87 176.941 113.92L176.302 114.111C176.087 114.176 176.035 114.456 176.212 114.594L176.36 114.71C176.486 114.808 176.44 115.009 176.284 115.043C176.085 115.086 176.085 115.369 176.284 115.412L177.213 115.611C177.451 115.662 177.586 115.915 177.496 116.141L176.881 117.684C176.752 118.006 176.771 118.369 176.932 118.676C177.167 119.124 177.093 119.671 176.747 120.041L175.536 121.335C175.089 121.812 174.912 122.483 175.066 123.118L175.203 123.691C175.313 124.145 175.125 124.619 174.735 124.876C174.566 124.986 174.37 125.049 174.169 125.057L172.36 125.126C172.099 125.136 171.853 125.248 171.675 125.439L171.26 125.883C171.108 126.046 171.121 126.302 171.288 126.45C171.437 126.582 171.465 126.805 171.352 126.969L170.773 127.82C170.337 128.46 170.435 129.323 171.003 129.848L171.06 129.901C171.638 130.435 171.758 131.303 171.348 131.975L169.045 135.749C168.917 135.959 168.96 136.231 169.147 136.391L169.334 136.551C169.477 136.673 169.696 136.635 169.789 136.471C169.851 136.36 169.976 136.301 170.101 136.323L174.724 137.127C175.008 137.177 175.225 137.408 175.255 137.695C175.284 137.979 175.497 138.209 175.777 138.262L176.17 138.335C176.853 138.463 177.264 139.167 177.038 139.824L177.006 139.917C176.87 140.315 176.997 140.755 177.324 141.019C177.841 141.436 177.815 142.231 177.274 142.613L176.981 142.82C176.758 142.978 176.592 143.203 176.507 143.462L175.846 145.478C175.666 146.025 175.942 146.619 176.476 146.835L177.298 147.168C177.613 147.296 177.958 147.068 177.965 146.728C177.968 146.556 178.063 146.399 178.213 146.315L178.813 145.98C179.757 145.452 180.946 145.938 181.25 146.976L182.06 149.74C182.118 149.938 182.255 150.104 182.438 150.199C182.695 150.332 183.005 150.307 183.237 150.134L183.415 150.001C183.592 149.87 183.803 149.794 184.023 149.783L184.249 149.772C185.365 149.715 186.279 150.65 186.196 151.765L186.094 153.157C186.077 153.382 186.095 153.608 186.147 153.827L186.502 155.333C186.651 155.965 186.168 156.569 185.519 156.561C185.262 156.558 185.015 156.654 184.827 156.829L184.798 156.856C184.488 157.144 184.371 157.583 184.496 157.987L184.779 158.901C184.868 159.188 184.845 159.498 184.716 159.769L184.378 160.475C184.265 160.709 184.373 160.99 184.614 161.089C184.901 161.208 184.987 161.574 184.782 161.807L183.798 162.929C183.452 163.323 183.334 163.869 183.487 164.372L183.923 165.806C184.024 166.138 183.914 166.498 183.646 166.717C183.329 166.976 183.24 167.423 183.433 167.784L185.218 171.116C185.394 171.444 185.735 171.648 186.107 171.648H186.208C186.541 171.648 186.844 171.843 186.983 172.146C187.136 172.481 187.487 172.68 187.853 172.639L188.23 172.597C188.369 172.582 188.506 172.636 188.597 172.741C188.766 172.937 188.722 173.236 188.505 173.374L187.429 174.062C187.277 174.159 187.11 174.228 186.934 174.267L183.635 174.995C182.84 175.17 182.432 176.057 182.817 176.775C182.923 176.972 182.973 177.195 182.961 177.419L182.827 179.985C182.796 180.579 182.448 181.11 181.916 181.375L181.246 181.71C180.886 181.889 180.716 182.309 180.848 182.688C180.907 182.857 180.908 183.04 180.851 183.208L179.845 186.181C179.777 186.384 179.859 186.607 180.042 186.717C180.39 186.925 180.313 187.449 179.921 187.549L179.849 187.568C179.664 187.615 179.524 187.765 179.49 187.953L179.389 188.514C179.346 188.752 179.241 188.974 179.085 189.158L176.774 191.885C176.318 192.423 176.255 193.192 176.616 193.797C176.998 194.438 176.903 195.255 176.384 195.791L175.88 196.312C175.678 196.52 175.409 196.651 175.12 196.68C174.601 196.734 174.172 197.108 174.049 197.615L173.767 198.772C173.628 199.343 173.107 199.738 172.519 199.718L171.568 199.684C171.183 199.671 170.9 200.044 171.013 200.412C171.098 200.69 170.955 200.989 170.683 201.094C170.517 201.158 170.391 201.299 170.346 201.472L170.16 202.193C170.065 202.556 169.711 202.789 169.34 202.731C169.127 202.698 168.91 202.761 168.748 202.902L168.314 203.28C168.168 203.408 168.146 203.626 168.263 203.781C168.417 203.985 168.323 204.28 168.078 204.356L167.385 204.571C166.969 204.701 166.711 205.115 166.778 205.545L166.8 205.688C166.863 206.094 166.682 206.5 166.338 206.725L162.175 209.439C161.713 209.74 161.185 209.925 160.635 209.978L158.719 210.161C158.444 210.188 158.214 210.383 158.144 210.651L158.129 210.706C158.063 210.957 158.171 211.221 158.394 211.355L158.412 211.366C158.698 211.538 158.774 211.92 158.574 212.188C158.415 212.402 158.128 212.475 157.886 212.365L157.103 212.007C156.963 211.943 156.798 211.978 156.696 212.094C156.56 212.248 156.321 212.253 156.18 212.104L155.705 211.604C155.588 211.48 155.385 211.5 155.292 211.644L155.266 211.685C155.164 211.843 154.927 211.826 154.85 211.654C154.812 211.569 154.727 211.514 154.634 211.514H150.785C150.449 211.514 150.184 211.229 150.21 210.894C150.237 210.529 149.923 210.23 149.56 210.278L148.122 210.465C147.809 210.505 147.558 210.742 147.498 211.052C147.428 211.415 147.098 211.668 146.729 211.643L143.499 211.419C142.946 211.381 142.394 211.509 141.914 211.787C140.853 212.402 139.513 212.248 138.619 211.409L138.118 210.939C137.693 210.539 137.488 209.958 137.57 209.38C137.724 208.288 136.865 207.316 135.762 207.336L135.123 207.347C134.774 207.353 134.428 207.281 134.11 207.136L132.04 206.191C131.848 206.104 131.623 206.137 131.465 206.276C131.304 206.418 131.074 206.45 130.881 206.358L130.069 205.971C129.788 205.837 129.585 205.582 129.517 205.278C129.405 204.782 128.943 204.446 128.437 204.492L126.82 204.638C126.526 204.665 126.261 204.828 126.104 205.079L126.09 205.102C125.938 205.345 125.913 205.647 126.021 205.912C126.206 206.362 125.996 206.876 125.551 207.069L125.057 207.283C124.62 207.472 124.312 207.875 124.243 208.346L124.235 208.4C124.16 208.912 123.788 209.329 123.288 209.463L122.495 209.674C122.045 209.795 121.84 210.317 122.09 210.71C122.217 210.911 122.231 211.163 122.129 211.378L121.894 211.868C121.713 212.245 121.234 212.368 120.894 212.123L120.796 212.053C120.607 211.917 120.351 211.924 120.171 212.071C119.957 212.244 119.646 212.22 119.462 212.015L119.35 211.89C119.185 211.705 118.933 211.623 118.691 211.675L114.601 212.551C114.342 212.606 114.087 212.444 114.027 212.187C113.993 212.042 114.028 211.889 114.121 211.773L114.899 210.801C115.053 210.609 115.104 210.354 115.035 210.117C114.954 209.841 114.723 209.635 114.44 209.586L112.795 209.3C112.507 209.25 112.212 209.264 111.931 209.342L111.327 209.508C110.622 209.703 109.891 209.295 109.686 208.593L109.601 208.302C109.544 208.105 109.577 207.893 109.691 207.723C110.077 207.149 109.472 206.427 108.839 206.707L108.472 206.87C108.027 207.067 107.51 206.828 107.372 206.361L106.234 202.512C106.022 201.796 105.474 201.229 104.765 200.994L102.703 200.308C102.354 200.192 102.205 199.78 102.4 199.468L102.63 199.098C102.681 199.015 102.651 198.906 102.565 198.862C102.401 198.777 102.477 198.527 102.66 198.548L102.887 198.575C102.999 198.588 103.101 198.508 103.117 198.396L103.178 197.949C103.22 197.641 103.469 197.403 103.779 197.374L103.8 197.372C104.089 197.345 104.364 197.5 104.491 197.761L104.506 197.793C104.667 198.123 105.044 198.288 105.396 198.181L106.553 197.828C107.004 197.691 107.399 197.409 107.675 197.026L108.028 196.538C108.316 196.139 108.345 195.609 108.103 195.181L108.063 195.11C107.905 194.832 107.879 194.498 107.99 194.198C108.244 193.514 107.765 192.78 107.037 192.737L106.542 192.708L102.344 192.85C102.129 192.858 101.914 192.825 101.711 192.754C101.239 192.59 100.86 192.231 100.671 191.768L99.5265 188.967C99.1031 187.931 98.3056 187.092 97.2923 186.616L96.9454 186.454C96.4587 186.225 96.0414 185.872 95.7357 185.43L95.4403 185.002C94.8914 184.208 93.9045 183.841 92.9702 184.085L91.984 184.342C91.5651 184.451 91.2709 184.826 91.2651 185.259C91.259 185.717 90.9304 186.108 90.4799 186.191L90.4402 186.199C89.9118 186.297 89.5529 186.792 89.6233 187.325L89.7632 188.383C89.7978 188.645 89.6654 188.901 89.4314 189.024C89.2031 189.145 89.0709 189.392 89.0975 189.648L89.1201 189.866C89.1806 190.449 88.7067 190.948 88.1214 190.918L83.6313 190.689C83.1229 190.663 82.6268 190.851 82.2635 191.208L81.8148 191.648C81.6209 191.839 81.339 191.909 81.0782 191.832C80.6013 191.692 80.1225 192.047 80.1175 192.544L80.1117 193.121C80.1088 193.413 79.9987 193.693 79.8023 193.908L79.6536 194.071C79.2669 194.496 78.6981 194.705 78.1286 194.633L75.4661 194.298C75.1162 194.253 74.7638 194.358 74.4941 194.585C74.1128 194.907 73.5779 194.973 73.129 194.756L72.0668 194.24C71.8143 194.118 71.5106 194.229 71.3964 194.485C71.3149 194.668 71.1318 194.784 70.9319 194.779L70.0425 194.76C69.6915 194.752 69.3457 194.845 69.0461 195.028L66.3133 196.696C66.0519 196.856 65.7454 196.926 65.4407 196.895L65.3508 196.886C64.7847 196.828 64.3243 196.404 64.2203 195.845C64.1521 195.478 63.928 195.16 63.6062 194.972L62.3099 194.215C61.6374 193.823 60.7798 193.975 60.2826 194.574L59.6888 195.289C59.1131 195.983 57.9944 195.738 57.761 194.868C57.6666 194.515 57.4054 194.232 57.062 194.109L54.0307 193.026C53.6601 192.893 53.4162 192.538 53.4255 192.145L53.4426 191.429C53.4466 191.26 53.3012 191.125 53.1326 191.142C52.9911 191.157 52.8611 191.063 52.8295 190.925L52.7351 190.509C52.6667 190.208 52.4242 189.979 52.1204 189.926L49.3299 189.446C48.9673 189.384 48.7005 189.072 48.6951 188.704L48.6941 188.637C48.6886 188.265 48.3912 187.964 48.0194 187.953C47.6384 187.942 47.3373 187.626 47.3449 187.245L47.3509 186.942C47.3622 186.371 47.8487 185.926 48.4186 185.964L50.4542 186.103C50.6507 186.116 50.843 186.042 50.9789 185.899L51.0313 185.844C51.2264 185.64 51.2435 185.323 51.0717 185.099L51.0618 185.086C50.9198 184.901 50.9102 184.646 51.0377 184.45C51.1834 184.227 51.1482 183.931 50.9541 183.748L50.3654 183.194C49.8629 182.72 49.7433 181.967 50.0744 181.361L50.6312 180.342C50.8887 179.871 50.9943 179.331 50.9335 178.798L50.7881 177.521C50.7613 177.286 50.5996 177.087 50.3743 177.014L50.2614 176.977C50.0901 176.921 49.971 176.762 49.9626 176.582C49.9495 176.301 49.6722 176.104 49.4042 176.19C49.1344 176.278 48.856 176.083 48.8459 175.799L48.8123 174.853C48.7968 174.419 48.4598 174.066 48.0274 174.029L47.7688 174.007C47.4472 173.98 47.2064 173.701 47.2271 173.379C47.2414 173.156 47.1292 172.944 46.9368 172.83L45.1301 171.764C44.6092 171.457 44.3038 170.884 44.3387 170.28C44.3866 169.451 43.7976 168.721 42.977 168.592L42.055 168.447C41.5003 168.36 40.9574 168.661 40.7379 169.178C40.5476 169.626 40.1101 169.919 39.6233 169.924L33.3099 169.989C33.0972 169.992 32.8974 170.092 32.7683 170.261C32.5988 170.483 32.3119 170.581 32.0418 170.509L29.3557 169.793C29.1852 169.747 29.0298 169.658 28.9054 169.532L28.8136 169.44C28.5409 169.166 28.1156 169.116 27.7862 169.318C27.5673 169.452 27.4227 169.68 27.394 169.935L27.3437 170.383C27.2567 171.156 26.6715 171.78 25.9054 171.917L25.844 171.928C25.7367 171.947 25.6276 171.953 25.5189 171.945L24.9203 171.904C24.7004 171.889 24.515 171.735 24.4609 171.521L24.3998 171.28C24.3382 171.036 24.5471 170.81 24.7946 170.852C24.9989 170.887 25.1878 170.736 25.1994 170.529L25.2205 170.154C25.2318 169.954 25.3302 169.769 25.4897 169.648L27.2173 168.337L26.7224 168.694C25.342 169.688 23.5356 169.869 21.9859 169.167L21.05 168.744C20.6887 168.58 20.2832 168.542 19.898 168.636L18.934 168.872C18.4191 168.997 17.9096 168.647 17.8427 168.121C17.8192 167.936 17.8545 167.749 17.9434 167.585L18.3771 166.787C18.5605 166.45 18.5438 166.039 18.3334 165.717L17.986 165.186C17.7919 164.889 17.9273 164.489 18.2616 164.372C18.4318 164.312 18.6207 164.34 18.7662 164.446L18.7959 164.468C19.1613 164.736 19.6812 164.531 19.7656 164.086L19.7978 163.916C19.8291 163.75 19.9171 163.601 20.0467 163.493L20.2072 163.36C20.5705 163.058 20.7423 162.583 20.6566 162.118L20.2036 159.664C20.0541 158.855 19.5488 158.156 18.8272 157.76L18.3219 157.482C18.0931 157.357 17.915 157.156 17.8177 156.914C17.6838 156.58 17.3991 156.331 17.0511 156.241L16.0721 155.99C15.0612 155.731 14.2467 154.984 13.9009 153.999L13.0834 151.671C12.9347 151.248 12.7206 150.85 12.4489 150.492L12.3254 150.33C11.8457 149.698 11.582 148.929 11.5734 148.136L11.5631 147.188C11.5529 146.254 10.9763 145.42 10.1062 145.081L9.49266 144.841C9.11366 144.693 8.84178 144.355 8.7788 143.953C8.68763 143.372 8.16948 142.955 7.58176 142.99L4.21475 143.19C2.86807 143.27 1.68451 142.305 1.4919 140.97C1.42415 140.5 1.48648 140.021 1.67212 139.584L2.00359 138.805C2.21027 138.318 2.14248 137.759 1.82566 137.336L1.66327 137.119C1.1795 136.474 1.41612 135.546 2.15006 135.212L2.288 135.149C2.50093 135.051 2.66721 134.875 2.75108 134.656C2.85851 134.376 2.81833 134.061 2.64408 133.817L1.85679 132.714C1.48469 132.193 1.26668 131.578 1.22765 130.939L1.09347 128.742C1.07521 128.443 1.16295 128.147 1.34126 127.906C1.61919 127.531 2.08018 127.338 2.54261 127.403L3.40005 127.524C3.50935 127.539 3.62055 127.515 3.71371 127.456C4.02076 127.261 3.99415 126.804 3.66651 126.646L3.41302 126.524C3.0921 126.369 2.96715 125.976 3.13954 125.664L3.4304 125.138C3.66154 124.72 3.6201 124.204 3.32517 123.828L2.36126 122.6C2.16211 122.346 2.17956 121.984 2.40222 121.751C2.53985 121.606 2.73615 121.533 2.93462 121.553L4.66891 121.721C4.8837 121.742 5.09836 121.68 5.26945 121.549C5.4943 121.376 5.61822 121.102 5.5999 120.819L5.55151 120.072C5.53646 119.839 5.44299 119.619 5.28639 119.446C4.82307 118.936 4.98236 118.124 5.604 117.826L9.12072 116.144C9.34055 116.038 9.50516 115.845 9.57335 115.611L9.93822 114.359C9.99216 114.174 9.80804 114.008 9.62984 114.082L9.3975 114.178C9.23 114.247 9.08394 114.042 9.20356 113.906C9.27606 113.824 9.25329 113.695 9.15685 113.643L8.74302 113.417C8.41384 113.238 8.35789 112.789 8.63308 112.534L9.88604 111.375C10.0357 111.237 10.2093 111.127 10.3984 111.05L10.4769 111.019C11.3 110.686 11.6947 109.747 11.3561 108.926C11.1587 108.447 11.2053 107.903 11.4811 107.464L11.6199 107.244C12.0128 106.62 12.0501 105.835 11.7182 105.176L10.2349 102.233C9.97422 101.716 9.39042 101.447 8.82799 101.586L8.66478 101.626C8.34713 101.705 8.0115 101.613 7.77838 101.383C7.62891 101.236 7.53292 101.043 7.50563 100.835L7.45704 100.465C7.33311 99.5197 7.88391 98.616 8.78055 98.2931L9.66765 97.9736C9.85364 97.9066 9.98592 97.7405 10.0095 97.5442C10.035 97.3309 9.92748 97.1237 9.73832 97.0218L8.7696 96.5003C8.20115 96.1943 7.80151 95.6477 7.6823 95.0132L7.47366 93.9027C7.41686 93.6004 7.26334 93.3248 7.03623 93.1173C6.6542 92.7683 6.49248 92.239 6.61423 91.7361L7.205 89.2958C7.27642 89.0008 7.14426 88.6941 6.88078 88.5434C6.65806 88.416 6.38268 88.4244 6.16815 88.5652L5.95218 88.7069C5.41735 89.0578 4.69716 88.8817 4.38457 88.3236L3.83023 87.3339C3.73893 87.1709 3.69505 86.9856 3.70356 86.799L3.71536 86.5402C3.72493 86.3302 3.84942 86.1426 4.03916 86.0521C4.51616 85.8248 4.45307 85.1268 3.94302 84.9887L3.82017 84.9554C3.70903 84.9253 3.60853 84.8647 3.53008 84.7804L2.80401 84.0004C2.56177 83.7401 2.55502 83.339 2.78838 83.0708C2.95813 82.8757 3.22219 82.7909 3.47376 82.8509L4.6735 83.1368C4.82906 83.1739 4.99288 83.131 5.11037 83.0225C5.34183 82.8088 5.30809 82.4338 5.04218 82.2648L4.3129 81.8014C4.15445 81.7007 4.0671 81.5186 4.08771 81.332C4.11471 81.0876 3.95708 80.8607 3.71856 80.8008L3.1893 80.6677C2.6834 80.5405 2.35707 80.0496 2.4356 79.5339C2.46388 79.3483 2.54326 79.1741 2.66488 79.031L3.59998 77.9306C3.89356 77.5851 3.88248 77.0747 3.57419 76.7422L3.31525 76.4631C3.08582 76.2157 3.12568 75.8231 3.40014 75.6268C3.61624 75.4723 3.91115 75.491 4.10611 75.6714L4.87691 76.3848C5.06362 76.5576 5.30183 76.6645 5.55506 76.689C6.13077 76.7446 6.65993 76.3688 6.79703 75.8069L6.86748 75.5182C6.92947 75.2641 6.92424 74.9983 6.8523 74.7468L6.79532 74.5477C6.42805 73.2641 7.23339 71.94 8.54211 71.6758L8.59335 71.6654C9.56418 71.4694 10.3059 70.6825 10.4442 69.7018L10.4702 69.5178C10.514 69.2069 10.6139 68.9065 10.7648 68.6312L11.7291 66.8729C11.8475 66.657 11.8058 66.3884 11.6275 66.2184C11.4894 66.0867 11.2923 66.0372 11.1083 66.0879L10.1734 66.3456C9.92745 66.4134 9.67289 66.2697 9.60377 66.0241C9.54656 65.8208 9.63391 65.6045 9.81625 65.498L10.4861 65.1067C10.6639 65.0028 10.8683 64.9538 11.0738 64.9657L11.7065 65.0025C12.0657 65.0234 12.3485 64.7005 12.2804 64.3472C12.2502 64.1904 12.2894 64.0283 12.3878 63.9026L12.7046 63.498C13.075 63.0251 13.1647 62.3905 12.9399 61.8335L12.8551 61.6233C12.4315 60.5734 12.9288 59.3779 13.9721 58.9381L14.0476 58.9063C14.6837 58.6382 15.1529 58.0816 15.3096 57.4094L15.4998 56.5939C15.6863 55.7936 16.1273 55.0755 16.7566 54.5472L17.5774 53.8581C17.8457 53.6329 18.0433 53.3351 18.1465 53.0004C18.4058 52.1601 19.2286 51.6252 20.1019 51.7293L20.7064 51.8013C21.6856 51.918 22.6519 51.4479 23.1762 50.6127C23.5951 49.9454 23.6934 49.1146 23.4333 48.371L23.0243 47.2012C22.9106 46.8762 23.0117 46.5148 23.2776 46.296C23.5452 46.0757 23.9222 46.0471 24.22 46.2245L24.9294 46.6471C25.0724 46.7323 25.2578 46.6989 25.3644 46.5711C25.5421 46.358 25.4017 46.0289 25.1244 46.0183C24.9413 46.0114 24.798 45.8583 24.8031 45.6752L24.8071 45.531C24.8115 45.3706 24.8958 45.223 25.0317 45.1377L26.0648 44.4892C26.3067 44.3374 26.6186 44.3581 26.8383 44.5404C27.0004 44.675 27.2169 44.7242 27.4212 44.673L27.5286 44.6461C27.9334 44.5445 28.1908 44.1472 28.118 43.7361L28.079 43.5158C28.0264 43.2185 28.2179 42.9327 28.5129 42.8683L28.641 42.8403C29.0511 42.7509 29.1672 42.2202 28.8403 41.957C28.644 41.7989 28.5984 41.5139 28.7399 41.3052C28.925 41.0319 29.3232 41.0197 29.5248 41.281L29.8318 41.679C30.0105 41.9106 30.3084 42.0159 30.593 41.9481L30.6214 41.9414C30.9448 41.8643 31.171 41.5723 31.1646 41.2398L31.1639 41.2001C31.1587 40.9296 30.9866 40.6906 30.7317 40.6L30.4996 40.5175C30.2252 40.42 30.1125 40.0929 30.2686 39.847L30.3004 39.7969C30.378 39.6747 30.3757 39.5181 30.2943 39.3983C30.1476 39.1822 30.2702 38.8865 30.5268 38.8376L30.6348 38.817C30.866 38.773 30.9914 38.5207 30.8871 38.3098L30.7298 37.992C30.6702 37.8716 30.7694 37.7336 30.9025 37.7517C31.0656 37.7739 31.1596 37.5722 31.0377 37.4616L30.8623 37.3026C30.7392 37.191 30.7634 36.9911 30.9097 36.9122L31.2024 36.7543C31.4556 36.6177 31.5307 36.2894 31.3622 36.0563L30.8521 35.3508C30.7488 35.2079 30.8047 35.006 30.9669 34.9367C31.1128 34.8744 31.281 34.948 31.3342 35.0974L31.5546 35.7165C31.5943 35.828 31.6955 35.906 31.8135 35.916C32.0385 35.9349 32.2037 35.7089 32.1175 35.5002L31.5801 34.1991C31.4368 33.852 31.6604 33.4632 32.0325 33.4125C32.3335 33.3715 32.5503 33.1026 32.5264 32.7997L32.4759 32.1574C32.4599 31.9544 32.6007 31.7724 32.8013 31.7368L32.8171 31.734C33.0675 31.6896 33.291 31.8967 33.2657 32.1498C33.248 32.3278 33.3556 32.4944 33.5251 32.5514L34.4904 32.8762C34.7917 32.9776 35.1158 32.9904 35.4241 32.9131L39.5974 31.867C40.1329 31.7328 40.6843 31.6722 41.2361 31.687L41.9371 31.7057C42.351 31.7168 42.7624 31.6381 43.143 31.4752L43.8614 31.1678C44.8105 30.7616 45.9131 31.1415 46.4106 32.0462C46.6878 32.5503 47.168 32.9113 47.7293 33.0375L49.7411 33.49C50.1413 33.58 50.412 33.9535 50.3731 34.3618C50.3521 34.5819 50.4215 34.801 50.5653 34.9689L50.9983 35.4742C51.2168 35.7293 51.4869 35.9352 51.7907 36.0785L51.9786 36.1671C52.7908 36.5502 53.7228 36.5912 54.5656 36.2809L54.9734 36.1308C55.7461 35.8464 56.3809 35.2774 56.748 34.5403L57.5175 32.995C57.6229 32.7833 57.5928 32.5293 57.4408 32.3482C57.297 32.1769 57.2617 31.9393 57.3493 31.7335L57.7003 30.9094C57.9142 30.4071 58.3193 30.0106 58.8261 29.8076L61.545 28.7183C61.9143 28.5704 62.0927 28.1503 61.9427 27.7819C61.8003 27.4321 61.9534 27.0318 62.2929 26.8664L63.1398 26.4538C63.3814 26.3361 63.6471 26.2765 63.9158 26.2797L65.2785 26.2961C66.1653 26.3067 66.9749 26.8029 67.3869 27.5883L67.5227 27.8473C67.7798 28.3374 68.2471 28.6829 68.791 28.7852C69.1634 28.8551 69.5482 28.8065 69.8914 28.6461L70.3775 28.419C71.0566 28.1017 71.82 28.0124 72.554 28.1644L75.856 28.8482C76.8026 29.0442 77.7674 29.1389 78.7341 29.1308L81.1669 29.1104C81.6293 29.1065 82.09 29.1687 82.5349 29.295L84.3054 29.7977C84.5629 29.8708 84.775 30.054 84.8847 30.2981C85.0902 30.7551 85.6273 30.9588 86.0842 30.753L87.9498 29.9125C88.8013 29.5289 89.7895 29.6042 90.573 30.1126C91.2949 30.581 92.1946 30.684 93.0037 30.3908L93.7443 30.1225C94.6688 29.7875 95.6797 29.7771 96.6108 30.093L96.8811 30.1848C97.3285 30.3365 97.7528 30.5492 98.1421 30.8168L100.767 32.6212C101.147 32.8823 101.338 33.3429 101.253 33.7961C101.212 34.0133 101.11 34.2145 100.96 34.3762L100.39 34.9876C100.28 35.1051 100.137 35.186 99.9795 35.2193L99.2387 35.3763C99.0199 35.4226 98.9241 35.6813 99.0601 35.859C99.1851 36.0222 99.1156 36.2598 98.9224 36.33L98.4642 36.4964L100.635 35.9819C101.717 35.7253 102.845 35.7257 103.927 35.983L110.07 37.4433C110.421 37.5269 110.775 37.3145 110.867 36.9651C110.947 36.6589 111.232 36.4517 111.548 36.4699L112.231 36.5092C112.894 36.5473 113.502 36.1457 113.728 35.5216L113.877 35.1096C114.167 34.3077 114.916 33.7627 115.768 33.733L116.617 33.7034C117.302 33.6795 117.963 33.4456 118.511 33.0333L118.756 32.8492C119.303 32.4376 119.94 32.162 120.614 32.0451L120.731 32.0249C121.296 31.9269 121.838 31.7208 122.326 31.418L123.599 30.6277C123.973 30.3955 124.218 30.003 124.263 29.565L124.289 29.3159C124.339 28.8271 124.709 28.4319 125.194 28.35L125.32 28.3288C125.708 28.2632 126.011 27.9571 126.072 27.5684C126.121 27.2549 126.329 26.9893 126.622 26.8665L128.919 25.9025C129.177 25.7942 129.324 25.5197 129.27 25.2451C129.209 24.9295 128.907 24.7208 128.59 24.7755L128.226 24.8384C127.496 24.9643 126.901 24.2583 127.148 23.5606L127.748 21.8698C127.928 21.3627 127.898 20.8047 127.664 20.3198L127.015 18.9703C126.666 18.2448 126.712 17.3909 127.139 16.7079C127.61 15.9528 128.468 15.5291 129.354 15.6136L129.985 15.6738C130.209 15.6951 130.433 15.6383 130.62 15.513L130.633 15.5044C131.07 15.2114 131.189 14.6211 130.9 14.1817C130.756 13.9632 130.708 13.6953 130.766 13.4403L130.939 12.6883C131.042 12.2431 130.703 11.8183 130.246 11.8183C129.936 11.8183 129.662 11.6173 129.569 11.3216L128.695 8.5561C128.589 8.21852 128.545 7.86416 128.567 7.51084L128.602 6.95671C128.623 6.61621 128.768 6.29513 129.009 6.05349C129.262 5.79976 129.602 5.65234 129.96 5.64142L130.804 5.61567C131.534 5.59339 132.254 5.79852 132.863 6.20273L133.493 6.62128C133.935 6.91484 134.482 7.00478 134.995 6.86833L135.166 6.82301C135.642 6.6963 136.15 6.80933 136.528 7.12598L136.56 7.15322C137.148 7.6459 138.016 7.60344 138.552 7.05574C138.858 6.7437 139.287 6.58404 139.723 6.62013L140.486 6.68341C141.337 6.75395 142.119 7.17981 142.64 7.85647L143.18 8.55841C143.605 9.10974 144.32 9.34984 144.991 9.16611C145.49 9.02949 146.024 9.12552 146.444 9.42743L150.571 12.3931C150.821 12.5724 151.029 12.8038 151.18 13.0712C151.74 14.0606 152.98 14.4332 153.993 13.9166L155.375 13.2118C155.686 13.053 156.067 13.1479 156.267 13.4343C156.444 13.6866 156.764 13.7941 157.057 13.6993L158.353 13.2799C158.619 13.1938 158.907 13.2054 159.165 13.3126C159.666 13.5202 160.243 13.359 160.563 12.9223L160.835 12.5515C161.226 12.0187 161.882 11.7496 162.534 11.8546L163.22 11.965C164.019 12.0935 164.625 12.7527 164.686 13.5591L164.717 13.9602C164.756 14.484 165.132 14.9212 165.644 15.0396C165.994 15.1207 166.362 15.0406 166.647 14.8212L169.397 12.7047C169.77 12.4177 170.23 12.2677 170.701 12.28L170.997 12.2877C171.711 12.3062 172.355 11.8618 172.59 11.188C172.701 10.8715 172.906 10.5964 173.178 10.3998L175.044 9.04854C175.309 8.85708 175.527 8.60825 175.681 8.3207L176.404 6.9776C176.546 6.71317 176.871 6.60691 177.142 6.73609C177.318 6.82005 177.438 6.98923 177.459 7.18321L177.489 7.45117C177.511 7.65916 177.406 7.86022 177.222 7.95978L177.163 7.99189C176.949 8.10721 176.868 8.37172 176.978 8.58737C177.106 8.83583 177.427 8.90729 177.648 8.7361L180.009 6.90433C180.25 6.71664 180.46 6.4907 180.629 6.23542L181.204 5.3676C181.495 4.92757 182.026 4.7107 182.542 4.82096C183.319 4.98706 184.059 4.41363 184.092 3.61931L184.14 2.48481C184.157 2.06251 184.48 1.71625 184.901 1.66953L185.206 1.63562C185.315 1.62344 185.41 1.55472 185.456 1.45456C185.553 1.2442 185.836 1.20709 185.983 1.3855L186.038 1.45167Z" fill="#E0FC52" stroke="#1D1D1D" stroke-width="2" stroke-linecap="round" stroke-linejoin="round"/>
</svg>
