<svg width="181" height="96" viewBox="0 0 181 96" fill="none" xmlns="http://www.w3.org/2000/svg">
<path d="M49.3177 4.02498C50.1781 2.85107 51.6356 2.27471 53.0662 2.54265L55.8331 3.06089C56.2434 3.13773 56.5979 3.3938 56.7997 3.75913C57.3425 4.74145 58.763 4.71643 59.2708 3.7156L59.4702 3.32272C59.5369 3.19117 59.6212 3.06928 59.7207 2.96037L60.3373 2.28562C60.5442 2.05908 60.8347 1.92677 61.1415 1.91926C61.3427 1.91434 61.5416 1.96343 61.7175 2.06143L62.201 2.33087C62.5709 2.53701 62.8955 2.81551 63.1555 3.14977L65.8729 6.64364C66.1048 6.94173 66.2089 7.31963 66.1625 7.69441L66.0994 8.20323C66.0153 8.88248 66.6014 9.45513 67.2785 9.35524C67.5053 9.32177 67.7369 9.36455 67.9369 9.47686L68.9372 10.0388C69.548 10.3819 70.2691 10.4715 70.9454 10.2884C71.4176 10.1605 71.8457 9.90545 72.1831 9.55105L73.5964 8.06616C74.1053 7.53156 74.8823 7.3488 75.5761 7.60054C76.6301 7.98295 77.7801 7.35187 78.0236 6.25744L78.1297 5.78073C78.2175 5.38604 78.5037 5.06507 78.8857 4.93264L79.022 4.88538C79.3757 4.76281 79.7683 4.86065 80.023 5.13482C80.1576 5.27958 80.2433 5.4629 80.2681 5.65895L80.5387 7.796C80.613 8.38293 80.4702 8.97677 80.1372 9.46576C79.5527 10.3241 79.5795 11.4594 80.2039 12.2891L81.6163 14.1661C82.1646 14.8946 83.1911 15.0658 83.9504 14.5611C84.4685 14.2168 84.7611 13.6152 84.7084 12.9954C84.685 12.72 84.5949 12.4544 84.446 12.2216L83.0422 10.0272C82.7938 9.63885 82.7152 9.16576 82.8246 8.71795L82.8903 8.44874C82.9582 8.17111 83.1371 7.93353 83.3852 7.79165C83.8075 7.55009 84.3408 7.63305 84.6698 7.99148L85.3693 8.75348C85.7412 9.15856 85.9583 9.68178 85.9825 10.2311L86.122 13.3999C86.1515 14.0678 86.3775 14.712 86.7717 15.2519L86.8355 15.3393C87.3256 16.0104 88.0623 16.4593 88.8835 16.5871C89.3421 16.6585 89.8109 16.627 90.2559 16.495L92.7589 15.7525C93.7736 15.4515 94.8685 15.8136 95.5037 16.6602L96.0412 17.3765C96.4426 17.9115 97.1627 18.0942 97.7705 17.8152C98.1477 17.6421 98.5816 17.6425 98.9584 17.8163L99.107 17.8849C99.7883 18.1991 100.594 18.0515 101.119 17.5161L101.968 16.6509C102.561 16.0467 103.354 15.6781 104.198 15.6133L106.134 15.4649C106.312 15.4511 106.49 15.4241 106.665 15.3839C108.24 15.0215 109.863 15.7547 110.633 17.176L113.003 21.5552C113.567 22.5979 114.568 23.3336 115.732 23.5609L116.552 23.7211C116.936 23.796 117.333 23.7338 117.676 23.5452C118.412 23.14 118.731 22.2507 118.421 21.4699L117.824 19.9646C117.75 19.778 117.73 19.5746 117.765 19.377C117.861 18.8361 118.347 18.4533 118.895 18.4868L118.983 18.4921C119.317 18.5125 119.627 18.6744 119.836 18.9372L120.273 19.4902C120.809 20.1671 121.631 20.554 122.494 20.5359L123.466 20.5154C123.73 20.5099 123.986 20.4264 124.202 20.2754C124.678 19.9431 124.883 19.3348 124.712 18.78C124.638 18.539 124.497 18.3212 124.306 18.156L122.906 16.943C122.706 16.7695 122.565 16.5377 122.504 16.2801C122.351 15.6431 121.739 15.2272 121.09 15.3208L119.444 15.5586C119.109 15.607 118.773 15.4742 118.561 15.2095C118.37 14.9701 118.305 14.6533 118.387 14.3579L118.424 14.2229C118.499 13.9543 118.662 13.719 118.888 13.5555L119.058 13.432C119.377 13.2012 119.761 13.0791 120.155 13.0839L120.288 13.0855C120.839 13.0921 121.369 13.3026 121.774 13.6765L123.601 15.3602C123.996 15.7249 124.51 15.9357 125.047 15.9542L125.36 15.965C125.702 15.9768 126.036 15.8644 126.301 15.6487C126.57 15.4302 126.749 15.1208 126.804 14.7791L126.867 14.3942C126.915 14.0959 126.908 13.7911 126.845 13.4955L126.733 12.9683C126.671 12.6754 126.52 12.4085 126.302 12.2036L125.731 11.6677C125.521 11.4714 125.49 11.1505 125.657 10.9172C125.833 10.6705 126.171 10.6042 126.428 10.766L126.927 11.0813C127.194 11.2497 127.384 11.5165 127.456 11.8239L127.892 13.7033C127.988 14.1144 128.327 14.4242 128.745 14.4828C129.155 14.5404 129.56 14.3434 129.769 13.9846L130.085 13.4399C130.394 12.9081 130.435 12.2621 130.195 11.6957L129.859 10.9002C129.565 10.2045 129.764 9.39844 130.348 8.91953L130.611 8.70421C130.914 8.45535 131.326 8.38533 131.695 8.52008C132.203 8.70579 132.503 9.23073 132.405 9.76261L132.293 10.3703C132.214 10.8001 132.29 11.244 132.509 11.6227L133.022 12.5136C133.352 13.0858 133.814 13.57 134.371 13.9251L135.287 14.5094C135.864 14.8773 136.586 14.9348 137.214 14.6628C137.573 14.5069 137.881 14.2514 138.101 13.9265L138.597 13.1927C139.179 12.3318 140.132 11.7949 141.17 11.7432L141.853 11.7092C142.097 11.6971 142.33 11.6092 142.522 11.4577L142.742 11.2831C143.256 10.8759 144.017 11.0882 144.247 11.7026C144.36 12.0074 144.62 12.2346 144.937 12.3068L149.744 13.4006C150.09 13.4794 150.445 13.5115 150.799 13.4962L151.003 13.4873C151.951 13.4463 152.842 13.0218 153.471 12.3113L153.552 12.2201C153.861 11.8719 154.246 11.6006 154.678 11.4278C155.312 11.1743 156.013 11.1454 156.665 11.3459L160.22 12.4387C160.826 12.6248 161.482 12.4082 161.858 11.8985C162.252 11.3647 162.246 10.635 161.844 10.1078L161.112 9.14964C160.846 8.80197 160.777 8.34269 160.928 7.93212C161.11 7.43619 161.579 7.10357 162.108 7.09511L162.777 7.08439C163.329 7.07555 163.865 7.26948 164.284 7.62943L165.56 8.72739C166.024 9.12618 166.676 9.22155 167.235 8.97223C167.666 8.77984 167.988 8.40488 168.114 7.94996L168.265 7.39959C168.419 6.84338 168.903 6.44181 169.478 6.39344C169.749 6.3706 170.021 6.42875 170.26 6.56054L172.297 7.68667C174.248 8.76508 175.732 10.5253 176.466 12.6302L176.913 13.9128C177.199 14.733 177.318 15.6021 177.264 16.4689L177.231 16.9925C177.174 17.8922 177.376 18.7893 177.813 19.578L178.3 20.4587C178.429 20.6911 178.624 20.8817 178.859 21.0053C179.758 21.478 179.845 22.7397 179.012 23.3201C178.833 23.4448 178.627 23.5244 178.41 23.5521L178.097 23.5924C177.19 23.7087 176.408 24.2848 176.029 25.116L175.698 25.8396C175.152 27.0365 173.959 27.8067 172.644 27.8132L171.598 27.8183C171.151 27.8205 170.73 27.604 170.472 27.2383C170.282 26.969 170.195 26.6403 170.227 26.3123L170.234 26.2424C170.287 25.715 170.068 25.1972 169.653 24.8675L169.47 24.7226L168.652 24.2403C168.522 24.1642 168.359 24.2573 168.359 24.4073C168.359 24.5828 168.145 24.6679 168.025 24.5401L167.943 24.4532C167.815 24.3171 167.587 24.3721 167.535 24.5516L167.506 24.6535C167.463 24.8021 167.315 24.8942 167.163 24.8667L166.827 24.8059C166.499 24.7468 166.177 24.9332 166.066 25.2465L164.173 30.5558C163.973 31.1178 163.293 31.3354 162.803 30.9942C162.564 30.8274 162.259 30.7862 161.984 30.8835L161.555 31.0352C160.891 31.2703 160.15 31.0935 159.663 30.5837L159.38 30.287C159.151 30.0467 158.861 29.8719 158.542 29.7805C157.961 29.6144 157.335 29.7391 156.863 30.1155L156.198 30.6449C155.921 30.8648 155.6 31.0216 155.257 31.1043C154.396 31.3117 153.49 31.0318 152.896 30.3747L150.912 28.1804C150.779 28.0332 150.682 27.8568 150.63 27.6654L150.427 26.9209C150.258 26.3009 149.477 26.1025 149.033 26.5665C148.866 26.7402 148.633 26.8328 148.392 26.8202L147.304 26.7629C146.759 26.7342 146.508 27.4301 146.947 27.755C147.055 27.8352 147.13 27.9524 147.158 28.0842L147.696 30.6481C147.712 30.7253 147.703 30.8057 147.67 30.8774C147.578 31.0755 147.335 31.1506 147.148 31.0387L146.61 30.7171C146.415 30.6004 146.184 30.5593 145.96 30.6014L145.396 30.7077C144.889 30.8032 144.478 31.1744 144.332 31.6691C144.117 32.3946 143.357 32.8105 142.63 32.5999L139.828 31.7874C139.682 31.7451 139.53 31.8313 139.492 31.9781C139.441 32.1728 139.202 32.2451 139.051 32.1114L137.797 30.9981C137.496 30.7309 137.336 30.3394 137.364 29.938L137.38 29.7044C137.407 29.3078 137.3 28.9137 137.076 28.5849L136.829 28.2218C136.342 27.5058 135.441 27.1974 134.618 27.465C134.362 27.548 134.093 27.5772 133.825 27.5509L130.33 27.2068C129.711 27.1457 129.099 27.3864 128.688 27.8537L128.462 28.1093C127.987 28.6483 127.199 28.7803 126.575 28.4256L126.097 28.1546C125.884 28.0334 125.62 28.0447 125.418 28.1837C125.123 28.3867 125.051 28.7926 125.26 29.0842L127.99 32.9044C128.216 33.2205 128.512 33.4805 128.854 33.6641L129.763 34.1512C130.074 34.318 130.453 34.29 130.736 34.0795C131.06 33.8388 131.503 33.8398 131.826 34.0819L131.896 34.1344C132.111 34.2957 132.254 34.5347 132.295 34.8002L132.571 36.594C132.652 37.123 132.563 37.6642 132.316 38.1392L132.073 38.6085C131.855 39.0276 131.45 39.3178 130.984 39.3896C130.654 39.4403 130.316 39.378 130.026 39.2129L129.429 38.8731C129.162 38.7206 128.94 38.4989 128.787 38.2313L128.27 37.3263C128.072 36.981 127.629 36.8665 127.289 37.0731C126.977 37.2629 126.572 37.1835 126.354 36.8899L123.744 33.3642C123.649 33.2364 123.488 33.1764 123.333 33.2112C123.101 33.2631 122.965 33.5029 123.039 33.7282L123.518 35.194C123.652 35.6046 123.399 36.0406 122.976 36.1274L122.924 36.1381C122.646 36.1951 122.437 36.4256 122.407 36.7078C122.388 36.8958 122.287 37.066 122.132 37.174L120.918 38.0189C120.706 38.1669 120.579 38.4096 120.579 38.6686C120.579 38.8727 120.5 39.0689 120.359 39.2163L119.356 40.2631C118.815 40.8284 118.675 41.6677 119.004 42.3778L119.151 42.6953C119.2 42.8003 119.219 42.9166 119.207 43.0317L119.167 43.4076C119.145 43.6108 118.944 43.7439 118.748 43.6845C118.501 43.6094 118.269 43.8375 118.34 44.0856L118.355 44.1382C118.418 44.3583 118.26 44.5797 118.031 44.5909L117.282 44.6275C117.04 44.6393 116.804 44.5516 116.629 44.3847L116.581 44.3386C116.329 44.0981 115.949 44.0506 115.645 44.2217C115.41 44.3542 115.258 44.5972 115.243 44.8667L115.194 45.7044C115.171 46.1106 114.755 46.3733 114.378 46.2201C114.054 46.0883 113.686 46.2643 113.586 46.5996L113.573 46.6411C113.521 46.8167 113.395 46.9608 113.228 47.0362L112.641 47.3009C112.199 47.5007 111.7 47.5364 111.233 47.4016L109.208 46.8163C108.583 46.6357 107.913 46.8798 107.551 47.4198L107.458 47.5589C107.312 47.7779 107.088 47.9344 106.833 47.9979L105.975 48.2106C105.856 48.2402 105.785 48.3634 105.82 48.4814C105.876 48.6704 105.67 48.8293 105.501 48.7273L105.124 48.4991C105.003 48.426 104.852 48.4247 104.73 48.4957L103.031 49.4838C102.751 49.6466 102.394 49.5818 102.19 49.3309C101.932 49.0151 101.452 49.0069 101.184 49.3138L100.916 49.6206C100.785 49.7697 100.564 49.7977 100.401 49.6859L100.274 49.5989C100.098 49.479 99.858 49.5803 99.8215 49.7894C99.7967 49.9312 99.6721 50.0337 99.5281 50.0307L99.2241 50.0244C98.9924 50.0196 98.7759 50.1394 98.6567 50.3382L98.619 50.4011C98.5084 50.5855 98.4797 50.8078 98.5399 51.0143L98.6593 51.424C98.8387 52.0396 98.667 52.704 98.2117 53.1556L97.1903 54.1688C96.7147 54.6406 96.3599 55.22 96.1557 55.8579L95.6056 57.5769C95.1287 59.0673 94.1829 60.3637 92.9093 61.2727C91.479 62.2936 90.4677 63.7986 90.0628 65.5085L89.8053 66.5965C89.7101 66.9985 89.529 67.3751 89.2744 67.7003C88.9083 68.1681 88.4058 68.5102 87.8364 68.6793L85.0812 69.4975C84.0245 69.8113 82.8989 69.8071 81.8446 69.4855C80.9185 69.2031 79.9352 69.1648 78.99 69.3746L73.3801 70.6195C72.9974 70.7044 72.6003 70.6999 72.2196 70.6062L71.2254 70.3617C70.6777 70.227 70.1085 70.4813 69.8435 70.9791C69.6922 71.2632 69.4357 71.4769 69.129 71.5744L69.0727 71.5922C68.7536 71.6936 68.4085 71.6753 68.1019 71.5406L67.5099 71.2806C66.8676 70.9985 66.1485 70.9433 65.4706 71.1239L65.0337 71.2404C64.4487 71.3964 63.9263 71.7294 63.5381 72.1938C63.253 72.5348 62.8941 72.8066 62.4887 72.9887L61.9048 73.2509C61.0873 73.618 60.1948 73.7877 59.2995 73.7463L55.1867 73.556C54.6783 73.5324 54.1748 73.4455 53.6879 73.2971C52.5585 72.9529 51.3534 72.9434 50.2186 73.2695L48.7977 73.6779C48.2259 73.8422 47.6418 73.9603 47.0511 74.0311L30.7715 75.9812C29.6989 76.1097 28.6752 76.5029 27.7923 77.1254L26.7918 77.8309C26.3986 78.1081 25.9325 78.2634 25.4516 78.2774C24.3297 78.3101 23.3736 79.101 23.1312 80.1968L22.9919 80.8265C22.8896 81.2889 22.6883 81.7237 22.4018 82.1009L19.4617 85.9718C19.279 86.2124 19.1719 86.5018 19.1541 86.8034L19.1344 87.1386C19.103 87.6705 18.6998 88.1059 18.1718 88.1778C17.9356 88.2099 17.716 88.3169 17.545 88.4831L17.1625 88.8551C16.9218 89.0891 16.7263 89.3653 16.5856 89.67L16.3815 90.1123C15.9366 91.076 15.1332 91.8279 14.1423 92.2081L12.6756 92.7707C12.4855 92.8436 12.2729 92.829 12.0945 92.7308C11.7517 92.542 11.3205 92.6752 11.1441 93.0246L10.9099 93.4882C10.631 94.0403 9.97616 94.2875 9.40198 94.0573L8.8772 93.8469C8.50766 93.6988 8.08473 93.808 7.83303 94.1164C7.65414 94.3357 7.38347 94.4593 7.10063 94.4509L6.09119 94.4209C4.18473 94.3643 2.82902 92.5453 3.31964 90.7022L3.84899 88.7136C3.99882 88.1507 4.25442 87.6215 4.60214 87.1542L6.32104 84.8442C6.4659 84.6496 6.58104 84.4344 6.66269 84.2059L7.29624 82.4328C7.40247 82.1355 7.2472 81.8084 6.94968 81.7027L6.87281 81.6754C6.63827 81.5921 6.50586 81.3438 6.5674 81.1027C6.61225 80.9269 6.55452 80.7409 6.41807 80.6214L4.35854 78.8178C4.22723 78.7028 4.13545 78.5494 4.09619 78.3794L4.05844 78.2158C3.98724 77.9073 4.15329 77.5933 4.44834 77.4785C4.72634 77.3704 4.89213 77.0838 4.84735 76.7889L4.76453 76.2435C4.72371 75.9747 4.60125 75.7249 4.41373 75.528L2.36082 73.3724C2.22244 73.2271 2.21694 73.0005 2.34812 72.8487L2.41392 72.7725C2.54902 72.6161 2.49825 72.3741 2.3117 72.2852C2.15838 72.2121 2.09128 72.0301 2.16044 71.875L2.28274 71.6007C2.34501 71.461 2.35358 71.3033 2.30681 71.1577L1.64003 69.0824C1.48147 68.5889 1.54937 68.0505 1.82552 67.6118C2.08832 67.1943 2.16311 66.6855 2.03156 66.21L2.02621 66.1907C1.85706 65.5793 2.02237 64.9241 2.46131 64.4661L6.37407 60.3838C6.93797 59.7955 7.08883 58.924 6.75549 58.1803L6.53953 57.6985C6.42478 57.4425 6.43386 57.148 6.56418 56.8996C6.66556 56.7063 6.83272 56.5557 7.03546 56.4748L7.28712 56.3745C7.63758 56.2348 8.02767 56.2316 8.38039 56.3655L9.09914 56.6383C9.62256 56.837 10.1963 56.5044 10.284 55.9515C10.34 55.5984 10.6034 55.314 10.9511 55.2312L11.2401 55.1623C11.8261 55.0227 12.2444 54.5057 12.2588 53.9035L12.2769 53.1424C12.2876 52.6962 12.6037 52.3125 13.0384 52.2114C13.5759 52.0863 13.9065 51.5361 13.7568 51.0051L13.743 50.9563C13.6193 50.5176 13.8394 50.055 14.258 49.8744C14.4755 49.7805 14.7211 49.7752 14.9425 49.8596L16.1051 50.3029C16.3026 50.3782 16.5225 50.368 16.7122 50.2749C16.9425 50.1618 17.1004 49.9404 17.1323 49.6858L17.1601 49.4638C17.2113 49.0543 17.0444 48.648 16.72 48.3929L16.0215 47.8436C15.7786 47.6526 15.6603 47.3436 15.7136 47.0392L15.7571 46.7903C15.7885 46.6106 15.7098 46.4294 15.5569 46.3297C15.3004 46.1624 15.2783 45.7949 15.5129 45.5981L17.1504 44.2245C17.4226 43.9961 17.7497 43.8428 18.0994 43.7797L18.6283 43.6842C19.6573 43.4985 20.5751 42.9232 21.1909 42.0781L24.6723 37.2999C25.2919 36.4496 25.9817 35.6527 26.7345 34.9177L28.9076 32.796C30.0193 31.7105 31.3331 30.8536 32.7747 30.2737L33.7409 29.8851C34.5679 29.5524 35.4529 29.3878 36.3442 29.401L36.6283 29.4052C37.2698 29.4147 37.9076 29.3051 38.5091 29.0821C39.3424 28.7733 40.241 28.6835 41.1189 28.8214L42.5172 29.0411C43.1299 29.1374 43.7024 29.4065 44.1674 29.8169C44.7627 30.3423 45.5293 30.6323 46.3233 30.6323H48.5528C49.2464 30.6323 49.8737 30.2199 50.1488 29.5832C50.3125 29.2042 50.336 28.7793 50.215 28.3845L49.3633 25.6039C49.0749 24.6626 48.9324 23.6827 48.9406 22.6982L49.0206 13.1887C49.0262 12.5217 48.8626 11.8641 48.5452 11.2775C48.214 10.6655 48.0506 9.97676 48.0714 9.2812L48.1326 7.24074C48.1377 7.06853 48.0831 6.89986 47.9778 6.76345C47.7752 6.50077 47.7707 6.13573 47.9668 5.86815L49.3177 4.02498Z" fill="#2969F6" stroke="#1D1D1D" stroke-width="2" stroke-linecap="round" stroke-linejoin="round"/>
</svg>
