<svg width="273" height="171" viewBox="0 0 273 171" fill="none" xmlns="http://www.w3.org/2000/svg">
<path d="M63.0166 32.4539C63.2977 31.1185 64.9199 30.5894 65.9342 31.5022C66.0928 31.6449 66.2758 31.7577 66.4744 31.8353L69.3303 32.951C69.6864 33.0901 70.0717 33.1584 70.454 33.1522C71.5472 33.1346 72.5747 33.7318 73.0861 34.6982C73.295 35.093 73.5921 35.4343 73.9544 35.6957L74.669 36.2111C75.3091 36.6728 76.0572 36.9625 76.8414 37.0522L78.6509 37.2591C78.9828 37.2971 79.2764 37.492 79.4403 37.7831C79.5589 37.9937 79.6005 38.2389 79.5582 38.4768L79.3622 39.578C79.2836 40.0197 79.3737 40.4748 79.6147 40.8531C79.8174 41.1714 80.1155 41.4175 80.4665 41.5562L81.0975 41.8056C81.4126 41.9301 81.7592 41.9502 82.0865 41.863C82.6255 41.7195 83.2003 41.8703 83.5994 42.26L84.0867 42.7358C84.4309 43.0718 84.8563 43.3129 85.3214 43.4353L85.9892 43.6111C86.4768 43.7395 86.9246 43.9876 87.2921 44.3328C87.8414 44.8489 88.5635 45.1417 89.3172 45.1539L90.2168 45.1684C90.4196 45.1717 90.6161 45.239 90.7782 45.3608L91.0502 45.5651C91.1406 45.633 91.1905 45.742 91.1829 45.8549C91.1594 46.1997 91.6111 46.3488 91.7974 46.0576L92.4178 45.0884C92.5018 44.9573 92.5341 44.7997 92.5085 44.6461L92.3368 43.6164C92.2544 43.1218 92.4238 42.6185 92.7886 42.2744L93.4841 41.6185C93.8149 41.3065 93.7776 40.7699 93.4069 40.5066C93.211 40.3675 92.9587 40.3351 92.7341 40.4203L92.5892 40.4752C91.9552 40.7156 91.2689 40.2762 91.2219 39.5998L91.1314 38.2989C91.0996 37.8415 91.4417 37.4437 91.8986 37.4066L93.1269 37.3068C93.5797 37.27 93.7112 36.6693 93.3152 36.4467C93.156 36.3572 93.0647 36.1819 93.0827 36.0001L93.0979 35.8473C93.1305 35.517 93.392 35.2559 93.7223 35.2236L94.222 35.1747C94.5126 35.1463 94.7377 34.9076 94.7491 34.6158L94.753 34.5133C94.7625 34.2707 94.5861 34.0607 94.3456 34.0279C94.105 33.9951 93.9287 33.7851 93.9381 33.5425L93.9592 32.9988C93.9734 32.6327 93.7995 32.2847 93.4982 32.0764L92.6749 31.5072C92.3281 31.2675 92.0556 30.9354 91.8881 30.5485C91.7128 30.1436 91.6602 29.6961 91.7368 29.2615L92.2403 26.4065C92.3501 25.7837 92.5899 25.191 92.944 24.6671L94.5202 22.3349C94.861 21.8306 94.782 21.153 94.3344 20.7407C93.7923 20.2414 93.8077 19.3808 94.3674 18.9012L94.8017 18.5291C95.0064 18.3537 95.1675 18.1331 95.2723 17.8847L95.4266 17.5191C95.7083 16.8513 96.1949 16.2902 96.8161 15.9167L98.6474 14.8159C99.104 14.5413 99.3301 14.0025 99.2061 13.4843C98.9455 12.3955 100.165 11.5587 101.087 12.1934L102.183 12.9479C102.434 13.1201 102.767 13.107 103.003 12.9159C103.245 12.7201 103.588 12.7116 103.839 12.8952L104.224 13.1765C104.62 13.4661 105.157 13.469 105.556 13.1837C105.933 12.9142 106.436 12.9005 106.827 13.149L108.036 13.9172C108.388 14.141 108.831 14.1644 109.205 13.9789C109.713 13.7271 109.973 13.153 109.828 12.6053L109.701 12.127C109.618 11.8136 109.653 11.4806 109.799 11.191L110.099 10.595C110.215 10.3647 110.479 10.251 110.726 10.3253C111.079 10.4314 111.429 10.1556 111.41 9.78813L111.394 9.50411C111.37 9.0647 111.738 8.70411 112.177 8.7358L112.285 8.74363C112.536 8.76175 112.782 8.66451 112.952 8.47945L113.501 7.88453C113.731 7.63475 114.029 7.45692 114.358 7.37247L114.783 7.26325C115.178 7.16197 115.596 7.29555 115.858 7.60699L115.891 7.64526C116.117 7.91357 116.47 8.03959 116.815 7.97523C117.054 7.93074 117.267 7.79889 117.414 7.60546L117.828 7.05906C118.075 6.73228 118.494 6.5851 118.892 6.6852C119.157 6.75199 119.438 6.70965 119.672 6.56766L121.242 5.61388C121.465 5.47818 121.73 5.42669 121.988 5.46868C122.65 5.57638 123.252 5.07086 123.262 4.40054L123.272 3.60988C123.28 3.06982 123.593 2.5808 124.081 2.34842C124.448 2.17356 124.872 2.16442 125.246 2.32333L126.045 2.66264C126.335 2.786 126.67 2.74136 126.918 2.54615L127.212 2.3143C127.349 2.20653 127.395 2.01976 127.325 1.86043C127.223 1.62916 127.37 1.3643 127.62 1.3286L129.253 1.09577C129.511 1.05899 129.763 1.194 129.875 1.4291C129.948 1.5819 130.082 1.69648 130.244 1.74422L131.664 2.16149C132.034 2.27026 132.191 2.70782 131.975 3.02717C131.859 3.19883 131.658 3.29369 131.452 3.27482L130.684 3.20468C130.469 3.18496 130.27 3.32169 130.21 3.53006C130.152 3.7355 130.246 3.95359 130.436 4.05209L131.521 4.61619C132.024 4.87792 132.628 4.85716 133.112 4.56146C133.442 4.35963 133.69 4.04605 133.809 3.67757L134.284 2.20737C134.393 1.8708 134.61 1.57938 134.901 1.37808C135.505 0.960125 136.315 1.00338 136.871 1.48327L139.801 4.01228C139.918 4.11369 139.987 4.26031 139.99 4.41549L139.994 4.64983C140 4.93285 140.294 5.11747 140.551 4.99939L141.773 4.50803C142.063 4.39164 142.292 4.16079 142.405 3.87011C142.673 3.18327 143.517 2.93269 144.116 3.36154L144.547 3.66952C144.653 3.7449 144.726 3.85682 144.754 3.98348L144.83 4.33583C144.913 4.7196 145.439 4.77231 145.597 4.41269C145.638 4.31958 145.712 4.24523 145.805 4.20441L146.859 3.74216C147.348 3.52793 147.919 3.65464 148.271 4.05539C148.699 4.54231 149.432 4.61154 149.943 4.21332L150.05 4.13065C150.318 3.9217 150.654 3.82025 150.994 3.8461L152.324 3.94751C152.43 3.95562 152.532 3.99206 152.62 4.05306L152.93 4.26991C153.21 4.46518 153.143 4.89675 152.817 4.99826C152.665 5.04588 152.553 5.178 152.533 5.3367L152.526 5.38994C152.501 5.57534 152.584 5.75859 152.739 5.86347L153.239 6.20234C153.861 6.62399 153.662 7.58783 152.923 7.72761L152.765 7.75747C152.434 7.82019 152.202 8.12184 152.227 8.45821C152.249 8.74799 152.457 8.98982 152.74 9.0547L154.235 9.39712C154.605 9.48175 154.983 9.29609 155.142 8.95206C155.291 8.62878 155.636 8.44285 155.988 8.49561L156.269 8.53764C156.611 8.58884 156.913 8.7873 157.096 9.08064L157.529 9.77551C157.844 10.2816 158.339 10.6506 158.913 10.8092L159.786 11.0501C160.115 11.1407 160.364 11.4082 160.431 11.742L160.47 11.9317C160.503 12.0992 160.454 12.2728 160.337 12.3974C160.091 12.6598 160.173 13.0863 160.5 13.2378L162.471 14.152C162.703 14.26 162.834 14.5118 162.787 14.7642C162.749 14.9735 162.832 15.1864 163.001 15.3148L165.655 17.3222C165.777 17.4139 165.941 17.425 166.073 17.3505C166.328 17.2073 166.643 17.3914 166.643 17.6837V17.9541C166.643 18.1554 166.754 18.34 166.933 18.4332L170.042 20.0554C170.332 20.2066 170.595 20.4034 170.822 20.6384L171.763 21.6123C171.845 21.6967 171.962 21.7372 172.078 21.7214L172.14 21.7129C172.364 21.6825 172.549 21.8833 172.501 22.1034C172.447 22.3514 172.686 22.5625 172.926 22.4786L173.602 22.2414C173.695 22.2089 173.765 22.1317 173.788 22.0362L173.795 22.0046C173.856 21.7531 174.197 21.7142 174.313 21.9456C174.353 22.026 174.43 22.082 174.519 22.0957L176.418 22.3884C177.282 22.5215 178.165 22.3676 178.933 21.9504L179.471 21.6581C179.759 21.5015 180.082 21.4208 180.41 21.4236L181.332 21.4316C181.798 21.4356 182.186 21.7909 182.23 22.2547C182.277 22.7439 182.703 23.1075 183.194 23.076L185.17 22.949C185.636 22.9191 186.091 23.1034 186.405 23.4498L186.856 23.9472C187.29 24.4259 188.057 24.3751 188.424 23.8433L188.505 23.726C188.637 23.5347 188.853 23.4184 189.085 23.4135L189.167 23.4118C189.438 23.406 189.681 23.5791 189.765 23.8375C189.866 24.1529 190.2 24.3308 190.519 24.2397L191.054 24.0865C191.255 24.029 191.467 24.0254 191.67 24.076L191.883 24.1292C192.606 24.3096 193.169 24.8741 193.348 25.5966L193.524 26.3032C193.561 26.4545 193.658 26.5843 193.792 26.6634C194.059 26.8205 194.402 26.7403 194.572 26.4812L195.225 25.4827C195.488 25.0818 195.923 24.8279 196.402 24.7975L196.542 24.7886C196.929 24.764 197.282 24.5593 197.497 24.2355C197.655 23.9954 197.893 23.8181 198.168 23.734L198.91 23.5075C199.166 23.4292 199.369 23.2328 199.456 22.9794C199.595 22.5742 200.018 22.3397 200.436 22.4363L200.849 22.5319C201.404 22.6603 201.978 22.4143 202.268 21.9239L202.413 21.6792C202.962 20.7519 204.225 20.5647 205.018 21.293L206.269 22.4406C206.516 22.6672 206.544 23.047 206.334 23.3077C206.124 23.5669 206.151 23.944 206.394 24.1714L209.345 26.9222C210.044 27.5735 210.151 28.6418 209.596 29.4192L209.223 29.9421C208.844 30.4734 208.947 31.2087 209.458 31.6147L209.544 31.6827C210.005 32.0484 210.1 32.7095 209.762 33.1905C209.368 33.7505 209.57 34.5298 210.186 34.8281L211.8 35.6096C212.349 35.8757 212.632 36.495 212.473 37.0844C212.255 37.892 212.863 38.6863 213.699 38.6863H215.114C215.708 38.6863 216.281 38.9113 216.716 39.3161L218.046 40.5526C218.317 40.8046 218.699 40.8992 219.057 40.8028L219.208 40.7619C219.426 40.7032 219.659 40.7461 219.841 40.8787C220.121 41.0827 220.224 41.4534 220.088 41.7726L219.898 42.2201C219.76 42.5448 219.454 42.7666 219.102 42.7963L218.87 42.816C218.177 42.8746 217.853 43.7042 218.324 44.2168C218.564 44.4786 218.613 44.8635 218.446 45.1771L218.165 45.7036C217.76 46.4633 217.995 47.4062 218.709 47.8872L225.212 52.2682C226.24 52.9606 226.573 54.3209 225.981 55.4099C225.401 56.4782 225.71 57.8116 226.7 58.5165L227.208 58.8776C228.431 59.748 228.709 61.4486 227.828 62.6637L226.874 63.9788C226.513 64.477 226.63 65.1746 227.134 65.5279C227.607 65.8599 228.256 65.7695 228.621 65.3208L228.913 64.9618C229.442 64.3111 230.384 64.1797 231.071 64.6608L231.739 65.1287C231.797 65.1696 231.835 65.234 231.841 65.3049C231.86 65.5164 232.123 65.6021 232.263 65.4423L234.188 63.2428C234.373 63.0323 234.329 62.7075 234.095 62.5537C233.874 62.4084 233.82 62.1077 233.977 61.8949L236.414 58.5866C236.467 58.514 236.542 58.46 236.628 58.4321L237.519 58.1424C237.715 58.0788 237.695 57.7955 237.493 57.7597C237.349 57.7344 237.281 57.5678 237.366 57.4495L237.567 57.1709C237.728 56.9471 237.629 56.6314 237.369 56.5396L237.125 56.4534C236.958 56.3946 236.89 56.1957 236.985 56.0466C237.044 55.9548 237.151 55.9063 237.259 55.9231L237.623 55.9798C237.902 56.0233 238.185 55.9228 238.375 55.7125L239.007 55.0116C239.93 53.987 241.495 53.8686 242.562 54.7425L245.964 57.5284C246.15 57.6807 246.379 57.7706 246.619 57.7852C246.984 57.8074 247.316 58.0022 247.513 58.3096L247.589 58.428C247.892 58.9013 248.446 59.1511 249.002 59.0652L252.227 58.5666C252.412 58.538 252.533 58.3574 252.49 58.1752C252.446 57.994 252.566 57.8141 252.75 57.7841L253.501 57.6614C253.684 57.6315 253.815 57.4681 253.804 57.2829C253.792 57.081 253.948 56.9087 254.15 56.9L256.895 56.7821C257.676 56.7486 258.359 57.3058 258.482 58.0781C258.618 58.9301 259.428 59.5042 260.277 59.351L260.602 59.2924C260.846 59.2484 261.097 59.2535 261.339 59.3076L261.682 59.3842C262.394 59.543 262.928 60.1337 263.014 60.8577C263.116 61.7179 263.843 62.3673 264.71 62.3724L265.29 62.3759C265.982 62.38 266.608 62.7853 266.895 63.4145C267.109 63.8839 267.517 64.2369 268.012 64.3817L268.429 64.5039C268.944 64.6543 269.324 65.0884 269.406 65.6178C269.522 66.3643 269.017 67.0653 268.272 67.1913L267.284 67.3583C266.482 67.4939 265.924 68.2284 266.007 69.0372L266.055 69.5125C266.105 69.9956 265.795 70.4429 265.325 70.566C264.863 70.6872 264.554 71.1227 264.593 71.599L264.817 74.3503C264.836 74.5753 265.015 74.7534 265.24 74.7704C265.459 74.7868 265.635 74.9559 265.661 75.1737L265.826 76.5672C265.871 76.9459 265.518 77.2496 265.15 77.1494C265.01 77.1111 264.859 77.1316 264.734 77.2063L264.276 77.4788C264.13 77.5659 264.125 77.7761 264.267 77.8703C264.421 77.9726 264.399 78.2052 264.228 78.2766L264.039 78.3558C263.897 78.4151 263.813 78.5617 263.832 78.714L264.134 81.0686C264.189 81.5019 264.013 81.9325 263.67 82.2028C263.428 82.3932 263.266 82.6665 263.214 82.9699L263.1 83.6369C263.041 83.9791 263.043 84.3288 263.104 84.6704L263.302 85.776C263.479 86.7703 264.397 87.4571 265.401 87.3477L266.639 87.2128C266.929 87.1812 267.195 87.3765 267.251 87.6626C267.309 87.9524 267.581 88.1484 267.874 88.1113L268.62 88.0169C269.354 87.9239 270.029 88.4315 270.144 89.1628L271.531 98.0107C271.627 98.6243 271.145 99.1757 270.524 99.1622L270.236 99.156C270.052 99.152 269.881 99.2478 269.788 99.4064L269.765 99.4457C269.646 99.6489 269.392 99.7282 269.178 99.6289C268.935 99.516 268.648 99.6352 268.556 99.8868L268.356 100.435C268.288 100.623 268.061 100.696 267.896 100.584C267.674 100.434 267.379 100.62 267.42 100.885L268.713 109.273C268.814 109.924 268.704 110.591 268.399 111.176L267.746 112.43C267.604 112.702 267.321 112.871 267.014 112.866C266.616 112.86 266.272 113.143 266.202 113.535L266.172 113.703C266.069 114.284 265.492 114.653 264.921 114.505L263.53 114.143C263.254 114.072 263.025 113.877 262.911 113.615C262.725 113.19 262.256 112.966 261.809 113.09L261.141 113.274C260.793 113.371 260.42 113.253 260.19 112.974L259.949 112.681C259.794 112.494 259.526 112.45 259.32 112.578C259.04 112.752 258.671 112.601 258.594 112.28L258.404 111.487C258.354 111.275 258.239 111.083 258.076 110.938L257.034 110.006C256.862 109.853 256.596 109.885 256.465 110.074C256.362 110.225 256.166 110.281 255.998 110.208L254.129 109.391C253.956 109.316 253.764 109.297 253.581 109.339L253.441 109.371C253.141 109.44 252.832 109.301 252.684 109.032L252.465 108.636C252.382 108.484 252.185 108.44 252.044 108.541L251.571 108.881C251.492 108.938 251.533 109.063 251.63 109.063C251.735 109.063 251.77 109.205 251.676 109.253L250.392 109.91C250.253 109.982 250.086 109.975 249.953 109.893L249.143 109.393C249.012 109.313 248.849 109.429 248.881 109.579C248.901 109.668 248.848 109.757 248.76 109.783L248.065 109.987C247.613 110.12 247.326 110.562 247.388 111.029L247.571 112.391C247.617 112.738 247.525 113.089 247.315 113.369C246.989 113.803 246.959 114.392 247.239 114.857L247.604 115.464C247.793 115.777 247.692 116.184 247.378 116.372L247.252 116.447C246.909 116.653 246.884 117.141 247.204 117.381L247.555 117.643C247.788 117.818 247.718 118.184 247.438 118.26C247.267 118.306 247.158 118.473 247.184 118.648L247.46 120.512C247.585 121.353 248.352 121.944 249.197 121.85C250.01 121.76 250.757 122.305 250.919 123.106L251.073 123.868C251.262 124.798 250.545 125.665 249.595 125.654L248.574 125.643C248.306 125.64 248.088 125.856 248.088 126.123C248.088 126.355 247.923 126.553 247.695 126.596L246.172 126.879C245.4 127.022 244.891 127.764 245.032 128.536L245.09 128.851C245.187 129.379 245.663 129.751 246.199 129.719C246.744 129.686 247.225 130.071 247.312 130.609L247.398 131.144C247.536 132.001 246.991 132.82 246.147 133.023L243.857 133.574C243.63 133.629 243.457 133.813 243.417 134.043C243.372 134.298 243.166 134.494 242.909 134.524L239.655 134.91C239.3 134.952 238.942 134.956 238.586 134.921L233.987 134.475C233.736 134.451 233.528 134.27 233.468 134.025C233.407 133.775 233.192 133.593 232.936 133.574L231.094 133.435C230.539 133.393 230.069 133.842 230.087 134.399C230.103 134.878 229.753 135.292 229.278 135.357L227.496 135.601C226.958 135.675 226.431 135.405 226.176 134.926C225.953 134.505 225.515 134.24 225.038 134.239L221.437 134.224C221.211 134.223 220.993 134.143 220.821 133.997L220.737 133.926C220.507 133.731 220.409 133.421 220.486 133.129C220.65 132.503 220.027 131.959 219.429 132.206L218.42 132.622C218.261 132.687 218.091 132.721 217.919 132.722L213.532 132.738C213.094 132.739 212.722 132.417 212.662 131.983C212.59 131.457 212.998 130.988 213.529 130.988H214.33C215.059 130.988 215.693 130.487 215.86 129.777L216.265 128.062C216.378 127.583 216.289 127.079 216.017 126.669L215.387 125.717C215.241 125.497 215.285 125.202 215.49 125.034C215.697 124.864 215.739 124.562 215.586 124.342L215.49 124.203C215.277 123.896 214.861 123.811 214.544 124.009L214.441 124.074C213.959 124.377 213.322 124.112 213.196 123.557L212.856 122.053C212.765 121.652 212.349 121.416 211.958 121.544L211.501 121.693C211.347 121.743 211.184 121.648 211.152 121.489C211.128 121.37 211.187 121.249 211.296 121.194L211.82 120.93C212.237 120.72 212.463 120.258 212.373 119.8L212.164 118.735C212.064 118.225 211.677 117.82 211.172 117.696L210.928 117.636C210.663 117.571 210.445 117.383 210.344 117.129C210.167 116.686 210.391 116.185 210.839 116.021L211.17 115.9C211.744 115.691 212.065 115.08 211.913 114.488L211.688 113.616C211.479 112.805 210.665 112.305 209.847 112.485L207.083 113.093C206.714 113.174 206.434 112.764 206.645 112.45L206.663 112.422C206.77 112.263 206.742 112.048 206.597 111.922L206.521 111.856C206.43 111.776 206.296 111.771 206.199 111.843C206.036 111.964 205.803 111.856 205.789 111.653L205.76 111.199C205.747 111.01 205.841 110.831 206.003 110.733L206.293 110.559C206.522 110.422 206.65 110.164 206.622 109.898C206.6 109.698 206.492 109.518 206.325 109.405L205.979 109.17C205.608 108.918 205.147 108.835 204.711 108.942L196.713 110.896C195.825 111.113 194.937 110.539 194.771 109.64C194.623 108.841 193.897 108.281 193.087 108.342L191.904 108.431C190.825 108.512 189.79 107.988 189.216 107.071L189.095 106.878C188.202 105.451 186.375 104.928 184.862 105.668L176.154 109.926C175.624 110.185 174.996 109.854 174.909 109.271C174.856 108.914 174.589 108.626 174.237 108.548L163.431 106.136C162.751 105.984 162.105 105.705 161.529 105.313L160.783 104.807C159.854 104.176 158.687 104.005 157.616 104.343L157.185 104.479C156.591 104.667 155.949 104.626 155.384 104.366C154.771 104.083 154.069 104.06 153.439 104.303L152.151 104.798C151.439 105.072 150.68 105.202 149.917 105.181L147.41 105.11C146.667 105.089 145.927 105.205 145.227 105.453L144.592 105.677C143.816 105.951 143.145 106.461 142.673 107.136L142.438 107.472C142.042 108.039 141.453 108.442 140.782 108.607L139.071 109.028C138.847 109.083 138.614 108.983 138.5 108.783C138.397 108.603 138.196 108.502 137.989 108.527L135.506 108.829C134.486 108.953 133.589 108.155 133.594 107.127L133.597 106.516C133.601 105.807 132.977 105.256 132.273 105.348L131.54 105.444C131.37 105.466 131.209 105.357 131.167 105.191C131.128 105.035 130.986 104.929 130.826 104.935L130.474 104.948C130.004 104.966 129.659 105.395 129.742 105.858L130.716 111.304C130.84 111.996 130.39 112.661 129.701 112.803C129.033 112.941 128.586 113.572 128.678 114.248L128.926 116.081C128.957 116.31 129.145 116.487 129.376 116.504C129.595 116.521 129.777 116.681 129.82 116.897L130.112 118.354C130.25 119.041 130.875 119.518 131.574 119.47C132.298 119.42 132.939 119.935 133.047 120.653L133.393 122.974C133.501 123.694 133.034 124.373 132.324 124.531L131.697 124.671C131.389 124.739 131.076 124.572 130.962 124.277C130.837 123.953 130.475 123.788 130.148 123.907L129.56 124.12C129.256 124.23 129.07 124.537 129.112 124.857C129.161 125.235 128.895 125.581 128.518 125.63L127.57 125.754C126.62 125.878 125.977 126.784 126.174 127.722L126.497 129.265C126.673 130.103 127.577 130.567 128.361 130.221C129.12 129.887 129.998 130.31 130.209 131.113L130.269 131.343C130.4 131.844 130.863 132.186 131.38 132.165C131.953 132.142 132.447 132.561 132.519 133.129L132.55 133.376C132.615 133.885 132.391 134.386 131.97 134.678L131.89 134.734C131.407 135.069 131.157 135.65 131.247 136.231L131.648 138.819C131.835 140.029 132.975 140.852 134.182 140.65L134.964 140.519C135.73 140.39 136.454 140.907 136.582 141.673L136.72 142.503C136.752 142.691 136.644 142.874 136.465 142.939C136.301 142.998 136.195 143.158 136.205 143.332L136.286 144.789C136.311 145.244 135.977 145.639 135.524 145.69C135.039 145.746 134.697 146.194 134.772 146.677L134.963 147.897C135.063 148.54 134.665 149.156 134.037 149.328C133.394 149.505 132.994 150.147 133.119 150.803L133.46 152.582C133.519 152.894 133.8 153.113 134.116 153.096C134.417 153.08 134.688 153.278 134.763 153.57L135.403 156.053C135.441 156.2 135.418 156.356 135.339 156.486L135.022 157.013C134.971 157.097 134.852 157.105 134.791 157.028C134.704 156.917 134.527 156.989 134.541 157.129L134.575 157.47C134.586 157.576 134.525 157.677 134.426 157.717L134.406 157.725C134.187 157.812 134.18 158.12 134.394 158.218L135.14 158.561C135.322 158.644 135.373 158.879 135.244 159.031C135.062 159.244 135.243 159.568 135.52 159.525L135.916 159.463C136.141 159.428 136.357 159.566 136.419 159.785L136.698 160.765C136.787 161.08 136.778 161.415 136.671 161.725L136.596 161.941C136.388 162.544 135.941 163.035 135.36 163.299L134.464 163.706C133.923 163.952 133.339 164.091 132.745 164.116L131.725 164.159C130.868 164.195 130.009 164.119 129.172 163.933L120.902 162.096L117.961 160.996C116.804 160.564 115.591 160.3 114.359 160.212C112.731 160.096 111.096 160.29 109.54 160.783L104.743 162.304C102.516 163.011 100.222 163.485 97.898 163.721L97.087 163.804C94.1584 164.101 91.2907 164.834 88.579 165.979C87.0543 166.623 85.4782 167.138 83.8673 167.518L80.492 168.314L72.606 169.82C71.4718 170.037 70.2995 169.746 69.3976 169.025C69.0946 168.783 68.829 168.498 68.6092 168.178L68.4122 167.892C67.0434 165.901 64.6572 164.869 62.2694 165.234L47.8058 167.444C47.0865 167.554 46.4063 167.084 46.2549 166.372L46.2371 166.288C46.0775 165.538 45.305 165.09 44.5744 165.324C43.734 165.592 42.8765 164.961 42.8835 164.079L42.905 161.346C42.9079 160.989 43.1373 160.672 43.4765 160.558L43.489 160.554C43.7675 160.46 43.9742 160.224 44.0301 159.935L44.0453 159.857C44.1213 159.464 43.8698 159.083 43.4793 158.999C43.2485 158.949 43.0557 158.791 42.9612 158.575L42.7017 157.98C42.3274 157.123 41.4088 156.639 40.4899 156.816L37.1897 157.45C36.0533 157.669 35.2924 158.746 35.4663 159.89C35.6415 161.043 34.8675 162.127 33.7198 162.334L25.8341 163.762C25.3297 163.853 24.9835 164.322 25.0438 164.831C25.066 165.018 25.1425 165.195 25.264 165.34L25.6463 165.795C26.0836 166.316 25.8739 167.117 25.2434 167.373C24.6212 167.625 23.9232 167.198 23.8806 166.528C23.8591 166.19 23.6648 165.887 23.3666 165.725L22.9387 165.494C22.298 165.148 21.9181 164.46 21.9664 163.733L22.0499 162.477C22.0617 162.3 21.9817 162.129 21.838 162.025C21.6717 161.904 21.4496 161.894 21.2729 161.999L19.5217 163.037C19.2867 163.176 19.0148 163.241 18.7423 163.221L18.3642 163.194C17.7744 163.153 17.3497 162.61 17.4502 162.028C17.4857 161.822 17.5849 161.632 17.7339 161.485L18.3511 160.878C18.5935 160.639 18.708 160.299 18.6592 159.963C18.5702 159.348 17.9773 158.938 17.3704 159.072L14.8825 159.62C14.3885 159.729 13.8765 159.728 13.3831 159.616L9.64083 158.769C9.1908 158.667 8.87993 158.255 8.9051 157.795C8.93575 157.234 8.4734 156.77 7.91217 156.798L2.74309 157.062C1.75821 157.112 1.23519 155.917 1.94056 155.228C2.19007 154.984 2.30511 154.634 2.24886 154.29L1.2721 148.313C0.950719 146.346 2.19551 144.463 4.13082 143.988L6.28514 143.459C6.94721 143.296 7.38142 142.662 7.29356 141.986L7.21367 141.372C7.18488 141.15 7.01417 140.974 6.7937 140.938C6.59089 140.904 6.4283 140.752 6.38233 140.552L6.18022 139.671C6.09561 139.302 6.28577 138.926 6.63268 138.775C6.9587 138.633 7.1489 138.29 7.09644 137.938L6.6594 135.009C6.59072 134.549 6.87599 134.11 7.3244 133.985C7.78333 133.858 8.0696 133.402 7.98475 132.933L7.44896 129.974C7.38966 129.646 7.57027 129.322 7.88015 129.201C8.17327 129.086 8.35285 128.788 8.31828 128.475L8.22548 127.635C8.1108 126.597 7.13964 125.873 6.1119 126.061L4.26003 126.399C3.95617 126.454 3.64256 126.413 3.36373 126.28L3.30912 126.254C3.04672 126.129 2.83402 125.919 2.7052 125.658L2.3274 124.894C2.1925 124.621 2.32115 124.291 2.6052 124.182C2.84605 124.089 2.98167 123.833 2.92307 123.582L2.23923 120.648C2.17334 120.366 2.21699 120.069 2.36139 119.817L2.60812 119.387C2.74403 119.15 3.03102 119.046 3.28736 119.14C3.6397 119.27 4.01731 119.023 4.03987 118.648L4.1006 117.639C4.1231 117.265 4.30421 116.919 4.59831 116.688L4.63745 116.657C4.91269 116.44 5.09827 116.129 5.15861 115.784L5.18088 115.657C5.31562 114.886 5.94263 114.297 6.72004 114.211L9.44705 113.907C9.79416 113.868 10.0457 113.558 10.0115 113.21L9.88194 111.892C9.86517 111.722 10.0732 111.626 10.1918 111.75C10.2315 111.791 10.2886 111.811 10.3455 111.804L11.0672 111.709C11.8645 111.605 12.6176 112.102 12.8351 112.876L13.062 113.683L12.9829 113.327C12.6099 111.645 13.6332 109.969 15.2997 109.533L17.5114 108.954C17.8187 108.873 18.0175 108.576 17.9742 108.261L17.9466 108.061C17.9146 107.828 18.0777 107.613 18.3109 107.581L18.4048 107.568C18.5876 107.543 18.715 107.374 18.6884 107.192C18.6602 106.998 18.4711 106.871 18.2809 106.917L15.9547 107.488C15.5797 107.58 15.2047 107.337 15.1354 106.958C15.0713 106.606 15.2943 106.266 15.6423 106.184L16.5626 105.969C17.4448 105.763 17.9997 104.889 17.8106 104.003L17.4295 102.218C17.3095 101.655 17.716 101.117 18.2898 101.079C18.8059 101.044 19.2536 101.432 19.2937 101.948L19.3129 102.195C19.3515 102.691 19.787 103.061 20.2832 103.019C20.786 102.977 21.225 103.357 21.2547 103.861L21.4536 107.233C21.4711 107.529 21.6844 107.778 21.975 107.84C22.2684 107.903 22.5672 107.76 22.7028 107.493L23.2347 106.443C23.2998 106.315 23.4326 106.235 23.5763 106.239C23.8654 106.245 24.0519 105.935 23.9108 105.682L23.0802 104.197C22.849 103.783 23.1132 103.267 23.584 103.213L23.7461 103.195C23.9582 103.171 24.1255 103.003 24.1496 102.791C24.173 102.585 24.3321 102.42 24.5375 102.389L31.2322 101.391C31.7005 101.321 32.0338 100.9 31.9935 100.428C31.9541 99.9655 32.2737 99.5495 32.7306 99.4685L35.0748 99.0527C35.2643 99.0191 35.4065 98.8607 35.4194 98.6688C35.4306 98.5045 35.537 98.3619 35.6913 98.3046L36.0432 98.1738C36.4017 98.0406 36.6528 97.7145 36.6899 97.3339L36.7472 96.747C36.822 95.9798 37.3629 95.3386 38.1064 95.1354C39.097 94.8647 39.6801 93.8417 39.4081 92.8514L39.0261 91.4603C38.944 91.1615 38.6929 90.9396 38.3863 90.895C37.9947 90.8381 37.7079 90.497 37.719 90.1014L37.801 87.1733C37.8225 86.4064 37.1868 85.7834 36.4205 85.8204L36.2807 85.8272C35.6108 85.8596 35.0481 85.3291 35.041 84.6584L35.0383 84.4012C35.0355 84.1408 34.8949 83.9014 34.6688 83.772C34.314 83.5691 34.1934 83.1154 34.4006 82.7631L34.594 82.4342C34.7094 82.238 34.7617 82.0111 34.7439 81.7843L34.6892 81.0862C34.6431 80.4988 35.022 79.962 35.5909 79.8086C36.176 79.6508 36.5577 79.0887 36.4883 78.4866L34.9398 65.0454C34.9118 64.8025 35.0485 64.5706 35.2745 64.4774L35.3182 64.4594C35.5101 64.3803 35.6297 64.1871 35.6149 63.98C35.5953 63.7072 35.8068 63.4729 36.0802 63.4645L36.9124 63.4389C37.2108 63.4297 37.4428 63.1761 37.4255 62.878C37.4092 62.5993 37.6119 62.3557 37.8889 62.321L41.7855 61.8326C42.175 61.7838 42.5407 62.0304 42.6415 62.4098C42.7551 62.8375 43.1998 63.0867 43.624 62.9603L44.0252 62.8408C44.6334 62.6597 44.9928 62.0334 44.8423 61.4168L44.7769 61.149C44.5648 60.2802 45.2112 59.4382 46.1053 59.4187L46.4725 59.4107C46.7992 59.4035 47.0997 59.5886 47.2404 59.8836C47.4444 60.3115 47.9646 60.4821 48.3825 60.2582L53.2898 57.628L53.6958 57.3605C54.2866 56.9713 54.6001 56.2736 54.5021 55.573C54.3667 54.6046 55.0181 53.6969 55.9799 53.5208L56.3767 53.4482C56.9303 53.3468 57.3527 52.8956 57.4174 52.3366C57.5149 51.4945 56.7815 50.7922 55.9445 50.9259L54.4792 51.1599C54.1415 51.2139 53.821 50.9925 53.7519 50.6575C53.6847 50.3321 53.3796 50.1123 53.0497 50.1516L52.8813 50.1717C52.6409 50.2004 52.4 50.1218 52.2226 49.957L50.3762 48.241C49.6725 47.587 48.7251 47.2612 47.768 47.3442L47.7298 47.3475C47.2814 47.3863 46.8297 47.3307 46.4041 47.1842L45.6048 46.9091C45.1418 46.7497 44.7819 46.3801 44.6349 45.913L44.3381 44.97C44.2316 44.6317 43.8618 44.4534 43.5308 44.5809C43.2716 44.6806 42.9776 44.5942 42.8137 44.37L42.7578 44.2936C42.6725 44.1769 42.6233 44.0377 42.6164 43.8933L42.4672 40.7931C42.443 40.292 42.793 39.8502 43.2863 39.759C43.596 39.7017 43.9146 39.7933 44.1466 40.0063L44.3377 40.1817C44.6737 40.4902 45.1304 40.6317 45.5821 40.5673L46.6996 40.4079C47.1699 40.3409 47.5951 40.0919 47.8838 39.7147L48.8289 38.4798C49.0366 38.2084 49.4408 38.1952 49.6658 38.4525C49.7737 38.576 49.9319 38.6438 50.0957 38.637L50.5524 38.6178C51.204 38.5905 51.7836 39.0286 51.9351 39.6629L52.03 40.0602C52.0962 40.3373 52.318 40.5502 52.5976 40.6051C52.7457 40.6342 52.8992 40.6165 53.0368 40.5544L54.2225 40.0197C54.5172 39.8868 54.8617 39.9321 55.112 40.1366C55.3016 40.2915 55.5486 40.3574 55.7901 40.3175L56.6288 40.1789C56.7935 40.1517 56.9064 39.9982 56.8833 39.8329C56.8611 39.6745 56.9642 39.5255 57.1203 39.4903L57.3585 39.4366C57.6814 39.3639 57.9985 39.5791 58.0502 39.906L58.2554 41.204C58.3402 41.7406 58.7735 42.1542 59.3135 42.2139C60.0307 42.2933 60.6565 41.729 60.6515 41.0075L60.6429 39.7615C60.6414 39.5462 60.67 39.3319 60.7278 39.1245L61.567 36.1129C61.6328 35.8767 61.7976 35.6806 62.019 35.5751C62.2576 35.4613 62.4296 35.2429 62.484 34.9842L63.0166 32.4539Z" fill="#2969F6" stroke="#1D1D1D" stroke-width="2" stroke-linecap="round" stroke-linejoin="round"/>
</svg>
