<svg width="176" height="232" viewBox="0 0 176 232" fill="none" xmlns="http://www.w3.org/2000/svg">
<path d="M90.4852 1.59879C90.9988 1.04698 91.9062 1.18149 92.2377 1.85859L92.5065 2.40775C92.6927 2.78796 93.1121 2.99449 93.5269 2.91021C93.8532 2.84392 94.1901 2.95712 94.4101 3.20702L94.8177 3.6699C95.41 4.34267 95.2519 5.3871 94.487 5.85439L93.5868 6.40428C93.3209 6.56672 93.2584 6.92592 93.4538 7.16863L93.5036 7.23047C93.6438 7.40459 93.6271 7.65709 93.4653 7.81133C93.2827 7.98542 93.2885 8.27864 93.478 8.44533L94.038 8.93813C94.1291 9.0183 94.2327 9.08303 94.3447 9.12977L98.6112 10.91C99.0035 11.0737 99.4214 11.1675 99.846 11.1872L101.797 11.2776C102.456 11.3082 103.04 10.8566 103.177 10.211L103.201 10.0986C103.337 9.45362 103.959 9.03159 104.609 9.14277C105.273 9.25637 105.721 9.88389 105.613 10.5489L104.536 17.1977C104.51 17.3634 104.433 17.5171 104.318 17.6388C104.073 17.8958 104.018 18.2793 104.181 18.5946L106.209 22.5344C106.696 23.4805 106.216 24.6374 105.201 24.9596L104.576 25.1584C104.228 25.269 103.993 25.5936 103.996 25.9586L103.999 26.165C104.004 26.6995 103.437 27.0465 102.964 26.7987C102.624 26.6213 102.206 26.7459 102.019 27.0798L101.526 27.9599C101.176 28.5848 101.612 29.3584 102.327 29.383L102.549 29.3906C102.82 29.3999 103.056 29.5783 103.138 29.8362C103.224 30.1064 103.478 30.2877 103.761 30.2821L105.481 30.2479C105.948 30.2387 106.41 30.3405 106.83 30.5451L107.613 30.9262C107.874 31.0536 108.159 31.1255 108.45 31.1373L108.907 31.156C109.234 31.1694 109.551 31.0384 109.773 30.7977C110.022 30.5289 110.386 30.3987 110.749 30.4493L114.254 30.9379C114.383 30.9559 114.515 30.942 114.638 30.8974C115.164 30.7066 115.718 31.0988 115.713 31.6578L115.656 38.1468C115.649 38.9372 116.33 39.5587 117.116 39.4798C117.623 39.429 118.114 39.6724 118.38 40.1064L118.516 40.3275C118.847 40.8661 119.453 41.1722 120.083 41.1185L121.101 41.0315C121.465 41.0005 121.784 41.2718 121.813 41.6357C121.84 41.9949 121.574 42.3094 121.215 42.3409L120.65 42.3904C120.303 42.4208 119.986 42.5966 119.776 42.8743L119.727 42.9397C119.504 43.2351 119.405 43.6063 119.453 43.9734L119.618 45.2506C119.685 45.7721 119.57 46.3008 119.291 46.7469L119.153 46.9679C118.671 47.741 118.788 48.7452 119.436 49.3861C119.752 49.6983 120.164 49.8935 120.606 49.9394L121.581 50.0409C121.926 50.0767 122.221 50.3063 122.339 50.6323L122.426 50.8695C122.55 51.2095 122.374 51.5855 122.034 51.7089C121.624 51.8572 121.471 52.3565 121.727 52.7088L121.798 52.8066C121.892 52.9362 121.942 53.0927 121.941 53.2528L121.934 53.8154C121.928 54.4242 121.504 54.9487 120.91 55.0826L120.493 55.1766C120.222 55.2376 120.016 55.4571 119.971 55.7312C119.93 55.9844 119.75 56.1928 119.505 56.2705L119.164 56.379C118.604 56.557 118.24 57.0974 118.286 57.6832L119.053 67.4438C119.12 68.2932 119.461 69.0978 120.025 69.7366L121.13 70.9887C121.668 71.5984 121.724 72.4952 121.267 73.1675L121.091 73.4265C120.938 73.6507 120.881 73.9262 120.932 74.1926L121.119 75.1799C121.138 75.2818 121.062 75.3768 120.958 75.3795C120.794 75.3839 120.732 75.5966 120.869 75.6878L121.818 76.3219C122.031 76.4643 122.112 76.7387 122.01 76.9741L121.967 77.0746C121.846 77.3537 121.931 77.6791 122.173 77.8637L123.318 78.7395C123.689 79.0229 124.165 79.1315 124.622 79.0372L125.285 78.9004C125.623 78.8306 125.965 79.0012 126.113 79.3133C126.287 79.6811 126.723 79.8425 127.095 79.6766L127.919 79.3089C128.926 78.8593 130.085 79.4913 130.253 80.5817L130.833 84.3529C130.906 84.8291 131.379 85.1336 131.843 85.0024C132.105 84.9284 132.386 84.9921 132.59 85.1717L132.779 85.3378C133.423 85.9032 133.329 86.9312 132.594 87.3711L131.127 88.2496C130.481 88.6367 130.127 89.3716 130.227 90.1183L130.244 90.2401C130.308 90.713 130.16 91.1899 129.839 91.5437C129.591 91.818 129.444 92.169 129.423 92.5383L129.413 92.708C129.366 93.544 129.819 94.3287 130.567 94.7052L131.307 95.0781C131.891 95.3721 132.548 95.4897 133.198 95.4163L136.644 95.0273C137.722 94.9056 138.799 95.2582 139.597 95.9934L139.682 96.0725C140.41 96.7431 140.817 97.6918 140.802 98.681C140.791 99.386 140.995 100.078 141.386 100.664L141.992 101.572C142.217 101.908 142.315 102.313 142.27 102.715L142.241 102.964C142.214 103.209 142.099 103.436 141.919 103.604C141.573 103.927 141.49 104.443 141.718 104.858L141.808 105.022C141.931 105.246 142.118 105.427 142.346 105.543L143.453 106.107C143.837 106.303 144.26 106.409 144.691 106.418L147.231 106.468C147.604 106.475 147.885 106.808 147.83 107.177C147.785 107.475 147.963 107.763 148.251 107.855L155.004 110.036C155.85 110.309 156.332 111.199 156.098 112.057L155.999 112.421C155.853 112.956 156.095 113.521 156.584 113.783C156.955 113.982 157.193 114.363 157.21 114.784L157.222 115.103C157.236 115.456 157.143 115.804 156.955 116.103L156.859 116.256C156.421 116.951 156.382 117.825 156.756 118.557L156.942 118.919C157.429 119.873 158.383 120.5 159.452 120.57L168.496 121.163C170.202 121.275 171.533 122.684 171.548 124.394L171.555 125.253C171.559 125.725 171.782 126.168 172.158 126.452L172.291 126.552C172.571 126.764 172.931 126.838 173.271 126.756C173.631 126.668 174.011 126.757 174.296 126.994L174.37 127.056C174.826 127.436 174.983 128.068 174.757 128.618L173.46 131.777C173.342 132.063 173.323 132.381 173.405 132.679C173.648 133.558 172.997 134.43 172.086 134.448L166.347 134.559C166.068 134.564 165.788 134.55 165.511 134.515L161.046 133.959C160.735 133.921 160.439 134.102 160.332 134.396C160.246 134.631 160.036 134.799 159.788 134.832L158.914 134.946C158.082 135.055 157.392 135.643 157.153 136.447L156.918 137.238C156.853 137.457 156.833 137.687 156.858 137.914L156.892 138.223C156.984 139.045 156.358 139.771 155.532 139.801C154.886 139.825 154.338 140.281 154.197 140.911L154.06 141.519C153.939 142.062 154.024 142.631 154.301 143.114L154.391 143.272C154.683 143.782 154.8 144.372 154.726 144.954L154.535 146.461C154.472 146.958 154.224 147.412 153.84 147.734C153.364 148.134 153.102 148.734 153.133 149.356L153.229 151.288C153.261 151.929 152.809 152.492 152.176 152.599L151.737 152.673C151.227 152.76 150.756 152.383 150.727 151.867C150.701 151.406 150.319 151.046 149.857 151.048L147.413 151.058C146.63 151.061 146.007 151.718 146.046 152.5L146.051 152.608C146.087 153.33 145.514 153.937 144.791 153.942L144.54 153.944C143.973 153.948 143.518 154.413 143.526 154.981C143.529 155.223 143.446 155.459 143.292 155.647L143.166 155.798C142.873 156.153 142.438 156.36 141.978 156.363L133.212 156.426C132.51 156.431 131.923 156.961 131.848 157.659C131.773 158.347 131.202 158.874 130.51 158.893L126.422 159.002C125.377 159.03 124.544 159.882 124.538 160.926L124.536 161.319C124.532 162.156 123.859 162.835 123.022 162.846C122.245 162.856 121.599 163.446 121.517 164.218L121.411 165.216C121.368 165.616 121.047 165.928 120.646 165.96C120.206 165.994 119.869 166.365 119.877 166.806L119.917 169.078C119.921 169.314 120.02 169.539 120.191 169.702C120.403 169.904 120.501 170.198 120.454 170.486L120.247 171.739C120.188 172.102 120.378 172.461 120.713 172.614C121.007 172.749 121.193 173.044 121.189 173.367L121.102 180.191C121.098 180.481 120.867 180.717 120.577 180.727C120.274 180.738 120.038 180.996 120.054 181.299L120.069 181.587C120.09 181.991 119.816 182.351 119.421 182.438L118.536 182.633C117.983 182.755 117.513 183.119 117.255 183.624L115.759 186.559C115.63 186.812 115.573 187.095 115.596 187.378C115.657 188.161 116.299 188.772 117.084 188.796L121.421 188.923C122.498 188.955 123.261 189.989 122.973 191.028C122.907 191.268 122.895 191.519 122.939 191.764L123.07 192.495C123.124 192.795 123.038 193.104 122.837 193.335C122.653 193.544 122.391 193.669 122.113 193.678L121.042 193.714C120.587 193.729 120.214 194.079 120.169 194.532C120.131 194.922 119.848 195.243 119.467 195.329L117.873 195.69C117.11 195.863 116.713 196.708 117.066 197.407C117.165 197.603 117.209 197.822 117.193 198.04L116.847 202.65C116.745 204.012 116.376 205.34 115.761 206.56C115.374 207.328 114.893 208.044 114.33 208.694L112.18 211.172C111.873 211.526 111.451 211.761 110.989 211.836C110.198 211.964 109.407 211.608 108.978 210.932L107.765 209.016C107.414 208.463 106.877 208.053 106.251 207.862L106.172 207.839C105.263 207.561 104.274 207.802 103.595 208.468C102.917 209.132 101.931 209.374 101.023 209.099L100.658 208.988C100.193 208.848 99.7019 208.813 99.2215 208.888L99.0829 208.909C98.5113 208.998 97.927 208.957 97.3734 208.79L96.1045 208.406C94.1674 207.819 92.0952 207.855 90.1793 208.508L87.9547 209.265C86.7342 209.681 85.4702 209.957 84.1874 210.086L82.5741 210.25C81.0186 210.407 79.4473 210.279 77.938 209.871C75.9744 209.34 73.9127 209.284 71.9233 209.708L69.3701 210.251C69.0557 210.318 68.7614 210.458 68.5108 210.659L68.0383 211.039C67.6973 211.313 67.548 211.761 67.6566 212.185C67.7968 212.732 67.5054 213.298 66.9784 213.501L66.2203 213.794C65.855 213.935 65.5384 214.179 65.3086 214.496L55.6831 227.773C55.3487 228.234 54.9605 228.654 54.5268 229.023L52.5676 230.693C52.533 230.722 52.489 230.738 52.4435 230.738C52.2713 230.738 52.1869 230.529 52.311 230.409L53.8242 228.954C54.0776 228.71 54.1902 228.355 54.1234 228.01L53.986 227.3C53.8954 226.831 53.6653 226.401 53.3259 226.066L52.3568 225.108C51.8864 224.643 51.337 224.266 50.7343 223.994C49.1344 223.271 47.2875 223.346 45.7508 224.194L45.5649 224.297C45.111 224.547 44.6964 224.863 44.3341 225.234C43.6229 225.962 42.7171 226.47 41.7249 226.698L41.1586 226.828C40.7607 226.919 40.3774 227.066 40.0199 227.263L38.7438 227.968C37.4648 228.674 35.858 228.279 35.0515 227.061C34.2401 225.836 34.513 224.191 35.6769 223.294L38.2177 221.334C38.3662 221.22 38.577 221.235 38.7067 221.371C38.8222 221.491 39.0046 221.519 39.1504 221.437L39.8438 221.05C40.7282 220.556 40.8077 219.314 39.9936 218.712L39.6447 218.454C38.9006 217.903 38.7445 216.853 39.2961 216.11L39.9476 215.232C40.3489 214.691 40.3083 213.941 39.8511 213.447L39.6835 213.266C39.287 212.837 38.6292 212.781 38.1662 213.137C37.8364 213.39 37.3939 213.442 37.0145 213.271L32.4866 211.233C31.901 210.969 31.8584 210.154 32.4133 209.831C32.7069 209.66 32.8582 209.32 32.7887 208.987L32.2991 206.642C32.2108 206.218 31.7895 205.952 31.3691 206.054C31.0648 206.128 30.7463 206.009 30.5648 205.753L28.6292 203.033C28.5429 202.911 28.3851 202.864 28.2462 202.918C28.0764 202.984 27.8856 202.898 27.8228 202.727L27.8085 202.688C27.7288 202.471 27.4704 202.381 27.2732 202.502L27.2227 202.533C27.021 202.656 26.7574 202.539 26.712 202.306C26.6591 202.036 26.3206 201.937 26.1334 202.14C25.9835 202.302 25.7207 202.278 25.6019 202.092L25.4409 201.84C25.3057 201.628 25.0435 201.535 24.8051 201.615C24.5978 201.684 24.3691 201.624 24.2232 201.461L22.9983 200.094C22.6363 199.69 22.902 199.046 23.4436 199.015L24.1925 198.973C24.3185 198.965 24.3941 198.83 24.3338 198.719C24.2683 198.598 24.3632 198.453 24.4998 198.465L27.2673 198.704C28.3891 198.801 29.2817 197.78 29.0357 196.681L27.1799 188.392C27.0978 188.026 27.3423 187.666 27.7136 187.607L27.7606 187.599C28.0395 187.555 28.311 187.713 28.4097 187.978C28.5008 188.222 28.741 188.378 29.0014 188.363L33.3714 188.098C33.7401 188.076 34.0886 188.269 34.2661 188.592C34.5021 189.023 35.0266 189.204 35.4782 189.011L37.2423 188.258C37.4571 188.166 37.5787 187.937 37.5344 187.707C37.4951 187.504 37.5865 187.297 37.7636 187.19L39.0566 186.403C39.8031 185.949 40.1599 185.056 39.9323 184.213L39.7026 183.361C39.5409 182.762 39.9048 182.147 40.5081 182C41.0191 181.876 41.5469 182.129 41.7697 182.606L42.4419 184.044C42.8169 184.846 43.7753 185.186 44.5724 184.801L44.7082 184.735C45.3495 184.425 45.6607 183.687 45.4352 183.011C45.325 182.681 45.3401 182.322 45.4776 182.003L47.7976 176.61C47.854 176.479 47.9789 176.39 48.1211 176.381C48.3119 176.368 48.4634 176.215 48.4748 176.024L48.5392 174.947C48.5927 174.051 47.9014 173.285 47.0045 173.247L45.6131 173.187C45.3166 173.174 45.105 172.895 45.173 172.606C45.2257 172.383 45.11 172.153 44.8988 172.063L44.7848 172.014C44.4943 171.89 44.1568 172.004 44.0009 172.279L43.5868 173.009C43.1049 173.859 41.9691 174.061 41.2234 173.43L38.013 170.712C37.8867 170.606 37.7006 170.609 37.5785 170.721C37.4269 170.86 37.1867 170.827 37.0777 170.653L34.1459 165.97C33.8738 165.535 33.2665 165.469 32.9078 165.836C32.5538 166.198 31.9557 166.139 31.6784 165.716L31.0805 164.802C30.8957 164.52 30.5154 164.444 30.2366 164.634C29.9678 164.817 29.6024 164.754 29.4105 164.492L29.0769 164.035C28.6841 163.498 27.9265 163.389 27.3975 163.792L26.6602 164.356C25.6701 165.112 24.2431 164.842 23.5964 163.778L22.0317 161.202C21.0812 159.637 19.1087 159.032 17.4446 159.796L16.5197 160.221C16.165 160.384 15.7573 160.386 15.4008 160.227L15.1728 160.125C14.8848 159.997 14.6839 159.729 14.6418 159.416L14.629 159.322C14.5721 158.9 14.8525 158.506 15.2699 158.422L15.5497 158.366C15.7856 158.318 15.9501 158.103 15.9347 157.863C15.9166 157.582 15.6611 157.376 15.3821 157.419L14.5119 157.552C13.8154 157.658 13.1628 157.185 13.0474 156.49L13.0367 156.425C12.9128 155.679 13.4243 154.977 14.1723 154.865L14.8681 154.761C15.0288 154.737 15.1591 154.618 15.198 154.461C15.2515 154.244 15.4718 154.113 15.6879 154.169L16.0653 154.267C16.3997 154.354 16.7541 154.208 16.935 153.914C17.2862 153.343 16.8373 152.605 16.1701 152.673L14.1652 152.877C13.2208 152.972 12.3633 152.321 12.2024 151.385L11.7641 148.837C11.7151 148.552 11.4759 148.338 11.187 148.321C10.8968 148.304 10.657 148.089 10.6093 147.802L10.0748 144.588C9.83278 143.133 8.48016 142.132 7.01791 142.326L5.69604 142.502C4.78428 142.623 3.96998 141.924 3.95143 141.004L3.93533 140.206C3.92971 139.928 4.12323 139.685 4.39602 139.628C4.61452 139.582 4.78734 139.415 4.84029 139.198L5.24895 137.524C5.28166 137.39 5.27904 137.25 5.24135 137.117L5.20927 137.004C5.11211 136.662 4.76549 136.455 4.41831 136.532C4.04119 136.615 3.67188 136.364 3.61035 135.982L3.39057 134.621C3.30456 134.088 2.82847 133.707 2.2897 133.74C1.75965 133.773 1.28872 133.404 1.19272 132.882L1.13279 132.556C0.990958 131.784 1.50011 131.043 2.27133 130.899L3.77437 130.618C4.00257 130.575 4.16796 130.376 4.16796 130.143C4.16796 129.876 4.38559 129.66 4.65303 129.661L5.67584 129.667C6.62705 129.673 7.34282 128.802 7.15383 127.87L6.99941 127.108C6.83698 126.307 6.08987 125.762 5.27726 125.852C4.4327 125.946 3.66536 125.355 3.54071 124.514L3.26485 122.654C3.23859 122.477 3.34889 122.308 3.52164 122.261C3.80354 122.184 3.8759 121.818 3.6444 121.64L3.30158 121.376C2.98209 121.13 3.01318 120.639 3.36113 120.435L3.47348 120.369C3.78895 120.185 3.89261 119.778 3.70396 119.464L3.33759 118.856C3.05835 118.393 3.08843 117.806 3.41361 117.374C3.62509 117.092 3.71622 116.739 3.66696 116.39L3.47684 115.045C3.40984 114.571 3.70049 114.12 4.15965 113.985L4.84666 113.783C4.93144 113.758 4.98357 113.673 4.9673 113.586C4.93969 113.438 5.10074 113.329 5.2279 113.408L6.03243 113.912C6.16613 113.996 6.33399 114.003 6.47435 113.931L7.76979 113.267C7.86006 113.221 7.82716 113.084 7.72573 113.084C7.63127 113.084 7.59293 112.963 7.6703 112.909L8.14908 112.573C8.28718 112.477 8.47877 112.522 8.55812 112.671L8.77084 113.07C8.91493 113.34 9.22152 113.481 9.52033 113.414L9.67864 113.379C9.86395 113.338 10.0576 113.356 10.2316 113.432L12.0998 114.249C12.2667 114.321 12.4618 114.266 12.5651 114.116C12.6954 113.926 12.9628 113.895 13.1332 114.049L14.1603 114.979C14.3208 115.124 14.4336 115.315 14.4841 115.525L14.6746 116.321C14.7514 116.642 15.12 116.793 15.4003 116.619C15.6061 116.491 15.8747 116.535 16.0289 116.722L16.2693 117.014C16.4997 117.293 16.8732 117.411 17.2221 117.313L17.871 117.132C18.3164 117.008 18.7853 117.23 18.9705 117.654C19.0853 117.916 19.315 118.111 19.5928 118.182L20.9929 118.536C21.5591 118.68 22.1283 118.313 22.2318 117.738L22.2595 117.584C22.331 117.187 22.6797 116.901 23.0831 116.907C23.3967 116.912 23.6859 116.738 23.829 116.459L24.4716 115.206C24.7683 114.628 24.8748 113.97 24.776 113.328L23.4797 104.903C23.4391 104.639 23.7323 104.454 23.9531 104.603C24.1191 104.716 24.3467 104.641 24.4129 104.451L24.6003 103.916C24.6893 103.661 24.9787 103.539 25.2233 103.653C25.4345 103.751 25.6858 103.674 25.8062 103.475L25.8278 103.439C25.9208 103.285 26.0891 103.192 26.269 103.196L26.558 103.203C27.1821 103.216 27.6665 102.662 27.5699 102.045L26.1839 93.2029C26.0693 92.4721 25.3942 91.965 24.6605 92.0587L23.9454 92.1499C23.6447 92.1883 23.3648 91.9898 23.3014 91.6934C23.2389 91.4008 22.9652 91.2031 22.6678 91.2357L21.4589 91.3681C20.4545 91.4781 19.5354 90.7946 19.3518 89.801L19.1515 88.7169C19.0853 88.3589 19.085 87.9918 19.1506 87.6336L19.2688 86.9872C19.3239 86.6861 19.4871 86.4154 19.7276 86.226C20.0727 85.9543 20.2509 85.5222 20.1977 85.0863L19.9101 82.7292C19.8919 82.58 19.9744 82.4367 20.1125 82.3774L20.2947 82.2993C20.4634 82.2269 20.4844 81.9962 20.3315 81.8946C20.1886 81.7997 20.1954 81.5876 20.344 81.502L20.7953 81.2421C20.92 81.1703 21.0682 81.1512 21.207 81.189C21.5765 81.2897 21.9306 80.9845 21.8856 80.6042L21.7223 79.2241C21.6959 79.0007 21.5147 78.8274 21.2902 78.8109C21.0594 78.794 20.8753 78.6114 20.8565 78.3807L20.6331 75.6395C20.5943 75.1632 20.9029 74.7278 21.3652 74.6066C21.8351 74.4834 22.145 74.0362 22.0954 73.553L22.0466 73.0783C21.9635 72.2693 22.5229 71.5349 23.3249 71.4L24.3313 71.2307C25.0763 71.1054 25.5822 70.4044 25.4664 69.6579C25.3844 69.1288 25.0038 68.6949 24.49 68.5446L24.075 68.4232C23.578 68.2778 23.1688 67.9234 22.9539 67.4522C22.6674 66.8241 22.0439 66.418 21.3536 66.4097L20.7655 66.4027C19.9003 66.3924 19.1769 65.7422 19.0746 64.8831C18.9881 64.1566 18.4525 63.5639 17.7384 63.4046L17.3968 63.3284C17.156 63.2747 16.9069 63.2696 16.6641 63.3133C15.6375 63.4985 14.6603 62.8004 14.5027 61.7691L14.3981 61.085C14.3636 60.8591 14.2986 60.6389 14.2049 60.4305L13.4087 58.6598C13.267 58.3445 13.1716 58.0103 13.1256 57.6677L12.7461 54.8439C12.7035 54.5265 12.9179 54.2317 13.233 54.1744C13.4131 54.1418 13.5684 54.0285 13.6546 53.867L13.8159 53.5647C13.9983 53.2229 14.0198 52.8179 13.8746 52.4587L12.7341 49.6381C12.6513 49.4333 12.5968 49.2182 12.5722 48.9987L12.4035 47.4932C12.3599 47.1045 12.0281 46.8125 11.637 46.8186L11.4756 46.8211C11.2477 46.8246 11.0428 46.6831 10.9655 46.4687C10.9072 46.307 10.9304 46.1271 11.0278 45.9854L12.3647 44.0423C12.6963 43.5604 13.285 43.3248 13.8576 43.4448L14.275 43.5324C14.6635 43.6138 14.9505 43.9435 14.9778 44.3395C14.9993 44.6524 15.1845 44.9306 15.4648 45.0713L16.1356 45.4078C16.4071 45.544 16.7039 45.6226 17.0073 45.6385L19.1241 45.7498C19.3448 45.7615 19.5467 45.8781 19.6669 46.0637C19.8094 46.2837 20.0644 46.4039 20.3248 46.3739L20.5014 46.3536C20.853 46.3131 21.1552 46.0856 21.2914 45.7589L21.5719 45.0855C21.9464 44.1868 22.8628 43.637 23.832 43.7296L28.5845 44.1839C29.4063 44.2624 30.1752 44.6241 30.7597 45.207L33.6103 48.05C33.9105 48.3494 34.4153 48.2696 34.6084 47.8922L34.6331 47.844C34.8217 47.4753 34.5806 47.0323 34.1685 46.9907C33.8913 46.9626 33.6717 46.7439 33.6426 46.4667L33.6394 46.436C33.6217 46.2676 33.5366 46.1135 33.4035 46.0089L32.5051 45.3031C32.0933 44.9796 32.0019 44.3928 32.2957 43.9594L32.4621 43.7139C32.561 43.5679 32.731 43.4865 32.9068 43.5009C33.1492 43.5207 33.3693 43.3594 33.4235 43.1223L33.4962 42.8046C33.596 42.3681 34.0122 42.0798 34.4559 42.1399L35.6975 42.3078C36.2389 42.381 36.7437 42.0201 36.8495 41.4841L36.9478 40.9859C37.0018 40.7123 37.2643 40.5319 37.539 40.5795C37.7708 40.6197 38.0004 40.497 38.0958 40.2819L38.3319 39.7493C38.5802 39.1894 39.1952 38.8891 39.7894 39.0376L41.5312 39.4729C41.8247 39.5463 41.995 39.8524 41.9025 40.1404C41.8258 40.3792 41.9293 40.6387 42.1492 40.7592L42.8887 41.1644C43.9106 41.7243 45.1608 40.9945 45.1755 39.8294L45.2094 37.1532C45.2184 36.4498 45.5769 35.7971 46.1656 35.4123C46.4747 35.2103 46.7254 34.9308 46.8927 34.6016L47.097 34.1998C47.3962 33.6111 48.0063 33.2459 48.6665 33.2602L49.4637 33.2774C49.909 33.2871 50.2871 32.9531 50.3325 32.51C50.3782 32.063 50.7623 31.7278 51.2114 31.7428L53.5899 31.8225C54.0742 31.8388 54.4975 31.4983 54.5854 31.0218L54.6332 30.7627C54.7017 30.3917 54.4656 30.0327 54.0979 29.9486C53.6584 29.8481 53.4253 29.3662 53.6194 28.9592L53.6774 28.8376C53.8366 28.5036 53.7499 28.1042 53.4666 27.8662L52.7535 27.2674C52.4786 27.0366 52.4486 26.6243 52.6871 26.3561L52.8185 26.2084C52.9463 26.0647 53.1598 26.0333 53.3245 26.1327C53.5037 26.2409 53.7376 26.1917 53.8564 26.0194L53.9372 25.9022C54.0288 25.7693 53.9838 25.5862 53.8409 25.511C53.6406 25.4054 53.6519 25.1147 53.86 25.0252L55.0419 24.5164C55.1551 24.4677 55.2416 24.3723 55.2791 24.2549C55.3787 23.9431 55.7782 23.8556 55.999 24.0972L56.3592 24.4915C56.506 24.652 56.7218 24.731 56.9375 24.7029C57.2537 24.6618 57.4966 24.4025 57.5169 24.0843L57.6541 21.9406C57.6704 21.6858 57.894 21.4949 58.1482 21.5186C58.4378 21.5457 58.6774 21.2967 58.6393 21.0084L58.521 20.1126C58.4483 19.5626 58.8242 19.0538 59.3713 18.9618C59.6239 18.9193 59.8517 18.7842 60.01 18.5829L60.0863 18.486C60.3755 18.1185 60.8344 17.9269 61.299 17.9798L62.5611 18.1233C62.6747 18.1362 62.7662 18.2223 62.7859 18.3349C62.8179 18.5179 63.0271 18.6079 63.182 18.5054L63.6828 18.1741C63.7839 18.1073 63.9104 18.0915 64.0248 18.1316L64.4798 18.2909C64.6172 18.3391 64.7473 18.2028 64.6928 18.0677C64.6583 17.9823 64.6984 17.885 64.7831 17.8487L65.7483 17.4347C66.277 17.2079 66.5809 16.6477 66.4827 16.0808L66.3393 15.2532C66.3052 15.0562 66.2076 14.8758 66.0614 14.7394L65.7777 14.4747C65.5403 14.2532 65.5417 13.8765 65.7807 13.6568C65.8605 13.5834 65.96 13.5349 66.0669 13.5172L68.5512 13.106C69.0313 13.0266 69.4962 12.8734 69.9295 12.6521L73.4616 10.8476C74.4645 10.3353 74.704 9.00859 73.9436 8.17786C73.7559 7.97288 73.521 7.81687 73.2593 7.7234L70.2573 6.6513C68.4639 6.01084 67.9851 3.69884 69.3766 2.3988C69.9641 1.76414 70.754 1.35359 71.611 1.2375L72.7916 1.07758C73.6708 0.958481 74.5646 1.00653 75.426 1.2192L86.1057 3.85598C86.3265 3.91048 86.5567 3.91454 86.7792 3.86788L88.1788 3.57437C88.3283 3.54302 88.4714 3.64998 88.4837 3.80226C88.4936 3.92557 88.591 4.02372 88.7143 4.03457L89.1382 4.07186C89.5227 4.10569 89.8711 3.845 89.9472 3.46659L90.2181 2.1194C90.2573 1.92451 90.3497 1.7443 90.4852 1.59879Z" fill="#2969F6" stroke="#1D1D1D" stroke-width="2" stroke-linecap="round" stroke-linejoin="round"/>
</svg>
