<svg width="147" height="183" viewBox="0 0 147 183" fill="none" xmlns="http://www.w3.org/2000/svg">
<path d="M2.39514 83.9124C1.90071 83.7897 1.50884 83.4133 1.36631 82.9243C1.25551 82.5441 1.3073 82.1349 1.50934 81.7943L2.52551 80.0812C3.22451 78.9028 3.32651 77.4637 2.80071 76.1985L2.65135 75.8391C2.22817 74.8208 2.3018 73.6638 2.85064 72.7074L3.00412 72.4399C3.18068 72.1322 3.28236 71.7873 3.30094 71.4331L3.32196 71.0324C3.35367 70.4278 3.72235 69.8924 4.27579 69.6472L5.1946 69.24C5.46406 69.1206 5.59233 68.8107 5.48607 68.5357C5.42715 68.3833 5.30377 68.2648 5.1491 68.212L4.17569 67.8801C3.55184 67.6673 3.05353 67.1903 2.81371 66.5763C2.60289 66.0366 2.60964 65.4362 2.83253 64.9014L3.85468 62.4488C4.09635 61.8689 4.0291 61.2062 3.67586 60.6867C3.18177 59.9601 3.26339 58.9868 3.87161 58.3526L6.07494 56.0551C6.3429 55.7757 6.53451 55.4321 6.63139 55.0573L6.75218 54.59C6.80061 54.4026 6.91061 54.2369 7.06451 54.1196C7.34744 53.9038 7.73789 53.8863 8.04165 54.0716C8.34323 54.2556 8.7298 54.2432 9.0162 54.0364L9.39762 53.7609C9.7064 53.538 9.92457 53.2113 10.0122 52.8406L11.1517 48.0217C11.2523 47.5963 11.5333 47.2359 11.9214 47.0346L12.3292 46.8231C12.5486 46.7093 12.812 46.7201 13.0214 46.8515C13.3056 47.0299 13.6765 46.9808 13.9044 46.7345L15.4201 45.0972C15.7151 44.7784 16.2 44.7259 16.5564 44.9742L16.7558 45.1131C16.8968 45.2113 17.0804 45.2238 17.2334 45.1457C17.4205 45.0502 17.6483 45.0918 17.7895 45.2473L18.1975 45.6966C18.5186 46.0501 19.0121 46.1916 19.4718 46.0618L20.5714 45.7512C21.1437 45.5895 21.7503 45.5957 22.3192 45.7688L24.8782 46.5475C25.3854 46.7019 25.9312 46.4784 26.1845 46.0127C26.2701 45.8553 26.3923 45.7208 26.5409 45.6206L29.0414 43.9332C29.8895 43.361 30.963 43.2373 31.9189 43.6018L32.7425 43.9158C32.9211 43.9839 33.0689 44.1143 33.1587 44.283C33.4157 44.7654 34.073 44.8479 34.4412 44.4439L35.7306 43.0291C36.2076 42.5058 36.9123 42.2522 37.6133 42.3515L41.2704 42.8699C41.6869 42.9289 42.0583 43.1634 42.2907 43.5141L42.4561 43.7638C42.581 43.9523 42.78 44.079 43.0036 44.1124C43.3938 44.1708 43.7682 43.9353 43.8845 43.5582L43.9141 43.4624C44.0643 42.9755 44.5834 42.7051 45.0685 42.8611L45.2601 42.9227C45.6173 43.0376 46.0075 42.9024 46.217 42.5911C46.4165 42.2947 46.7812 42.1563 47.1271 42.2459L47.5241 42.3487C47.9422 42.4569 48.3869 42.3693 48.7327 42.1105L50.6081 40.7066C51.1834 40.2761 51.8281 39.9471 52.5143 39.734L56.5828 38.4707C56.7332 38.424 56.8869 38.3886 57.0427 38.3647L57.1898 38.3422C57.9881 38.2201 58.8005 38.4445 59.4228 38.959L60.2507 39.6434C60.5438 39.8857 60.9462 39.9475 61.2985 39.8044C61.6958 39.6429 61.9522 39.2529 61.9428 38.8241L61.9296 38.217C61.922 37.871 62.0084 37.5294 62.1795 37.2285L62.6172 36.459C62.7456 36.2332 62.7354 35.9542 62.5908 35.7384C62.4501 35.5285 62.4374 35.2562 62.556 35.033C62.8138 34.5478 62.4426 33.9613 61.8942 33.9969L59.0317 34.183C58.8164 34.197 58.6001 34.1806 58.3893 34.1344L56.5774 33.7369C56.3122 33.6787 56.0819 33.5155 55.9392 33.2846C55.683 32.8702 55.7617 32.3316 56.1256 32.0078L56.1737 31.965C56.3248 31.8306 56.4351 31.6565 56.492 31.4625L56.7909 30.4438C57.0316 29.6236 56.6219 28.7529 55.8365 28.4157C55.5353 28.2863 55.203 28.2474 54.8801 28.3036L54.7407 28.3278C53.829 28.4865 52.9746 27.8374 52.8831 26.9166L52.8794 26.8798C52.8737 26.822 52.8725 26.7638 52.8757 26.7058C52.9152 26.0092 53.5756 25.5183 54.2541 25.6812L55.0505 25.8724C55.443 25.9666 55.8567 25.8607 56.1557 25.5895L56.4374 25.334C56.7209 25.0769 57.1495 25.0646 57.4473 25.3051C57.807 25.5958 58.3395 25.5095 58.5892 25.1201L59.2523 24.0859C59.5226 23.6642 59.6041 23.1486 59.477 22.6641L59.465 22.6183C59.2979 21.9812 59.5102 21.3046 60.0112 20.8771C60.971 20.0582 60.7369 18.5129 59.5848 17.9986C59.1434 17.8015 58.8014 17.427 58.6479 16.9687L57.9015 14.741C57.7477 14.2819 57.8206 13.7771 58.0981 13.3804C58.3326 13.045 58.692 12.8178 59.0955 12.7497L59.178 12.7358C59.91 12.6122 60.4812 12.0347 60.5966 11.3013L60.7065 10.6031C60.7856 10.1005 60.7215 9.58583 60.5217 9.11793L60.1674 8.28839C60.0002 7.89682 60.0469 7.44668 60.2909 7.09777C60.5027 6.79491 60.8392 6.60307 61.2078 6.57509L61.2873 6.56905C62.1408 6.50426 62.7372 5.69615 62.5476 4.86153L62.4847 4.58493C62.3273 3.89204 62.6324 3.17635 63.2412 2.81009L64.1532 2.26153C64.2462 2.20556 64.3074 2.10904 64.3184 2.00103L64.3297 1.88962C64.3461 1.7283 64.5072 1.6233 64.6614 1.67349L64.8172 1.72419C64.9632 1.77169 65.0974 1.62583 65.038 1.48432C64.9823 1.35152 65.098 1.21053 65.2391 1.23925L66.4752 1.49078C66.625 1.52128 66.7638 1.59181 66.8768 1.69487L67.6289 2.38103C67.8743 2.60493 67.838 3.00131 67.5559 3.17687C67.3201 3.3237 67.2486 3.63433 67.3966 3.86945L67.6164 4.21865C67.767 4.45792 68.0201 4.61379 68.3016 4.64061L68.8316 4.69114C69.2473 4.73076 69.6692 4.63642 70.0299 4.42612C70.8998 3.91894 72.021 4.11074 72.6608 4.88833L72.8692 5.14159C73.0656 5.38022 73.3055 5.57936 73.5763 5.72838L75.3796 6.72102C75.7834 6.94332 76.2762 6.92877 76.6662 6.68301C77.0167 6.46217 77.453 6.42659 77.8347 6.58773L79.8387 7.43387C80.0976 7.54321 80.3817 7.57919 80.6597 7.53789C81.33 7.4383 81.9862 7.79097 82.2729 8.405L84.2014 12.5344C84.4506 13.068 84.6373 13.6286 84.7578 14.205L85.5001 17.7568C85.5798 18.1379 85.8329 18.4599 86.1844 18.6275C86.5216 18.7882 86.9131 18.7893 87.2512 18.6305L87.537 18.4962C87.8925 18.3293 88.3096 18.3624 88.6342 18.5834C88.8442 18.7264 88.9988 18.937 89.0723 19.1801L89.5055 20.6133C89.5958 20.9121 89.7883 21.1696 90.0493 21.3409C90.6785 21.7537 90.8404 22.6059 90.4064 23.2207L89.5557 24.426C89.1953 24.9364 89.0191 25.5542 89.0559 26.178L89.1435 27.6619C89.1676 28.0694 89.3404 28.4538 89.6292 28.7422C89.8885 29.0011 90.0551 29.3383 90.1033 29.7015L90.1144 29.7852C90.1997 30.4281 90.6048 30.9841 91.1906 31.2623L91.9279 31.6125C93.9865 32.5902 94.5287 35.2712 93.0117 36.972L91.6869 38.4574C91.3224 38.8661 91.127 39.3982 91.1403 39.9456C91.1529 40.4638 91.3518 40.9601 91.7004 41.3437L92.6384 42.3759C93.6234 43.4596 94.9762 44.1384 96.4338 44.2802L97.7847 44.4116C98.0109 44.4336 98.2311 44.4978 98.4337 44.6008C99.1507 44.9653 99.5437 45.7569 99.4007 46.5484L99.128 48.0578C99.0648 48.408 99.2835 48.7473 99.6286 48.8342L99.7801 48.8723C99.9639 48.9186 100.099 49.0745 100.12 49.263C100.153 49.5716 99.8721 49.8211 99.5694 49.7524L96.8308 49.1309C95.8578 48.91 94.8812 49.4861 94.6039 50.4446C94.4107 51.1121 94.6006 51.8317 95.098 52.317L98.2958 55.4371C98.4714 55.6084 98.5668 55.8456 98.5587 56.0907C98.5371 56.7516 99.2293 57.1958 99.821 56.9008L101.16 56.2332C101.699 55.9646 102.337 55.989 102.854 56.2978L106.529 58.4946C106.78 58.6444 107.099 58.6106 107.313 58.4118C107.761 57.995 108.485 58.364 108.412 58.9715L108.311 59.8014C108.27 60.1385 108.41 60.4722 108.679 60.6794L109.332 61.1823C110.093 61.7685 110.163 62.8908 109.482 63.5676C109.079 63.9678 108.92 64.5526 109.065 65.1015L110.13 69.1192C110.239 69.5298 110.548 69.8574 110.951 69.9898L111.134 70.0496C111.388 70.1329 111.666 70.094 111.887 69.944C112.145 69.7697 112.289 69.4705 112.264 69.1605L112.193 68.2745C112.136 67.5492 112.426 66.8396 112.976 66.3629L113.862 65.5938C114.019 65.4577 114.08 65.241 114.016 65.0434C113.884 64.638 114.272 64.2565 114.675 64.3942L114.804 64.4382C114.961 64.4917 115.133 64.4764 115.278 64.3958L115.378 64.34C115.965 64.0135 116.68 64.4705 116.63 65.1405L116.409 68.0969C116.392 68.3303 116.338 68.5596 116.249 68.7763L115.327 71.0315C115.166 71.4252 115.456 71.8564 115.881 71.8564C116.081 71.8564 116.268 71.7563 116.379 71.5897L116.783 70.9824C117.235 70.3036 118.06 69.9755 118.855 70.1583L119.096 70.2137C119.593 70.3282 120.019 70.6477 120.268 71.0932L120.419 71.3632C120.689 71.8469 121.227 72.1166 121.776 72.0437L122.14 71.9954C122.342 71.9686 122.545 72.0405 122.685 72.1888C122.876 72.3916 122.913 72.6958 122.775 72.9382L122.575 73.289C122.367 73.6535 121.982 73.8804 121.562 73.8849L119.304 73.9091C118.873 73.9137 118.453 74.0401 118.091 74.2736L117.956 74.3603C117.519 74.6422 117.216 75.0903 117.116 75.601C117.022 76.0883 117.12 76.5934 117.392 77.009L117.699 77.4795C117.952 77.8673 118.368 78.1184 118.829 78.1614C119.499 78.2238 120.129 77.8389 120.38 77.2151L120.656 76.5257C120.782 76.2136 120.968 75.9299 121.205 75.6913L121.892 74.9994C122.123 74.766 122.452 74.6562 122.777 74.7034C123.041 74.7418 123.281 74.8805 123.445 75.0907L123.992 75.789C124.117 75.9495 124.326 76.0209 124.523 75.9713C124.776 75.908 124.942 75.6662 124.91 75.4078L124.505 72.1374C124.416 71.4171 124.963 70.7751 125.689 70.7489C125.851 70.743 126.014 70.7692 126.166 70.8261L129.636 72.1205C129.923 72.2275 130.246 72.1412 130.442 71.9054C130.613 71.698 130.655 71.4121 130.549 71.1644L130.117 70.1516C130.033 69.9532 130.091 69.7227 130.259 69.5879C130.395 69.4791 130.579 69.4523 130.74 69.5178L131.423 69.7953C131.613 69.8723 131.784 69.9892 131.924 70.1379L131.992 70.2099C132.462 70.7066 132.476 71.4793 132.025 71.9929L131.887 72.1501C131.632 72.4407 131.568 72.8528 131.723 73.207C131.795 73.3688 131.907 73.5088 132.051 73.6126L134.335 75.268C134.958 75.7197 135.686 76.0055 136.45 76.0985C137.437 76.2188 138.357 76.6594 139.069 77.3529L141.381 79.6052C141.584 79.8029 141.81 79.9762 142.053 80.1214L143.912 81.23C144.254 81.4341 144.412 81.8453 144.296 82.2261C144.241 82.4049 144.13 82.5611 143.979 82.6714L142.813 83.5232C142.561 83.7076 142.45 84.0291 142.534 84.33C142.598 84.56 142.768 84.7456 142.992 84.8296L144.721 85.4789C145.065 85.6079 145.281 85.9494 145.25 86.315C145.231 86.5352 145.125 86.7387 144.954 86.8792L143.548 88.0374C143.322 88.2233 143.288 88.556 143.471 88.7843C143.622 88.973 143.627 89.2396 143.484 89.4346L140.968 92.868C140.772 93.1356 140.776 93.5007 140.979 93.7634C141.084 93.8998 141.139 94.0684 141.134 94.2406L141.073 96.2811C141.052 96.9767 141.215 97.6654 141.546 98.2774C141.864 98.864 142.027 99.5216 142.022 100.189L141.942 109.698C141.934 110.683 142.076 111.663 142.364 112.604L143.216 115.384C143.337 115.779 143.314 116.204 143.15 116.583C142.875 117.22 142.248 117.632 141.554 117.632H139.324C138.53 117.632 137.764 117.342 137.169 116.817C136.704 116.406 136.131 116.137 135.518 116.041L134.12 115.821C133.242 115.683 132.344 115.773 131.51 116.082C130.909 116.305 130.271 116.415 129.63 116.405L129.345 116.401C128.454 116.388 127.569 116.552 126.742 116.885L125.776 117.274C124.334 117.854 123.02 118.71 121.909 119.796L119.736 121.918C118.983 122.653 118.293 123.449 117.674 124.3L114.192 129.078C113.576 129.923 112.658 130.498 111.63 130.684L111.101 130.78C110.751 130.843 110.424 130.996 110.152 131.224L108.514 132.598C108.279 132.795 108.302 133.162 108.558 133.33C108.711 133.429 108.79 133.61 108.758 133.79L108.715 134.039C108.661 134.344 108.78 134.652 109.023 134.844L109.721 135.393C110.046 135.648 110.213 136.054 110.161 136.464L110.133 136.686C110.102 136.94 109.944 137.162 109.713 137.275C109.524 137.368 109.304 137.378 109.106 137.303L107.944 136.859C107.722 136.775 107.477 136.78 107.259 136.874C106.841 137.055 106.62 137.517 106.744 137.956L106.758 138.005C106.908 138.536 106.577 139.086 106.04 139.211C105.605 139.312 105.289 139.696 105.278 140.142L105.26 140.903C105.246 141.506 104.827 142.023 104.241 142.162L103.952 142.231C103.605 142.314 103.341 142.598 103.285 142.951C103.197 143.504 102.624 143.837 102.1 143.638L101.382 143.365C101.029 143.232 100.639 143.235 100.288 143.374L100.037 143.475C99.8339 143.556 99.6667 143.706 99.5653 143.899C99.435 144.148 99.4259 144.442 99.5407 144.698L99.7567 145.18C100.09 145.924 99.9391 146.795 99.3752 147.384L95.4625 151.466C95.0235 151.924 94.8582 152.579 95.0274 153.191L95.0327 153.21C95.1643 153.685 95.0895 154.194 94.8267 154.612C94.5505 155.05 94.4826 155.589 94.6412 156.082L95.308 158.158C95.3547 158.303 95.3462 158.461 95.2839 158.601L95.1616 158.875C95.0924 159.03 95.1595 159.212 95.3129 159.285C95.4994 159.374 95.5502 159.616 95.4151 159.772L95.3493 159.849C95.2181 160 95.2236 160.227 95.362 160.372L97.4149 162.528C97.6024 162.725 97.7249 162.975 97.7657 163.243L97.8485 163.789C97.8933 164.084 97.7275 164.37 97.4495 164.478C97.1544 164.593 96.9884 164.907 97.0596 165.216L97.0974 165.379C97.1366 165.549 97.2284 165.703 97.3597 165.818L99.4192 167.621C99.5557 167.741 99.6134 167.927 99.5686 168.103C99.507 168.344 99.6394 168.592 99.874 168.675L99.9508 168.703C100.248 168.808 100.404 169.135 100.297 169.433L99.6638 171.206C99.5822 171.434 99.4671 171.649 99.3222 171.844L97.9548 173.682C97.3749 174.461 96.9486 175.344 96.6987 176.283L95.6444 180.243C95.473 180.887 94.9257 181.361 94.2638 181.439C93.4065 181.539 92.6202 180.952 92.4735 180.101L92.3769 179.541C92.2948 179.065 92.06 178.629 91.7079 178.298L89.9313 176.629C89.6211 176.337 89.4514 175.927 89.4653 175.501C89.4772 175.139 89.3555 174.784 89.1234 174.506L88.7687 174.08C88.5853 173.859 88.5278 173.56 88.6164 173.288C88.7749 172.8 88.4602 172.286 87.9538 172.206L86.5269 171.979C86.1358 171.917 85.813 171.64 85.6922 171.263L85.6484 171.126C85.5714 170.885 85.382 170.698 85.1409 170.623C84.8788 170.542 84.5933 170.605 84.3908 170.79L84.3693 170.81C84.0285 171.121 83.4984 171.092 83.1941 170.745L83.0004 170.524C82.7605 170.251 82.4021 170.112 82.0405 170.152L81.3595 170.229C80.908 170.279 80.4942 169.972 80.4123 169.525C80.3639 169.261 80.1955 169.034 79.9565 168.911L78.8588 168.348C78.4592 168.143 78.156 167.789 78.0144 167.363C77.9082 167.043 77.8985 166.699 77.9864 166.374L78.0546 166.122C78.2467 165.412 78.1266 164.653 77.7245 164.037L77.0907 163.065C76.9414 162.836 76.7301 162.655 76.4815 162.541C76.0837 162.359 75.7897 162.006 75.682 161.582L75.4199 160.551C75.3032 160.092 74.9163 159.751 74.446 159.695L74.1788 159.662C74.0354 159.645 73.8911 159.687 73.7802 159.78C73.5324 159.987 73.1586 159.922 72.9939 159.645L72.3764 158.604C72.2491 158.39 72.0388 158.237 71.7953 158.183C71.3289 158.08 71.0237 157.631 71.0987 157.159L71.5494 154.324C71.6935 153.417 72.1641 152.595 72.8726 152.011C74.2262 150.897 74.6296 148.994 73.845 147.426L73.8092 147.355C73.4817 146.7 72.9749 146.152 72.3478 145.775L71.1771 145.07C70.8195 144.855 70.5533 144.516 70.429 144.117C70.2706 143.609 69.8842 143.205 69.3844 143.023L69.2963 142.991C68.8745 142.837 68.5208 142.539 68.2985 142.149L67.2469 140.304C66.9409 139.767 66.9761 139.101 67.3372 138.599L67.627 138.197C67.815 137.936 67.8316 137.588 67.6696 137.31C67.4727 136.972 67.5435 136.542 67.8385 136.285L68.0014 136.144C68.1568 136.008 68.2131 135.792 68.1432 135.598C68.0783 135.418 68.1221 135.216 68.256 135.08L68.7088 134.617C69.2736 134.039 69.2929 133.123 68.7528 132.522L68.6465 132.404C68.4714 132.209 68.2537 132.058 68.0104 131.961L67.3073 131.681C66.2995 131.28 65.7155 130.223 65.913 129.156L65.9352 129.036C66.0147 128.607 65.9458 128.164 65.7401 127.779C65.6037 127.524 65.4115 127.303 65.1779 127.133L63.649 126.017C62.9576 125.513 62.3554 124.896 61.8673 124.193C61.1321 123.134 60.1423 122.278 58.989 121.702L57.7486 121.082C57.4882 120.952 57.2565 120.771 57.0671 120.55L56.8442 120.29C56.5419 119.937 56.4218 119.464 56.5194 119.01C56.6353 118.47 56.4432 117.911 56.0204 117.557L55.8861 117.444C55.6567 117.252 55.3826 117.12 55.0891 117.062L52.9789 116.644C52.4607 116.541 51.9892 116.966 52.0365 117.492C52.0536 117.682 52.0016 117.871 51.89 118.026L50.4393 120.036C50.147 120.441 49.5616 120.488 49.2081 120.135C49.0945 120.022 48.9497 119.945 48.7922 119.914L45.0595 119.176C44.8257 119.13 44.6619 118.918 44.6758 118.68C44.6858 118.508 44.6026 118.345 44.458 118.251L43.2391 117.465C42.869 117.227 42.6714 116.795 42.7329 116.359C42.7837 115.998 42.6575 115.635 42.3938 115.384L42.3839 115.374C42.1206 115.123 41.9909 114.763 42.0336 114.402L42.1453 113.459C42.2106 112.908 42.0261 112.356 41.6423 111.956C41.3547 111.655 41.1761 111.266 41.1354 110.852L41.0744 110.232C41.0371 109.853 41.139 109.473 41.3612 109.163L41.4965 108.974C41.852 108.478 41.8103 107.801 41.3966 107.353C41.1903 107.129 41.07 106.84 41.057 106.536L40.9907 104.981C40.9812 104.758 41.0391 104.537 41.1569 104.348L41.2591 104.183C41.4718 103.841 41.4203 103.398 41.135 103.114C40.8913 102.871 40.5269 102.795 40.2068 102.921L38.998 103.398C38.7603 103.491 38.5555 103.653 38.409 103.862L38.0008 104.446C37.8346 104.684 37.5117 104.75 37.265 104.598C37.0785 104.482 36.8411 104.49 36.662 104.616L35.615 105.355C35.13 105.697 34.5283 105.832 33.9439 105.728C32.9473 105.551 31.9571 106.069 31.5343 106.989L30.9522 108.255C30.8653 108.444 30.8428 108.656 30.8881 108.859L30.9062 108.94C30.9757 109.252 30.8583 109.575 30.6052 109.77C30.4079 109.921 30.1526 109.975 29.911 109.916L27.9773 109.444C27.342 109.289 26.7995 108.877 26.4795 108.307C26.2038 107.815 26.1131 107.242 26.2236 106.689L27.0441 102.59C27.1581 102.021 27.0192 101.43 26.6635 100.971C26.2018 100.375 25.4445 100.089 24.7042 100.231L23.8478 100.395C22.7489 100.605 21.6165 100.266 20.8151 99.485L19.3783 98.0853C18.759 97.482 18.3759 96.6773 18.298 95.8163C18.1355 94.0197 16.676 92.6162 14.8744 92.5242L14.0373 92.4815C12.9544 92.4262 11.9261 91.9892 11.1346 91.248L8.31836 88.6107C7.95707 88.2723 7.73851 87.8089 7.70729 87.3149L7.69419 87.1076C7.66911 86.7107 7.4829 86.3413 7.17875 86.0851C6.92492 85.8713 6.60569 85.7505 6.27389 85.7428L5.92075 85.7346C5.43717 85.7233 5.00221 85.4377 4.79971 84.9984C4.63867 84.6491 4.32763 84.3918 3.95428 84.2992L2.39514 83.9124Z" fill="#2969F6" stroke="#1D1D1D" stroke-width="2" stroke-linecap="round" stroke-linejoin="round"/>
</svg>
