<svg width="223" height="195" viewBox="0 0 223 195" fill="none" xmlns="http://www.w3.org/2000/svg">
<path d="M179.493 1.39852C179.643 1.30898 179.826 1.29478 179.988 1.36016C180.228 1.45717 180.369 1.70676 180.329 1.96237L180.134 3.19829C180.072 3.59486 179.809 3.93127 179.44 4.08839C179.005 4.27328 178.725 4.70261 178.732 5.17498L178.767 7.78906C178.777 8.53182 178.955 9.26264 179.288 9.92649L179.771 10.8888C180.005 11.3548 180.404 11.7175 180.889 11.9069C181.267 12.0541 181.594 12.307 181.831 12.6353L182.041 12.9243C182.456 13.4978 183.043 13.9237 183.717 14.1397L184.362 14.3463C184.788 14.4829 185.151 14.767 185.386 15.1476L185.53 15.381C185.962 16.0799 186.858 16.3312 187.59 15.9589C187.927 15.7877 188.313 15.7429 188.68 15.8325L188.806 15.8631C189.74 16.0914 190.271 17.0795 189.945 17.9849C189.881 18.1628 189.849 18.3505 189.85 18.5396L189.866 22.9948C189.868 23.3979 189.791 23.7974 189.64 24.1712C189.253 25.1292 189.367 26.217 189.945 27.0737L190.43 27.7937C190.697 28.1895 190.853 28.6498 190.881 29.1264C190.918 29.7621 191.182 30.3633 191.625 30.8211L194.895 34.2036C195.259 34.5802 195.584 34.993 195.864 35.4354L197.695 38.3219C198.274 39.2351 199.35 39.7056 200.413 39.5114C201.109 39.3844 201.827 39.5405 202.408 39.945L204.108 41.1299C204.867 41.659 205.721 42.0371 206.622 42.2437L206.844 42.2945C207.518 42.4487 208.159 42.7196 208.739 43.0949C209.645 43.6809 210.374 44.5032 210.847 45.4731L212.711 49.2964C212.935 49.7552 213.274 50.1478 213.696 50.4355L214.889 51.2495C215.027 51.3436 215.205 51.3561 215.354 51.2823C215.554 51.184 215.795 51.2412 215.928 51.4185L217.699 53.7635C218.038 54.2129 217.9 54.859 217.405 55.1292C217.133 55.2778 216.954 55.5529 216.928 55.8616L216.898 56.2281C216.866 56.6045 216.968 56.9801 217.186 57.2888L217.596 57.8696L220.925 62.2486C221.327 62.7769 221.257 63.5247 220.766 63.9704C220.532 64.182 220.229 64.3 219.914 64.3017L218.081 64.3115C217.335 64.3155 216.678 64.8021 216.457 65.514C216.234 66.233 216.507 67.0133 217.13 67.4358L218.845 68.5983C218.998 68.7021 219.087 68.8769 219.082 69.0618C219.075 69.3245 218.881 69.5443 218.621 69.5836L218.195 69.6482C217.939 69.6868 217.706 69.8177 217.541 70.0161L215.844 72.0469C215.535 72.4169 214.978 72.4486 214.629 72.116C214.213 71.7199 213.531 71.8523 213.294 72.3751L212.587 73.9341C212.324 74.513 212.385 75.1871 212.746 75.7102L213.195 76.3607C213.489 76.7863 214.064 76.9082 214.505 76.6385C214.689 76.5259 214.905 76.4776 215.12 76.5012L216.005 76.5986C216.223 76.6225 216.406 76.7738 216.47 76.9834L216.484 77.0294C216.555 77.2591 216.449 77.5063 216.234 77.6142C215.901 77.7818 215.874 78.249 216.18 78.4626C216.272 78.5271 216.341 78.6219 216.373 78.73L217.221 81.5831C217.254 81.6942 217.334 81.7849 217.441 81.8306C217.782 81.977 217.745 82.4722 217.386 82.5665L215.365 83.0972C214.814 83.2416 214.532 83.8512 214.777 84.3645L214.816 84.4468C215.035 84.9054 214.788 85.453 214.301 85.5989C214.007 85.6869 213.785 85.9332 213.731 86.2348C213.664 86.6021 213.356 86.8772 212.984 86.9023L212.601 86.9281C212.019 86.9674 211.534 87.3874 211.412 87.9576L211.334 88.3212C211.282 88.5618 211.294 88.8117 211.368 89.0464C211.671 90.007 210.905 90.9689 209.901 90.8892L209.423 90.8512C208.934 90.8123 208.472 91.0818 208.266 91.5268L208.249 91.5638C207.926 92.2596 208.366 93.0698 209.126 93.1769L209.747 93.2645C210.124 93.3176 210.362 93.6966 210.246 94.0587C210.206 94.1839 210.127 94.293 210.02 94.3698L208.238 95.6541C207.839 95.9419 207.351 96.0806 206.86 96.0461L206.731 96.037C205.813 95.9724 204.976 96.5598 204.724 97.4446L204.564 98.0052C204.457 98.3817 204.575 98.7864 204.868 99.0461C205.112 99.2628 205.238 99.5837 205.205 99.9087L204.968 102.301C204.907 102.916 205.393 103.448 206.011 103.443C206.594 103.438 207.068 103.914 207.059 104.497L207.046 105.436C207.038 105.942 207.227 106.431 207.573 106.801L207.63 106.862C208.094 107.358 208.299 108.043 208.182 108.711L207.126 114.783C207.079 115.055 207.084 115.334 207.143 115.604C207.322 116.432 207.973 117.077 208.803 117.249L211.135 117.733C211.549 117.819 211.891 118.11 212.041 118.506C212.286 119.152 211.955 119.873 211.306 120.109L209.155 120.889C208.837 121.005 208.726 121.398 208.937 121.662C209.139 121.916 209.047 122.292 208.751 122.423L206.739 123.314C206.44 123.446 206.297 123.789 206.413 124.094C206.496 124.314 206.447 124.563 206.285 124.734L205.67 125.386C205.413 125.658 205.238 125.996 205.165 126.362L204.946 127.447C204.87 127.825 204.522 128.086 204.137 128.052L203.713 128.015C203.59 128.004 203.493 127.906 203.483 127.783C203.471 127.63 203.327 127.523 203.178 127.555L201.778 127.848C201.556 127.895 201.326 127.891 201.105 127.836L190.425 125.2C189.564 124.987 188.67 124.939 187.791 125.058L186.61 125.218C185.753 125.334 184.963 125.745 184.376 126.379C182.985 127.678 183.466 129.989 185.258 130.626L188.23 131.682C188.497 131.777 188.736 131.937 188.927 132.147C189.687 132.985 189.443 134.316 188.436 134.83L184.92 136.626C184.479 136.852 184.005 137.007 183.516 137.085L181.072 137.478C180.961 137.496 180.858 137.546 180.776 137.622C180.529 137.849 180.529 138.239 180.777 138.465L181.052 138.716C181.203 138.855 181.304 139.04 181.337 139.243L181.471 140.061C181.564 140.63 181.259 141.189 180.73 141.418L179.775 141.831C179.694 141.867 179.655 141.96 179.686 142.043C179.736 142.175 179.609 142.305 179.476 142.258L179.01 142.095C178.892 142.054 178.761 142.07 178.657 142.141L178.17 142.469C178.021 142.57 177.817 142.484 177.785 142.307C177.765 142.199 177.678 142.116 177.569 142.103L176.307 141.949C175.837 141.891 175.372 142.083 175.08 142.455L175.009 142.545C174.85 142.746 174.624 142.882 174.372 142.928C173.822 143.028 173.447 143.543 173.521 144.097L173.637 144.98C173.676 145.273 173.433 145.526 173.138 145.499C172.878 145.475 172.65 145.672 172.635 145.932L172.514 148.039C172.495 148.37 172.239 148.638 171.909 148.673C171.697 148.696 171.487 148.617 171.342 148.461L170.981 148.072C170.758 147.832 170.358 147.921 170.258 148.234C170.221 148.352 170.134 148.448 170.02 148.497L168.828 149.01C168.623 149.099 168.61 149.385 168.806 149.491C168.946 149.567 168.989 149.747 168.899 149.878L168.814 150.002C168.695 150.174 168.464 150.227 168.282 150.123C168.117 150.028 167.907 150.062 167.78 150.205L167.652 150.349C167.411 150.62 167.442 151.038 167.722 151.269L168.421 151.848C168.706 152.085 168.795 152.485 168.635 152.82L168.578 152.94C168.384 153.347 168.617 153.828 169.057 153.929C169.424 154.013 169.66 154.372 169.592 154.743L169.544 155.002C169.456 155.479 169.033 155.819 168.549 155.803L166.14 155.723C165.697 155.708 165.317 156.039 165.271 156.481C165.226 156.919 164.852 157.248 164.412 157.239L163.606 157.221C162.945 157.207 162.335 157.572 162.035 158.162L161.832 158.562C161.664 158.892 161.414 159.173 161.107 159.378C160.516 159.773 160.157 160.433 160.148 161.144L160.114 163.795C160.099 164.959 158.851 165.69 157.829 165.132L157.107 164.738C156.887 164.618 156.781 164.36 156.853 164.12C156.939 163.831 156.767 163.527 156.474 163.454L154.74 163.017C154.149 162.869 153.537 163.164 153.285 163.718L153.034 164.272C152.939 164.481 152.713 164.597 152.488 164.552C152.221 164.498 151.961 164.672 151.908 164.94L151.806 165.458C151.701 165.987 151.203 166.343 150.669 166.271L149.424 166.102C148.975 166.042 148.555 166.334 148.455 166.776L148.381 167.102C148.328 167.339 148.108 167.501 147.865 167.481C147.69 167.467 147.52 167.548 147.421 167.694L147.254 167.94C146.961 168.373 147.052 168.96 147.464 169.284L148.362 169.989C148.495 170.094 148.581 170.248 148.598 170.416L148.601 170.446C148.63 170.724 148.851 170.943 149.129 170.971C149.541 171.013 149.783 171.455 149.596 171.825L149.569 171.878C149.376 172.262 148.864 172.344 148.56 172.041L145.699 169.188C145.114 168.605 144.345 168.243 143.523 168.164L138.767 167.71C137.8 167.617 136.887 168.167 136.516 169.064L136.233 169.748C136.095 170.08 135.786 170.31 135.428 170.345L135.261 170.362C135.001 170.387 134.749 170.266 134.607 170.047C134.486 169.86 134.282 169.742 134.059 169.73L131.945 169.619C131.642 169.603 131.346 169.524 131.075 169.388L130.411 169.055C130.126 168.912 129.938 168.63 129.916 168.312C129.889 167.909 129.598 167.574 129.203 167.491L128.797 167.406C128.224 167.286 127.635 167.523 127.305 168.006L125.965 169.967C125.868 170.108 125.847 170.286 125.906 170.446C125.983 170.652 126.179 170.788 126.398 170.788H126.563C126.951 170.788 127.278 171.08 127.321 171.466L127.49 172.975C127.515 173.197 127.57 173.415 127.654 173.623L128.793 176.439C128.938 176.798 128.917 177.203 128.734 177.545L128.573 177.847C128.487 178.009 128.331 178.122 128.151 178.155C127.836 178.212 127.622 178.507 127.664 178.824L128.08 181.915C128.102 182.081 128.148 182.242 128.217 182.395C128.719 183.511 127.935 184.782 126.712 184.835L125.149 184.902C124.947 184.91 124.791 185.083 124.803 185.285C124.813 185.47 124.683 185.633 124.499 185.663L123.748 185.786C123.565 185.816 123.445 185.996 123.488 186.177C123.532 186.359 123.411 186.54 123.226 186.568L120 187.067C119.445 187.153 118.891 186.903 118.587 186.43L118.511 186.311C118.314 186.004 117.982 185.809 117.618 185.787C117.378 185.772 117.148 185.682 116.962 185.53L113.561 182.744C112.494 181.87 110.929 181.989 110.005 183.013L109.374 183.714C109.184 183.924 108.901 184.025 108.621 183.981L108.257 183.925C108.15 183.908 108.042 183.957 107.984 184.048C107.889 184.197 107.957 184.396 108.124 184.455L108.368 184.541C108.628 184.633 108.727 184.949 108.566 185.173L108.365 185.451C108.28 185.569 108.348 185.736 108.491 185.761C108.694 185.797 108.714 186.08 108.518 186.144L107.626 186.434C107.541 186.462 107.466 186.516 107.412 186.588L104.976 189.897C104.819 190.109 104.873 190.41 105.094 190.555C105.327 190.709 105.371 191.034 105.187 191.245L103.262 193.444C103.122 193.604 102.859 193.518 102.84 193.307C102.833 193.236 102.796 193.171 102.738 193.13L102.069 192.662C101.383 192.181 100.441 192.313 99.9117 192.963L99.6198 193.323C99.2551 193.771 98.6056 193.862 98.1322 193.53C97.6283 193.176 97.5115 192.479 97.8728 191.98L98.8266 190.665C99.7078 189.45 99.4292 187.75 98.2062 186.879L97.6987 186.518C96.7082 185.813 96.3998 184.48 96.98 183.412C97.5716 182.323 97.2384 180.962 96.2106 180.27L89.7076 175.889C88.9936 175.408 88.7587 174.465 89.1637 173.705L89.4443 173.179C89.6115 172.865 89.5625 172.48 89.3222 172.219C88.8516 171.706 89.1752 170.876 89.8686 170.818L90.1009 170.798C90.4525 170.768 90.7588 170.547 90.8967 170.222L91.0869 169.774C91.2225 169.455 91.1199 169.084 90.8394 168.88C90.6572 168.748 90.4247 168.705 90.2071 168.764L90.0554 168.804C89.698 168.901 89.3162 168.806 89.045 168.554L87.7149 167.318C87.2794 166.913 86.7069 166.688 86.1123 166.688H84.6981C83.8616 166.688 83.2533 165.894 83.4713 165.086C83.6304 164.497 83.3479 163.877 82.7984 163.611L81.185 162.83C80.5689 162.531 80.367 161.752 80.7606 161.192C81.0987 160.711 81.0032 160.05 80.5428 159.684L80.4572 159.616C79.9461 159.21 79.8426 158.475 80.2217 157.944L80.595 157.421C81.1498 156.643 81.0423 155.575 80.3437 154.924L77.3931 152.173C77.1492 151.946 77.1227 151.569 77.3323 151.309C77.5432 151.049 77.5149 150.669 77.2679 150.442L76.017 149.295C75.2232 148.566 73.9602 148.754 73.4118 149.681L73.2671 149.926C72.977 150.416 72.4027 150.662 71.8476 150.534L71.4344 150.438C71.017 150.341 70.5941 150.576 70.4548 150.981C70.3677 151.235 70.1645 151.431 69.9082 151.509L69.1669 151.736C68.8916 151.82 68.6541 151.997 68.4953 152.237C68.2812 152.561 67.9277 152.766 67.5402 152.79L67.4003 152.799C66.9222 152.83 66.4863 153.083 66.2239 153.484L65.5704 154.483C65.4008 154.742 65.0577 154.822 64.7909 154.665C64.6566 154.586 64.5597 154.456 64.5222 154.305L64.347 153.598C64.1678 152.876 63.6042 152.311 62.8819 152.131L62.6688 152.078C62.4661 152.027 62.2537 152.031 62.0529 152.088L61.5173 152.241C61.1986 152.332 60.8651 152.155 60.7633 151.839C60.6799 151.581 60.4368 151.408 60.1653 151.413L60.0841 151.415C59.8516 151.42 59.6357 151.536 59.5037 151.728L59.4227 151.845C59.0556 152.377 58.2887 152.428 57.8547 151.949L57.4039 151.452C57.0899 151.105 56.6351 150.921 56.1685 150.951L54.1923 151.078C53.7019 151.109 53.2752 150.746 53.2285 150.256C53.1843 149.793 52.7968 149.437 52.3309 149.433L51.409 149.425C51.0811 149.423 50.7579 149.503 50.4698 149.66L49.9318 149.952C49.164 150.369 48.2806 150.523 47.4169 150.39L45.5174 150.097C45.4285 150.084 45.3518 150.028 45.3116 149.947C45.1961 149.716 44.8546 149.755 44.7941 150.006L44.7865 150.038C44.7636 150.133 44.6937 150.211 44.6011 150.243L43.9243 150.48C43.6848 150.564 43.446 150.353 43.4999 150.105C43.5479 149.885 43.3624 149.684 43.1391 149.715L43.0768 149.723C42.9605 149.739 42.8436 149.698 42.7621 149.614L41.821 148.64C41.5939 148.405 41.3305 148.208 41.0407 148.057L37.9316 146.435C37.7531 146.342 37.6412 146.157 37.6412 145.956V145.685C37.6412 145.393 37.3265 145.209 37.0718 145.352C36.9392 145.427 36.7752 145.416 36.6539 145.324L34.0001 143.316C33.8305 143.188 33.7477 142.975 33.7861 142.766C33.8324 142.514 33.7021 142.262 33.4693 142.154L31.4985 141.239C31.172 141.088 31.0894 140.662 31.3357 140.399C31.4527 140.275 31.5021 140.101 31.4683 139.933L31.43 139.744C31.3627 139.41 31.1133 139.142 30.7851 139.052L29.912 138.811C29.3372 138.652 28.843 138.283 28.5276 137.777L28.0945 137.082C27.9117 136.789 27.6095 136.591 27.2677 136.539L26.987 136.497C26.6348 136.445 26.29 136.63 26.1405 136.954C25.9815 137.298 25.6032 137.483 25.2338 137.399L23.739 137.056C23.4557 136.992 23.2478 136.75 23.2261 136.46C23.2008 136.124 23.4323 135.822 23.7637 135.759L23.9215 135.729C24.6602 135.59 24.8598 134.626 24.2374 134.204L23.7372 133.865C23.5824 133.76 23.5 133.577 23.5244 133.392L23.5313 133.338C23.5522 133.18 23.6633 133.048 23.8162 133C24.1419 132.898 24.2087 132.467 23.9289 132.272L23.6182 132.055C23.5308 131.994 23.4286 131.957 23.3224 131.949L21.9923 131.848C21.6531 131.822 21.3165 131.923 21.0482 132.132L20.942 132.215C20.4306 132.613 19.6975 132.544 19.2697 132.057C18.9175 131.656 18.3465 131.53 17.8579 131.744L16.8037 132.206C16.7106 132.247 16.6362 132.321 16.5954 132.414C16.4377 132.774 15.9119 132.721 15.8287 132.338L15.7524 131.985C15.7249 131.859 15.6513 131.747 15.5459 131.671L15.1151 131.363C14.5153 130.934 13.6721 131.185 13.4038 131.872C13.2902 132.163 13.0596 132.394 12.7701 132.511C12.1261 132.769 11.3961 132.405 11.2229 131.733L9.58446 125.373C9.22099 123.963 9.31246 122.473 9.84581 121.117L11.8751 115.959C11.9528 115.762 12.0844 115.59 12.2549 115.464C12.5913 115.216 13.0375 115.174 13.4145 115.355L14.8336 116.036C15.2088 116.217 15.5286 116.494 15.7595 116.841C16.2165 117.526 17.0029 117.918 17.8255 117.87L18.4145 117.835C18.8814 117.808 19.3489 117.879 19.7868 118.043L20.0142 118.128C20.676 118.377 21.3871 118.465 22.0897 118.387L26.5965 117.886C26.6861 117.876 26.777 117.902 26.849 117.956C27.0341 118.096 27.0371 118.376 26.8523 118.516C26.6532 118.667 26.6721 118.972 26.8883 119.097L28.0691 119.78C28.7087 120.15 29.528 119.891 29.8382 119.22L29.893 119.102C30.0197 118.828 30.0528 118.52 29.9871 118.225L29.8665 117.685C29.6626 116.77 29.8955 115.814 30.4967 115.096L35.2153 109.459C35.6046 108.994 35.4253 108.285 34.8618 108.06C34.4604 107.901 34.2315 107.476 34.3191 107.052L34.7327 105.055C34.917 104.164 34.4033 103.277 33.5392 102.994C32.6189 102.692 32.1064 101.712 32.3834 100.784L32.6005 100.057C32.9752 98.8018 34.2347 98.0301 35.5231 98.2663L41.5124 99.3641C42.4327 99.5328 43.2961 98.8664 43.366 97.9334C43.4197 97.2167 42.9811 96.5546 42.3001 96.3245L40.7188 95.7901C40.0701 95.5709 39.6253 94.9725 39.6025 94.2881L39.5787 93.5718C39.5675 93.2362 39.3286 92.9517 39.0001 92.8825L38.6532 92.8095C38.3349 92.7425 38.1765 92.3827 38.3422 92.1027C38.4102 91.9878 38.5235 91.9068 38.6542 91.8796L39.8161 91.6379C41.7521 91.2351 42.8482 89.1748 42.1005 87.3442L40.8961 84.3956C40.7865 84.1275 40.6403 83.8758 40.4616 83.6478L39.5967 82.5445C39.4486 82.3557 39.4115 82.1026 39.499 81.8791C39.6884 81.3955 39.2859 80.8872 38.7717 80.9608L35.6392 81.4093C34.8705 81.5193 34.0973 81.2409 33.5752 80.6661C33.1894 80.2414 32.661 79.9732 32.0904 79.9125L28.9429 79.5776C28.7391 79.5559 28.5414 79.4953 28.3604 79.399L27.6616 79.0273C27.244 78.8051 27.0937 78.2809 27.3301 77.8712L27.6013 77.4012C27.7007 77.229 27.6311 77.0085 27.4508 76.9245C27.2055 76.8102 27.1865 76.4688 27.4175 76.3278L27.6247 76.2014C27.7841 76.1042 27.8706 75.9217 27.8451 75.7368L27.7947 75.3716C27.7303 74.9048 27.3577 74.541 26.8895 74.4877L26.4192 74.4341C26.0368 74.3905 25.6819 74.2139 25.4164 73.9351L25.2748 73.7864C24.8661 73.3572 24.6472 72.7816 24.6673 72.1893L24.747 69.848C24.7536 69.6545 24.7175 69.4619 24.6414 69.2838L24.421 68.7681C24.2418 68.3487 24.4526 67.8649 24.8819 67.7107C25.2332 67.5845 25.4488 67.2303 25.3996 66.8603L25.2721 65.9028C25.1894 65.2811 24.8183 64.7348 24.2709 64.4289L20.8987 62.5441C20.4018 62.2664 19.8053 62.2306 19.2787 62.4468C18.9652 62.5755 18.6225 62.6165 18.2874 62.5652L16.3433 62.2679C15.5289 62.1434 14.8468 61.5857 14.5628 60.8124L14.359 60.2573C14.1626 59.7223 13.6596 59.3615 13.0899 59.3468C12.7362 59.3377 12.3923 59.4638 12.1283 59.6995L11.9922 59.821C11.4103 60.3406 10.5193 60.2978 9.98987 59.7249L9.90208 59.6299C9.62066 59.3254 9.20175 59.1881 8.79469 59.267C8.45375 59.3331 8.10091 59.248 7.82766 59.0336L6.94111 58.3382C6.53122 58.0167 6.19459 57.6115 5.95364 57.1496L4.88198 55.0954C4.64751 54.6459 4.13401 54.4176 3.64323 54.5446C3.28462 54.6374 2.90344 54.5416 2.6313 54.2903L2.61871 54.2786C2.48917 54.159 2.38968 54.0105 2.32832 53.8452L1.86812 52.6056C1.05845 50.4245 1.44807 47.9788 2.89539 46.1573L6.34279 41.8186C7.20697 40.731 7.219 39.1945 6.37194 38.0935C6.00834 37.6209 5.79258 37.0513 5.75179 36.4564L5.65441 35.0363C5.62666 34.6316 5.67726 34.2253 5.80343 33.8398L6.06217 33.0492C6.21113 32.594 6.56754 32.2367 7.02235 32.0867L7.37988 31.9687C7.94915 31.7808 8.26829 31.1768 8.10264 30.6007C7.88581 29.8466 8.49448 29.1101 9.27594 29.181L10.052 29.2515C10.144 29.2599 10.2282 29.307 10.2833 29.3811L10.3624 29.4873C10.4824 29.6484 10.7331 29.6124 10.8028 29.4241C10.8483 29.3011 10.9802 29.2333 11.1067 29.2677L11.7266 29.4366C12.0679 29.5295 12.3126 29.8286 12.3361 30.1815L12.3448 30.3126C12.3643 30.6039 12.5742 30.8472 12.8595 30.909C13.1077 30.9628 13.3646 30.8681 13.5186 30.6663L14.8992 28.8567C15.0962 28.5985 15.1925 28.2775 15.1702 27.9535C15.1306 27.3798 15.4621 26.8451 15.9935 26.6255L17.3524 26.0639C17.7743 25.8896 18.1564 25.6316 18.4759 25.3055L19.6804 24.076C20.2045 23.541 21.0106 23.3981 21.6866 23.7204L22.9307 24.3133C23.1756 24.43 23.4681 24.3147 23.5675 24.0622C23.6653 23.8135 23.9513 23.6971 24.195 23.8069L25.8309 24.5435C26.0907 24.6606 26.3953 24.5324 26.4933 24.2647C26.5659 24.0663 26.7574 23.9366 26.9686 23.9428L27.2178 23.9501C27.6272 23.9622 27.9851 23.676 28.0635 23.274L28.2178 22.4825C28.3875 21.6126 29.1692 20.9985 30.0546 21.0397L30.6255 21.0662C30.8672 21.0775 31.1064 21.0129 31.3096 20.8817L31.5014 20.7577C32.1182 20.3592 32.1194 19.4574 31.5037 19.0573C31.0114 18.7373 30.8933 18.0672 31.2465 17.5982L32.0388 16.5464C32.4947 15.941 33.3474 15.8037 33.9704 16.2352L35.0141 16.9582C35.5509 17.3301 36.281 16.924 36.2481 16.2718C36.2258 15.8288 36.5739 15.4548 37.0174 15.4455L37.5638 15.4339C37.8585 15.4276 38.1382 15.3023 38.3391 15.0865C38.8246 14.565 39.6715 14.6413 40.056 15.241L40.1026 15.3137C40.2952 15.6142 40.6156 15.809 40.971 15.8418L41.1605 15.8593C41.4851 15.8892 41.792 16.0209 42.0373 16.2356L43.771 17.7527C43.9724 17.9289 44.2735 17.9274 44.4731 17.7491C44.6489 17.5919 44.9074 17.5699 45.1073 17.695L45.4694 17.9217C45.8309 18.148 46.3072 18.0397 46.5353 17.6794L46.5515 17.6538C46.7181 17.3906 46.7 17.0509 46.5064 16.8069C46.1394 16.3443 46.4426 15.6598 47.0319 15.621L48.938 15.4954C49.2627 15.474 49.5748 15.3616 49.8386 15.1712L50.3383 14.8106C50.6625 14.5766 51.072 14.4939 51.4617 14.5836L52.9385 14.9238C53.1049 14.9622 53.1876 15.1498 53.1036 15.2985C53.0387 15.4133 53.0719 15.5587 53.1802 15.6339L53.7103 16.0024C53.8719 16.1147 54.0639 16.1748 54.2606 16.1748H54.508C54.8974 16.1748 55.2371 15.9104 55.3327 15.5329C55.4071 15.2391 55.6322 15.0071 55.9236 14.9238L55.95 14.9162C56.266 14.8258 56.5075 14.5701 56.5796 14.2494L56.6698 13.848C56.7565 13.4622 56.5177 13.0782 56.1333 12.9855L55.7608 12.8956C55.4917 12.8306 55.3554 12.5299 55.484 12.2848C55.5525 12.1542 55.6838 12.0684 55.8309 12.0582L58.7449 11.8552C60.0995 11.7608 61.375 11.1825 62.3386 10.2257L64.8856 7.69681C65.0948 7.48909 65.2354 7.22231 65.2885 6.93232L65.3796 6.43505C65.4105 6.26654 65.3544 6.09381 65.2304 5.97561C64.9921 5.74852 65.0293 5.35831 65.3061 5.18029L66.8998 4.15549C67.1136 4.01801 67.3997 4.10423 67.5019 4.33697C67.5947 4.54827 67.8425 4.64267 68.0524 4.54665L68.3413 4.41444C68.5542 4.31705 68.8009 4.32821 69.0041 4.44442L69.0845 4.49039C69.4864 4.72029 69.997 4.61034 70.2687 4.23538L70.5392 3.86211C70.9 3.36426 71.5401 3.15512 72.1253 3.34396L73.0409 3.63948C73.4792 3.78092 73.9459 3.80985 74.3983 3.72362L80.969 2.47098C82.4338 2.19173 83.945 2.2792 85.3678 2.72561L88.6899 3.76793C89.2901 3.95625 89.7679 4.41414 89.9815 5.00581L90.5018 6.44697C90.616 6.76315 90.9738 6.91679 91.2817 6.7818C91.5374 6.66968 91.8367 6.75528 91.9945 6.98566L94.5117 10.6617C94.7509 11.011 95.0455 11.319 95.3838 11.5735L97.0449 12.823C97.5119 13.1742 97.6767 13.8002 97.4432 14.3358C97.2868 14.6944 97.3056 15.1051 97.494 15.4479L98.0494 16.4587C98.6266 17.509 99.6875 18.2042 100.881 18.3141L103.543 18.5594C103.696 18.5735 103.85 18.5387 103.982 18.4601L104.266 18.291C104.444 18.1844 104.506 17.9552 104.406 17.7731C104.296 17.5759 104.379 17.3274 104.584 17.2348L106.147 16.5309C106.33 16.4484 106.494 16.3295 106.63 16.1815L107.312 15.437C107.74 14.9703 108.509 15.1155 108.738 15.706C108.865 16.035 109.181 16.2518 109.534 16.2518H110.827C111.425 16.2518 111.989 16.5306 112.352 17.0059L112.423 17.0986C112.669 17.4207 113.027 17.6387 113.426 17.7098L114.182 17.8444C114.455 17.8929 114.661 18.1177 114.686 18.3934C114.709 18.6458 114.885 18.8581 115.128 18.9281L115.842 19.1331C116.077 19.2006 116.324 19.2166 116.565 19.18L118.368 18.9073C118.59 18.8737 118.807 18.9917 118.899 19.196L118.92 19.2414C119.051 19.5314 118.859 19.8647 118.542 19.8959C118.263 19.9234 118.071 20.1896 118.134 20.4628L118.208 20.7843C118.265 21.0313 118.194 21.2902 118.019 21.4738L117.917 21.5813C117.495 22.0251 117.55 22.7368 118.036 23.1099L119.886 24.5311C120.263 24.8212 120.702 25.0213 121.168 25.1164L121.407 25.165C122.469 25.3814 123.57 25.0583 124.347 24.3021L124.524 24.1292C124.825 23.8365 125.042 23.469 125.153 23.0645L125.68 21.1539C125.752 20.8954 126.024 20.7488 126.279 20.8319C126.46 20.891 126.659 20.8349 126.783 20.6899L127.272 20.1157C127.503 19.8447 127.818 19.6587 128.167 19.5872L128.633 19.4917C129.376 19.3395 130.033 18.91 130.47 18.2905L130.577 18.1386C131.034 17.4909 131.701 17.0204 132.464 16.8062L134.222 16.3129C135.131 16.0578 135.964 15.5862 136.651 14.9383C137.266 14.358 138 13.9182 138.802 13.6494L140.402 13.1129C141.694 12.6799 143.043 12.4447 144.405 12.4153L147.857 12.3408C148.341 12.3303 148.823 12.4162 149.274 12.5936L149.371 12.6319C149.918 12.8468 150.512 12.9108 151.092 12.8173L153.76 12.3869C153.976 12.3521 154.127 12.1549 154.105 11.9374C154.082 11.7141 154.241 11.5135 154.464 11.4857L155.764 11.3236C156.062 11.2864 156.364 11.3514 156.62 11.5078C157.003 11.7414 157.478 11.7661 157.883 11.5734L165.263 8.06363C166.304 7.56844 167.156 6.74878 167.692 5.72778L167.935 5.2636C168.162 4.83109 168.487 4.45783 168.885 4.17379C169.486 3.74426 170.219 3.5416 170.955 3.60182L173.177 3.78358C174.511 3.89266 175.845 3.58196 176.993 2.89501L179.493 1.39852Z" fill="#2969F6" stroke="#1D1D1D" stroke-width="2" stroke-linecap="round" stroke-linejoin="round"/>
</svg>
