<svg width="247" height="175" viewBox="0 0 247 175" fill="none" xmlns="http://www.w3.org/2000/svg">
<path d="M219.725 153.293C220.074 153.635 220.562 153.796 221.046 153.73L221.85 153.62C222.526 153.527 223.094 154.125 222.965 154.795C222.856 155.367 222.282 155.724 221.721 155.569L220.777 155.309C220.569 155.251 220.38 155.142 220.227 154.99L218.387 153.165C218.095 152.876 218.346 152.382 218.752 152.447C218.838 152.461 218.918 152.502 218.981 152.563L219.725 153.293ZM72.5324 147.178C72.5468 147.176 72.5615 147.176 72.5759 147.179L79.38 148.33L84.4296 149.888C85.7024 150.281 87.0515 150.359 88.3611 150.115L88.9337 150.008C89.4938 149.904 90.0314 149.703 90.5225 149.414L91.457 148.865C92.6377 148.171 94.1233 148.273 95.1985 149.121L95.3793 149.264C95.707 149.522 96.0956 149.693 96.5078 149.758L97.3374 149.89C97.6369 149.937 97.9401 149.83 98.1429 149.605C98.4424 149.271 98.9421 149.211 99.3121 149.464L100.465 150.25C100.821 150.493 101.234 150.639 101.664 150.675L104.808 150.933C104.926 150.943 105.04 150.978 105.143 151.037C105.77 151.394 105.651 152.332 104.955 152.521L104.467 152.654C104.357 152.684 104.242 152.695 104.127 152.687L93.7586 151.949L72.5226 147.459C72.3663 147.426 72.3741 147.2 72.5324 147.178ZM201.614 141.916C201.98 141.901 202.134 142.377 201.828 142.579C201.758 142.626 201.706 142.696 201.682 142.777L201.534 143.269C201.394 143.735 201.07 144.124 200.636 144.345L199.87 144.735C199.33 145.01 199.016 145.591 199.081 146.193L199.224 147.516C199.241 147.673 199.118 147.81 198.96 147.81C198.837 147.81 198.731 147.726 198.702 147.606L198.287 145.864C198.074 144.974 198.359 144.038 199.032 143.416L200.452 142.104C200.553 142.01 200.684 141.955 200.822 141.949L201.614 141.916ZM227.256 140.441C227.303 140.528 227.334 140.622 227.35 140.719L229.593 154.249C229.791 155.446 230.11 156.62 230.545 157.752L236.18 172.408C236.29 172.694 236.165 173.017 235.891 173.154C235.562 173.32 235.163 173.15 235.054 172.799L233.872 168.994C233.763 168.644 233.593 168.317 233.369 168.027L232.579 167.003C232.343 166.696 231.953 166.551 231.574 166.63C231.209 166.705 230.915 166.974 230.809 167.331L230.552 168.191C230.423 168.622 230.181 169.011 229.85 169.317L229.345 169.784C229.122 169.991 228.841 170.123 228.539 170.164L228.297 170.196C227.783 170.265 227.286 169.983 227.081 169.507C226.954 169.211 226.956 168.875 227.087 168.581L227.956 166.629C228.181 166.123 228.336 165.588 228.416 165.04L229.015 160.918C229.084 160.442 228.942 159.96 228.626 159.597L228.378 159.312C228.286 159.206 228.233 159.071 228.23 158.931L228.22 158.523C228.211 158.136 228.674 157.931 228.954 158.198C229.294 158.522 229.835 158.152 229.656 157.718L228.843 155.743C228.751 155.52 228.573 155.344 228.349 155.256L228.109 155.161C227.688 154.994 227.442 154.555 227.518 154.109L227.651 153.334C227.691 153.102 227.499 152.895 227.264 152.918C227.082 152.936 226.915 152.813 226.88 152.633L226.447 150.453C226.362 150.023 226.151 149.627 225.841 149.317L225.455 148.932C225.209 148.686 224.862 148.569 224.517 148.616C224.077 148.676 223.714 148.991 223.594 149.419L223.472 149.852C223.194 150.838 221.854 150.98 221.376 150.074C221.266 149.866 221.095 149.697 220.885 149.591L220.303 149.297C219.7 148.992 219.442 148.269 219.715 147.652C219.856 147.335 219.86 146.974 219.727 146.654L219.653 146.475C219.472 146.037 219.119 145.693 218.676 145.525L217.053 144.906C216.866 144.835 216.741 144.657 216.737 144.457C216.73 144.149 217.005 143.911 217.309 143.962L219.583 144.342C219.973 144.407 220.373 144.372 220.745 144.24L220.908 144.182C222.007 143.791 223.216 144.348 223.633 145.437L223.869 146.053C223.936 146.228 224.073 146.366 224.248 146.434C224.527 146.542 224.844 146.449 225.02 146.207L225.54 145.496C225.818 145.116 225.936 144.643 225.871 144.177L225.445 141.148C225.397 140.803 225.533 140.457 225.803 140.237L225.891 140.166C226.331 139.808 226.989 139.941 227.256 140.441ZM7.68888 129.991C8.37387 130.326 9.14215 130.453 9.89834 130.355L11.8468 130.102C11.9488 130.089 12.0506 130.129 12.1167 130.208C12.2569 130.375 12.1791 130.631 11.9696 130.692L11.25 130.9C11.1072 130.942 10.9952 131.053 10.9526 131.195C10.8802 131.437 11.0262 131.689 11.2717 131.747L31.1955 136.434L13.6059 132.699L8.80686 130.98C7.46457 130.5 6.20892 129.805 5.0886 128.923L4.44211 128.414C3.61129 127.76 2.90626 126.96 2.36137 126.054L2.14833 125.7C1.58221 124.758 1.24578 123.697 1.16629 122.601L1.05994 121.135C1.03686 120.817 1.10153 120.499 1.24691 120.215L1.70863 119.313C1.79369 119.147 1.97928 119.058 2.16197 119.096C2.35726 119.137 2.49581 119.311 2.49164 119.511L2.41377 123.238C2.40324 123.742 2.47049 124.244 2.61315 124.728L2.76089 125.229C3.00126 126.043 3.39858 126.803 3.93051 127.465C4.5304 128.212 5.28757 128.817 6.14809 129.238L7.68888 129.991ZM108.972 5.92571C108.918 4.75142 109.997 3.84806 111.143 4.10767L113.383 4.61478C113.878 4.72696 114.392 4.72729 114.888 4.61576L117.362 4.0588C117.974 3.92115 118.573 4.33421 118.662 4.9548C118.711 5.29563 118.593 5.63919 118.346 5.87873L117.721 6.48407C117.569 6.63097 117.468 6.82226 117.432 7.03034C117.332 7.61122 117.755 8.15157 118.343 8.1933L118.73 8.22077C118.999 8.23987 119.268 8.17773 119.501 8.04239L121.288 7.00638C121.458 6.90772 121.67 6.91578 121.832 7.02707C121.981 7.12892 122.064 7.30149 122.052 7.48107L121.969 8.73725C121.921 9.45983 122.301 10.1433 122.941 10.4827L123.364 10.7072C123.665 10.867 123.862 11.1715 123.883 11.5117C123.926 12.18 124.622 12.6057 125.243 12.3542C125.873 12.0985 126.081 11.2961 125.641 10.7772L125.269 10.3398C125.146 10.1947 125.069 10.0165 125.046 9.82754C124.986 9.31973 125.331 8.8528 125.835 8.7617L133.724 7.33328C134.872 7.12535 135.649 6.04409 135.479 4.88943C135.311 3.74379 136.074 2.66859 137.211 2.4499L140.5 1.81749C141.426 1.6394 142.351 2.12841 142.726 2.99376L142.986 3.59516C143.079 3.81056 143.27 3.96805 143.5 4.01847C143.882 4.10267 144.131 4.47389 144.062 4.85979L144.047 4.94259C143.995 5.23718 143.783 5.48093 143.499 5.57632C143.163 5.6895 142.931 6.00504 142.928 6.35998L142.906 9.08854C142.899 9.9649 143.752 10.5913 144.586 10.3227C145.311 10.0892 146.079 10.5339 146.238 11.2791L146.258 11.3726C146.409 12.0836 147.089 12.5532 147.807 12.4434L162.272 10.2328C164.66 9.86786 167.046 10.9004 168.415 12.8907L168.612 13.1773C168.832 13.4968 169.097 13.7823 169.4 14.0245C170.302 14.7456 171.474 15.036 172.609 14.8193L176.404 14.0942C179.058 13.5873 181.804 13.9649 184.222 15.1692L185.769 15.9393C186.141 16.1247 186.478 16.3736 186.764 16.6749C187.246 17.1814 187.568 17.8182 187.691 18.5062L188.674 24.0115C188.72 24.2674 188.948 24.4501 189.208 24.4391C189.468 24.4281 189.697 24.6118 189.742 24.8686L190.956 31.8117C190.995 32.0348 191.115 32.2355 191.293 32.3752C191.655 32.6586 192.17 32.6304 192.499 32.309L193.049 31.7707C193.329 31.4975 193.69 31.3229 194.077 31.2734L194.747 31.1878C195.189 31.1313 195.636 31.2547 195.987 31.5305L196.126 31.6399C196.421 31.8711 196.801 31.9621 197.168 31.8891L197.928 31.7379C198.204 31.683 198.382 31.4144 198.327 31.1386C198.271 30.8623 198.451 30.5933 198.727 30.539L198.939 30.4974C199.311 30.4244 199.564 30.077 199.518 29.7008L199.468 29.2854C199.394 28.6709 199.81 28.1044 200.418 27.9907L205.129 27.1111C205.664 27.0111 206.132 27.4814 206.029 28.0162C205.975 28.3017 205.764 28.5323 205.485 28.6129L205.067 28.7334C204.319 28.9493 203.866 29.7071 204.029 30.4682L204.206 31.29C204.329 31.8648 204.878 32.2448 205.46 32.1582C205.985 32.0798 206.493 32.3839 206.673 32.8843L206.862 33.4127C206.894 33.5002 206.917 33.5904 206.931 33.6822L206.945 33.771C207.06 34.5108 206.561 35.2066 205.823 35.3354C205.09 35.4634 204.592 36.152 204.701 36.8883L206.324 47.9414C206.415 48.5586 206.97 48.9985 207.592 48.9451C208.225 48.8907 208.787 49.3479 208.864 49.9788L209.599 56.0716C209.653 56.5146 210.056 56.8296 210.499 56.7741C210.913 56.7221 211.298 56.9954 211.386 57.4036L211.725 58.9745C211.803 59.3365 212.115 59.6003 212.485 59.6166C212.881 59.634 213.207 59.9336 213.257 60.3265L213.281 60.5131C213.354 61.0779 213.868 61.4789 214.433 61.4115L216.625 61.1503C217.172 61.0851 217.67 61.4722 217.742 62.0184C217.815 62.5766 218.332 62.9661 218.889 62.8824L219.556 62.7821C220.468 62.6452 221.318 63.2734 221.455 64.185L222.117 68.6066C222.264 69.5873 223.147 70.2861 224.135 70.2044C225.115 70.1234 225.993 70.8106 226.149 71.7818L226.365 73.1179C226.549 74.2627 225.76 75.3366 224.613 75.5028L224.51 75.5177C223.441 75.6725 222.696 76.659 222.839 77.7297L223.054 79.3417C223.092 79.6294 222.875 79.8877 222.585 79.8988C222.322 79.9088 222.114 80.1231 222.111 80.3858L222.1 81.4897C222.098 81.753 221.892 81.9695 221.629 81.9855L221.584 81.9882C221.34 82.0031 221.151 82.2086 221.157 82.4533C221.163 82.6857 220.992 82.8849 220.762 82.9153L216.4 83.4915C216.051 83.5376 215.802 83.8514 215.836 84.2013C215.869 84.5499 215.622 84.8629 215.275 84.9106L214.808 84.9748C214.174 85.0619 213.735 85.6516 213.833 86.2835L213.949 87.0286C214.089 87.9288 214.912 88.5603 215.818 88.4632L216.796 88.3583C217.152 88.3202 217.475 88.5675 217.531 88.9209C217.588 89.2779 217.917 89.5261 218.276 89.4823L219.722 89.3059C220.921 89.1597 222.01 90.0145 222.153 91.2134L222.367 93.0014C222.466 93.8335 221.941 94.6128 221.132 94.8323C220.284 95.0624 219.754 95.9039 219.913 96.768L220.096 97.7627C220.189 98.2708 220.64 98.6343 221.156 98.6177C221.673 98.6011 222.124 98.9651 222.217 99.4737L222.312 99.9922C222.473 100.873 223.304 101.466 224.189 101.332L230.386 100.393C231.137 100.279 231.836 100.799 231.943 101.551L232.047 102.288C232.084 102.55 231.92 102.798 231.665 102.867C231.395 102.94 231.23 103.211 231.289 103.484L231.5 104.456C231.674 105.261 232.441 105.794 233.256 105.678L234.45 105.507C235.094 105.415 235.75 105.544 236.31 105.874L240.191 108.159C240.505 108.344 240.871 108.42 241.232 108.374C242.169 108.256 243.014 108.948 243.081 109.89L244.147 124.778C244.17 125.101 244.453 125.342 244.775 125.313C245.286 125.268 245.599 125.86 245.274 126.257L244.531 127.162C244.452 127.26 244.355 127.342 244.247 127.406L242.969 128.16C242.065 128.693 241.079 129.071 240.05 129.28L234.487 130.408C232.925 130.725 231.458 131.4 230.201 132.38L228.815 133.46C228.146 133.981 227.644 134.685 227.368 135.486L226.885 136.885C226.591 137.739 225.804 138.327 224.901 138.367L224.508 138.385C224.058 138.405 223.625 138.21 223.341 137.86C222.989 137.425 222.415 137.238 221.874 137.38L221.541 137.468C221.103 137.583 220.639 137.543 220.228 137.355L218.969 136.778C218.131 136.393 217.186 136.309 216.293 136.54L215.432 136.762C214.435 137.019 213.68 137.834 213.5 138.848C213.429 139.248 213.451 139.659 213.566 140.048L213.979 141.456C214.553 143.412 214.436 145.506 213.648 147.386L212.688 149.68C212.457 150.229 212.182 150.758 211.864 151.262L211.247 152.238C211.103 152.468 210.925 152.675 210.721 152.853L208.852 154.486C208.475 154.816 207.891 154.715 207.645 154.278C207.561 154.128 207.43 154.01 207.272 153.941L207.166 153.895C206.806 153.738 206.39 153.779 206.067 154.003L205.92 154.105L204.979 154.919C204.881 155.004 204.805 155.112 204.758 155.233C204.475 155.968 203.409 155.884 203.245 155.113L203.194 154.873C203.154 154.687 203.177 154.493 203.259 154.321L203.328 154.176C203.572 153.665 203.453 153.055 203.035 152.673C202.874 152.526 202.679 152.423 202.467 152.372L200.286 151.849C199.789 151.73 199.457 151.261 199.51 150.753C199.529 150.578 199.592 150.411 199.694 150.268L199.978 149.869C200.365 149.326 201.024 149.046 201.683 149.144L203.377 149.396C203.557 149.422 203.719 149.283 203.719 149.101C203.719 148.956 203.614 148.832 203.471 148.807L202.419 148.627C201.779 148.518 201.273 148.024 201.149 147.387L201.026 146.757C200.857 145.895 201.199 145.013 201.904 144.489C202.168 144.293 202.387 144.042 202.545 143.753L203.209 142.539C203.263 142.44 203.269 142.321 203.225 142.217L203.198 142.152C203.098 141.914 203.296 141.658 203.551 141.695C203.688 141.714 203.799 141.817 203.829 141.952L203.974 142.608C204.12 143.271 205.051 143.314 205.257 142.666C205.319 142.474 205.464 142.32 205.652 142.248L206.371 141.971C207.423 141.565 208.613 141.992 209.168 142.973L209.529 143.612C209.572 143.688 209.588 143.776 209.575 143.862C209.542 144.075 209.338 144.219 209.126 144.183C208.868 144.139 208.637 144.356 208.668 144.616L208.675 144.673C208.694 144.838 208.806 144.977 208.963 145.032L209.175 145.106C209.562 145.242 209.989 145.062 210.161 144.689L210.897 143.098C211.051 142.765 211.136 142.405 211.147 142.038L211.229 139.353C211.255 138.49 210.811 137.68 210.069 137.238C209.796 137.076 209.559 136.86 209.371 136.604L208.445 135.345C208.256 135.088 207.949 134.944 207.63 134.963C207.352 134.98 207.097 135.119 206.931 135.342L206.766 135.565C206.571 135.829 206.465 136.149 206.465 136.478V136.968C206.465 137.224 206.529 137.475 206.65 137.701L206.946 138.25C207.275 138.86 206.939 139.617 206.266 139.783L206.022 139.843C205.832 139.89 205.677 140.028 205.61 140.212C205.51 140.485 205.224 140.644 204.938 140.585L203.938 140.379C203.635 140.316 203.354 140.176 203.123 139.972L202.104 139.074C201.947 138.935 201.745 138.859 201.536 138.859C201.184 138.859 200.867 138.644 200.737 138.316L200.613 138.001C200.5 137.716 200.228 137.526 199.922 137.519C199.727 137.514 199.542 137.436 199.404 137.299L197.504 135.422C197.099 135.022 196.516 134.859 195.962 134.992C195.295 135.153 194.598 134.883 194.214 134.314L194.074 134.107C193.82 133.731 193.701 133.281 193.735 132.829L193.761 132.487C193.802 131.958 193.701 131.427 193.469 130.95L192.769 129.511C192.708 129.384 192.593 129.292 192.457 129.258C192.086 129.166 191.765 129.528 191.899 129.885L192.475 131.416C192.577 131.687 192.588 131.983 192.507 132.26L191.813 134.635C191.702 135.016 191.712 135.423 191.841 135.798L192.212 136.877C192.354 137.29 192.806 137.509 193.219 137.364L193.319 137.328C193.593 137.232 193.898 137.33 194.065 137.568C194.212 137.779 194.221 138.058 194.086 138.278L193.34 139.492C193.113 139.861 192.974 140.277 192.935 140.708L192.742 142.793C192.712 143.111 192.483 143.374 192.172 143.447C191.718 143.554 191.28 143.222 191.26 142.757L191.128 139.767C191.095 139.007 190.794 138.283 190.278 137.723L189.568 136.954C189.018 136.356 188.592 135.655 188.317 134.891L187.475 132.555C187.255 131.945 186.869 131.408 186.36 131.007C185.878 130.628 185.506 130.127 185.281 129.557L185.034 128.933C184.837 128.432 184.549 127.972 184.186 127.576L183.064 126.352C182.882 126.154 182.621 126.048 182.353 126.063C181.997 126.083 181.687 126.313 181.564 126.647L181.212 127.597C181 128.17 180.285 128.361 179.815 127.97L179.533 127.734C179.326 127.561 179.019 127.583 178.838 127.784C178.588 128.061 178.717 128.505 179.077 128.604L180.549 129.012C181.008 129.139 181.375 129.484 181.53 129.935L183.09 134.468C183.255 134.948 183.545 135.377 183.93 135.709L184.695 136.371C185.054 136.68 185.206 137.167 185.088 137.626C185.017 137.901 184.854 138.143 184.626 138.313L182.514 139.891C182.219 140.112 181.803 140.066 181.564 139.785C181.391 139.583 181.348 139.302 181.452 139.057L182.081 137.577C182.398 136.832 182.412 135.992 182.12 135.235L181.723 134.207C181.624 133.948 181.409 133.751 181.143 133.673C180.681 133.538 180.195 133.796 180.048 134.254L179.607 135.621C179.505 135.938 179.256 136.185 178.939 136.286L177.992 136.587C177.837 136.636 177.77 136.818 177.855 136.957C177.921 137.065 178.057 137.106 178.172 137.054L178.781 136.776C179.137 136.614 179.554 136.673 179.851 136.926L180.101 137.139C180.241 137.258 180.358 137.402 180.447 137.563L180.704 138.028C180.856 138.304 180.906 138.624 180.847 138.934L180.83 139.02C180.737 139.505 180.946 139.998 181.359 140.269L181.713 140.501C182.041 140.716 182.15 141.145 181.965 141.49C181.681 142.021 180.921 142.023 180.634 141.493L180.443 141.14C180.358 140.983 180.231 140.852 180.077 140.762L180.044 140.743C179.571 140.467 178.968 140.578 178.623 141.002L178.161 141.571C178.005 141.764 177.76 141.86 177.514 141.826C177.18 141.78 176.926 141.505 176.905 141.168L176.851 140.288C176.831 139.952 176.678 139.638 176.427 139.415C175.853 138.906 174.963 139.017 174.532 139.651L174.007 140.423C173.958 140.495 173.933 140.581 173.936 140.668C173.951 141.094 173.385 141.256 173.172 140.887L169.477 134.502C169.325 134.24 169.121 134.011 168.879 133.828L167.788 133.01C167.431 132.741 167.024 132.547 166.59 132.439L166.179 132.336C165.821 132.246 165.446 132.262 165.098 132.381L164.345 132.638C163.972 132.765 163.56 132.626 163.34 132.3L163.211 132.108C162.942 131.708 162.359 131.69 162.066 132.073C161.956 132.215 161.797 132.311 161.619 132.34L160.925 132.452C160.255 132.561 159.57 132.39 159.03 131.98L156.329 129.927C155.951 129.64 155.405 129.774 155.204 130.204C155.085 130.459 154.831 130.625 154.549 130.632L152.918 130.675C152.405 130.688 151.956 131.025 151.8 131.514C151.696 131.84 151.735 132.194 151.907 132.489L152.589 133.66C152.863 134.13 152.588 134.728 152.054 134.827C151.888 134.858 151.716 134.834 151.565 134.759L150.239 134.107C150.054 134.016 149.879 133.905 149.717 133.776L149.065 133.258C148.939 133.158 148.854 133.017 148.824 132.859L148.764 132.54C148.715 132.278 148.434 132.131 148.19 132.24C148.039 132.308 147.862 132.279 147.741 132.166L146.898 131.382C146.709 131.206 146.408 131.387 146.475 131.636C146.514 131.783 146.418 131.931 146.268 131.956L145.518 132.08C144.996 132.167 144.646 132.663 144.74 133.184L145.916 139.681C145.989 140.083 145.757 140.477 145.37 140.609C144.955 140.75 144.501 140.541 144.339 140.134L144.24 139.886C144.139 139.634 143.949 139.427 143.707 139.306L143.569 139.237C142.875 138.891 142.032 139.127 141.618 139.782L141.285 140.31C141.129 140.557 140.857 140.707 140.564 140.707C140.204 140.707 139.883 140.933 139.762 141.272L139.531 141.918C139.423 142.22 139.171 142.448 138.86 142.525L138.606 142.588C138.494 142.616 138.375 142.593 138.281 142.525C137.998 142.321 137.609 142.559 137.662 142.904L137.816 143.919C137.847 144.117 137.957 144.295 138.122 144.409L138.62 144.755C139.158 145.129 138.801 145.973 138.157 145.846C138.032 145.822 137.902 145.837 137.786 145.891L137.457 146.043C136.941 146.281 136.575 146.76 136.481 147.321L136.364 148.018C136.316 148.303 136.386 148.596 136.558 148.829L137.002 149.427C137.371 149.925 136.985 150.626 136.367 150.579C136.224 150.569 136.087 150.515 135.974 150.427L135.011 149.669C134.423 149.207 133.64 149.076 132.933 149.322L132.008 149.645C131.882 149.689 131.786 149.794 131.755 149.924C131.677 150.244 131.264 150.333 131.062 150.073L125.704 143.188C125.626 143.089 125.523 143.013 125.405 142.969C125.168 142.88 124.902 142.93 124.713 143.099L124.416 143.365C124.18 143.575 124.026 143.862 123.982 144.175L123.807 145.404C123.73 145.944 123.226 146.316 122.687 146.232L122.454 146.195C122.157 146.149 121.926 145.905 121.893 145.605C121.848 145.214 122.154 144.865 122.548 144.865C122.859 144.865 123.128 144.648 123.194 144.344L123.404 143.37C123.563 142.63 123.267 141.866 122.651 141.427L122.41 141.256C122.186 141.097 121.936 140.978 121.67 140.905L121.253 140.791C120.453 140.572 119.609 140.565 118.806 140.77L117.691 141.055C117.596 141.08 117.504 141.118 117.42 141.169C117.126 141.347 116.94 141.667 116.937 142.012L116.927 143.134C116.924 143.37 116.673 143.519 116.465 143.408C116.351 143.346 116.286 143.221 116.303 143.092L116.497 141.56C116.55 141.141 116.722 140.747 116.993 140.424L117.143 140.244C117.702 139.577 117.736 138.615 117.226 137.91L116.793 137.311C116.709 137.195 116.686 137.046 116.73 136.911L117.128 135.692C117.24 135.347 116.764 135.131 116.578 135.442C116.507 135.561 116.364 135.617 116.231 135.578L116.157 135.556C115.831 135.46 115.54 135.784 115.67 136.098L115.821 136.464C115.88 136.605 115.881 136.763 115.826 136.906L115.395 138.013C115.165 138.605 114.781 139.124 114.282 139.517L112.936 140.576C111.935 141.365 110.6 141.585 109.398 141.16L108.871 140.974C108.384 140.802 107.974 140.463 107.713 140.017C107.358 139.411 106.734 139.012 106.034 138.945L105.121 138.857C104.884 138.834 104.649 138.923 104.486 139.097C104.246 139.354 104.21 139.74 104.399 140.036L104.413 140.058C104.589 140.334 104.58 140.689 104.39 140.956L103.932 141.596C103.781 141.808 103.796 142.097 103.967 142.292C104.226 142.587 104.111 143.049 103.744 143.188L103.655 143.221C103.575 143.252 103.488 143.265 103.402 143.261L101.042 143.139C100.472 143.109 99.9011 143.177 99.3544 143.341C98.5837 143.571 97.7688 143.611 96.9791 143.459L93.6613 142.819C93.0885 142.709 92.4975 142.739 91.9388 142.907C91.2808 143.105 90.5801 143.11 89.919 142.924L87.48 142.235C87.018 142.105 86.5277 142.115 86.0717 142.266L85.4569 142.468C85.2133 142.548 85.0139 142.726 84.9067 142.959C84.7839 143.225 84.5417 143.418 84.2542 143.477L81.3768 144.07C80.8133 144.187 80.2277 144.126 79.7002 143.896C79.1638 143.662 78.5674 143.604 77.9957 143.728L76.3489 144.085C75.7864 144.207 75.2386 144.389 74.7151 144.628L71.7961 145.963C71.6085 146.049 71.4605 146.203 71.3821 146.394L71.1756 146.897C71.155 146.947 71.1712 147.005 71.2149 147.037C71.3177 147.112 71.2443 147.275 71.1198 147.247L68.172 146.597L48.1994 140.649L48.9193 140.776C49.4161 140.863 49.9183 140.653 50.2058 140.239C50.431 139.915 50.4955 139.505 50.3811 139.127L49.9842 137.815C49.9664 137.757 49.9735 137.693 50.0038 137.64C50.0938 137.481 50.3252 137.491 50.4017 137.656L50.4236 137.704C50.4789 137.823 50.6173 137.88 50.7404 137.833L50.8115 137.805C50.9851 137.739 51.0707 137.543 51.0013 137.371L50.7461 136.737C50.6301 136.449 50.3871 136.23 50.088 136.146L48.7484 135.767C48.5193 135.703 48.2729 135.758 48.0935 135.915L47.6242 136.324C47.5255 136.41 47.5318 136.565 47.6371 136.643L47.689 136.681C47.8422 136.794 47.7481 137.037 47.5586 137.018C47.5159 137.014 47.476 136.995 47.4456 136.964L45.5756 135.1C45.1225 134.648 44.5068 134.397 43.867 134.404C43.3622 134.41 42.8686 134.254 42.4576 133.961L41.3369 133.162C40.755 132.747 40.3085 132.17 40.0534 131.502L39.7854 130.801C39.6003 130.317 39.2242 129.93 38.7453 129.732L38.297 129.546C37.8946 129.379 37.4321 129.46 37.1102 129.754C36.8565 129.985 36.5111 130.087 36.1723 130.032L33.5234 129.599C32.8353 129.487 32.1963 129.172 31.6881 128.695L31.5533 128.568C31.2514 128.284 31.0186 127.936 30.8726 127.548L30.805 127.369C30.52 126.613 29.8679 126.054 29.0766 125.89L28.8511 125.843C27.9354 125.652 27.0061 126.101 26.5868 126.937C26.2211 127.667 25.4597 128.112 24.6447 128.073L20.1292 127.857C20.0133 127.851 19.9003 127.895 19.8185 127.978C19.5765 128.221 19.1603 128.078 19.1197 127.737L18.9526 126.333C18.9195 126.055 18.7099 125.83 18.4346 125.777C18.043 125.703 17.813 125.294 17.9529 124.92L18.0096 124.769C18.0615 124.63 18.1519 124.509 18.2701 124.42L19.3175 123.63C19.7216 123.325 20.1674 123.08 20.6412 122.902L21.2487 122.674C22.272 122.289 23.3525 122.079 24.4454 122.051L27.0956 121.984C28.289 121.954 29.4736 121.769 30.6196 121.435L31.0225 121.318C31.4066 121.206 31.7818 121.065 32.1453 120.898L33.7997 120.137C34.2471 119.932 34.6201 119.593 34.8677 119.167L34.9464 119.032C35.3026 118.419 35.9433 118.027 36.6508 117.99L36.8908 117.977C37.1665 117.962 37.431 117.862 37.6481 117.692C38.1293 117.314 38.2935 116.658 38.0472 116.097L36.5726 112.743C36.4088 112.37 36.179 112.03 35.8942 111.739L35.4594 111.295C35.2862 111.118 35.0654 110.995 34.8238 110.942C34.4566 110.86 34.072 110.943 33.7722 111.171L33.1342 111.655C32.7003 111.984 32.1762 112.172 31.6322 112.195C31.2773 112.21 30.923 112.154 30.59 112.03L22.398 108.988C21.694 108.727 21.4047 107.887 21.7985 107.247C22.0047 106.912 22.363 106.701 22.7559 106.682L23.0014 106.671C23.4567 106.649 23.8611 106.373 24.0475 105.957L24.0775 105.89C24.3213 105.346 24.946 105.084 25.5049 105.293C25.7624 105.389 26.0462 105.388 26.3031 105.29L27.0875 104.991C27.3918 104.875 27.7349 105.004 27.8863 105.293C27.9623 105.438 28.0909 105.548 28.2457 105.602L31.9002 106.865C32.8259 107.185 33.7922 107.373 34.7703 107.422L36.2081 107.495C37.0448 107.537 37.8815 107.411 38.6685 107.124C39.3097 106.889 39.985 106.762 40.6675 106.746L41.2168 106.733C42.3622 106.707 43.5031 106.886 44.5853 107.262L45.8249 107.693C47.3329 108.217 48.9078 108.524 50.5023 108.605L50.6119 108.61C51.7206 108.667 52.8216 108.827 53.9001 109.091L56.1048 109.63C57.2695 109.914 58.482 109.943 59.6587 109.713L60.992 109.452C61.5937 109.334 62.1521 109.055 62.6075 108.645L63.266 108.051C63.3571 107.969 63.4204 107.861 63.4473 107.741C63.523 107.404 63.2959 107.074 62.9542 107.025L62.2091 106.917C62.0657 106.896 61.9197 106.9 61.7775 106.927L59.8945 107.295C59.5848 107.355 59.2855 107.46 59.0056 107.605L57.8886 108.186C57.7376 108.265 57.6288 108.406 57.5912 108.572C57.5314 108.835 57.2971 109.022 57.0269 109.022H56.5966C56.3879 109.022 56.1835 108.963 56.0068 108.852L54.8747 108.142C54.5025 107.909 54.5807 107.345 55.0024 107.222L55.0698 107.202C55.2757 107.142 55.4054 106.939 55.3736 106.727L55.3536 106.593C55.3384 106.492 55.2601 106.411 55.159 106.393L54.8083 106.329C54.5793 106.287 54.5991 105.953 54.8314 105.939C55.0415 105.926 55.0877 105.637 54.8921 105.559L54.6204 105.451C54.5446 105.421 54.4871 105.357 54.4649 105.279L54.2908 104.664C54.2087 104.373 54.2971 104.062 54.5193 103.858L54.8434 103.561C55.0343 103.386 55.0239 103.082 54.8214 102.921L54.6497 102.784C54.4337 102.611 54.5208 102.265 54.7926 102.215C54.9405 102.188 55.05 102.063 55.0564 101.912L55.0998 100.9C55.1168 100.503 54.9845 100.114 54.7289 99.8093L54.7084 99.7849C54.5578 99.6055 54.3712 99.4597 54.1607 99.3569L53.4169 98.9939C51.9631 98.2843 50.2727 98.2417 48.785 98.8771L46.9956 99.6414C45.1779 100.418 43.072 99.6138 42.2341 97.8236C41.6662 96.61 40.4715 95.8022 39.1343 95.7177C38.3741 95.6697 37.6421 95.3874 37.0484 94.9103L33.5925 92.1326C33.3553 91.942 33.2678 91.6203 33.3758 91.3359C33.4745 91.0759 33.7172 90.8986 33.9949 90.8837L35.7084 90.7916C36.0069 90.7756 36.1673 90.4337 35.9889 90.1939C35.8206 89.9676 35.9533 89.6434 36.232 89.6001L38.4799 89.2508C39.4317 89.1029 40.0842 88.2124 39.9382 87.2603L39.6284 85.239C39.5884 84.9783 39.3452 84.7988 39.0842 84.8375C38.8374 84.8741 38.6037 84.7152 38.5471 84.4722L38.4727 84.1532C38.3683 83.7053 38.6458 83.2573 39.0933 83.1513L41.2017 82.652C41.4625 82.5902 41.7373 82.6545 41.9436 82.8258C42.1332 82.9832 42.3816 83.051 42.6249 83.0117L45.1329 82.6062C45.4804 82.5501 45.7707 82.3111 45.8925 81.9809C46.0086 81.6665 46.2778 81.4337 46.6057 81.3643L47.5164 81.1714C48.5526 80.9519 49.2469 79.9738 49.1123 78.9232L49.0664 78.5647C48.9828 77.9119 49.3256 77.2786 49.9179 76.9918L50.8109 76.5593C51.1434 76.3983 51.2655 75.9862 51.0743 75.6701C50.735 75.109 51.3754 74.4691 51.9362 74.8089L57.7999 78.3609C58.0439 78.5086 58.3289 78.5739 58.6128 78.5472C59.3729 78.4755 59.9163 77.7793 59.8012 77.0245L59.7531 76.7086C59.6178 75.8214 60.2251 74.9917 61.1118 74.8526L64.9301 74.2534C65.6016 74.148 66.2365 74.5917 66.3684 75.2584C66.4971 75.9093 67.1065 76.3504 67.7651 76.2693L69.5499 76.0495C70.2391 75.9647 70.7163 75.3195 70.5958 74.6357L70.4721 73.934C70.4281 73.6845 70.5891 73.4448 70.8368 73.3912C71.0851 73.3374 71.2462 73.0965 71.2011 72.8465L70.806 70.6568C70.7683 70.4478 70.9133 70.2498 71.124 70.2226C71.3241 70.1969 71.5081 70.3356 71.5385 70.535L71.5736 70.7657C71.6244 71.0992 71.9361 71.3282 72.2695 71.2769L72.742 71.2043C73.2176 71.1312 73.6848 71.3794 73.8904 71.8144L73.976 71.9954C74.2146 72.5004 74.7385 72.8073 75.2957 72.7686L79.7668 72.4582C80.7887 72.3873 81.6912 73.119 81.8332 74.1335C81.9835 75.2084 82.9825 75.9537 84.0556 75.7916L85.9692 75.5026C86.1064 75.4819 86.2458 75.5226 86.3504 75.614L86.3629 75.6249C86.6182 75.848 87.0189 75.729 87.111 75.4027C87.162 75.2222 87.3171 75.0904 87.5035 75.0694L89.5548 74.8377C89.7694 74.8134 89.9389 74.644 89.9632 74.4294C89.9864 74.2247 90.142 74.0599 90.345 74.0249L98.7335 72.579C99.0311 72.5277 99.2311 72.2454 99.1809 71.9476C99.1307 71.6495 98.8486 71.4484 98.5504 71.498L98.186 71.5586C97.7224 71.6357 97.2816 71.3298 97.1915 70.8684C97.1016 70.4078 96.6619 70.102 96.1988 70.178L93.1179 70.6839C92.9164 70.717 92.7096 70.6925 92.5213 70.6132C92.1625 70.4621 91.9123 70.1302 91.8657 69.7437L91.8625 69.717C91.7926 69.1373 92.1755 68.5997 92.7462 68.4764L97.0704 67.5422C97.4785 67.454 97.7468 67.0626 97.6819 66.6502C97.6126 66.2101 97.922 65.8003 98.3641 65.7463L100.675 65.4638C101.116 65.41 101.417 64.9917 101.328 64.5568C101.25 64.1736 100.894 63.9123 100.505 63.9526L100.208 63.9834C99.6972 64.0363 99.2188 63.7253 99.0597 63.2369L98.3377 61.0193C98.1696 60.5031 98.3291 59.9364 98.7418 59.5835C99.1593 59.2265 99.7523 59.16 100.239 59.4156L102.077 60.382C103.364 61.0586 104.955 60.6557 105.764 59.4479C106.678 58.0848 106.252 56.2334 104.835 55.4063L99.7876 52.4607C98.7482 51.8542 97.9481 50.9097 97.5208 49.7847C96.8764 48.0882 97.1518 46.1793 98.2494 44.7341L98.975 43.7788C99.184 43.5036 99.3338 43.1881 99.4149 42.8521L99.5194 42.4193C99.7295 41.5491 100.508 40.936 101.403 40.936H102.806C102.889 40.936 102.96 40.879 102.979 40.7985C103.016 40.6368 103.235 40.6102 103.31 40.7583L103.736 41.6031C103.811 41.7523 103.954 41.8561 104.119 41.882L104.751 41.981C105.042 42.0266 105.296 41.7821 105.262 41.4895C105.242 41.3165 105.325 41.1476 105.474 41.0572L106.602 40.3726C106.992 40.1361 107.234 39.7167 107.244 39.2607C107.258 38.6064 107.745 38.059 108.393 37.9683L108.513 37.9515C109.095 37.8701 109.669 38.1406 109.976 38.6404L110.169 38.954C110.379 39.2955 110.728 39.5273 111.125 39.588L111.401 39.6303C111.549 39.653 111.701 39.6212 111.827 39.5407C112.181 39.3162 112.213 38.8117 111.893 38.5416C111.741 38.4136 111.659 38.2205 111.673 38.0226L111.69 37.7664C111.726 37.2348 112.129 36.8007 112.656 36.7246L112.747 36.7114C113.738 36.5683 114.163 35.3733 113.485 34.6367L112.32 33.3711C112.238 33.2813 112.148 33.1987 112.051 33.1242L111.014 32.3245C110.891 32.2295 110.738 32.181 110.582 32.1876C110.215 32.2032 109.905 31.9154 109.894 31.5476L109.827 29.3675C109.807 28.6936 110.201 28.0759 110.82 27.8104C111.511 27.5145 111.912 26.7875 111.794 26.0458L111.622 24.9634C111.359 23.3097 109.81 22.1783 108.155 22.4301L106.083 22.7452C105.709 22.8022 105.341 22.6058 105.18 22.2625C105.132 22.1617 105.105 22.0527 105.1 21.9415L104.865 17.2475C104.842 16.7789 105.14 16.3545 105.589 16.2176C106.032 16.0825 106.329 15.6665 106.313 15.2035L106.293 14.6289C106.285 14.3945 106.427 14.181 106.646 14.0981C106.994 13.9669 107.368 14.2125 107.386 14.5834L107.514 17.2207C107.578 18.5209 108.747 19.4839 110.035 19.2967C111.208 19.1262 112.037 18.0594 111.912 16.8807L111.336 11.4569C111.283 10.9512 111.545 10.4645 111.998 10.232C112.467 9.99078 112.73 9.4777 112.652 8.95605L112.471 7.73384C112.463 7.68049 112.447 7.62869 112.423 7.58026C112.29 7.30742 111.953 7.20471 111.69 7.35651L110.965 7.77457C110.117 8.26365 109.053 7.68106 109.008 6.7034L108.972 5.92571Z" fill="#393939" stroke="#1D1D1D" stroke-width="2" stroke-linecap="round" stroke-linejoin="round"/>
</svg>
