<svg width="123" height="217" viewBox="0 0 123 217" fill="none" xmlns="http://www.w3.org/2000/svg">
<path d="M6.81165 43.8077C7.01444 43.6077 7.33801 43.6006 7.54938 43.7915L7.67546 43.9053C7.84226 44.0559 8.07 44.1197 8.29077 44.0776L10.6015 43.6371C11.3545 43.4936 12.02 43.0576 12.4524 42.4246C12.7506 41.9882 12.9238 41.4771 12.9532 40.9494C12.9894 40.3016 13.2411 39.6827 13.6681 39.1942L14.0917 38.7098C14.2449 38.5345 14.4107 38.3707 14.5878 38.2196L16.3843 36.6866C16.6715 36.4416 17.0281 36.2923 17.4042 36.2597C17.887 36.2179 18.333 35.9844 18.6424 35.6115L18.7651 35.4636C19.0582 35.1105 19.4966 34.9108 19.9554 34.9216L25.8807 35.0601C26.0628 35.0643 26.124 34.8187 25.9612 34.737C25.9067 34.7097 25.871 34.6553 25.8674 34.5945L25.8263 33.889C25.8075 33.5669 26.0522 33.2899 26.3742 33.2689L26.6411 33.2515C26.9366 33.2322 27.1157 32.9164 26.9805 32.6529C26.8891 32.4747 26.9393 32.2564 27.0995 32.1361L27.5764 31.7776C27.767 31.6344 27.898 31.4258 27.9442 31.1919L28.0257 30.7799C28.0857 30.476 28.3832 30.2803 28.686 30.3455L28.8716 30.3855C29.1324 30.4416 29.3759 30.2362 29.3645 29.9697C29.3547 29.7412 29.5348 29.5494 29.7634 29.5449L29.7747 29.5447C30.0485 29.5392 30.2434 29.2765 30.1691 29.0128L30.1002 28.7682C30.0158 28.4691 30.168 28.1541 30.4548 28.0342L31.4869 27.6027C31.9758 27.3983 32.3556 26.9968 32.5326 26.4974L32.7444 25.8999C33.0495 25.039 33.9042 24.4988 34.8127 24.5926L35.0431 24.6164C35.8514 24.6998 36.6055 24.1987 36.8418 23.4212L37.0725 22.662C37.1924 22.2673 37.5899 22.0257 37.9955 22.1009C38.4134 22.1783 38.8202 21.9197 38.9274 21.5084L39.3952 19.7134C39.4781 19.3953 39.8018 19.2033 40.1207 19.2831C40.4696 19.3703 40.8162 19.1329 40.8609 18.7761L41.1004 16.8661C41.1334 16.6025 41.3761 16.4171 41.6392 16.4545C42.0141 16.5079 42.2979 16.1228 42.136 15.7805L41.9745 15.4389C41.9053 15.2926 41.8907 15.1264 41.9332 14.9702L42.3625 13.3942C42.3935 13.2801 42.4823 13.1907 42.5962 13.1587C42.8318 13.0927 43.0568 13.2922 43.0194 13.534L42.9529 13.9641C42.887 14.3903 43.268 14.7508 43.69 14.6614L45.7064 14.2343C45.8296 14.2082 45.9288 14.1169 45.9649 13.9962C46.0437 13.7335 45.7986 13.4886 45.5359 13.5675L45.1364 13.6876C44.7403 13.8066 44.3535 13.4765 44.4089 13.0665L44.5056 12.3499C44.5331 12.1466 44.7036 11.9929 44.9087 11.9866C45.0734 11.9815 45.22 11.8805 45.2833 11.7284L45.451 11.3259C45.6174 10.9265 46.0031 10.6623 46.4356 10.6516L46.9821 10.638C47.6152 10.6222 48.1641 10.1959 48.336 9.58634L48.4641 9.13211C48.5187 8.93859 48.6686 8.7865 48.8613 8.72909C49.0686 8.66733 49.2931 8.72466 49.4454 8.87826L49.6892 9.12412C50.173 9.61201 50.9717 9.57733 51.4114 9.04936L52.3227 7.95511C53.1082 7.01192 54.4764 6.8083 55.5025 7.48189C55.7273 7.62946 55.9752 7.73844 56.2359 7.80431L58.4118 8.35407C58.8637 8.46826 59.3322 8.23984 59.5205 7.81342C59.6221 7.58349 59.8101 7.4028 60.0439 7.31047L60.4081 7.16666C60.8407 6.99581 61.1721 6.63738 61.3085 6.19269C61.5408 5.43579 62.3122 4.98122 63.0869 5.14484L63.6367 5.26097C64.5029 5.44392 65.3318 4.82169 65.3979 3.9389C65.4335 3.46385 65.6982 3.03589 66.1073 2.79183L67.8695 1.74053C68.2086 1.53825 68.6331 1.54615 68.9644 1.7609C69.257 1.95052 69.4346 2.27448 69.4372 2.62309L69.4399 2.99884C69.4472 3.98162 70.2689 4.76194 71.2508 4.71841L71.9565 4.68712C73.0425 4.63897 74.0268 5.3224 74.3613 6.35677L74.4472 6.62251C74.664 7.29323 75.1274 7.85659 75.7438 8.19871L77.514 9.1814C77.9624 9.43026 78.2854 9.85618 78.4041 10.355L78.5574 10.9989C78.676 11.4971 79.1379 11.8363 79.6488 11.8002C80.3146 11.7532 80.8535 12.3332 80.7578 12.9938L80.5111 14.6963C80.4636 15.0239 80.3498 15.3384 80.1765 15.6205L78.4547 18.4237C78.2579 18.7441 78.1192 19.0968 78.045 19.4655C77.7742 20.8115 78.3938 22.1799 79.5839 22.8645L81.0536 23.7099C81.8053 24.1423 82.2537 24.9571 82.2168 25.8234C82.1612 27.1291 83.1927 28.2239 84.4994 28.2461L84.7138 28.2497C85.2434 28.2586 85.7568 28.4334 86.1819 28.7493L86.7197 29.1489L88.6039 30.9903C88.8429 31.2238 88.7535 31.6271 88.4383 31.7378L88.2176 31.8153C88.0857 31.8616 88.0221 32.0114 88.0805 32.1385L88.0929 32.1655C88.1642 32.3209 88.0392 32.4948 87.8692 32.4768C87.6539 32.454 87.5381 32.7227 87.7025 32.8636L89.1032 34.0641C89.2121 34.1574 89.3808 34.0876 89.3919 33.9447C89.3995 33.8478 89.4844 33.7755 89.5813 33.7836L90.128 33.8296C90.4973 33.8607 90.7828 34.1669 90.788 34.5374L90.7894 34.6389C90.795 35.0387 91.0841 35.3781 91.4779 35.4472L92.3039 35.592C92.9371 35.7031 93.4669 36.1357 93.7023 36.734L93.7547 36.8672C93.9079 37.2567 94.174 37.5915 94.5189 37.8288L95.7443 38.6717C95.8768 38.7628 96.0358 38.8072 96.1963 38.798C96.4553 38.783 96.6865 38.6305 96.8023 38.3983L97.1902 37.6203C97.4422 37.1149 97.8885 36.7335 98.4269 36.5633L99.074 36.3588C100.15 36.0188 101.234 36.8597 101.172 37.9865L101.089 39.4983C101.073 39.7847 101.332 40.0091 101.613 39.9533C101.844 39.9073 102.071 40.0522 102.126 40.2816L102.985 43.8606C103.06 44.1748 103.361 44.3807 103.682 44.3372C104.057 44.286 104.303 43.9165 104.204 43.5503L104.172 43.4312C104.069 43.0458 104.29 42.6479 104.672 42.533L104.782 42.5C105.319 42.3387 105.864 42.7286 105.884 43.2889L105.913 44.0922C105.921 44.313 106.003 44.5245 106.147 44.6921C106.577 45.1927 106.395 45.9667 105.788 46.2243L104.624 46.7181C104.048 46.9627 103.629 47.4758 103.505 48.0895L103.314 49.0306C103.281 49.1971 103.346 49.3681 103.482 49.4696L103.723 49.649C103.955 49.8221 103.856 50.1902 103.568 50.2233C103.374 50.2457 103.245 50.4361 103.296 50.625L103.408 51.0377C103.455 51.2094 103.433 51.3925 103.348 51.5485L103.257 51.7137C102.898 52.3687 103.246 53.1873 103.968 53.3825L104.952 53.649C105.661 53.841 106.202 54.4138 106.354 55.1322L106.873 57.58C106.937 57.8849 106.861 58.2026 106.665 58.4448C106.335 58.8522 105.752 58.9481 105.309 58.6681L105.237 58.6226C104.713 58.291 104.018 58.445 103.683 58.9674L103.236 59.664C102.656 60.5685 101.456 60.8381 100.544 60.2688L100.04 59.9541C99.9129 59.8746 99.7678 59.8279 99.6179 59.8184L99.3988 59.8045C99.1256 59.7871 98.8739 59.9527 98.7816 60.2104L98.7571 60.2786C98.6943 60.454 98.5385 60.5794 98.3537 60.6032C98.1006 60.6358 97.9136 60.8552 97.9214 61.1103L97.9585 62.3121C97.9649 62.5186 98.0063 62.7225 98.0811 62.9151L99.4067 66.3297C99.5471 66.6914 99.3569 67.097 98.9891 67.2203C98.7363 67.3051 98.5564 67.5299 98.529 67.7951L98.4854 68.2175C98.4661 68.4046 98.3248 68.556 98.1395 68.5881C97.9361 68.6233 97.7885 68.8012 97.7914 69.0076L97.8192 71.0104C97.8236 71.3295 98.0484 71.6029 98.3605 71.669L98.385 71.6742C98.6027 71.7203 98.8287 71.6498 98.9815 71.4879C99.2396 71.2146 99.6769 71.2223 99.9252 71.5047L100.966 72.6881C101.137 72.883 101.394 72.9802 101.651 72.9477L101.699 72.9416C102.322 72.8629 102.765 73.5316 102.45 74.0746C102.336 74.2715 102.316 74.5092 102.396 74.7223L103.033 76.4139C103.154 76.736 103.179 77.0863 103.105 77.4223C103.01 77.8586 103.081 78.315 103.307 78.7008L104.951 81.5172C105.17 81.8918 105.711 81.892 105.93 81.5175C106.048 81.3147 106.28 81.2061 106.512 81.2444L108.372 81.5516C109.271 81.7002 109.758 82.6893 109.326 83.4925L109.264 83.6092C108.87 84.3424 109.301 85.2471 110.119 85.4029C110.36 85.4489 110.582 85.5659 110.756 85.7389L113.96 88.9196C114.228 89.1856 114.607 89.3082 114.98 89.2498C115.442 89.1775 115.818 88.8403 115.941 88.3889L116.042 88.0174C116.117 87.7445 116.339 87.5372 116.617 87.4826C117.053 87.3967 117.467 87.7103 117.502 88.1535L117.536 88.5714C117.562 88.9016 117.44 89.2265 117.204 89.4584L115.705 90.9291C115.579 91.0523 115.541 91.2394 115.607 91.4022C115.715 91.665 115.545 91.9585 115.263 91.9956L113.958 92.1677C113.2 92.2677 112.65 92.94 112.703 93.7029L112.757 94.4794C112.804 95.1632 113.157 95.7894 113.717 96.1839L114.466 96.7107C115.331 97.3196 115.86 98.2999 115.893 99.3573L115.899 99.5669C115.9 99.6036 115.899 99.6403 115.894 99.6767L115.824 100.226C115.794 100.468 115.525 100.599 115.316 100.474C115.13 100.363 114.888 100.454 114.822 100.661L114.535 101.549C114.44 101.842 114.226 102.08 113.944 102.205L113.724 102.303C113.394 102.449 113.123 102.701 112.952 103.019L112.914 103.091C112.51 103.846 112.673 104.779 113.31 105.351L113.749 105.746C114.354 106.29 114.671 107.086 114.606 107.898L114.544 108.655C114.521 108.948 114.384 109.22 114.162 109.414L114.139 109.434C113.676 109.839 112.971 109.784 112.576 109.313L112.488 109.208C112.206 108.872 111.726 108.779 111.339 108.986C111.039 109.147 110.851 109.459 110.849 109.799L110.84 111.278C110.835 112.054 111.356 112.736 112.106 112.937L113.353 113.27C113.696 113.361 113.879 113.736 113.74 114.063C113.643 114.291 113.413 114.434 113.165 114.419L113.124 114.416C112.842 114.398 112.582 114.567 112.482 114.831L112.189 115.607C112.133 115.755 112.057 115.895 111.964 116.023L111.525 116.624C111.37 116.838 111.329 117.115 111.418 117.364C111.572 117.796 112.063 118.009 112.486 117.833C112.692 117.747 112.926 117.749 113.13 117.839L114.313 118.365C114.515 118.455 114.745 118.461 114.952 118.381C115.269 118.259 115.629 118.342 115.861 118.59L116.672 119.458C116.841 119.639 117.103 119.702 117.336 119.616C117.819 119.439 118.295 119.896 118.136 120.386L117.557 122.179C117.442 122.535 117.174 122.82 116.826 122.956L116.298 123.163C116.066 123.254 115.927 123.493 115.964 123.74C115.999 123.971 116.178 124.152 116.408 124.189L116.691 124.235C116.924 124.273 117.097 124.471 117.102 124.707C117.108 124.949 116.936 125.159 116.698 125.201L116.585 125.221C116.267 125.277 116.045 125.568 116.074 125.89L116.082 125.98C116.107 126.259 116.291 126.498 116.555 126.593L117.312 126.866C117.781 127.036 118.169 127.375 118.399 127.818L118.805 128.597C119.054 129.077 119.112 129.633 118.968 130.154C118.815 130.707 118.892 131.302 119.179 131.798C119.385 132.155 119.486 132.565 119.468 132.976L119.434 133.73C119.421 134.008 119.331 134.278 119.174 134.508L119.115 134.594C118.758 135.116 118.806 135.814 119.231 136.282L119.565 136.65C119.911 137.031 119.866 137.624 119.466 137.948C119.18 138.18 119.065 138.565 119.177 138.916L119.487 139.882C119.621 140.303 120.033 140.571 120.472 140.523L120.5 140.52C120.793 140.489 121.083 140.607 121.27 140.834C121.365 140.949 121.428 141.085 121.456 141.231L121.663 142.344C121.773 142.929 121.582 143.529 121.156 143.944C120.941 144.153 120.677 144.304 120.389 144.383L119.789 144.548C119.205 144.709 118.581 144.606 118.08 144.268L117.665 143.988C117.505 143.879 117.309 143.835 117.117 143.863L116.82 143.906C116.626 143.934 116.439 143.822 116.373 143.637C116.28 143.375 115.958 143.28 115.736 143.449L115.003 144.01C114.818 144.152 114.549 144.093 114.44 143.887C114.252 143.531 113.712 143.678 113.729 144.08L113.749 144.565C113.756 144.736 113.674 144.897 113.532 144.992L112.423 145.731C112.221 145.865 112.129 146.114 112.195 146.347C112.251 146.545 112.194 146.757 112.046 146.9L111.681 147.254C111.276 147.646 110.677 147.759 110.157 147.542L109.931 147.447C109.572 147.297 109.163 147.333 108.836 147.544C108.432 147.806 107.909 147.795 107.516 147.517L104.754 145.563C104.467 145.36 104.074 145.408 103.844 145.673C103.74 145.794 103.597 145.874 103.44 145.9L102.552 146.048C101.761 146.18 101.214 146.91 101.31 147.706C101.368 148.179 101.196 148.651 100.849 148.978L100.703 149.114C100.282 149.51 99.646 149.572 99.1564 149.264L97.8129 148.418C97.465 148.2 97.0176 148.477 97.0582 148.885C97.0952 149.258 96.7211 149.534 96.376 149.39L95.6821 149.1C95.3613 148.966 94.9928 149.019 94.7232 149.238L94.7119 149.248C94.3991 149.502 94.2773 149.924 94.4063 150.307L94.5012 150.588C94.6598 151.057 94.5572 151.576 94.2319 151.949L93.7138 152.545C93.4629 152.833 93.4489 153.258 93.6803 153.562C94.0748 154.081 93.7231 154.829 93.0722 154.856L91.319 154.928C90.7645 154.951 90.255 155.24 89.9506 155.704L86.9505 160.28C86.703 160.657 86.8182 161.165 87.2043 161.398C87.5322 161.597 87.6724 162.001 87.5379 162.36L87.5319 162.376C87.4292 162.65 87.4809 162.958 87.6673 163.183L88.4472 164.127C88.7653 164.512 88.9308 165 88.9121 165.499C88.8919 166.038 88.6582 166.548 88.2625 166.915L88.1281 167.039C87.6525 167.48 87.3689 168.09 87.3382 168.738L87.2972 169.602C87.2501 170.597 87.5275 171.58 88.0876 172.403L88.1077 172.433C88.625 173.193 88.9079 174.089 88.9213 175.008L88.9613 177.737V178.492C88.9613 178.732 88.929 178.971 88.8653 179.202L88.7473 179.631C88.614 180.115 88.6997 180.633 88.9816 181.048C89.3825 181.639 89.3754 182.416 88.9637 182.999L88.3111 183.924C88.2366 184.029 88.2107 184.162 88.24 184.287C88.3015 184.551 88.1193 184.809 87.8503 184.84L87.6224 184.866C87.2749 184.906 87.0193 185.21 87.0408 185.559L87.0466 185.653C87.0572 185.825 87.1259 185.988 87.2412 186.115L87.8505 186.787C88.2214 187.196 88.2771 187.801 87.9871 188.271C87.7863 188.596 87.7469 188.996 87.8803 189.354L88.1863 190.176C88.5548 191.167 88.382 192.277 87.7299 193.108L87.5108 193.387C87.2021 193.781 86.9771 194.233 86.8497 194.717L86.0683 197.683C85.9624 198.085 85.615 198.377 85.2008 198.412C84.7908 198.446 84.4457 198.733 84.3363 199.129L84.111 199.945C83.9854 200.4 83.663 200.775 83.2321 200.967C82.6736 201.217 82.0214 201.121 81.5577 200.723L80.2811 199.625C79.8625 199.265 79.3265 199.071 78.7746 199.08L78.105 199.09C77.5766 199.099 77.1079 199.431 76.9255 199.927C76.7744 200.338 76.8438 200.797 77.1093 201.145L77.8411 202.103C78.2437 202.63 78.2498 203.36 77.8559 203.894C77.4799 204.403 76.823 204.62 76.2176 204.434L72.6623 203.341C72.0102 203.141 71.309 203.169 70.6756 203.423C70.2436 203.596 69.8581 203.867 69.5496 204.215L69.4688 204.306C68.8394 205.017 67.9484 205.441 67 205.482L66.7967 205.491C66.4422 205.507 66.0872 205.475 65.7412 205.396L60.9346 204.302C60.6173 204.23 60.3577 204.003 60.244 203.698C60.0149 203.083 59.2533 202.871 58.7393 203.278L58.519 203.453C58.3278 203.604 58.094 203.692 57.8504 203.704L57.1674 203.738C56.1296 203.79 55.1765 204.327 54.5945 205.188L54.0984 205.922C53.8787 206.247 53.5708 206.502 53.2109 206.658C52.5832 206.93 51.8613 206.872 51.2845 206.505L50.3686 205.92C49.8118 205.565 49.349 205.081 49.0193 204.509L48.506 203.618C48.2879 203.239 48.2115 202.795 48.2906 202.365L48.4024 201.758C48.5003 201.226 48.2004 200.701 47.6925 200.515C47.3239 200.38 46.9116 200.451 46.6082 200.699L46.3456 200.915C45.7617 201.394 45.5627 202.2 45.8566 202.895L46.1927 203.691C46.4319 204.257 46.3911 204.903 46.0824 205.435L45.7661 205.98C45.5578 206.339 45.1529 206.536 44.742 206.478C44.3241 206.419 43.9853 206.11 43.8898 205.698L43.453 203.819C43.3816 203.512 43.1918 203.245 42.9249 203.076L42.4251 202.761C42.1686 202.599 41.8305 202.666 41.654 202.912C41.4871 203.146 41.5187 203.467 41.728 203.663L42.2992 204.199C42.5176 204.404 42.6681 204.671 42.7304 204.963L42.8425 205.491C42.9054 205.786 42.9128 206.091 42.8643 206.389L42.8017 206.774C42.7462 207.116 42.5672 207.425 42.2986 207.644C42.0336 207.86 41.6993 207.972 41.3578 207.96L41.0449 207.949C40.5071 207.931 39.9938 207.72 39.5982 207.355L37.7717 205.672C37.3661 205.298 36.8366 205.087 36.2851 205.081L36.1521 205.079C35.7588 205.074 35.3744 205.196 35.0558 205.427L34.8853 205.551C34.6596 205.714 34.4961 205.949 34.4217 206.218L34.3843 206.353C34.3024 206.648 34.3673 206.965 34.5587 207.205C34.7702 207.469 35.1061 207.602 35.4415 207.554L37.0879 207.316C37.7361 207.222 38.3488 207.638 38.5011 208.275C38.5627 208.533 38.7034 208.765 38.9036 208.938L40.3034 210.151C40.494 210.316 40.6353 210.534 40.7096 210.775C40.8808 211.33 40.6759 211.938 40.1998 212.271C39.9835 212.422 39.7273 212.505 39.4636 212.511L38.4918 212.531C37.6286 212.549 36.8068 212.162 36.2708 211.485L35.833 210.932C35.6249 210.67 35.3148 210.508 34.9802 210.487L34.8928 210.482C34.3446 210.448 33.8583 210.831 33.7623 211.372C33.7272 211.57 33.7479 211.773 33.8218 211.96L34.4189 213.465C34.7286 214.246 34.4091 215.135 33.6733 215.54C33.3309 215.729 32.933 215.791 32.5493 215.716L31.7295 215.556C30.5659 215.329 29.5649 214.593 29.0005 213.55L26.0541 208.107C25.625 207.315 24.7196 206.906 23.8411 207.108L22.8896 207.327C22.5983 207.394 22.2974 207.263 22.1473 207.005C21.9878 206.73 21.6593 206.602 21.3557 206.696L20.8296 206.859C20.3748 207.001 19.8798 206.852 19.5781 206.483L19.2714 206.109C18.8333 205.574 17.9797 205.718 17.7419 206.368L17.6292 206.676C17.571 206.835 17.4216 206.942 17.2524 206.946C16.9846 206.952 16.7821 206.705 16.8411 206.443L16.9398 206.007C17.0156 205.671 16.8565 205.326 16.5519 205.166L15.7935 204.767C15.4518 204.587 15.3629 204.138 15.6104 203.841L16.0804 203.278C16.2715 203.049 16.0795 202.705 15.7843 202.748C15.6464 202.768 15.5112 202.697 15.4481 202.573L14.4136 200.538C14.3275 200.369 14.1919 200.23 14.0248 200.14L13.4127 199.81C12.9285 199.549 12.9882 198.836 13.5092 198.659L13.7336 198.582C13.9714 198.502 14.0854 198.231 13.9773 198.005C13.9152 197.874 13.7905 197.785 13.6472 197.768L12.6527 197.652C12.3258 197.614 12.1696 197.23 12.3771 196.975C12.6342 196.658 12.3309 196.198 11.9385 196.31L11.4864 196.439C11.092 196.552 10.7127 196.22 10.7715 195.814L10.8257 195.439C10.8997 194.928 10.4833 194.479 9.96801 194.514L9.71793 194.531C9.31789 194.558 8.97299 194.253 8.95172 193.852L8.95066 193.832C8.92868 193.419 8.55439 193.115 8.14495 193.177L7.97009 193.204C7.78264 193.233 7.59729 193.141 7.50698 192.974C7.4063 192.788 7.44898 192.557 7.60947 192.42L7.93149 192.143C8.28779 191.838 8.37561 191.322 8.14043 190.915L8.12603 190.89C7.98213 190.642 7.95096 190.344 8.04033 190.071L8.69224 188.079C8.75172 187.898 8.70916 187.698 8.58075 187.556L8.09643 187.022C7.88353 186.787 8.10711 186.42 8.41359 186.5L8.43058 186.505C8.57705 186.544 8.72928 186.467 8.78473 186.326C8.83449 186.199 8.79257 186.055 8.68273 185.975L8.32834 185.717C8.0346 185.502 7.90738 185.122 8.00737 184.773C8.14583 184.289 7.85689 183.778 7.36804 183.658L7.34936 183.654C7.03953 183.578 6.79249 183.344 6.69902 183.04L6.40922 182.094C6.35778 181.926 6.40959 181.744 6.54158 181.628L6.54863 181.622C6.71021 181.48 6.95105 181.478 7.11553 181.616C7.44388 181.892 7.93145 181.577 7.81404 181.164L7.79121 181.084C7.69071 180.73 8.02374 180.407 8.37375 180.519L8.77897 180.647C8.95569 180.703 9.14881 180.647 9.26762 180.505C9.4936 180.234 9.34017 179.82 8.99228 179.762L8.56225 179.69C8.31464 179.649 8.10756 179.479 8.01833 179.245L7.11849 176.879C7.03655 176.663 6.87703 176.486 6.67125 176.382C6.26311 176.176 6.06702 175.703 6.21008 175.269L6.52634 174.309C6.65753 173.91 6.65439 173.48 6.5174 173.084L6.30205 172.461C6.20409 172.178 6.26991 171.863 6.47336 171.643L6.92259 171.157C7.11507 170.948 7.02709 170.611 6.7574 170.523C6.63793 170.484 6.507 170.505 6.40586 170.58L6.01398 170.869C5.73933 171.071 5.34932 170.987 5.18248 170.689L4.95259 170.279C4.84359 170.085 4.98416 169.845 5.20711 169.845C5.38243 169.845 5.51816 169.691 5.49668 169.517L5.3781 168.557C5.3501 168.33 5.39048 168.1 5.49404 167.896L5.86468 167.167C6.11215 166.68 6.00152 166.088 5.59502 165.723L4.90141 165.101C4.58195 164.814 4.66512 164.292 5.05553 164.114C5.56747 163.88 5.50157 163.128 4.95413 162.997C4.78584 162.957 4.64355 162.845 4.56474 162.691L4.5476 162.658C4.39648 162.363 4.48307 162.001 4.7516 161.807L4.86811 161.722C5.08548 161.564 5.36504 161.52 5.62055 161.603L5.98188 161.719C6.2292 161.799 6.49878 161.696 6.62965 161.472C6.73907 161.284 6.7284 161.049 6.60238 160.872L6.02195 160.057C5.80044 159.746 5.78107 159.334 5.97241 159.004C6.17283 158.657 6.14132 158.224 5.89293 157.91L5.29997 157.161C4.99248 156.773 5.0464 156.211 5.42213 155.889L5.99248 155.399C6.32503 155.113 6.19442 154.571 5.76829 154.468C5.46016 154.394 5.28289 154.07 5.38595 153.771L5.83409 152.467C5.93077 152.186 5.95595 151.885 5.90735 151.592L5.55046 149.437C5.51675 149.234 5.58385 149.027 5.73047 148.882C5.90785 148.706 5.96612 148.443 5.87945 148.209L5.22044 146.429C5.13393 146.195 5.2847 145.941 5.53123 145.905C5.8819 145.854 5.9898 145.401 5.69972 145.197L5.38356 144.976C5.18692 144.838 5.10379 144.587 5.17889 144.359L5.26337 144.102C5.33545 143.883 5.32164 143.645 5.22473 143.436L5.04823 143.055C4.82064 142.564 4.82381 141.996 5.05686 141.508L5.29319 141.012C5.35863 140.875 5.36439 140.717 5.3091 140.575L5.25768 140.443C5.16084 140.195 5.31004 139.92 5.5707 139.865C5.7645 139.825 5.9057 139.657 5.91292 139.459L5.93653 138.812C5.96147 138.128 6.52771 137.59 7.21159 137.599L8.06003 137.611C8.44251 137.616 8.74895 137.296 8.72628 136.914C8.71452 136.716 8.79275 136.523 8.93922 136.389L9.35789 136.006C9.55126 135.829 9.58134 135.536 9.42782 135.323L8.98195 134.707C8.8688 134.55 9.00514 134.336 9.19483 134.372C9.3601 134.403 9.49512 134.24 9.4332 134.084L9.28912 133.72C9.22408 133.556 9.30204 133.369 9.46475 133.3C9.67452 133.212 9.7304 132.94 9.57281 132.776L9.24393 132.432C9.12068 132.304 9.05533 132.13 9.063 131.952L9.07995 131.559C9.09999 131.094 8.91333 130.644 8.57005 130.33L8.02064 129.827C7.73812 129.568 7.57883 129.202 7.58245 128.819L7.59313 127.69C7.59517 127.474 7.78581 127.31 7.99898 127.34C8.29059 127.38 8.50296 127.07 8.35984 126.813L8.1715 126.474C8.06743 126.287 8.08132 126.057 8.20712 125.883L8.26611 125.802C8.51291 125.462 8.41104 124.984 8.04726 124.774L7.8609 124.666C7.47645 124.444 7.31077 123.976 7.47044 123.561L7.69963 122.967C7.92174 122.391 7.80271 121.739 7.39136 121.279L6.38602 120.153C5.74608 119.437 5.37689 118.519 5.34243 117.56L5.26959 115.531C5.23402 114.54 4.80157 113.606 4.06957 112.937C2.78228 111.762 2.49264 109.846 3.37491 108.343L3.98567 107.302C4.08927 107.126 4.23641 106.979 4.41304 106.875L5.02407 106.518C5.3093 106.351 5.67637 106.467 5.81333 106.768C5.93176 107.028 6.22771 107.156 6.49862 107.065L6.52607 107.056C6.82145 106.957 6.98852 106.645 6.90746 106.344L6.39261 104.432C6.32326 104.175 6.35891 103.9 6.49176 103.669C6.65314 103.388 6.66946 103.047 6.53563 102.752L6.35857 102.362C6.01637 101.607 6.21956 100.717 6.85523 100.186L7.30219 99.8129C7.48188 99.6628 7.61757 99.4668 7.69485 99.2458L7.78224 98.9959C7.9233 98.5925 8.31647 98.3331 8.74279 98.3622L8.76693 98.3638C9.2874 98.3992 9.73436 97.9979 9.75487 97.4766L9.7582 97.3917C9.77028 97.0847 9.95886 96.8123 10.242 96.6929C10.5844 96.5486 10.7804 96.1857 10.7135 95.8202L10.6649 95.5549C10.6264 95.3447 10.529 95.1497 10.384 94.9927L8.84378 93.3251C8.63285 93.0967 8.39173 92.8982 8.12709 92.735L7.08364 92.0918C6.02476 91.439 5.71019 90.043 6.38681 88.9992C6.5847 88.6939 6.8547 88.442 7.17297 88.2658L7.29673 88.1972C8.20899 87.692 8.71952 86.6803 8.58394 85.6464L8.50414 85.0379C8.4541 84.6563 8.233 84.3183 7.90343 84.1195C7.60477 83.9394 7.39377 83.6439 7.32034 83.303L7.0086 81.8556C6.87711 81.245 6.62501 80.6669 6.26708 80.1552L4.8012 78.0592C4.45737 77.5676 4.46955 76.9105 4.83136 76.4319C5.35489 75.7395 5.11882 74.7416 4.34055 74.3572L3.36913 73.8773C3.18297 73.7853 3.0511 73.611 3.0133 73.4068C2.97491 73.1994 2.83952 73.023 2.64914 72.9323L1.57561 72.4206C1.3309 72.304 1.17505 72.0571 1.17505 71.786C1.17505 71.5681 1.27608 71.3625 1.44859 71.2294L2.02801 70.7823C2.78305 70.1997 3.07479 69.1958 2.7496 68.2992L2.21871 66.8356C2.06358 66.4079 2.00947 65.9501 2.06062 65.498L2.1119 65.0447C2.17127 64.5199 2.44615 64.0434 2.87072 63.7293L3.33019 63.3894C3.47511 63.2822 3.56721 63.1181 3.58324 62.9386C3.61401 62.5939 3.91678 62.3384 4.26172 62.3661L4.82591 62.4113C5.39318 62.4568 5.91457 62.0981 6.07495 61.5521L6.26937 60.8902C6.40252 60.437 6.15945 59.9584 5.71488 59.7986L5.66327 59.78C5.02702 59.5513 4.88963 58.7126 5.41963 58.2927C5.56165 58.1803 5.7355 58.1154 5.91649 58.1073L6.46012 58.083C6.72626 58.0711 6.93912 57.8576 6.95029 57.5915L6.95956 57.3707C6.96592 57.2191 7.09068 57.0995 7.24243 57.0995C7.42407 57.0995 7.55872 56.9308 7.51854 56.7537L7.35243 56.0214C7.30201 55.7991 7.16755 55.605 6.97721 55.4796L6.67841 55.2827C6.19148 54.9619 5.89355 54.422 5.88171 53.839L5.87912 53.7114C5.85724 52.6345 6.68626 51.7308 7.76107 51.66L10.0859 51.5069C10.4921 51.4801 10.8079 51.1428 10.8079 50.7357C10.8079 50.4888 10.69 50.2568 10.4905 50.1113L8.49029 48.6525C8.28963 48.5061 8.22473 48.2359 8.33705 48.0144C8.51203 47.6693 8.25104 47.2634 7.86446 47.2794L7.6448 47.2885C7.44897 47.2966 7.26036 47.2139 7.13371 47.0643L6.73664 46.5953C6.55239 46.3777 6.57518 46.0528 6.788 45.8631C6.93716 45.7301 6.99802 45.524 6.94508 45.3313L6.67074 44.3329C6.61918 44.1452 6.67307 43.9443 6.81165 43.8077Z" fill="#E0FC52" stroke="#1D1D1D" stroke-width="2" stroke-linecap="round" stroke-linejoin="round"/>
</svg>
