<svg width="286" height="149" viewBox="0 0 286 149" fill="none" xmlns="http://www.w3.org/2000/svg">
<path d="M213.205 2.77869C213.502 2.05656 214.341 1.72703 215.05 2.05336L215.739 2.3698C215.946 2.46533 216.168 2.52634 216.396 2.55043L217.849 2.70435C218.459 2.76897 219.075 2.67962 219.642 2.44447L221.104 1.8378C221.498 1.67431 221.95 1.74846 222.272 2.0291C222.55 2.27239 222.691 2.63729 222.647 3.00451L222.518 4.10745C222.477 4.45803 222.562 4.81178 222.759 5.10462C223.001 5.46394 223.389 5.699 223.819 5.74758L223.95 5.76234C224.414 5.81478 224.839 6.04974 225.13 6.41547L225.28 6.60397C225.704 7.13614 226.338 7.45785 227.018 7.48547L228.652 7.5519C230.227 7.61588 231.676 8.42845 232.551 9.7384L233.667 11.4071C233.915 11.7787 233.955 12.2518 233.773 12.6597C233.591 13.0665 233.63 13.5382 233.876 13.9093L234.003 14.0998C234.163 14.3414 234.26 14.6198 234.284 14.9089L234.411 16.4698C234.464 17.1209 235.065 17.5855 235.709 17.4727C236.059 17.4112 236.418 17.5217 236.674 17.7697L236.836 17.9272C237.155 18.2369 237.591 18.3951 238.035 18.3615L238.33 18.3391C239.488 18.2514 240.381 17.2824 240.374 16.121L240.348 11.9568C240.347 11.7968 240.322 11.6377 240.274 11.485L239.815 10.0148C239.765 9.85558 239.867 9.68909 240.032 9.6618C240.127 9.64606 240.223 9.68116 240.286 9.75432L241.335 10.9823C241.454 11.1216 241.531 11.2923 241.555 11.474L241.659 12.2596C241.689 12.4889 241.93 12.6256 242.143 12.5342C242.267 12.4809 242.41 12.5037 242.511 12.5927L243.21 13.2072C243.792 13.7199 243.986 14.5456 243.691 15.2637L243.451 15.8509C243.365 16.0606 243.191 16.2222 242.976 16.2931L242.913 16.3137C242.369 16.4929 242.228 17.1967 242.661 17.5722C242.759 17.6573 242.877 17.715 243.005 17.7396L244.091 17.9492C244.308 17.991 244.434 18.2182 244.356 18.4244C244.301 18.5677 244.345 18.7299 244.464 18.8266L244.927 19.2032C245.276 19.4863 245.433 19.9426 245.334 20.3804L245.289 20.579C245.214 20.91 245.253 21.2566 245.399 21.5628L245.534 21.8462C245.936 22.6877 245.773 23.6905 245.124 24.3608C244.474 25.0326 244.311 26.0386 244.717 26.8811L245.829 29.1915C245.953 29.4499 245.826 29.7591 245.556 29.855L245.513 29.8701C245.259 29.9603 245.144 30.2548 245.269 30.4937C245.357 30.6607 245.54 30.754 245.727 30.7263L246.805 30.5659C247.325 30.4887 247.853 30.6212 248.275 30.934L249.458 31.8117C250.146 32.3222 251.129 31.9073 251.243 31.0583L251.296 30.6691C251.34 30.3413 251.617 30.095 251.948 30.0897L252.415 30.0823C252.51 30.0808 252.589 30.1542 252.596 30.2492C252.606 30.4101 252.808 30.4757 252.911 30.3517L253.007 30.2367C253.058 30.1747 253.138 30.143 253.218 30.1524L255.715 30.4454C255.984 30.5124 256.168 30.7615 256.152 31.0387L256.107 31.8404C256.045 32.9385 257.116 33.7488 258.156 33.3905L259.183 33.0364C259.799 32.8242 260.474 33.127 260.725 33.728L260.873 34.0834C260.966 34.3068 261.18 34.4564 261.422 34.4677L262.273 34.5073C262.441 34.5151 262.545 34.3277 262.45 34.1895C262.363 34.0631 262.442 33.8897 262.595 33.8727L263.748 33.744C264.007 33.7151 264.241 33.5752 264.388 33.3606L265.167 32.2289C265.285 32.0584 265.226 31.8237 265.043 31.7276C264.824 31.6127 264.793 31.3109 264.985 31.1545L266.604 29.8361C266.822 29.6586 266.964 29.405 267.002 29.1267C267.064 28.6787 267.391 28.3129 267.829 28.2018L268.008 28.1565C268.599 28.0068 269.218 28.2611 269.533 28.7829L270.062 29.6591C270.229 29.9372 270.445 30.1836 270.698 30.387L270.893 30.5434C271.823 31.2891 273.027 31.6015 274.202 31.4018L274.576 31.3382C275.203 31.2316 275.845 31.2452 276.467 31.3784L277.985 31.7035C278.856 31.8898 279.685 32.2333 280.432 32.717L281.687 33.5296C283.474 34.6867 284.364 36.825 283.926 38.9084L283.488 40.988C283.433 41.2466 283.261 41.4651 283.023 41.5788C282.802 41.6843 282.637 41.8805 282.571 42.1167L281.732 45.1283C281.674 45.3357 281.645 45.55 281.647 45.7653L281.655 47.0113C281.66 47.7328 281.035 48.2971 280.317 48.2177C279.777 48.158 279.344 47.7444 279.259 47.2078L279.054 45.9098C279.002 45.5829 278.685 45.3677 278.362 45.4404L278.124 45.4941C277.968 45.5293 277.865 45.6783 277.887 45.8367C277.91 46.002 277.797 46.1555 277.633 46.1827L276.794 46.3213C276.552 46.3612 276.305 46.2953 276.116 46.1404C275.866 45.9359 275.521 45.8906 275.226 46.0235L274.041 46.5582C273.903 46.6202 273.75 46.638 273.601 46.6089C273.322 46.554 273.1 46.341 273.034 46.064L272.939 45.6667C272.787 45.0324 272.208 44.5943 271.556 44.6216L271.1 44.6407C270.936 44.6476 270.778 44.5798 270.67 44.4563C270.445 44.199 270.04 44.2122 269.833 44.4836L268.888 45.7185C268.599 46.0957 268.174 46.3446 267.703 46.4117L266.586 46.5711C266.134 46.6355 265.678 46.4939 265.342 46.1854L265.15 46.0101C264.918 45.7971 264.6 45.7055 264.29 45.7628C263.797 45.854 263.447 46.2958 263.471 46.7969L263.62 49.8971C263.627 50.0415 263.676 50.1807 263.762 50.2974L263.818 50.3738C263.982 50.598 264.275 50.6844 264.535 50.5846C264.866 50.4572 265.236 50.6355 265.342 50.9738L265.639 51.9168C265.786 52.3839 266.146 52.7535 266.609 52.9129L267.408 53.188C267.834 53.3345 268.285 53.3901 268.734 53.3513L268.772 53.3479C269.729 53.265 270.676 53.5908 271.38 54.2448L273.226 55.9608C273.404 56.1256 273.645 56.2042 273.885 56.1755L274.054 56.1554C274.384 56.1161 274.689 56.3359 274.756 56.6613C274.825 56.9963 275.145 57.2177 275.483 57.1637L276.948 56.9297C277.785 56.796 278.519 57.4983 278.421 58.3404C278.357 58.8994 277.934 59.3506 277.381 59.4519L276.984 59.5246C276.022 59.7007 275.371 60.6084 275.506 61.5768C275.604 62.2774 275.29 62.9751 274.7 63.3643L274.294 63.6318L269.386 66.2619C268.969 66.4859 268.448 66.3153 268.244 65.8874C268.104 65.5924 267.803 65.4073 267.476 65.4145L267.109 65.4225C266.215 65.442 265.569 66.284 265.781 67.1528L265.846 67.4206C265.997 68.0371 265.637 68.6635 265.029 68.8446L264.628 68.9641C264.204 69.0905 263.759 68.8413 263.645 68.4136C263.545 68.0341 263.179 67.7876 262.789 67.8364L258.893 68.3247C258.616 68.3595 258.413 68.6031 258.429 68.8818C258.447 69.1799 258.215 69.4335 257.916 69.4427L257.084 69.4683C256.811 69.4767 256.599 69.7109 256.619 69.9838C256.634 70.1908 256.514 70.3841 256.322 70.4632L256.278 70.4812C256.052 70.5743 255.916 70.8063 255.944 71.0492L257.492 84.4904C257.562 85.0925 257.18 85.6546 256.595 85.8124C256.026 85.9658 255.647 86.5026 255.693 87.09L255.748 87.788C255.766 88.0149 255.713 88.2418 255.598 88.438L255.404 88.7669C255.197 89.1192 255.318 89.5729 255.673 89.7758C255.899 89.9051 256.039 90.1446 256.042 90.405L256.045 90.6622C256.052 91.3329 256.615 91.8634 257.285 91.831L257.424 91.8242C258.191 91.7872 258.826 92.4102 258.805 93.177L258.723 96.1052C258.712 96.5007 258.999 96.8419 259.39 96.8988C259.697 96.9434 259.948 97.1653 260.03 97.464L260.412 98.8552C260.684 99.8455 260.101 100.869 259.11 101.139C258.367 101.342 257.826 101.984 257.751 102.751L257.694 103.338C257.657 103.718 257.406 104.044 257.047 104.178L256.695 104.308C256.541 104.366 256.434 104.508 256.423 104.673C256.41 104.865 256.268 105.023 256.079 105.057L253.734 105.472C253.278 105.553 252.958 105.969 252.997 106.432C253.038 106.903 252.704 107.325 252.236 107.395L245.541 108.393C245.336 108.424 245.177 108.589 245.153 108.795C245.129 109.007 244.962 109.174 244.75 109.199L244.588 109.217C244.117 109.271 243.853 109.787 244.084 110.2L244.915 111.686C245.056 111.938 244.869 112.249 244.58 112.242C244.436 112.239 244.304 112.319 244.239 112.447L243.707 113.496C243.571 113.764 243.272 113.907 242.979 113.844C242.688 113.782 242.475 113.533 242.457 113.237L242.259 109.864C242.229 109.361 241.79 108.981 241.287 109.023C240.791 109.065 240.355 108.695 240.317 108.199L240.298 107.951C240.258 107.436 239.81 107.048 239.294 107.083C238.72 107.121 238.313 107.659 238.433 108.222L238.814 110.007C239.004 110.893 238.449 111.767 237.567 111.973L236.646 112.188C236.298 112.27 236.075 112.61 236.139 112.961C236.209 113.341 236.584 113.584 236.959 113.492L239.285 112.921C239.475 112.874 239.664 113.002 239.692 113.195C239.719 113.378 239.591 113.547 239.409 113.572L239.315 113.585C239.082 113.617 238.918 113.832 238.951 114.065L238.978 114.265C239.021 114.58 238.823 114.877 238.515 114.958L236.304 115.537C234.637 115.973 233.614 117.649 233.987 119.33L234.066 119.687L233.839 118.88C233.621 118.105 232.868 117.608 232.071 117.713L231.349 117.808C231.292 117.815 231.235 117.795 231.196 117.754C231.077 117.63 230.869 117.726 230.886 117.896L231.015 119.214C231.05 119.561 230.798 119.872 230.451 119.911L227.724 120.214C226.947 120.301 226.319 120.89 226.185 121.661L226.162 121.788C226.102 122.133 225.917 122.444 225.641 122.661L225.602 122.691C225.308 122.923 225.127 123.269 225.104 123.643L225.05 124.556C225.024 124.978 224.598 125.257 224.201 125.111C223.983 125.03 223.827 124.837 223.794 124.608L223.289 121.092C223.147 120.102 222.072 119.546 221.182 120.003L220.8 120.198C220.517 120.344 220.174 120.307 219.927 120.106C219.737 119.951 219.487 119.891 219.248 119.943L218.036 120.21C217.898 120.24 217.809 120.374 217.834 120.513C217.863 120.674 217.739 120.823 217.576 120.823H216.109C215.557 120.823 215.266 121.476 215.635 121.886C215.723 121.983 215.778 122.105 215.794 122.235L215.869 122.855C216.039 124.248 215.081 125.527 213.697 125.755L211.081 126.188C210.51 126.282 209.945 125.985 209.7 125.46C209.456 124.937 208.894 124.64 208.324 124.732L204.063 125.421C203.184 125.563 202.567 126.362 202.65 127.248L202.686 127.624C202.76 128.415 203.5 128.97 204.281 128.82L204.595 128.76C205.074 128.668 205.547 128.942 205.705 129.403C205.9 129.972 205.541 130.58 204.949 130.683L200.545 131.455C200.142 131.526 199.873 131.909 199.943 132.312C200.008 132.686 200.345 132.949 200.723 132.923L200.754 132.921C201.15 132.894 201.503 133.17 201.57 133.562L201.878 135.342C201.943 135.721 201.688 136.081 201.308 136.144C200.922 136.208 200.666 136.578 200.741 136.962L200.856 137.546C200.888 137.709 200.984 137.853 201.122 137.946C201.389 138.126 201.477 138.479 201.325 138.763L200.536 140.24C200.182 140.901 199.55 141.367 198.814 141.508L185.518 144.057L184.995 144.085C184.657 144.103 184.345 143.9 184.224 143.584C184.077 143.2 183.658 142.996 183.265 143.117L181.501 143.659C180.651 143.921 179.726 143.756 179.019 143.216L177.088 141.742C176.263 141.112 175.198 140.886 174.188 141.126L172.45 141.54C171.896 141.672 171.507 142.17 171.513 142.74L171.517 143.144C171.521 143.476 171.295 143.766 170.972 143.844C170.611 143.932 170.377 144.283 170.437 144.65L170.568 145.466C170.706 146.322 170.14 147.133 169.289 147.298L166.604 147.819C166.4 147.859 166.197 147.748 166.12 147.554C165.999 147.247 165.591 147.185 165.383 147.442L165.234 147.626C164.996 147.921 164.541 147.905 164.324 147.594L164.315 147.582C164.19 147.403 163.976 147.309 163.76 147.339L163.735 147.342C163.395 147.388 163.082 147.152 163.033 146.814L162.831 145.416C162.768 144.982 162.37 144.678 161.934 144.732C161.574 144.777 161.229 144.575 161.09 144.24L160.614 143.091C160.496 142.806 160.208 142.628 159.901 142.651C159.584 142.674 159.289 142.486 159.178 142.188L159.16 142.138C159.032 141.796 158.686 141.587 158.324 141.634L153.236 142.287C152.905 142.329 152.668 142.628 152.702 142.96C152.735 143.292 152.498 143.59 152.167 143.633L145.634 144.473C144.76 144.585 143.949 143.998 143.783 143.133L143.704 142.722C143.576 142.053 144.008 141.406 144.675 141.269C145.481 141.103 145.907 140.214 145.531 139.481L145.494 139.409C145.387 139.201 145.338 138.967 145.352 138.733L145.4 137.957C145.429 137.473 145.817 137.089 146.302 137.063C146.841 137.035 147.25 136.565 147.202 136.026L146.902 132.659C146.861 132.197 146.429 131.873 145.974 131.963C145.536 132.05 145.115 131.752 145.051 131.31L144.824 129.743C144.638 128.458 143.418 127.587 142.142 127.826L140.589 128.118C140.458 128.143 140.324 128.108 140.221 128.024C140.057 127.888 139.82 127.887 139.654 128.021L139.372 128.249C138.845 128.676 138.053 128.383 137.931 127.716L136.799 121.512C136.778 121.4 136.775 121.285 136.79 121.171C136.85 120.718 137.183 120.348 137.628 120.242L138.334 120.074C139.433 119.812 140.143 118.748 139.964 117.633L139.773 116.449C139.542 115.011 138.179 114.04 136.745 114.292L135.713 114.472C134.972 114.602 134.253 114.147 134.054 113.421C133.862 112.72 133.183 112.267 132.461 112.36L131.667 112.461C131.112 112.532 130.585 112.197 130.414 111.664C130.236 111.111 129.676 110.774 129.104 110.876L128.054 111.064C127.304 111.199 126.748 111.835 126.714 112.596L126.693 113.068C126.679 113.374 126.499 113.649 126.222 113.783L126.165 113.811C125.837 113.97 125.443 113.874 125.225 113.582L125.192 113.538C125.046 113.342 124.803 113.241 124.56 113.277C124.197 113.33 123.945 113.666 123.995 114.03L124.215 115.617C124.33 116.449 123.707 117.201 122.868 117.242L122.25 117.272C121.921 117.288 121.65 117.537 121.605 117.863L121.601 117.899C121.576 118.08 121.471 118.241 121.314 118.336L121.297 118.347C120.939 118.565 120.473 118.355 120.401 117.942L120.387 117.859C120.343 117.607 120.116 117.428 119.86 117.445C119.517 117.468 119.253 117.146 119.344 116.814L119.514 116.192C119.595 115.896 119.813 115.657 120.1 115.549L120.152 115.529C120.648 115.341 120.932 114.817 120.818 114.299L120.605 113.333C120.349 112.172 119.224 111.42 118.054 111.629L115.918 112.009C115.681 112.052 115.512 112.264 115.524 112.505C115.535 112.739 115.375 112.947 115.146 112.997L114.679 113.097C114.203 113.2 113.726 112.933 113.564 112.474L113.507 112.312C113.293 111.705 112.514 111.539 112.071 112.006C111.952 112.131 111.797 112.218 111.628 112.254L110.123 112.577C109.565 112.696 109.018 112.329 108.918 111.766C108.812 111.168 108.205 110.799 107.625 110.979L105.723 111.571C104.243 112.031 102.689 111.117 102.373 109.6L102.065 108.124C101.956 107.601 101.46 107.251 100.93 107.326C100.655 107.364 100.375 107.288 100.157 107.114L99.8393 106.861C99.443 106.546 99.3446 105.984 99.6098 105.552C99.8284 105.196 99.8036 104.742 99.5475 104.413L98.4162 102.956C98.1968 102.673 97.8787 102.484 97.5258 102.427L96.915 102.327C96.6902 102.29 96.5129 102.116 96.472 101.892C96.4199 101.607 96.1509 101.414 95.8638 101.456L91.1171 102.157C90.8464 102.197 90.5883 102.03 90.5149 101.766C90.4391 101.494 90.1671 101.325 89.8895 101.379L87.0836 101.918C86.1979 102.088 85.6225 102.95 85.8047 103.833C86.0032 104.795 85.3054 105.711 84.3252 105.774L83.3937 105.835C82.7544 105.876 82.2134 106.322 82.0509 106.942C81.9301 107.402 81.596 107.777 81.1524 107.95L80.6451 108.148C80.2943 108.285 79.8979 108.232 79.5955 108.008C79.3283 107.81 78.9855 107.744 78.6639 107.829L78.3254 107.918C77.6644 108.093 76.9856 107.704 76.8022 107.045L76.7528 106.868C76.6217 106.397 76.1763 106.084 75.6888 106.12L75.428 106.14C75.305 106.149 75.1838 106.106 75.0945 106.021C74.8212 105.76 74.3684 105.946 74.357 106.323L74.3427 106.798C74.3331 107.115 74.0953 107.379 73.7808 107.421L73.6185 107.443C73.2022 107.499 72.8084 107.239 72.6959 106.834L72.5712 106.386C72.3942 105.749 71.7896 105.328 71.131 105.383L68.3322 105.616C68.0694 105.638 67.8259 105.477 67.7438 105.226C67.6517 104.946 67.3601 104.782 67.0724 104.85L63.4523 105.701C63.0827 105.788 62.8743 106.181 63.0092 106.536C63.1424 106.886 62.9405 107.275 62.5769 107.367L61.5901 107.618C61.3095 107.689 61.0858 107.901 60.9983 108.177C60.8894 108.521 60.5721 108.756 60.2112 108.761L57.1519 108.8C56.6303 108.807 56.1302 108.592 55.7758 108.21L55.0675 107.445C54.6886 107.036 54.0368 107.052 53.679 107.48L53.3694 107.85C53.0829 108.192 52.5385 108.124 52.3449 107.722C52.2505 107.526 52.0596 107.394 51.8429 107.376L46.2994 106.909C44.6377 106.77 42.9785 107.205 41.5994 108.142L40.5313 108.868C39.6936 109.437 38.671 109.668 37.6701 109.512L37.3625 109.465C36.8776 109.389 36.3814 109.442 35.9229 109.617C35.3296 109.843 34.6775 109.862 34.0717 109.673L31.5395 108.879C30.9062 108.681 30.2471 108.576 29.5835 108.569L27.6248 108.549C27.1775 108.544 26.745 108.708 26.4135 109.008C25.978 109.403 25.3757 109.556 24.8046 109.418L23.5768 109.123C22.7001 108.911 21.949 108.349 21.4996 107.567L20.8856 106.499C20.7006 106.177 20.3622 105.974 19.9912 105.962C19.3586 105.941 18.8815 105.38 18.9632 104.752L19.0461 104.115C19.0899 103.778 19.0158 103.437 18.8364 103.148L18.3309 102.336C18.0502 101.884 17.41 101.84 17.0697 102.248C16.8362 102.529 16.4395 102.61 16.1148 102.443L15.3113 102.031C14.4254 101.577 13.3391 101.88 12.8167 102.728L12.2856 103.589C11.5682 104.753 9.96218 104.964 8.96921 104.024C8.36838 103.455 7.49502 103.28 6.7217 103.574L5.41769 104.07C4.85467 104.284 4.21847 104.149 3.79162 103.724C3.65451 103.587 3.54448 103.426 3.46735 103.249L3.36889 103.022C3.13103 102.475 3.1122 101.857 3.31629 101.296L3.36899 101.152C3.56948 100.601 3.51783 99.9896 3.22774 99.4802C3.02585 99.1257 2.93738 98.7179 2.97422 98.3116L2.976 98.292C3.02883 97.7093 2.83141 97.1317 2.43302 96.7033L1.63128 95.8411C1.537 95.7397 1.48763 95.6045 1.49437 95.4662L1.49524 95.4484C1.51035 95.1387 1.80142 94.9177 2.10382 94.9863C2.27098 95.0242 2.4459 94.9737 2.56705 94.8524L2.91453 94.5046C3.0885 94.3305 3.21308 94.1133 3.27552 93.8752L3.62603 92.5388C3.73656 92.1173 4.07447 91.7937 4.5003 91.7014C4.89671 91.6156 5.21921 91.3284 5.35031 90.9446L5.4262 90.7224C5.5996 90.2147 5.50229 89.6537 5.16806 89.2341L5.11395 89.1662C4.52341 88.4248 4.63876 87.3464 5.37277 86.7467L9.24165 83.5857C9.43024 83.4316 9.49124 83.1697 9.39017 82.9482C9.2635 82.6705 9.39395 82.3432 9.67692 82.2288L14.0129 80.4759C14.6615 80.2137 15.2027 79.7404 15.549 79.1325C16.0153 78.3141 16.8274 77.7512 17.7574 77.6018L19.4329 77.3327C20.9274 77.0926 22.4495 77.551 23.5629 78.5765L24.3481 79.2996C24.6338 79.5628 24.9979 79.7249 25.3846 79.7613C25.9148 79.8111 26.4394 79.6203 26.8136 79.2415L27.7857 78.2574C28.2531 77.7843 28.561 77.1771 28.6665 76.5205L28.7886 75.7603C28.8267 75.523 28.9459 75.3063 29.1259 75.147C29.4652 74.8467 29.96 74.8008 30.3487 75.0336L33.0292 76.6389C33.3678 76.8417 33.7664 76.9204 34.1567 76.8617C34.2656 76.8453 34.3726 76.8184 34.4762 76.7813L35.4078 76.4483C35.8172 76.302 36.0823 75.9046 36.0601 75.4704C36.0351 74.9835 36.3701 74.5516 36.8479 74.4546L38.7066 74.0772C39.1824 73.9806 39.6297 73.7766 40.0147 73.4809L40.0674 73.4404C40.5365 73.08 41.0897 72.8453 41.6748 72.7585L42.6797 72.6094C44.1216 72.3954 45.2908 71.3304 45.638 69.9147L45.7223 69.571C45.988 68.4875 46.8325 67.6407 47.9153 67.372L48.1566 67.3121C49.0317 67.0949 49.9565 67.3533 50.5923 67.9926C51.1092 68.5124 51.8239 68.7861 52.5559 68.7445L55.7251 68.5643C56.5475 68.5176 57.2091 67.8706 57.2743 67.0494L57.322 66.4481C57.3347 66.2876 57.2682 66.1311 57.1438 66.0289C56.9311 65.8541 56.9031 65.5389 57.0817 65.3294L57.1486 65.2509C57.3653 64.9967 57.3295 64.6137 57.0694 64.404L56.0943 63.6181C55.3612 63.0272 55.2029 61.9733 55.7299 61.1932L56.0524 60.7158C56.352 60.2723 56.7891 59.9397 57.2964 59.7693L57.7773 59.6077C58.7415 59.2837 59.4791 58.4979 59.7414 57.5151L60.0335 56.4211C60.1303 56.0585 60.0276 55.6717 59.7636 55.4049L59.1193 54.7537C58.6688 54.2984 59.0138 53.527 59.6536 53.5594C59.9407 53.5739 60.2076 53.4118 60.3272 53.1504L61.0172 51.6415C61.0975 51.4658 61.2986 51.3803 61.481 51.4443C61.7085 51.5242 61.951 51.371 61.9766 51.1312L62.0087 50.8296C62.0327 50.605 62.178 50.4118 62.3871 50.3263L64.5208 49.4547C65.4809 49.0625 66.5474 49.016 67.538 49.3233L68.2731 49.5513C68.4562 49.6081 68.6485 49.6289 68.8395 49.6126L69.5705 49.5502C69.7694 49.5332 69.9353 49.3911 69.9826 49.1972C70.0481 48.9285 70.3323 48.7761 70.5924 48.8702L72.9707 49.7306C73.2451 49.8299 73.5495 49.7003 73.6682 49.4337C73.8336 49.062 74.329 48.9878 74.596 49.2947L75.2223 50.0143C75.4001 50.2185 75.6434 50.3544 75.9105 50.3986L78.6262 50.8482C78.7858 50.8746 78.9496 50.8585 79.101 50.8015L79.1889 50.7684C79.4634 50.6651 79.6554 50.4149 79.6841 50.123C79.7253 49.7041 80.0952 49.3959 80.5147 49.431L82.5931 49.6048C82.9073 49.6311 83.1626 49.3551 83.1119 49.0439L83.0885 48.8999C83.0567 48.7043 83.1953 48.5218 83.3924 48.5002C83.4953 48.4889 83.5979 48.5242 83.672 48.5965L83.9704 48.8877C84.2433 49.154 84.6243 49.2785 85.0018 49.2247L86.1769 49.0572C86.4148 49.0233 86.652 49.1243 86.7924 49.3195C86.9471 49.5345 87.2174 49.6333 87.4743 49.5687L87.9459 49.4501C88.3019 49.3605 88.679 49.4185 88.9916 49.6109L89.8745 50.1542C90.0146 50.2404 90.188 50.2528 90.3389 50.1874C90.5794 50.0832 90.8597 50.1807 90.9835 50.4118L91.5476 51.4649C91.668 51.6895 91.8631 51.865 92.0991 51.9609L92.6476 52.1837C92.8306 52.2581 93.0406 52.1879 93.1422 52.0185C93.264 51.8153 93.5345 51.7615 93.7248 51.9026L94.2627 52.3014C94.5541 52.5174 94.9701 52.4154 95.1285 52.0891L95.31 51.7152C95.3811 51.5686 95.5707 51.5272 95.6966 51.6308C95.8051 51.7201 95.9657 51.7033 96.0534 51.5934L96.3203 51.2591C96.4798 51.0592 96.7643 51.0117 96.9802 51.1489C97.2078 51.2936 97.5092 51.2319 97.6617 51.0094L98.1803 50.253C98.5084 49.7744 99.0902 49.5374 99.6594 49.6507L100.298 49.7777C100.744 49.8665 101.198 49.6631 101.429 49.2708C101.648 48.8983 102.07 48.6942 102.498 48.7535L103.439 48.8838C103.882 48.9451 104.259 49.2359 104.431 49.6483C104.676 50.2359 105.321 50.549 105.934 50.3788L106.48 50.2272C107.385 49.9762 108.337 50.4213 108.724 51.2759L109.097 52.097C109.283 52.5073 109.698 52.7647 110.148 52.749L110.656 52.7313C110.891 52.7231 111.087 52.5502 111.125 52.3183C111.181 51.9745 111.566 51.7959 111.865 51.9754L112.633 52.4376C112.799 52.5371 113.014 52.4768 113.104 52.3058L113.512 51.5275C113.599 51.3618 113.851 51.4386 113.83 51.6247C113.814 51.7737 113.985 51.8689 114.103 51.7765L114.972 51.0963C115.078 51.0137 115.139 50.8872 115.139 50.7532C115.139 50.4146 115.509 50.2055 115.799 50.3797L115.908 50.4453C116.089 50.5537 116.323 50.5029 116.442 50.3293C116.544 50.1819 116.534 49.9851 116.42 49.8478L116.308 49.7133C116.086 49.4475 116.12 49.0526 116.384 48.8289L117.632 47.7732C117.8 47.6307 117.989 47.5134 118.191 47.4251L122.322 45.6196C122.733 45.4399 123.004 45.0393 123.017 44.5909C123.029 44.1967 123.24 43.8355 123.577 43.6318L124.783 42.9041C125.013 42.7653 125.051 42.447 124.859 42.2586C124.725 42.1263 124.698 41.9197 124.793 41.7572L125.507 40.5408C125.612 40.3618 125.595 40.1364 125.465 39.9745C125.294 39.7608 125.326 39.449 125.538 39.2749L125.973 38.9166C126.358 38.6002 126.474 38.0603 126.253 37.6139L125.906 36.9144C125.833 36.7654 125.866 36.5856 125.988 36.473L126.028 36.4367C126.196 36.2824 126.164 36.0094 125.965 35.8977C125.772 35.7889 125.735 35.5257 125.892 35.3685L126.406 34.8532C126.605 34.6535 126.92 34.6274 127.149 34.7914L127.219 34.8411C127.414 34.9805 127.475 35.2426 127.363 35.4543C127.133 35.8894 127.631 36.347 128.045 36.081L129.09 35.4096C129.261 35.2996 129.468 35.2587 129.668 35.2949L132.035 35.7237C133.052 35.908 134.046 35.301 134.347 34.3119C134.637 33.3584 135.574 32.7546 136.562 32.8849L137.316 32.9843C137.804 33.0488 138.301 32.989 138.761 32.8106L141.112 31.8974C141.255 31.8419 141.377 31.743 141.46 31.6145C141.716 31.2221 142.269 31.1673 142.596 31.5019L143.023 31.9382C143.234 32.1544 143.519 32.2843 143.82 32.3029L144.148 32.3231C144.448 32.3415 144.74 32.4248 145.005 32.5672L149.189 34.821C149.424 34.9474 149.569 35.1941 149.564 35.4605C149.553 36.1276 150.382 36.443 150.817 35.9372L151.324 35.3481C151.471 35.1774 151.671 35.0617 151.892 35.0197L155.027 34.4251C155.404 34.3535 155.745 34.1554 155.994 33.8634L156.133 33.7015C156.667 33.0753 157.61 33.0076 158.228 33.5509C158.505 33.7944 158.864 33.9253 159.232 33.9177L160.671 33.8878C161.073 33.8795 161.383 34.2393 161.316 34.6357L161.293 34.7709C161.253 35.0064 161.392 35.2356 161.619 35.3096C161.836 35.3804 162.073 35.2893 162.186 35.0916L162.268 34.9491C162.385 34.7458 162.598 34.6164 162.832 34.6063L164.814 34.5211C165.026 34.512 165.228 34.4305 165.387 34.2902C165.578 34.1214 165.691 33.8813 165.7 33.6264L165.739 32.4364C165.757 31.9017 165.507 31.3933 165.074 31.0802L164.806 30.887C164.525 30.684 164.367 30.3508 164.389 30.0046C164.416 29.5768 164.711 29.2128 165.124 29.0969L166.637 28.6721C167.097 28.5429 167.451 28.1736 167.56 27.708L167.682 27.1905C167.817 26.6163 168.458 26.324 168.98 26.5984C169.531 26.8881 170.203 26.5454 170.292 25.9291L171.013 20.9435C171.086 20.4357 171.509 20.0506 172.021 20.0241L172.066 20.0217C172.594 19.9944 173.014 19.5703 173.037 19.0424L173.043 18.9003C173.063 18.4424 173.433 18.0778 173.892 18.0658L174.391 18.0528C174.486 18.0503 174.568 17.9848 174.592 17.8926C174.634 17.7247 174.849 17.6755 174.96 17.8081L175.436 18.3749C175.576 18.5415 175.796 18.6178 176.009 18.5737L178.67 18.0229C178.961 17.9627 179.245 18.1504 179.304 18.4414L179.325 18.5487C179.376 18.7978 179.628 18.9508 179.872 18.8804C180.102 18.8142 180.342 18.9458 180.41 19.1751L180.811 20.5327C180.878 20.7577 180.874 20.9977 180.801 21.2207L180.749 21.3791C180.61 21.8054 180.787 22.2714 181.175 22.4969C181.282 22.5593 181.401 22.6001 181.524 22.6169L183.471 22.882C183.893 22.9395 184.31 22.7444 184.537 22.3833L184.963 21.705C185.231 21.278 185.864 21.3124 186.084 21.766C186.161 21.9243 186.299 22.0442 186.467 22.0975L187.161 22.318C187.39 22.3907 187.463 22.6783 187.296 22.8507C187.22 22.9291 187.189 23.0407 187.213 23.1472L187.477 24.3056C187.582 24.765 188.078 25.0157 188.51 24.8273C188.946 24.637 189.447 24.8947 189.546 25.3602L190.775 31.1556C190.864 31.579 191.247 31.8755 191.679 31.857C192.227 31.8335 192.622 31.3226 192.507 30.7861L192.498 30.743C192.349 30.0471 193.01 29.4513 193.687 29.6718L194.3 29.8717C194.446 29.919 194.571 30.0144 194.655 30.1421C194.876 30.4783 195.341 30.5471 195.65 30.2895L196.199 29.8326C196.41 29.6573 196.731 29.7707 196.785 30.0393C196.82 30.2167 196.982 30.3405 197.162 30.3289L200.348 30.1247C200.969 30.0849 201.35 29.4262 201.075 28.8679C200.945 28.6031 200.957 28.2903 201.108 28.0364L201.137 27.987C201.339 27.6458 201.728 27.4607 202.12 27.5183L202.458 27.5678C202.656 27.5969 202.819 27.7404 202.872 27.9338C202.938 28.1723 203.167 28.3282 203.413 28.3024L204.62 28.1757C204.942 28.1419 205.237 28.3577 205.303 28.6749C205.373 29.015 205.705 29.2342 206.046 29.1648L212.535 27.8417C212.797 27.7883 212.987 27.5607 212.992 27.2936C212.998 27.0049 213.219 26.766 213.506 26.7369L214.495 26.6366C214.717 26.614 214.878 26.4123 214.85 26.1902C214.831 26.048 214.738 25.9265 214.606 25.8721L213.163 25.2801C212.499 25.0074 212.223 24.2142 212.576 23.5883C212.721 23.3307 212.765 23.0286 212.7 22.7403L211.982 19.5382C211.95 19.3966 211.869 19.2707 211.754 19.1824C211.376 18.8925 211.453 18.3016 211.894 18.1192L215.2 16.7496C215.778 16.5101 216.157 15.9483 216.163 15.3224C216.169 14.6419 215.734 14.0358 215.087 13.8245L208.953 11.8212C208.475 11.6652 208.062 11.3568 207.776 10.9435C207.322 10.2868 207.241 9.44148 207.563 8.71068L207.8 8.17078C207.995 7.72863 208.283 7.33371 208.644 7.01305L212.846 3.28314C213.002 3.14442 213.125 2.9719 213.205 2.77869Z" fill="#2969F6" stroke="#1D1D1D" stroke-width="2" stroke-linecap="round" stroke-linejoin="round"/>
</svg>
