<svg width="165" height="226" viewBox="0 0 165 226" fill="none" xmlns="http://www.w3.org/2000/svg">
<path d="M35.0175 2.28791C35.0287 2.3943 35.0511 2.4992 35.0844 2.60086L36.4894 6.88996C36.5818 7.17214 36.613 7.4708 36.5807 7.76597C36.4883 8.612 36.919 9.42935 37.6691 9.83136L39.7681 10.9562C40.357 11.2718 41.0895 11.0833 41.453 10.5227C41.736 10.0862 42.2544 9.8634 42.7659 9.95853L43.8421 10.1587C44.1586 10.2175 44.3752 10.5118 44.3373 10.8316L44.3269 10.92C44.2921 11.2139 44.5069 11.4784 44.8017 11.5045C45.0033 11.5224 45.1766 11.6546 45.2472 11.8442L45.5044 12.5354C45.6893 13.0321 46.0962 13.4137 46.6038 13.5663L47.2511 13.7608C48.0035 13.987 48.8142 13.9144 49.5144 13.5582L51.1597 12.7213C51.912 12.3385 52.771 12.2194 53.5991 12.383L53.9254 12.4474C54.3432 12.5299 54.7329 12.7181 55.0573 12.994L55.2624 13.1684C56.0522 13.8401 57.2073 13.8579 58.0175 13.2108L58.1906 13.0726C58.6145 12.734 58.8542 12.2156 58.8376 11.6734L58.7965 10.3297C58.7893 10.0932 58.979 9.89756 59.2156 9.89756C59.3385 9.89756 59.4552 9.95145 59.5349 10.045L59.9924 10.5822C60.604 11.3003 60.5808 12.3626 59.9384 13.0533C59.553 13.4676 59.3773 14.035 59.4612 14.5947L59.5511 15.1945C59.6756 16.0251 60.2375 16.7245 61.0219 17.025C61.5326 17.2207 61.9582 17.5898 62.2242 18.0677L62.948 19.368C63.2249 19.8654 63.7188 20.2044 64.2825 20.284C64.7571 20.351 65.186 20.6028 65.476 20.9845L65.5968 21.1435C66.0366 21.7224 66.7238 22.0597 67.4507 22.0535L67.6472 22.0519C68.2376 22.0468 68.8134 22.2358 69.286 22.5898L69.4441 22.7082C70.1433 23.2319 71.0225 23.4551 71.8867 23.3283L73.4103 23.1049C73.7523 23.0547 74.0991 23.1572 74.3589 23.3852L74.5807 23.5799C74.9374 23.8929 74.9799 24.4331 74.6765 24.798C74.4875 25.0255 74.426 25.333 74.513 25.6156L74.8393 26.6753C74.8874 26.8316 74.8367 27.0016 74.7107 27.106C74.5617 27.2294 74.521 27.4411 74.6135 27.6111L75.7186 29.6407C75.9617 30.0873 76.4204 30.3745 76.9283 30.3983C77.1989 30.411 77.4675 30.3479 77.7042 30.2162L81.1901 28.2757C81.9643 27.8447 82.8684 27.7084 83.7353 27.8921C84.7325 28.1033 85.7725 27.8902 86.6063 27.304L87.2598 26.8445C87.8452 26.433 88.3447 25.9113 88.7303 25.3086L89.5993 23.9505C89.7871 23.6569 90.0221 23.3963 90.2948 23.1792C91.7758 21.9998 93.9536 22.373 94.9574 23.9782L95.5975 25.0019C95.9563 25.5755 96.1728 26.2266 96.229 26.9008L96.299 27.7393C96.3829 28.7451 96.6633 29.7248 97.1243 30.6228L97.1941 30.7587C97.6079 31.5648 98.1575 32.2937 98.8186 32.9134C99.754 33.7902 100.889 34.426 102.125 34.766L103.846 35.2391C105.589 35.7185 107.446 35.5734 109.093 34.829L109.47 34.6591C110.591 34.1524 111.836 33.9819 113.053 34.1685C113.731 34.2724 114.387 34.4853 114.997 34.7989L117.106 35.8829C117.479 36.0748 117.885 36.1941 118.303 36.2345L120.26 36.4234C121.299 36.5238 121.994 37.5405 121.71 38.5454C121.605 38.9161 121.632 39.3117 121.785 39.6653L123.97 44.7173C125.02 47.1457 127.097 48.9799 129.637 49.7211L129.877 49.7911C131.156 50.1645 132.321 50.8552 133.263 51.7989C134.843 53.3833 137.021 54.2244 139.256 54.1142L140.818 54.0372C141.338 54.0116 141.851 53.9122 142.343 53.7421L142.481 53.6945C143.396 53.3779 144.2 52.8023 144.795 52.0377C145.62 50.9771 146.837 50.2929 148.172 50.1389L151.868 49.7125C152.232 49.6705 152.6 49.7366 152.926 49.9025C153.381 50.1334 153.91 50.1683 154.39 49.9989L156.928 49.1046C157.681 48.839 158.477 49.3782 158.509 50.1765C158.519 50.4214 158.605 50.6572 158.754 50.8516L158.965 51.1262C159.809 52.226 159.485 53.8186 158.277 54.5L154.621 56.5632C152.975 57.492 151.871 59.1504 151.649 61.0273L151.601 61.4339C151.429 62.892 151.738 64.3664 152.481 65.6324L153.251 66.9432C154.104 68.3946 155.271 69.6362 156.667 70.5767L158.079 71.5279C158.523 71.827 158.935 72.1711 159.308 72.5547L160.255 73.5269C161.424 74.7284 161.938 76.4228 161.632 78.0712L161.501 78.7734C161.269 80.0246 161.675 81.3092 162.583 82.2003L163.191 82.796C163.649 83.2455 163.874 83.8812 163.801 84.519L163.767 84.8204C163.709 85.3236 163.404 85.7647 162.953 85.9959C162.737 86.1069 162.497 86.1642 162.255 86.1631L161.216 86.1583C159.441 86.1502 157.761 86.9595 156.661 88.3526L155.207 90.1931C154.608 90.9513 153.776 91.491 152.84 91.7286C151.769 92.0005 150.839 92.666 150.237 93.5925L145.346 101.116C145.155 101.41 145.043 101.748 145.02 102.098C144.942 103.306 143.836 104.182 142.642 103.982L141.203 103.74C140.971 103.702 140.736 103.687 140.501 103.697L137.329 103.835C136.456 103.873 135.616 104.18 134.924 104.713C133.933 105.475 132.658 105.763 131.436 105.498L128.564 104.877C128.277 104.815 127.978 104.884 127.747 105.065L127.219 105.48C126.976 105.67 126.98 106.039 127.227 106.225C127.392 106.349 127.457 106.568 127.385 106.762L126.384 109.474C126.279 109.759 126.342 110.079 126.547 110.303C126.828 110.61 127.295 110.655 127.629 110.408L127.785 110.293C128.147 110.025 128.642 110.024 129.005 110.291L129.541 110.686C129.834 110.902 130.182 111.03 130.545 111.057L130.572 111.059C131.47 111.125 132.215 111.779 132.397 112.661C132.461 112.972 132.597 113.263 132.795 113.511L134.153 115.213C134.462 115.601 134.48 116.146 134.195 116.552L134.181 116.572C133.882 117.001 133.929 117.582 134.293 117.956L134.7 118.375C134.848 118.526 135.084 118.545 135.254 118.419C135.402 118.309 135.604 118.308 135.753 118.417L136.42 118.902C136.598 119.031 136.73 119.214 136.795 119.424L137.037 120.198C137.176 120.644 137.754 120.756 138.05 120.395L138.1 120.333C138.331 120.051 138.771 120.081 138.962 120.392C139.069 120.567 139.269 120.664 139.473 120.641L141.746 120.381C142.971 120.241 144.195 120.657 145.08 121.516L145.524 121.946C145.824 122.238 146.203 122.434 146.613 122.513C147.732 122.726 148.822 122.026 149.093 120.92L149.198 120.492C149.34 119.916 149.675 119.406 150.148 119.048L150.57 118.729C151.122 118.311 151.868 118.255 152.476 118.585C152.86 118.793 153.153 119.136 153.298 119.548L153.597 120.394C154.095 121.805 153.785 123.375 152.788 124.49L151.259 126.202C149.035 128.691 145.497 129.532 142.391 128.312L135.817 125.727C135.601 125.643 135.356 125.693 135.192 125.856C135.036 126.011 134.979 126.24 135.046 126.449L135.126 126.699C135.205 126.947 135.031 127.205 134.771 127.224C134.614 127.236 134.478 127.338 134.423 127.486L134.175 128.154C134.092 128.378 134.063 128.618 134.09 128.856L134.167 129.518C134.233 130.094 134.062 130.672 133.692 131.119L133.361 131.52C133.219 131.691 133.15 131.91 133.168 132.132C133.208 132.615 132.836 133.034 132.352 133.052L132.174 133.058C131.621 133.079 131.185 133.536 131.191 134.089L131.197 134.743C131.2 135.038 131.021 135.304 130.747 135.413C130.494 135.515 130.32 135.751 130.299 136.023L130.267 136.443C130.246 136.728 130.067 136.977 129.804 137.089L129.416 137.254C129.162 137.362 129.076 137.68 129.238 137.903C129.348 138.054 129.347 138.26 129.235 138.409C129.055 138.649 129.173 138.995 129.462 139.073L129.541 139.095C129.727 139.145 129.865 139.303 129.89 139.494L130.024 140.517C130.066 140.84 129.962 141.164 129.74 141.401L129.058 142.129C128.898 142.298 128.949 142.574 129.158 142.677C129.282 142.738 129.359 142.868 129.351 143.007L129.332 143.345C129.314 143.66 129.125 143.939 128.84 144.073L128.661 144.157C128.313 144.32 128.118 144.696 128.185 145.074C128.228 145.315 128.165 145.563 128.012 145.754L127.061 146.938C126.415 147.744 126.423 148.893 127.081 149.689C127.548 150.254 128.267 150.546 128.995 150.467L131.332 150.213C131.573 150.187 131.808 150.3 131.938 150.505C132.097 150.759 132.412 150.866 132.693 150.763L134.198 150.211C134.659 150.041 135.174 150.118 135.566 150.414L135.817 150.604C135.94 150.696 136.092 150.74 136.246 150.727L136.709 150.688C136.917 150.67 137.079 150.866 137.023 151.067C136.985 151.206 137.05 151.352 137.179 151.416L138.122 151.885C138.559 152.103 138.871 152.51 138.967 152.988L139.816 157.23C139.917 157.739 139.683 158.256 139.233 158.514C138.851 158.734 138.619 159.145 138.628 159.586L138.646 160.409C138.663 161.233 139.071 162 139.745 162.475L141.533 163.736C141.857 163.964 141.98 164.386 141.83 164.753C141.703 165.063 141.77 165.418 142 165.66L142.434 166.118C142.762 166.464 142.911 166.943 142.836 167.414L142.743 167.999C142.712 168.198 142.793 168.398 142.953 168.52L142.996 168.552C143.247 168.743 143.263 169.115 143.029 169.327C142.838 169.5 142.808 169.79 142.961 169.998L143.578 170.838C143.709 171.016 143.966 171.042 144.13 170.893C144.404 170.645 144.835 170.905 144.742 171.264L144.669 171.543C144.644 171.639 144.651 171.741 144.689 171.833L144.826 172.167C145.145 172.941 144.788 173.828 144.022 174.166L142.073 175.026C141.735 175.175 141.371 175.255 141.002 175.26L139.786 175.277C139.239 175.285 138.768 175.665 138.643 176.197C138.471 176.932 139.016 177.639 139.77 177.66L140.609 177.683C140.91 177.692 141.182 177.863 141.32 178.131L141.476 178.433C141.582 178.638 141.826 178.73 142.041 178.646C142.224 178.574 142.433 178.629 142.556 178.783L142.932 179.25C143.147 179.517 143.205 179.876 143.087 180.197L142.983 180.48C142.916 180.661 142.96 180.865 143.096 181.002C143.309 181.218 143.664 181.196 143.848 180.954L145.815 178.364C145.856 178.31 145.926 178.288 145.991 178.308L146.546 178.481C146.624 178.506 146.676 178.401 146.608 178.354C146.576 178.331 146.568 178.287 146.59 178.254L147.153 177.443C147.246 177.308 147.381 177.208 147.537 177.158C147.912 177.039 148.315 177.234 148.454 177.601L150.244 182.306C150.433 182.803 150.35 183.363 150.025 183.783L149.96 183.867C149.791 184.085 149.701 184.353 149.704 184.629C149.713 185.35 149.098 185.922 148.379 185.861L147.33 185.773C146.13 185.671 145.075 186.563 144.975 187.764L144.853 189.233C144.806 189.802 144.366 190.26 143.8 190.33C143.274 190.396 142.852 190.797 142.761 191.319L142.449 193.1C142.344 193.704 142.088 194.272 141.705 194.751L141.162 195.43C140.632 196.093 140.309 196.897 140.233 197.742L140.076 199.473C140.045 199.819 139.844 200.128 139.54 200.296C138.824 200.693 138.818 201.72 139.529 202.125L140.869 202.888C141.024 202.977 141.125 203.136 141.137 203.314C141.159 203.619 140.92 203.881 140.614 203.885L136.346 203.952C135.143 203.971 134.361 205.226 134.868 206.317C134.993 206.584 135.187 206.813 135.43 206.98L135.877 207.286C136.238 207.533 136.384 207.995 136.231 208.406L136.183 208.532C136.067 208.844 136.164 209.195 136.424 209.402C136.608 209.547 136.714 209.769 136.714 210.002V211.877C136.714 212.188 136.506 212.46 136.205 212.54C135.981 212.599 135.803 212.768 135.73 212.988L135.146 214.77C135.008 215.192 134.938 215.634 134.94 216.078L134.953 219.024C134.956 219.653 134.516 220.196 133.9 220.325C133.282 220.454 132.842 221.001 132.848 221.633L132.851 221.961C132.855 222.389 132.7 222.803 132.416 223.123L132.109 223.467C131.454 224.203 130.473 224.56 129.499 224.415L124.191 223.626C123.588 223.537 122.979 223.507 122.371 223.536L119.843 223.659C119.508 223.676 119.186 223.799 118.925 224.01L118.465 224.383C118.176 224.618 117.763 224.625 117.464 224.403C117.22 224.223 116.894 224.193 116.623 224.327C116.29 224.492 115.887 224.408 115.647 224.124L114.149 222.347C113.6 221.696 112.722 221.425 111.902 221.654C111.272 221.83 110.754 222.281 110.494 222.882L110.318 223.287C110.228 223.495 110.07 223.665 109.87 223.769C109.376 224.028 108.765 223.828 108.521 223.326L107.793 221.827C107.34 220.897 106.381 220.322 105.348 220.363L97.8545 220.654C97.4285 220.671 97.0527 220.938 96.8973 221.335C96.7454 221.723 96.3824 221.988 95.9665 222.015L91.2503 222.314C91.0364 222.328 90.8546 222.476 90.7978 222.682C90.7267 222.941 90.4643 223.099 90.2024 223.039L87.3053 222.382C86.8405 222.277 86.5105 221.864 86.5105 221.387V220.818C86.5105 220.581 86.3221 220.388 86.0857 220.382C85.8941 220.377 85.7282 220.247 85.6768 220.063L85.3496 218.888C85.2251 218.441 85.2532 217.965 85.4295 217.536L86.6367 214.597C86.8625 214.047 86.7086 213.414 86.2555 213.029L86.1741 212.96C85.8906 212.72 85.5091 212.629 85.1477 212.717C84.8088 212.799 84.4509 212.725 84.1726 212.515L84.0392 212.414C83.6621 212.129 83.4397 211.684 83.4376 211.211L83.4339 210.353C83.4264 208.646 82.0998 207.236 80.3965 207.124L71.3517 206.531C70.2826 206.46 69.329 205.833 68.8411 204.879L68.6513 204.508C68.2801 203.782 68.3187 202.915 68.7531 202.225L68.8424 202.083C69.0381 201.772 69.1329 201.408 69.1139 201.041L69.0968 200.712C69.0754 200.298 68.8405 199.925 68.4767 199.727C67.9914 199.463 67.7514 198.899 67.897 198.366L67.9959 198.004C68.2309 197.144 67.7466 196.251 66.8972 195.978L60.1509 193.815C59.863 193.723 59.6845 193.435 59.7293 193.136C59.7844 192.768 59.5036 192.436 59.1315 192.428L56.5903 192.378C56.1595 192.37 55.7363 192.264 55.3524 192.068L54.2392 191.501C54.0156 191.387 53.8315 191.208 53.7106 190.988L53.6163 190.817C53.3902 190.405 53.4788 189.892 53.8299 189.58C54.0156 189.415 54.1337 189.187 54.1616 188.941L54.1903 188.686C54.235 188.29 54.1369 187.891 53.9136 187.561L53.2927 186.643C52.8968 186.057 52.6902 185.364 52.7011 184.658C52.7162 183.671 52.308 182.725 51.5798 182.059L51.4893 181.976C50.696 181.251 49.6279 180.904 48.5598 181.024L45.0903 181.416C44.4452 181.489 43.7929 181.372 43.213 181.08L42.4778 180.71C41.724 180.331 41.2706 179.537 41.3268 178.695L41.3377 178.532C41.3622 178.166 41.5094 177.818 41.7557 177.546C42.078 177.19 42.2269 176.71 42.1628 176.234L42.1471 176.117C42.0465 175.371 42.4003 174.636 43.0468 174.249L44.5139 173.37C45.2487 172.93 45.3423 171.902 44.6991 171.337L44.5101 171.171C44.3058 170.991 44.0244 170.927 43.7627 171.001C43.2992 171.133 42.8255 170.828 42.7523 170.352L42.1731 166.583C42.0055 165.492 40.8452 164.861 39.8386 165.313L39.0389 165.672C38.6638 165.84 38.2227 165.681 38.0416 165.312C37.8881 164.999 37.5421 164.83 37.201 164.901L36.561 165.035C36.1044 165.13 35.6291 165.022 35.2585 164.739L34.1175 163.867C33.8726 163.679 33.7855 163.35 33.9057 163.066L33.9554 162.949C34.0539 162.716 33.9722 162.447 33.7612 162.308L32.8126 161.684C32.6762 161.595 32.7366 161.383 32.8997 161.378C33.0024 161.376 33.0782 161.282 33.0591 161.181L32.8718 160.193C32.8212 159.926 32.879 159.649 33.0325 159.425L33.2134 159.161C33.6782 158.481 33.6209 157.573 33.0744 156.957L31.9845 155.729C31.4213 155.095 31.0805 154.294 31.014 153.448L30.246 143.682C30.1999 143.096 30.5636 142.556 31.1237 142.378L31.4657 142.269C31.7099 142.192 31.8897 141.984 31.931 141.731C31.9758 141.456 32.1829 141.237 32.4541 141.176L32.874 141.083C33.4756 140.949 33.9034 140.415 33.9034 139.798V139.242C33.9034 139.088 33.8549 138.938 33.7648 138.813L33.7037 138.728C33.4493 138.375 33.6033 137.876 34.0126 137.728C34.3536 137.604 34.5296 137.227 34.4055 136.886L34.3196 136.65C34.2009 136.325 33.9066 136.095 33.5615 136.059L32.5961 135.959C32.1485 135.912 31.7306 135.713 31.4126 135.394C30.7668 134.748 30.654 133.74 31.1409 132.967L31.2691 132.763C31.549 132.318 31.6653 131.79 31.598 131.269L31.4329 129.992C31.3854 129.624 31.4838 129.253 31.707 128.958L31.7566 128.892C31.9662 128.615 32.2835 128.439 32.6299 128.409L33.2012 128.359C33.5565 128.327 33.8203 128.016 33.7925 127.66C33.7645 127.302 33.4519 127.035 33.0941 127.063L32.0505 127.144C31.4152 127.193 30.8059 126.883 30.4725 126.34L30.3404 126.125C30.074 125.691 29.5829 125.447 29.0762 125.498C28.2897 125.577 27.6088 124.955 27.6158 124.165L27.6732 117.676C27.6781 117.117 27.1237 116.725 26.5982 116.916C26.4754 116.96 26.3435 116.974 26.214 116.956L22.7038 116.467C22.3443 116.417 21.983 116.546 21.7366 116.812C21.5124 117.055 21.1918 117.185 20.8621 117.167L20.3874 117.141C20.1112 117.126 19.8405 117.057 19.5908 116.938L18.7839 116.553C18.3681 116.355 17.9118 116.257 17.4512 116.266L15.7215 116.3C15.4379 116.306 15.1844 116.125 15.0981 115.854C15.0158 115.596 14.7802 115.418 14.5095 115.409L14.2875 115.401C13.5718 115.377 13.136 114.603 13.4859 113.978L13.9787 113.098C14.1657 112.764 14.5844 112.64 14.9236 112.817C15.3973 113.065 15.964 112.718 15.9586 112.183L15.9565 111.977C15.9528 111.612 16.1878 111.287 16.5356 111.177L17.1615 110.978C18.1756 110.656 18.6563 109.499 18.1692 108.553L16.1407 104.613C15.9783 104.297 16.0333 103.914 16.2776 103.657C16.3933 103.535 16.4695 103.382 16.4963 103.216L17.5738 96.5477C17.6813 95.8827 17.2328 95.2553 16.5688 95.1417C15.9189 95.0305 15.2971 95.4527 15.1607 96.0978L15.137 96.2097C15.0004 96.8554 14.416 97.307 13.7568 97.2763L11.8222 97.1861C11.4003 97.1664 10.985 97.0731 10.5951 96.9104L6.32739 95.1297C6.21385 95.0823 6.10881 95.0167 6.01645 94.9354L5.46178 94.4474C5.26944 94.2781 5.26116 93.9812 5.44377 93.8016C5.60678 93.6412 5.62023 93.3828 5.47477 93.2063L5.43716 93.1607C5.24107 92.9228 5.30155 92.5664 5.56514 92.4065L6.48546 91.8482C7.25057 91.3841 7.41012 90.3412 6.81876 89.6696L6.41055 89.2059C6.19052 88.956 5.85368 88.8428 5.52739 88.9091C5.11254 88.9934 4.69311 88.7869 4.50696 88.4067L3.55074 86.4535C3.35822 85.9461 3.59604 85.3767 4.09228 85.157L5.75184 84.4222C6.04811 84.291 6.14035 83.9151 5.93849 83.6617C5.72779 83.3972 5.83876 83.0039 6.15667 82.8885L8.30723 82.1081C8.95655 81.8725 9.28743 81.151 9.04239 80.5052C8.8923 80.1096 8.5506 79.8181 8.13633 79.7322L5.80384 79.2484C4.97412 79.0763 4.32365 78.4316 4.14422 77.6034C4.0857 77.3333 4.07996 77.0544 4.12733 76.7821L5.18353 70.7107C5.29989 70.0418 5.09557 69.3571 4.63168 68.8613L4.57453 68.8002C4.22864 68.4306 4.03949 67.9413 4.04682 67.4351L4.06041 66.4964C4.06886 65.9131 3.5956 65.437 3.01221 65.4421C2.394 65.4474 1.90783 64.9152 1.96899 64.3L2.20679 61.908C2.23911 61.5829 2.1135 61.2621 1.86907 61.0453C1.57617 60.7856 1.45808 60.381 1.56529 60.0045L1.72492 59.4439C1.9769 58.559 2.81438 57.9717 3.73217 58.0362L3.86121 58.0453C4.35222 58.0798 4.83981 57.9412 5.23916 57.6534L7.02154 56.3691C7.12819 56.2922 7.20734 56.1832 7.24733 56.058C7.36295 55.6959 7.12489 55.3169 6.74851 55.2638L6.12709 55.1762C5.36743 55.0691 4.92684 54.2589 5.24985 53.563L5.26702 53.5261C5.47357 53.0811 5.93514 52.8116 6.42417 52.8504L6.90263 52.8885C7.9067 52.9682 8.67226 52.0062 8.36914 51.0457C8.29507 50.811 8.28328 50.5611 8.33491 50.3205L8.41294 49.9568C8.53529 49.3867 9.02068 48.9666 9.6025 48.9274L9.98537 48.9016C10.3578 48.8765 10.6655 48.6014 10.7319 48.2341C10.7865 47.9324 11.0087 47.6862 11.3023 47.5982C11.7893 47.4523 12.0365 46.9047 11.8174 46.446L11.7781 46.3638C11.5329 45.8505 11.8156 45.2408 12.3658 45.0964L14.3875 44.5658C14.7466 44.4715 14.7835 43.9762 14.4422 43.8299C14.3357 43.7842 14.255 43.6935 14.222 43.5824L13.3746 40.7292C13.3425 40.6212 13.2734 40.5263 13.181 40.4618C12.8748 40.2483 12.9023 39.7811 13.2358 39.6135C13.4506 39.5056 13.5561 39.2584 13.4855 39.0286L13.4714 38.9827C13.407 38.7731 13.2242 38.6218 13.0062 38.5978L12.121 38.5005C11.9066 38.4769 11.6903 38.5252 11.5062 38.6377C11.065 38.9075 10.4899 38.7856 10.1961 38.36L9.74699 37.7095C9.38586 37.1864 9.32558 36.5122 9.58817 35.9334L10.2954 34.3743C10.5326 33.8515 11.2148 33.7191 11.6303 34.1152C11.9792 34.4478 12.5367 34.4162 12.8457 34.0462L14.542 32.0153C14.7077 31.817 14.9403 31.6861 15.1958 31.6474L15.6226 31.5829C15.8823 31.5436 16.0766 31.3238 16.0837 31.0611C16.0887 30.8761 15.999 30.7014 15.8459 30.5975L14.1317 29.4351C13.5086 29.0126 13.2353 28.2322 13.4586 27.5133C13.6796 26.8014 14.3365 26.3148 15.082 26.3108L16.9149 26.3009C17.23 26.2992 17.5334 26.1813 17.7669 25.9696C18.2587 25.524 18.3279 24.7762 17.9262 24.2478L15.8027 21.4545C15.0845 20.5097 15.0586 19.2092 15.7388 18.2367C16.0479 17.7948 16.4809 17.4543 16.9833 17.2581L19.9573 16.0967C20.3808 15.9313 20.8459 16.2129 20.8956 16.6649C20.952 17.1788 21.5321 17.4509 21.9634 17.1659L23.58 16.0975C23.8509 15.9185 23.9541 15.5708 23.8248 15.273C23.6798 14.9388 23.8287 14.5501 24.1598 14.3983L25.2874 13.8816C25.5189 13.7755 25.6723 13.5497 25.6857 13.2954C25.6974 13.0721 25.8175 12.8686 26.0073 12.7504L26.2608 12.5925C26.8059 12.2531 27.0075 11.5575 26.7285 10.9792L25.4651 8.36015C25.2493 7.91285 25.1148 7.43075 25.0678 6.93636L25.0523 6.77323C24.8066 4.18835 27.0182 2.04095 29.5947 2.36266C30.4397 2.46817 31.2965 2.30517 32.0437 1.89674L33.3784 1.16719C33.6366 1.02605 33.9409 0.995079 34.2222 1.08128C34.6411 1.20963 34.9428 1.57588 34.9885 2.01162L35.0175 2.28791Z" fill="#393939" stroke="#1D1D1D" stroke-width="2" stroke-linecap="round" stroke-linejoin="round"/>
</svg>
