<svg width="191" height="198" viewBox="0 0 191 198" fill="none" xmlns="http://www.w3.org/2000/svg">
<path d="M99.0586 2.45156C99.2813 1.80776 99.8698 1.36145 100.55 1.32071L101.257 1.27835C102.3 1.21585 103.288 1.75124 103.805 2.65927L105.208 5.1217C105.398 5.45491 105.713 5.69883 106.083 5.79961C106.52 5.91867 106.876 6.23616 107.044 6.65698L107.213 7.0808C107.39 7.52299 107.696 7.9014 108.092 8.16625L109.287 8.96624C109.842 9.33834 110.47 9.58952 111.129 9.70352L113.57 10.1257C114.356 10.2615 115.13 9.83228 115.431 9.09406C115.693 8.451 116.32 8.03251 117.015 8.03765L118.047 8.04528C118.316 8.04726 118.573 7.93383 118.752 7.73377C119.113 7.3308 119.74 7.3168 120.119 7.70325L120.797 8.39543C121.178 8.78372 121.26 9.37554 120.998 9.85227C120.841 10.1393 120.804 10.4772 120.895 10.7915L120.989 11.1104C121.123 11.5696 121.414 11.9669 121.812 12.2324L123.464 13.3341C123.829 13.5783 124.257 13.7147 124.697 13.7278C125.103 13.7399 125.505 13.6465 125.864 13.4566L127.694 12.4886C128.059 12.2959 128.486 12.2598 128.877 12.3884C129.236 12.5066 129.539 12.7548 129.725 13.0843L130.824 15.0344C131.144 15.6015 131.298 16.2472 131.269 16.8976L131.212 18.1493C131.2 18.42 131.312 18.6815 131.517 18.859C131.732 19.0452 132.023 19.117 132.3 19.052L132.945 18.9004C133.134 18.8562 133.281 18.7093 133.325 18.5211L133.383 18.2734C133.43 18.0762 133.649 17.9753 133.829 18.0684C134.008 18.1611 134.053 18.3975 133.92 18.5495L133.824 18.6597C133.732 18.7652 133.697 18.9093 133.732 19.0451L134.273 21.1705C134.315 21.3362 134.25 21.5105 134.109 21.6075L134.067 21.6361C133.85 21.7854 133.852 22.106 134.07 22.2535C134.177 22.326 134.239 22.4488 134.234 22.5781L134.142 24.8697C134.096 26.0012 134.951 26.9674 136.079 27.0607L137.594 27.186C137.834 27.2058 138.018 27.4061 138.018 27.6466C138.018 27.812 138.107 27.9649 138.25 28.0473L141.485 29.905C142.18 30.3048 142.553 31.0964 142.417 31.8873C142.232 32.9628 142.983 33.9746 144.066 34.1091L145.691 34.3107C146.159 34.3688 146.631 34.2449 147.01 33.9646C147.271 33.7715 147.579 33.651 147.902 33.6155L151.702 33.1976C151.978 33.1672 152.23 33.0253 152.4 32.8048L152.445 32.7451C152.629 32.5057 152.922 32.3767 153.223 32.4032L153.409 32.4196C153.771 32.4514 154.045 32.7596 154.034 33.1223C154.022 33.5069 154.33 33.8255 154.714 33.8277L155.631 33.8328C156.583 33.8382 157.324 33.0067 157.208 32.0618L157.064 30.8809C157.037 30.6566 157.095 30.4301 157.227 30.2465C157.538 29.8124 158.157 29.7433 158.557 30.098L162.471 33.572C162.865 33.9213 163.368 34.1223 163.894 34.1404L164.198 34.1509C164.884 34.1744 165.496 34.5909 165.769 35.2208C165.886 35.4915 165.934 35.7871 165.909 36.081L165.892 36.2841C165.793 37.4274 166.46 38.4987 167.529 38.9151L169.482 39.6756C170.042 39.9363 170.677 39.9855 171.27 39.8142L172.226 39.5384C172.866 39.3535 173.552 39.4016 174.16 39.6739L174.649 39.8927C175.396 40.2272 175.867 40.9797 175.842 41.798L175.802 43.1112C175.791 43.4708 175.497 43.7565 175.137 43.7565C174.921 43.7565 174.719 43.8611 174.594 44.0371L174.072 44.7737C173.915 44.9942 173.87 45.2746 173.949 45.5331L173.979 45.6319C174.078 45.9555 173.944 46.3048 173.655 46.4803C173.412 46.6275 173.275 46.9005 173.302 47.183L173.351 47.6944C173.395 48.1513 173.637 48.5658 174.015 48.8273L175.472 49.8375C176.055 50.2421 176.199 51.0439 175.792 51.6259C175.667 51.8051 175.589 52.0134 175.567 52.2309L175.446 53.4246C175.298 54.8716 175.691 56.3219 176.549 57.4967L181.208 63.8781C182.444 65.5719 183.923 67.0748 185.597 68.3384L188.323 69.8855C188.821 70.1678 189.209 70.6083 189.427 71.137L189.525 71.3734C189.675 71.7396 189.702 72.1454 189.599 72.5281L189.368 73.3924C189.299 73.6489 189.407 73.9201 189.633 74.0598C190.07 74.3303 189.989 74.9893 189.499 75.1451L188.624 75.423C188.32 75.5196 188.078 75.7523 187.971 76.0523L187.699 76.809C187.508 77.3401 187.585 77.9307 187.905 78.3951C188.242 78.8822 188.309 79.5062 188.084 80.0538L187.786 80.7797C187.4 81.7199 186.59 82.4206 185.604 82.667L183.018 83.3129C182.491 83.4448 182.075 83.8511 181.932 84.3758L181.88 84.5656C181.652 85.396 180.715 85.8029 179.953 85.402L179.752 85.2962C179.589 85.2102 179.399 85.1873 179.22 85.2321L179.131 85.2544C178.848 85.3249 178.65 85.5785 178.65 85.8695C178.65 86.1826 178.422 86.4488 178.112 86.4962L177.801 86.5439C177.617 86.5721 177.428 86.5483 177.257 86.4751L174.505 85.3008C174.23 85.1833 173.91 85.2522 173.708 85.4726C173.564 85.6296 173.357 85.7131 173.144 85.6997L172.802 85.6783C172.28 85.6455 171.786 85.9189 171.537 86.3789C171.234 86.9377 170.58 87.2077 169.971 87.0261L169.774 86.9672C168.662 86.6356 167.578 87.5628 167.734 88.7127L167.866 89.6881C167.918 90.0724 167.834 90.4628 167.627 90.7911C167.213 91.4495 167.313 92.3078 167.869 92.8526L168.155 93.133C169.016 93.9774 169.014 95.3648 168.151 96.2072L167.782 96.5674C167.022 97.3089 165.785 97.2171 165.143 96.3716L165.068 96.273C164.904 96.0575 164.68 95.8957 164.424 95.8083C163.731 95.5717 162.974 95.9267 162.713 96.6113L161.862 98.846C161.759 99.1167 161.687 99.3982 161.647 99.6851L161.048 104.005C160.969 104.571 160.571 105.04 160.025 105.208C159.642 105.327 159.323 105.597 159.144 105.957L158.597 107.053C158.5 107.247 158.292 107.36 158.076 107.336L157.605 107.283C157.439 107.264 157.312 107.427 157.369 107.583C157.433 107.758 157.269 107.931 157.091 107.875L156.034 107.543C155.782 107.464 155.507 107.521 155.308 107.695L155.077 107.897C154.972 107.989 154.936 108.137 154.988 108.267C155.1 108.544 154.812 108.814 154.542 108.685L153.613 108.238C153.295 108.085 152.913 108.182 152.708 108.469L152.597 108.622C152.421 108.868 152.138 109.015 151.835 109.019L151.053 109.028C150.842 109.03 150.677 109.213 150.697 109.423L150.714 109.612C150.744 109.928 150.335 110.08 150.151 109.821C150.07 109.707 149.923 109.661 149.792 109.708L148.44 110.192C148.11 110.31 147.857 110.58 147.762 110.917C147.636 111.366 147.236 111.683 146.769 111.704L144.495 111.805C143.423 111.853 142.693 112.911 143.029 113.93C143.094 114.128 143.121 114.337 143.107 114.544L142.862 118.206C142.817 118.885 142.304 119.441 141.631 119.541C141.368 119.58 141.1 119.546 140.855 119.442L138.83 118.587C138.448 118.426 138.012 118.461 137.661 118.682C137.271 118.928 136.778 118.943 136.374 118.72L134.571 117.728C134.3 117.579 134.06 117.379 133.864 117.141L133.656 116.888C133.016 116.11 131.895 115.918 131.025 116.425C130.664 116.636 130.242 116.73 129.826 116.69L129.296 116.64C129.015 116.613 128.762 116.457 128.611 116.218L128.391 115.869C128.243 115.634 128.315 115.323 128.551 115.176C128.833 115.001 128.869 114.604 128.624 114.38L127.872 113.694C127.759 113.591 127.62 113.52 127.47 113.49L126.234 113.238C126.093 113.21 125.977 113.351 126.033 113.484C126.092 113.625 125.958 113.771 125.812 113.723L125.656 113.673C125.502 113.623 125.341 113.728 125.325 113.889L125.313 114C125.302 114.108 125.241 114.205 125.148 114.261L124.236 114.809C123.627 115.176 123.322 115.891 123.48 116.584L123.542 116.861C123.732 117.695 123.136 118.503 122.282 118.568L122.203 118.574C121.834 118.602 121.498 118.794 121.286 119.097C121.042 119.446 120.995 119.896 121.162 120.288L121.517 121.117C121.716 121.585 121.78 122.1 121.701 122.602L121.591 123.3C121.476 124.034 120.905 124.611 120.173 124.735L120.09 124.749C119.687 124.817 119.327 125.044 119.093 125.38C118.815 125.776 118.743 126.281 118.896 126.74L119.643 128.968C119.796 129.426 120.138 129.801 120.58 129.998C121.732 130.512 121.966 132.057 121.006 132.876C120.505 133.304 120.293 133.98 120.46 134.618L120.472 134.663C120.599 135.148 120.517 135.663 120.247 136.085L119.584 137.119C119.334 137.509 118.802 137.595 118.442 137.304C118.144 137.064 117.716 137.076 117.432 137.333L117.151 137.589C116.852 137.86 116.438 137.966 116.045 137.872L115.249 137.68C114.57 137.518 113.91 138.008 113.871 138.705C113.867 138.763 113.869 138.821 113.874 138.879L113.878 138.916C113.969 139.837 114.824 140.486 115.736 140.327L115.875 140.303C116.198 140.247 116.53 140.286 116.831 140.415C117.617 140.752 118.026 141.623 117.786 142.443L117.487 143.462C117.43 143.656 117.32 143.83 117.169 143.964L117.12 144.007C116.756 144.331 116.678 144.869 116.934 145.284C117.077 145.515 117.307 145.678 117.572 145.736L119.384 146.134C119.595 146.18 119.811 146.196 120.027 146.182L122.889 145.996C123.437 145.961 123.809 146.547 123.551 147.032C123.432 147.255 123.445 147.528 123.586 147.738C123.73 147.953 123.74 148.232 123.612 148.458L123.174 149.228C123.003 149.529 122.917 149.87 122.924 150.216L122.938 150.823C122.947 151.252 122.691 151.642 122.293 151.804C121.941 151.947 121.539 151.885 121.246 151.643L120.418 150.958C119.795 150.444 118.983 150.219 118.185 150.341L118.037 150.364C117.882 150.388 117.728 150.423 117.578 150.47L113.509 151.733C112.823 151.946 112.178 152.275 111.603 152.706L109.728 154.11C109.382 154.368 108.937 154.456 108.519 154.348L108.122 154.245C107.776 154.156 107.411 154.294 107.212 154.59C107.002 154.902 106.612 155.037 106.255 154.922L106.063 154.86C105.578 154.704 105.059 154.975 104.909 155.462L104.879 155.557C104.763 155.934 104.389 156.17 103.998 156.112C103.775 156.078 103.576 155.952 103.451 155.763L103.285 155.513C103.053 155.163 102.682 154.928 102.265 154.869L98.6082 154.351C97.9072 154.251 97.2024 154.505 96.7255 155.028L95.436 156.443C95.0678 156.847 94.4106 156.765 94.1536 156.282C94.0638 156.114 93.9159 155.983 93.7374 155.915L92.9138 155.601C91.9578 155.237 90.8843 155.36 90.0362 155.932L87.5357 157.62C87.3872 157.72 87.2649 157.855 87.1793 158.012C86.926 158.478 86.3802 158.701 85.873 158.547L83.314 157.768C82.7451 157.595 82.1385 157.589 81.5663 157.75L80.4666 158.061C80.007 158.191 79.5135 158.049 79.1924 157.696L78.7844 157.247C78.6432 157.091 78.4153 157.049 78.2283 157.145C78.0753 157.223 77.8917 157.211 77.7507 157.112L77.5513 156.973C77.1949 156.725 76.71 156.778 76.4149 157.096L74.8992 158.734C74.6713 158.98 74.3004 159.029 74.0162 158.851C73.8068 158.719 73.5435 158.708 73.324 158.822L72.9162 159.034C72.5282 159.235 72.2471 159.595 72.1466 160.021L71.0071 164.84C70.9194 165.21 70.7012 165.537 70.3925 165.76L70.011 166.036C69.7246 166.242 69.3381 166.255 69.0365 166.071C68.7327 165.885 68.3423 165.903 68.0594 166.119C67.9055 166.236 67.7955 166.402 67.747 166.589L67.6262 167.057C67.5294 167.431 67.3377 167.775 67.0698 168.054L64.8665 170.352C64.2582 170.986 64.1766 171.959 64.6707 172.686C65.0239 173.205 65.0912 173.868 64.8495 174.448L63.8274 176.901C63.6045 177.435 63.5977 178.036 63.8086 178.576C64.0484 179.189 64.5467 179.666 65.1705 179.879L66.1439 180.211C66.2986 180.264 66.422 180.383 66.4809 180.535C66.5872 180.81 66.4589 181.12 66.1894 181.239L65.2706 181.646C64.7172 181.892 64.3485 182.427 64.3168 183.032L64.2958 183.432C64.2772 183.787 64.1755 184.131 63.999 184.439L63.8455 184.707C63.2966 185.663 63.223 186.82 63.6462 187.838L63.7956 188.198C64.3214 189.463 64.2194 190.902 63.5204 192.08L62.3412 194.068C62.2431 194.234 62.218 194.432 62.2718 194.617C62.4174 195.117 61.9815 195.593 61.4707 195.492L60.2717 195.255C59.9436 195.191 59.6032 195.242 59.3091 195.402L58.5842 195.794C57.7227 196.26 56.7123 196.369 55.7715 196.096L53.9884 195.579L51.5086 194.465C51.0917 194.278 50.7646 193.935 50.5973 193.51L50.5127 193.295C50.1566 192.39 49.0671 192.03 48.2415 192.544C47.6899 192.887 46.983 192.852 46.4684 192.455L45.63 191.809C45.0183 191.337 44.1586 191.363 43.5766 191.871C43.2967 192.115 42.9413 192.256 42.57 192.269L41.6318 192.303C39.9477 192.363 38.3857 191.427 37.6453 189.913L35.5948 185.72C35.4652 185.455 35.2192 185.266 34.9298 185.209C34.5101 185.126 34.1986 184.771 34.171 184.344L34.1593 184.164C34.1329 183.757 33.8981 183.392 33.5384 183.2L32.95 182.886C32.2196 182.496 31.339 182.514 30.6252 182.933L29.7147 183.468C29.3168 183.702 28.8371 183.753 28.3993 183.606C28.0607 183.494 27.694 183.497 27.3577 183.617L26.873 183.789C26.539 183.908 26.2445 184.117 26.0224 184.394L25.587 184.935C25.3376 185.246 24.9194 185.364 24.5444 185.231C24.3859 185.175 24.2455 185.077 24.1379 184.948L23.7886 184.528C23.4635 184.138 23.2457 183.67 23.1566 183.169L23.0858 182.772C22.8757 181.593 22.0638 180.609 20.9455 180.179C20.6139 180.051 20.3042 179.873 20.0275 179.65L19.2627 179.034C18.3281 178.281 17.589 177.314 17.1083 176.214L16.6362 175.134C16.4981 174.818 16.433 174.475 16.4457 174.131C16.4717 173.428 16.8184 172.776 17.3863 172.362L17.9158 171.976C18.0504 171.877 18.2122 171.823 18.3788 171.821C18.9282 171.813 19.3085 171.269 19.1271 170.751L18.6921 169.507C18.5116 168.991 18.7046 168.418 19.1606 168.116C19.9145 167.617 19.8626 166.494 19.0658 166.067L17.0672 164.995C16.9909 164.954 16.9066 164.931 16.8202 164.926C16.4048 164.901 16.1414 164.47 16.3099 164.089L16.3792 163.933C16.4607 163.748 16.4607 163.539 16.3794 163.354L16.2045 162.958C15.9883 162.469 16.0161 161.906 16.2794 161.44L16.7573 160.595C17.1524 159.896 16.7825 159.013 16.0074 158.803L15.8693 158.766C15.5726 158.686 15.3328 158.468 15.2255 158.18C15.0667 157.753 14.628 157.499 14.1789 157.573L14.1316 157.581C13.7145 157.65 13.2987 157.451 13.0896 157.084L12.6946 156.39C12.5066 156.06 12.2346 155.785 11.9063 155.594L11.4825 155.347C11.1486 155.152 10.9228 154.815 10.8701 154.433C10.7725 153.724 10.1042 153.24 9.40054 153.367L8.45987 153.538C8.2583 153.575 8.05033 153.535 7.87686 153.426C7.5241 153.204 7.39342 152.753 7.57298 152.377L7.92935 151.631C8.14098 151.188 7.81378 150.677 7.32279 150.684C7.09407 150.687 6.88312 150.807 6.76481 151.003L6.35763 151.677C6.13093 152.052 5.59725 152.08 5.33257 151.731C5.18865 151.541 5.1663 151.285 5.27508 151.073L6.84291 148.017C6.87653 147.951 6.92867 147.897 6.99286 147.861C7.28453 147.697 7.23205 147.262 6.90967 147.172L6.26336 146.991C6.05213 146.932 5.8846 146.771 5.81722 146.562L5.73237 146.299C5.64815 146.038 5.65839 145.756 5.76129 145.502L5.83207 145.327C5.96986 144.987 6.2301 144.71 6.56151 144.553C7.01973 144.334 7.3327 143.895 7.38919 143.39L7.95694 138.32C8.02933 137.674 8.04233 137.022 7.99579 136.373L7.87616 134.705C7.78731 133.467 7.58942 132.239 7.28478 131.035L4.76602 121.082C4.54488 120.208 3.88893 119.51 3.03056 119.235L2.93719 119.205C2.3415 119.014 1.84522 118.596 1.55619 118.041L1.1586 117.278C0.79689 116.584 1.043 115.728 1.71821 115.332C1.95978 115.19 2.15582 114.983 2.28323 114.733L3.75972 111.843C4.15215 111.075 4.62251 110.349 5.16337 109.677L9.50861 104.278C9.96573 103.71 10.2653 103.032 10.3773 102.312L10.4183 102.047C10.4914 101.577 10.6741 101.131 10.9515 100.744L11.0895 100.552C11.4066 100.11 11.866 99.7914 12.3906 99.6485C12.7856 99.5409 13.146 99.3327 13.4365 99.0442L13.9988 98.4859C14.2968 98.19 14.559 97.8603 14.7801 97.5034L15.7574 95.9262C16.0661 95.4279 16.464 94.9909 16.9311 94.6369C17.5027 94.2038 17.9693 93.6474 18.2961 93.009L18.8199 91.9858C19.2254 91.1936 19.7975 90.4986 20.4969 89.9485L21.3151 89.305C21.9649 88.7939 22.4065 88.0638 22.5575 87.251L22.7252 86.349C22.8621 85.6122 23.4097 85.0193 24.1333 84.8244C24.569 84.707 24.9504 84.442 25.2123 84.0746L32.8648 73.3433L39.1836 66.2021C39.4622 65.8872 39.6474 65.5009 39.7184 65.0865L39.7253 65.0465C39.8542 64.2936 40.3666 63.6625 41.077 63.3818C41.413 63.249 41.7109 63.035 41.944 62.759L43.8837 60.4623C44.0704 60.2412 44.1683 59.9586 44.1583 59.6694L44.1395 59.1271C44.1255 58.7217 44.467 58.394 44.8716 58.4249C45.0338 58.4372 45.1951 58.3911 45.3262 58.2948L46.3688 57.5294C46.5343 57.4078 46.6906 57.2742 46.8365 57.1297L55.1147 48.9256C56.5682 47.4851 58.1616 46.193 59.8713 45.0685L62.6948 43.2114C64.0808 42.2998 65.2815 41.1338 66.2334 39.7752L67.7855 37.56C68.2699 36.8686 68.9492 36.3371 69.7367 36.0331C71.0413 35.5296 72.0148 34.4168 72.3406 33.0569L72.4963 32.4066C72.7131 31.5015 73.2138 30.6895 73.9251 30.0894C74.3621 29.7208 74.8673 29.4416 75.412 29.2679L78.2238 28.3713C79.4581 27.9776 80.729 27.7098 82.0172 27.5719L88.9034 26.8345C89.133 26.8099 89.3642 26.8043 89.5946 26.8177L91.6515 26.9371C92.5558 26.9896 93.3615 26.3702 93.5431 25.4828C93.6499 24.9611 93.9794 24.5122 94.4451 24.2541L94.7945 24.0604C95.3716 23.7404 95.811 23.2195 96.0292 22.5968L98.6003 15.2588C98.9619 14.2269 99.2305 13.1647 99.4029 12.0849L100.062 7.95673C100.135 7.49965 100.087 7.03142 99.9234 6.59856L99.7783 6.21561C99.6936 5.992 99.6747 5.74882 99.7238 5.5148L99.9292 4.53559C99.9829 4.27998 99.7917 4.03827 99.5306 4.03154C99.379 4.02763 99.2414 3.94198 99.171 3.80769L99.0176 3.51519C98.8919 3.2756 98.8708 2.99473 98.9592 2.73904L99.0586 2.45156Z" fill="#393939" stroke="#1D1D1D" stroke-width="2" stroke-linecap="round" stroke-linejoin="round"/>
</svg>
