<svg width="204" height="175" viewBox="0 0 204 175" fill="none" xmlns="http://www.w3.org/2000/svg">
<path d="M92.7518 162.999C93.849 163.592 95.073 163.911 96.32 163.93L98.3013 163.96C99.1065 163.972 99.9116 163.923 100.709 163.813L103.733 163.395C105.512 163.149 107.322 163.505 108.875 164.406L109.499 164.768C109.719 164.895 109.955 164.992 110.201 165.056L112.208 165.575C112.834 165.736 113.164 166.422 112.9 167.012C112.739 167.371 112.39 167.609 111.997 167.628L111.768 167.638C111.301 167.661 110.875 167.912 110.63 168.31L110.566 168.414C110.188 169.028 109.456 169.325 108.758 169.148L107.287 168.775C106.729 168.633 106.145 168.624 105.582 168.747L105.333 168.801C104.617 168.958 103.961 169.316 103.444 169.834L103.039 170.239C102.767 170.512 102.581 170.86 102.507 171.239L102.372 171.924C102.338 172.096 102.388 172.274 102.505 172.404L103.073 173.031C103.179 173.147 103.096 173.333 102.939 173.333C102.891 173.333 102.844 173.314 102.81 173.279L97.5925 167.963L96.2064 166.875C93.7096 164.915 91.4996 162.615 89.6407 160.042L89.4944 159.839L90.2296 160.822C90.9027 161.722 91.7633 162.465 92.7518 162.999ZM7.56277 11.2145C7.35712 10.3324 7.71709 9.41488 8.4677 8.90794L10.2027 7.7362C11.1878 7.07087 12.3703 6.76129 13.5551 6.85855L19.8157 7.37251C20.0328 7.39033 20.2241 7.5218 20.3186 7.71801C20.5121 8.1199 21.0561 8.18776 21.3425 7.84572L21.6504 7.47786C22.0087 7.04987 22.6618 7.03516 23.039 7.44659L23.734 8.20461C24.085 8.58756 24.5827 8.80267 25.1022 8.79598L28.1644 8.75654C28.5253 8.75189 28.8426 8.51641 28.9515 8.17232C29.0389 7.89636 29.2627 7.68515 29.5433 7.61383L30.5302 7.36298C30.8938 7.27057 31.0957 6.88204 30.9624 6.53137C30.8275 6.17651 31.036 5.78405 31.4055 5.6971L35.0255 4.84529C35.3132 4.77757 35.6049 4.9413 35.697 5.22221C35.7791 5.47275 36.0225 5.63414 36.2853 5.61232L39.1046 5.37809C39.7632 5.32338 40.3676 5.74441 40.5446 6.38106L40.6694 6.82993C40.7819 7.23465 41.1756 7.49439 41.592 7.4385L41.7542 7.41672C42.0687 7.3745 42.3065 7.11085 42.3161 6.79366L42.3304 6.31907C42.3419 5.94166 42.7946 5.75579 43.0679 6.0163C43.1572 6.10145 43.2784 6.1448 43.4015 6.13564L43.6616 6.11627C44.1492 6.07997 44.5944 6.39351 44.7246 6.86484L44.7743 7.04488C44.9579 7.70993 45.6452 8.10083 46.3106 7.91869L46.6272 7.83203C46.9547 7.7424 47.3052 7.80868 47.5774 8.01169C47.8863 8.2422 48.2933 8.29454 48.6506 8.14972L49.1425 7.9503C49.5772 7.77407 49.9054 7.40577 50.0305 6.95364C50.2019 6.33421 50.7466 5.89115 51.3879 5.84954L52.3189 5.78914C53.299 5.72555 53.9968 4.81016 53.7983 3.84816C53.6161 2.96484 54.1915 2.10311 55.0772 1.93287L57.8917 1.39191C58.1648 1.33942 58.4327 1.50442 58.5087 1.77194C58.5821 2.03028 58.8353 2.19447 59.1011 2.15611L63.8659 1.46844C64.1488 1.4276 64.4136 1.61724 64.466 1.89827C64.5068 2.1168 64.6789 2.28709 64.8978 2.32554L65.5197 2.43474C65.8729 2.49676 66.1904 2.688 66.4103 2.97123L67.5411 4.42751C67.7972 4.75736 67.8221 5.21143 67.6034 5.56725C67.3382 5.99889 67.4367 6.56056 67.8329 6.87624L68.1506 7.12934C68.3685 7.30295 68.6482 7.37937 68.9241 7.34069C69.4536 7.26646 69.9499 7.61562 70.0589 8.13904L70.3662 9.61452C70.6822 11.1315 72.2365 12.0463 73.7161 11.5861L75.6199 10.9939C76.1973 10.8143 76.8007 11.1851 76.9012 11.7815C76.9957 12.3423 77.5389 12.711 78.095 12.5919L79.6011 12.2695C79.7708 12.2331 79.9255 12.1464 80.0449 12.0205C80.4874 11.5543 81.2664 11.7204 81.4801 12.3267L81.538 12.4907C81.6995 12.9488 82.176 13.2159 82.6511 13.1147L83.1385 13.0108C83.3682 12.9619 83.5286 12.7536 83.5171 12.5189C83.5054 12.2783 83.6741 12.0664 83.9112 12.024L86.0269 11.6453C87.1967 11.4359 88.323 12.1877 88.5784 13.3483L88.7919 14.3186C88.9054 14.8343 88.6234 15.3552 88.1295 15.5421L88.0798 15.5609C87.789 15.671 87.5694 15.915 87.4906 16.2158L87.3305 16.826C87.2427 17.161 87.5091 17.4834 87.8547 17.4603C88.1105 17.4432 88.3388 17.6198 88.3865 17.8717L88.4027 17.9571C88.4814 18.3725 88.9511 18.5811 89.312 18.3609L89.3254 18.3527C89.4835 18.2563 89.5897 18.0939 89.6148 17.9105L89.6193 17.878C89.664 17.5515 89.9349 17.3031 90.2641 17.287L90.8821 17.2567C91.7208 17.2155 92.3437 16.4641 92.2285 15.6323L92.0068 14.0307C91.9575 13.6746 92.204 13.3451 92.5595 13.292C92.7985 13.2562 93.0378 13.3548 93.1823 13.5485L93.2189 13.5975C93.4365 13.8892 93.8306 13.9852 94.158 13.8262L94.2161 13.798C94.4922 13.6639 94.6727 13.3894 94.6863 13.0827L94.7073 12.6109C94.7412 11.8497 95.298 11.2135 96.048 11.0792L97.0979 10.8912C97.6702 10.7887 98.23 11.1254 98.4078 11.6789C98.5789 12.2119 99.1061 12.5468 99.6613 12.4753L100.429 12.3763C101.155 12.2829 101.839 12.7349 102.038 13.4388C102.243 14.1651 102.963 14.6195 103.707 14.4922L104.725 14.3179C106.167 14.0711 107.532 15.0511 107.76 16.4963L107.944 17.6669C108.12 18.7829 107.407 19.8462 106.308 20.108L105.585 20.2805C105.15 20.3842 104.823 20.745 104.764 21.1882C104.749 21.3002 104.752 21.4139 104.772 21.5252L105.906 27.7535C106.027 28.4162 106.815 28.7056 107.336 28.2784L107.623 28.043C107.79 27.906 108.031 27.9093 108.194 28.0507C108.297 28.1393 108.434 28.1764 108.567 28.1514L110.115 27.8605C111.392 27.6207 112.611 28.4922 112.797 29.7775L113.025 31.3442C113.089 31.7859 113.51 32.0838 113.947 31.9973C114.402 31.9074 114.834 32.2315 114.875 32.6931L115.175 36.0609C115.223 36.5989 114.815 37.0692 114.275 37.0975C113.791 37.1228 113.403 37.5078 113.374 37.9919L113.326 38.7842C113.311 39.0197 113.361 39.2547 113.469 39.4646L113.507 39.5392C113.883 40.2717 113.461 41.1615 112.656 41.3339C111.994 41.4757 111.565 42.1191 111.688 42.7852L111.763 43.1895C111.925 44.0627 112.741 44.6572 113.622 44.5443L120.151 43.7067C120.488 43.6635 120.729 43.3604 120.695 43.0228C120.661 42.6852 120.903 42.3821 121.239 42.3389L126.317 41.6873C126.679 41.6408 127.026 41.8498 127.153 42.1918L127.172 42.2413C127.283 42.539 127.577 42.7277 127.894 42.7045C128.202 42.6819 128.489 42.8591 128.607 43.1441L129.08 44.2868C129.221 44.6272 129.57 44.8337 129.936 44.7938C130.38 44.7454 130.783 45.0573 130.847 45.4993L131.048 46.889C131.096 47.2263 131.408 47.4613 131.746 47.4153L131.769 47.4122C131.987 47.3824 132.204 47.4786 132.329 47.6607L132.341 47.6785C132.556 47.9919 133.012 48.0101 133.251 47.7148L133.397 47.534C133.605 47.2771 134.013 47.3394 134.134 47.6467C134.211 47.8397 134.414 47.9511 134.618 47.9117L137.313 47.3909C138.168 47.2258 138.736 46.4092 138.592 45.5504L138.455 44.7311C138.393 44.36 138.629 44.0042 138.995 43.917C139.323 43.8389 139.552 43.5428 139.545 43.2059L139.537 42.8111C139.525 42.2438 139.911 41.7451 140.462 41.6135L142.212 41.1965C143.216 40.9574 144.274 41.1818 145.093 41.8077L147.033 43.2886C147.74 43.8285 148.665 43.9936 149.515 43.732L151.279 43.1893C151.672 43.0685 152.091 43.2727 152.238 43.6563C152.359 43.9729 152.671 44.175 153.009 44.1568L153.512 44.1297L166.828 41.5768C167.551 41.4382 168.173 40.9813 168.522 40.3329L169.337 38.818C169.489 38.5357 169.396 38.184 169.124 38.0138C168.981 37.9243 168.882 37.7796 168.849 37.614L168.733 37.0148C168.659 36.6311 168.915 36.2615 169.301 36.1976C169.681 36.1346 169.937 35.7742 169.871 35.3946L169.563 33.6103C169.496 33.2232 169.138 32.9518 168.747 32.9842C168.359 33.0164 168.005 32.7442 167.944 32.3594C167.88 31.9583 168.15 31.5804 168.55 31.5103L172.95 30.7393C173.546 30.6347 173.906 30.019 173.704 29.4478C173.543 28.9908 173.072 28.7205 172.596 28.812L172.284 28.8718C171.5 29.0225 170.757 28.4621 170.687 27.6665L170.654 27.2911C170.576 26.4095 171.192 25.6173 172.065 25.4756L176.316 24.7862C176.887 24.6936 177.45 24.9913 177.695 25.5153C177.94 26.0392 178.503 26.3369 179.073 26.2444L181.688 25.8207C183.072 25.5963 184.033 24.3183 183.863 22.9258L183.787 22.3075C183.772 22.1777 183.716 22.0559 183.629 21.9586C183.26 21.5485 183.551 20.8953 184.103 20.8953H185.569C185.733 20.8953 185.857 20.7471 185.828 20.5859C185.802 20.447 185.892 20.3131 186.03 20.2827L187.242 20.016C187.481 19.9635 187.731 20.0231 187.92 20.1779C188.167 20.3797 188.511 20.4155 188.794 20.2691L189.169 20.0752C190.052 19.6194 191.12 20.1698 191.261 21.1528L191.727 24.3971C191.788 24.8222 191.705 25.2556 191.491 25.6282C191.249 26.0504 191.175 26.5488 191.286 27.0229L191.9 29.6571C191.959 29.9091 191.823 30.1659 191.581 30.2589C191.298 30.3683 191.168 30.6974 191.302 30.9708L191.676 31.737C191.809 32.0081 192.032 32.2247 192.306 32.3497L192.358 32.3729C192.626 32.4952 192.926 32.5329 193.216 32.4812L195.096 32.1469C196.122 31.9644 197.088 32.6872 197.203 33.7229L197.294 34.5394C197.33 34.8604 197.147 35.1658 196.848 35.2866C196.531 35.4142 196.348 35.7466 196.408 36.0825L196.942 39.0289C197.027 39.4976 196.74 39.9537 196.282 40.081C195.833 40.2055 195.548 40.6447 195.617 41.105L196.053 44.0312C196.106 44.3855 195.917 44.7319 195.591 44.8794C195.242 45.0366 195.054 45.418 195.14 45.7903L195.339 46.648C195.385 46.848 195.548 47.0002 195.75 47.0333C195.971 47.0694 196.142 47.246 196.171 47.4678L196.251 48.0824C196.339 48.7584 195.905 49.3925 195.243 49.5554L193.098 50.0834C191.168 50.5585 189.927 52.437 190.248 54.3985L191.226 60.3841C191.282 60.7294 191.168 61.0805 190.919 61.326C190.212 62.0223 190.741 63.2232 191.732 63.1705L196.073 62.9397C197.07 62.8866 197.893 63.7103 197.839 64.7076L197.897 67.6958C197.916 68.6715 198.975 69.2692 199.82 68.7815L200.523 68.3761C200.786 68.2243 201.123 68.327 201.256 68.5999C201.28 68.6483 201.296 68.7001 201.304 68.7535L201.486 69.9757C201.563 70.4973 201.3 71.0104 200.831 71.2516C200.379 71.4841 200.116 71.9708 200.169 72.4765L200.745 77.9003C200.87 79.0789 200.041 80.1458 198.868 80.3163C197.58 80.5035 196.411 79.5404 196.348 78.2402L196.219 75.603C196.201 75.2321 195.827 74.9865 195.48 75.1177C195.26 75.2006 195.118 75.4141 195.126 75.6485L195.146 76.2231C195.162 76.6861 194.865 77.1021 194.422 77.2373C193.973 77.3741 193.675 77.7986 193.698 78.2671L193.933 82.9611C193.938 83.0723 193.966 83.1814 194.013 83.2822C194.174 83.6254 194.542 83.8218 194.917 83.7648L196.988 83.4497C198.643 83.198 200.192 84.3293 200.455 85.9829L200.627 87.0654C200.745 87.8071 200.344 88.5342 199.654 88.83C199.034 89.0955 198.64 89.7132 198.661 90.387L198.727 92.5672C198.738 92.9351 199.048 93.2229 199.416 93.2073C199.571 93.2007 199.724 93.2491 199.847 93.3442L200.884 94.1439C200.981 94.2184 201.071 94.3009 201.154 94.3907L202.319 95.6563C202.997 96.3929 202.572 97.5878 201.581 97.7309L201.489 97.7441C200.962 97.8203 200.559 98.2544 200.523 98.786L200.506 99.0422C200.492 99.2401 200.575 99.4333 200.726 99.5612C201.046 99.8313 201.014 100.336 200.661 100.56C200.534 100.641 200.382 100.673 200.234 100.65L199.958 100.608C199.562 100.547 199.212 100.315 199.002 99.9737L198.809 99.66C198.502 99.1602 197.928 98.8897 197.347 98.971L197.227 98.9879C196.578 99.0786 196.092 99.626 196.078 100.28C196.068 100.736 195.826 101.156 195.436 101.392L194.307 102.077C194.158 102.167 194.075 102.336 194.096 102.509C194.13 102.802 193.875 103.046 193.584 103.001L192.952 102.902C192.787 102.876 192.645 102.772 192.569 102.623L192.143 101.778C192.068 101.63 191.849 101.656 191.812 101.818C191.794 101.899 191.722 101.956 191.639 101.956H190.237C189.342 101.956 188.563 102.569 188.353 103.439L188.248 103.872C188.167 104.208 188.017 104.523 187.808 104.798L187.083 105.754C185.985 107.199 185.71 109.108 186.354 110.804C186.781 111.929 187.581 112.874 188.621 113.48L193.668 116.426C195.086 117.253 195.511 119.104 194.598 120.468C193.788 121.675 192.198 122.078 190.911 121.402L189.072 120.435C188.586 120.18 187.993 120.246 187.575 120.603C187.162 120.956 187.003 121.523 187.171 122.039L187.893 124.257C188.052 124.745 188.531 125.056 189.041 125.003L189.338 124.972C189.727 124.932 190.083 125.193 190.161 125.576C190.25 126.011 189.949 126.43 189.509 126.483L187.197 126.766C186.755 126.82 186.446 127.23 186.515 127.67C186.58 128.082 186.312 128.474 185.904 128.562L181.579 129.496C181.009 129.619 180.626 130.157 180.696 130.737L180.699 130.763C180.746 131.15 180.996 131.482 181.355 131.633C181.543 131.712 181.75 131.737 181.951 131.703L185.032 131.198C185.495 131.122 185.935 131.427 186.025 131.888C186.115 132.349 186.556 132.655 187.019 132.578L187.384 132.518C187.682 132.468 187.964 132.669 188.014 132.967C188.064 133.265 187.864 133.547 187.567 133.599L179.178 135.045C178.975 135.08 178.82 135.244 178.796 135.449C178.772 135.664 178.603 135.833 178.388 135.857L176.337 136.089C176.15 136.11 175.995 136.242 175.944 136.422C175.852 136.749 175.451 136.868 175.196 136.644L175.184 136.634C175.079 136.542 174.94 136.501 174.802 136.522L172.889 136.811C171.816 136.973 170.817 136.228 170.666 135.153C170.525 134.139 169.622 133.407 168.6 133.478L164.129 133.788C163.572 133.827 163.048 133.52 162.809 133.015L162.724 132.834C162.518 132.399 162.051 132.151 161.575 132.224L161.103 132.297C160.769 132.348 160.458 132.119 160.407 131.785L160.372 131.555C160.341 131.355 160.157 131.216 159.957 131.242C159.747 131.269 159.602 131.467 159.639 131.676L160.034 133.866C160.079 134.116 159.918 134.357 159.67 134.411C159.422 134.464 159.261 134.704 159.305 134.954L159.429 135.655C159.55 136.339 159.072 136.984 158.383 137.069L156.598 137.289C155.94 137.37 155.33 136.929 155.202 136.278C155.07 135.611 154.435 135.168 153.763 135.273L149.945 135.872C149.058 136.011 148.451 136.841 148.586 137.728L148.635 138.044C148.75 138.799 148.206 139.495 147.446 139.567C147.162 139.594 146.877 139.528 146.633 139.381L140.769 135.828C140.209 135.489 139.568 136.129 139.908 136.69C140.099 137.006 139.977 137.418 139.644 137.579L138.751 138.011C138.159 138.298 137.816 138.931 137.9 139.584L137.946 139.943C138.08 140.993 137.386 141.971 136.35 142.191L135.439 142.384C135.111 142.453 134.842 142.686 134.726 143.001C134.604 143.331 134.314 143.57 133.966 143.626L131.458 144.031C131.215 144.071 130.966 144.003 130.777 143.845C130.571 143.674 130.296 143.61 130.035 143.672L127.927 144.171C127.479 144.277 127.202 144.725 127.306 145.173L127.38 145.492C127.437 145.735 127.671 145.894 127.917 145.857C128.178 145.818 128.422 145.998 128.462 146.259L128.771 148.28C128.917 149.232 128.265 150.123 127.313 150.27L125.065 150.62C124.787 150.663 124.654 150.987 124.822 151.214C125.001 151.453 124.84 151.795 124.542 151.811L122.821 151.904C122.548 151.918 122.309 152.093 122.212 152.349C122.103 152.636 121.818 152.816 121.512 152.793L118.625 152.571C117.487 152.483 116.391 153.026 115.771 153.985C115.415 154.537 114.892 154.962 114.279 155.199L110.45 156.679C109.712 156.964 108.877 156.804 108.297 156.267C107.981 155.974 107.581 155.787 107.153 155.732L105.673 155.543C105.095 155.469 104.529 155.32 103.989 155.1L102.05 154.311C101.119 153.932 100.127 153.727 99.1221 153.707L98.2477 153.689C97.2915 153.67 96.3489 153.919 95.5264 154.407L95.0285 154.703C94.6694 154.916 94.3651 155.21 94.1396 155.561L93.845 156.021C93.1476 157.108 91.6651 157.358 90.65 156.559C90.4467 156.399 90.2166 156.276 89.9704 156.196L89.0555 155.9C88.4485 155.704 87.8192 155.585 87.1824 155.547L84.307 155.373C83.9037 155.349 83.5067 155.482 83.1998 155.745C82.8737 156.024 82.4468 156.156 82.02 156.11L81.1008 156.011C80.4374 155.94 79.7971 156.279 79.4827 156.867C79.1249 157.537 78.3531 157.873 77.6191 157.678L75.335 157.071C74.8951 156.954 74.4403 156.902 73.9854 156.918L71.5861 157.003C71.1042 157.02 70.6243 156.933 70.179 156.748L68.0546 155.865C67.5054 155.636 67.2472 155.005 67.4793 154.457L67.7369 153.849C67.8097 153.677 67.7381 153.478 67.5725 153.392C67.3186 153.26 67.3148 152.898 67.5659 152.761L67.6988 152.688C67.9916 152.528 68.0053 152.113 67.7236 151.934L67.2994 151.664C67.0544 151.508 66.924 151.223 66.9665 150.936L67.2113 149.285C67.3455 148.38 67.0984 147.46 66.5291 146.743L66.0794 146.178C65.4155 145.343 65.3853 144.169 66.0054 143.3C66.5485 142.54 66.5989 141.533 66.1344 140.722L65.7619 140.072C65.4094 139.457 65.2543 138.748 65.3176 138.042L65.3775 137.372C65.4548 136.509 65.0497 135.674 64.3242 135.2L63.9908 134.983C63.7669 134.837 63.5005 134.77 63.2341 134.793C62.7011 134.84 62.2021 134.526 62.0133 134.026L61.3382 132.235C61.0781 131.545 60.6184 130.948 60.0179 130.52L59.1606 129.909C58.9634 129.769 58.7314 129.685 58.4899 129.667C57.9256 129.626 57.4502 129.23 57.3071 128.683L56.7603 126.591C56.3585 125.054 57.2833 123.483 58.8223 123.089L60.4006 122.684C60.6615 122.617 60.8498 122.39 60.8671 122.121C60.8856 121.833 61.1004 121.595 61.3855 121.548L63.4826 121.197C63.7986 121.144 64.114 121.294 64.2723 121.573C64.4296 121.85 64.7421 122 65.0565 121.95L69.9541 121.167C70.7737 121.036 71.2786 120.2 71.0127 119.413C70.7563 118.655 71.2171 117.842 71.9995 117.673L72.6653 117.529C72.8431 117.491 73.0269 117.489 73.2055 117.523L73.4569 117.572C74.1299 117.701 74.7618 117.205 74.7951 116.52L74.8169 116.071C74.8266 115.871 74.9595 115.698 75.1502 115.638C75.3833 115.564 75.5231 115.326 75.4744 115.086L74.9918 112.712C74.958 112.545 75.0433 112.377 75.1978 112.306C75.3603 112.232 75.4451 112.051 75.3984 111.878L73.3912 104.462C73.281 104.055 72.8809 103.797 72.4644 103.864L72.3411 103.884C72.0679 103.928 71.7968 103.794 71.666 103.55C71.5317 103.3 71.2506 103.166 70.9718 103.22L69.3251 103.536C68.9049 103.617 68.5724 103.939 68.4782 104.356C68.368 104.844 67.9358 105.192 67.4354 105.195L64.1279 105.217C63.1775 105.223 62.3988 104.464 62.3808 103.514L62.3588 102.351C62.3553 102.168 62.4857 102.009 62.6663 101.977C62.8551 101.943 63.0388 102.058 63.091 102.242L63.1721 102.529C63.2691 102.871 63.6076 103.087 63.9593 103.03L64.3804 102.962C65.0464 102.854 65.4869 102.211 65.3469 101.551L65.0891 100.336C64.9604 99.7291 65.3431 99.1313 65.9482 98.9943C66.4939 98.8707 66.868 98.3676 66.8293 97.8094L66.7781 97.069C66.6923 95.8309 65.5114 94.9689 64.306 95.2644L57.7132 96.8811C56.8547 97.0916 55.9841 96.583 55.746 95.7318L55.4991 94.8493C55.4223 94.5747 55.1559 94.3977 54.8729 94.4334C54.4592 94.4856 54.1291 94.0942 54.2503 93.6952L54.2939 93.5517C54.4412 93.0672 54.0205 92.5999 53.5232 92.6956L50.5902 93.2603C49.429 93.4839 48.2959 92.76 48.0106 91.6125L47.6445 90.1398C47.5686 89.8344 47.2691 89.6398 46.9592 89.6945C46.6535 89.7485 46.3573 89.5601 46.2767 89.2604L46.207 89.0012C46.0957 88.5876 46.2941 88.1534 46.6796 87.9667L47.7911 87.4284C48.1977 87.2315 48.3759 86.7483 48.1945 86.3346L48.1389 86.2077C48.0282 85.9553 47.7696 85.8009 47.4948 85.8232C47.2053 85.8467 46.9356 85.674 46.8358 85.4012L46.7346 85.1247C46.7128 85.0652 46.6966 85.0037 46.686 84.9412L46.2887 82.5811C46.226 82.2085 46.4655 81.852 46.8341 81.7693C47.2258 81.6815 47.4671 81.287 47.367 80.8983L47.2488 80.4396C47.0988 79.8575 46.5322 79.4838 45.9381 79.5752L45.6615 79.6177C45.0302 79.7148 44.4539 79.2437 44.4235 78.6057L44.4059 78.236C44.3907 77.9174 44.6107 77.6354 44.9234 77.5727C45.2627 77.5046 45.4879 77.181 45.4338 76.8392L44.8238 72.9851C44.7332 72.413 45.1062 71.8702 45.6727 71.7496C46.2627 71.624 46.6383 71.0428 46.5103 70.4533L46.3242 69.5957C46.1507 68.7963 45.3844 68.2705 44.5761 68.396L43.8557 68.5079C43.5282 68.5588 43.2117 68.3665 43.1061 68.0524C43.0107 67.7691 42.7417 67.5811 42.4429 67.5891L40.2568 67.6469C39.6448 67.6631 39.046 67.4675 38.5617 67.0932C38.0794 66.7204 37.74 66.1932 37.6003 65.5999L37.5941 65.5738C37.4936 65.0845 37.8083 64.6062 38.2975 64.5049L38.6374 64.4344C39.2623 64.305 39.6901 63.7266 39.6311 63.0912L39.4703 61.361C39.4202 60.8217 39.6089 60.2876 39.9866 59.8994L40.3583 59.5175C40.5615 59.3087 40.6457 59.0115 40.5825 58.7271C40.4813 58.2727 40.0383 57.98 39.5806 58.0654L36.4166 58.6552C35.6131 58.805 35.1062 59.606 35.3149 60.3963C35.5138 61.1497 35.0621 61.9211 34.3078 62.1163L32.7357 62.5232C32.663 62.5421 32.5882 62.5516 32.513 62.5516C31.989 62.5516 31.5787 62.1004 31.6285 61.5786L31.667 61.1748C31.7502 60.3027 30.9384 59.615 30.0919 59.8403L29.2545 60.0632C28.9499 60.1442 28.631 59.9959 28.4967 59.7108C28.3713 59.4446 28.0832 59.2953 27.7935 59.3464L20.0259 60.7158C19.3906 60.8278 18.7783 60.4243 18.6307 59.7963C18.4835 59.1704 17.8746 58.7672 17.2409 58.8759L16.8861 58.9368C16.0273 59.0842 15.2086 58.5168 15.045 57.6609L13.3871 48.9835C13.2565 48.3001 13.6555 47.6265 14.3176 47.4126L14.4503 47.3697C15.0649 47.1711 15.421 46.5309 15.2657 45.9041L15.1276 45.3469C15.0252 44.9336 15.3045 44.5229 15.7266 44.4662L15.8035 44.4559C16.1246 44.4128 16.3605 44.133 16.3488 43.8092L16.3399 43.5611C16.3337 43.3903 16.2028 43.25 16.0329 43.232C15.8845 43.2163 15.7632 43.1065 15.7329 42.9604L15.6058 42.3488C15.4784 41.7351 14.9001 41.323 14.2785 41.4028L12.2448 41.6637C10.463 41.8924 8.80864 40.7013 8.46031 38.9389L7.03805 31.7431C7.00089 31.5551 7.05526 31.3606 7.18452 31.2191C7.38122 31.0038 7.3958 30.6787 7.21916 30.4467L6.19762 29.1049C5.98033 28.8194 5.70681 28.5816 5.39398 28.406L4.18023 27.7249C3.69338 27.4517 3.43731 26.8965 3.54557 26.3488C3.59827 26.0822 3.56548 25.8058 3.45188 25.5589L2.58881 23.6832C2.32332 23.1062 2.56498 22.4227 3.13414 22.1408C3.70951 21.8558 3.94911 21.1614 3.67191 20.5822L2.79227 18.7444C2.73061 18.6156 2.63213 18.5079 2.50929 18.4351L2.07709 18.1787C1.65791 17.9301 1.76761 17.2953 2.24591 17.2018C2.38028 17.1755 2.49929 17.0983 2.57805 16.9863L3.15137 16.1711C3.47939 15.7047 4.0441 15.4653 4.60739 15.554L5.27257 15.6587C5.62598 15.7143 5.96652 15.5017 6.07168 15.1597L6.12292 14.9931C6.18729 14.7838 6.38302 14.6428 6.60196 14.648L7.93242 14.68C8.10988 14.6843 8.17298 14.447 8.01686 14.3625C7.94278 14.3225 7.90954 14.234 7.93893 14.155L7.97329 14.0627C8.04049 13.8822 8.26472 13.8206 8.41474 13.9413L8.78123 14.2363C8.93095 14.3569 9.12801 14.4013 9.31497 14.3568L10.3621 14.1072C10.6163 14.0466 10.7957 13.8195 10.7957 13.5582C10.7957 13.2738 10.5843 13.0339 10.3022 12.9982L9.18192 12.8563C8.41614 12.7593 7.79158 12.196 7.61633 11.4443L7.56277 11.2145Z" fill="#2969F6" stroke="#1D1D1D" stroke-width="2" stroke-linecap="round" stroke-linejoin="round"/>
</svg>
