<svg width="213" height="289" viewBox="0 0 213 289" fill="none" xmlns="http://www.w3.org/2000/svg">
<path d="M107.272 3.87812C107.439 3.68252 107.738 3.67208 107.918 3.85555L108.151 4.09225C108.358 4.30254 108.669 4.37066 108.945 4.26584L110.72 3.59098C111.494 3.29699 112.367 3.4716 112.968 4.04034C113.961 4.98027 115.567 4.76992 116.284 3.60595L116.815 2.74426C117.338 1.89669 118.424 1.59333 119.31 2.04761L120.113 2.4596C120.438 2.62608 120.835 2.54517 121.068 2.26485C121.409 1.85643 122.049 1.90072 122.33 2.3521L122.838 3.16892C123.015 3.45476 123.09 3.79282 123.049 4.12695L122.972 4.75386C122.896 5.38066 123.373 5.93824 124.004 5.95875C124.379 5.97091 124.719 6.17686 124.904 6.50242L125.509 7.56835C125.952 8.34743 126.695 8.91026 127.565 9.12469L128.798 9.42884C129.371 9.57007 129.977 9.41453 130.411 9.01468C130.743 8.709 131.179 8.54251 131.63 8.54963L133.607 8.58086C134.254 8.59108 134.897 8.69504 135.514 8.88947L138.047 9.68699C138.654 9.87804 139.308 9.85526 139.9 9.62245C140.359 9.44207 140.858 9.38685 141.345 9.46243L141.732 9.52254C142.624 9.66091 143.344 10.3243 143.554 11.2017L143.614 11.4526C143.794 12.2012 144.418 12.7605 145.182 12.8572L146.307 12.9997C146.589 13.0354 146.801 13.2754 146.801 13.5597C146.801 13.821 146.621 14.0482 146.367 14.1088L145.32 14.3583C145.133 14.4029 144.936 14.3584 144.786 14.2379L144.42 13.9429C144.27 13.8221 144.045 13.8838 143.978 14.0643L143.944 14.1566C143.915 14.2355 143.948 14.324 144.022 14.3641C144.178 14.4485 144.115 14.6858 143.937 14.6815L142.607 14.6496C142.388 14.6443 142.192 14.7853 142.128 14.9946L142.077 15.1613C141.971 15.5032 141.631 15.7158 141.278 15.6602L140.612 15.5555C140.049 15.4669 139.484 15.7062 139.156 16.1726L138.583 16.9878C138.504 17.0998 138.385 17.177 138.251 17.2033C137.773 17.2968 137.663 17.9317 138.082 18.1803L138.514 18.4366C138.637 18.5095 138.736 18.6171 138.797 18.7459L139.677 20.5838C139.954 21.1629 139.714 21.8573 139.139 22.1423C138.57 22.4242 138.328 23.1077 138.594 23.6847L139.457 25.5604C139.57 25.8073 139.603 26.0838 139.551 26.3504C139.442 26.898 139.698 27.4532 140.185 27.7264L141.399 28.4076C141.712 28.5831 141.985 28.821 142.203 29.1064L143.224 30.4482C143.401 30.6802 143.386 31.0054 143.189 31.2207C143.06 31.3621 143.006 31.5566 143.043 31.7446L144.465 38.9404C144.814 40.7028 146.468 41.8939 148.25 41.6653L150.283 41.4043C150.905 41.3246 151.483 41.7367 151.611 42.3503L151.738 42.9619C151.768 43.1081 151.889 43.2178 152.038 43.2336C152.208 43.2516 152.339 43.3918 152.345 43.5626L152.354 43.8107C152.366 44.1345 152.13 44.4143 151.808 44.4574L151.732 44.4677C151.309 44.5244 151.03 44.9351 151.133 45.3485L151.271 45.9056C151.426 46.5325 151.07 47.1726 150.455 47.3712L150.323 47.4141C149.661 47.628 149.262 48.3017 149.392 48.9851L151.05 57.6624C151.214 58.5183 152.032 59.0857 152.891 58.9383L153.246 58.8774C153.88 58.7687 154.488 59.172 154.636 59.7979C154.783 60.4259 155.396 60.8293 156.031 60.7173L163.798 59.348C164.088 59.2969 164.376 59.4462 164.502 59.7123C164.636 59.9974 164.955 60.1457 165.259 60.0647L166.097 59.8418C166.943 59.6165 167.755 60.3042 167.672 61.1763L167.633 61.5802C167.584 62.1019 167.994 62.5531 168.518 62.5531C168.593 62.5531 168.668 62.5436 168.741 62.5248L170.313 62.1179C171.067 61.9226 171.519 61.1512 171.32 60.3978C171.111 59.6076 171.618 58.8066 172.422 58.6568L175.586 58.0669C176.043 57.9816 176.486 58.2742 176.587 58.7287C176.651 59.0131 176.566 59.3102 176.363 59.519L175.992 59.9009C175.614 60.2891 175.425 60.8232 175.475 61.3625L175.636 63.0927C175.695 63.7281 175.267 64.3065 174.642 64.436L174.302 64.5064C173.813 64.6078 173.499 65.086 173.599 65.5753L173.605 65.6015C173.745 66.1947 174.084 66.722 174.567 67.0947C175.051 67.4691 175.65 67.6647 176.262 67.6485L178.448 67.5906C178.747 67.5827 179.016 67.7706 179.111 68.0539C179.217 68.368 179.533 68.5603 179.861 68.5095L180.581 68.3976C181.389 68.272 182.156 68.7979 182.329 69.5973L182.515 70.4548C182.643 71.0443 182.268 71.6255 181.678 71.7511C181.111 71.8717 180.738 72.4146 180.829 72.9866L181.439 76.8407C181.493 77.1825 181.268 77.5061 180.928 77.5742C180.616 77.637 180.396 77.9189 180.411 78.2375L180.428 78.6073C180.459 79.2452 181.035 79.7163 181.666 79.6192L181.943 79.5767C182.537 79.4854 183.104 79.8591 183.254 80.4411L183.372 80.8998C183.472 81.2885 183.231 81.683 182.839 81.7709C182.47 81.8536 182.231 82.2101 182.294 82.5826L182.691 84.9427C182.702 85.0053 182.718 85.0667 182.74 85.1263L182.841 85.4027C182.941 85.6756 183.21 85.8482 183.5 85.8247C183.775 85.8024 184.033 85.9568 184.144 86.2093L184.199 86.3361C184.381 86.7499 184.203 87.233 183.796 87.4299L182.685 87.9682C182.299 88.1549 182.101 88.5892 182.212 89.0027L182.282 89.2619C182.362 89.5616 182.658 89.75 182.964 89.6961C183.274 89.6414 183.574 89.8359 183.649 90.1414L184.016 91.614C184.301 92.7616 185.434 93.4854 186.595 93.2619L189.528 92.6972C190.025 92.6014 190.446 93.0688 190.299 93.5533L190.255 93.6967C190.134 94.0957 190.464 94.4872 190.878 94.435C191.161 94.3993 191.427 94.5762 191.504 94.8509L191.751 95.7333C191.989 96.5845 192.86 97.0932 193.718 96.8827L200.311 95.266C201.516 94.9704 202.697 95.8324 202.783 97.0706L202.834 97.811C202.873 98.3692 202.499 98.8722 201.953 98.9958C201.348 99.1329 200.965 99.7307 201.094 100.338L201.352 101.553C201.492 102.213 201.051 102.856 200.385 102.964L199.964 103.032C199.613 103.089 199.274 102.873 199.177 102.53L199.096 102.244C199.044 102.059 198.86 101.944 198.671 101.978C198.491 102.01 198.36 102.169 198.364 102.353L198.386 103.515C198.404 104.466 199.182 105.225 200.133 105.218L203.44 105.197C203.941 105.193 204.373 104.846 204.483 104.358C204.577 103.94 204.91 103.618 205.33 103.538L206.977 103.221C207.256 103.168 207.537 103.302 207.671 103.552C207.802 103.796 208.073 103.93 208.346 103.886L208.469 103.866C208.886 103.798 209.286 104.057 209.396 104.464L211.403 111.88C211.45 112.052 211.365 112.233 211.203 112.308C211.048 112.379 210.963 112.547 210.997 112.713L211.479 115.087C211.528 115.327 211.388 115.565 211.155 115.639C210.964 115.7 210.832 115.872 210.822 116.072L210.8 116.522C210.767 117.206 210.135 117.703 209.462 117.573L209.21 117.525C209.032 117.49 208.848 117.492 208.67 117.531L208.004 117.675C207.222 117.844 206.761 118.657 207.018 119.415C207.284 120.201 206.779 121.038 205.959 121.168L201.061 121.951C200.747 122.001 200.435 121.851 200.277 121.574C200.119 121.296 199.804 121.146 199.488 121.199L197.39 121.549C197.105 121.597 196.891 121.834 196.872 122.123C196.855 122.392 196.667 122.619 196.406 122.686L194.827 123.09C193.288 123.485 192.363 125.056 192.765 126.593L193.312 128.684C193.455 129.232 193.931 129.628 194.495 129.669C194.736 129.687 194.968 129.77 195.166 129.911L196.023 130.522C196.623 130.95 197.083 131.547 197.343 132.237L198.018 134.027C198.207 134.528 198.706 134.842 199.239 134.795C199.505 134.771 199.772 134.838 199.996 134.984L200.329 135.202C201.055 135.675 201.46 136.511 201.382 137.374L201.323 138.043C201.259 138.75 201.414 139.458 201.767 140.074L202.139 140.724C202.604 141.535 202.553 142.542 202.01 143.302C201.39 144.17 201.42 145.344 202.084 146.179L202.534 146.745C203.103 147.461 203.35 148.381 203.216 149.286L202.971 150.937C202.929 151.225 203.059 151.51 203.304 151.666L203.729 151.935C204.01 152.114 203.997 152.53 203.704 152.69L203.571 152.763C203.32 152.9 203.324 153.262 203.577 153.394C203.743 153.48 203.815 153.679 203.742 153.851L203.349 154.777C203.169 155.202 202.798 155.515 202.35 155.621L191.996 158.07L181.14 162.045C180.263 162.366 179.314 162.441 178.397 162.261L178.263 162.235C177.343 162.055 176.38 162.16 175.518 162.529C174.472 162.976 173.617 163.8 173.137 164.832L172.701 165.771C172.462 166.288 172.438 166.879 172.637 167.412L172.775 167.784C172.851 167.988 172.993 168.161 173.179 168.276L173.773 168.642C173.858 168.695 173.969 168.675 174.031 168.596C174.133 168.466 174.34 168.513 174.377 168.675L175.213 172.362C175.28 172.66 175.279 172.97 175.208 173.267L174.227 177.381C173.953 178.53 173.256 179.533 172.275 180.191C171.841 180.482 171.459 180.843 171.144 181.26L169.961 182.827C169.372 183.607 168.854 184.438 168.413 185.31L164.532 192.989L161.383 198.157C160.724 199.239 159.958 200.252 159.096 201.181L158.7 201.607C157.772 202.607 156.988 203.731 156.369 204.946C155.663 206.334 154.741 207.601 153.637 208.701L148.194 214.125L139.797 224.276C138.17 226.242 136.328 228.018 134.305 229.572L104.362 252.561C103.24 253.423 102.196 254.383 101.245 255.429L97.7845 259.233C97.5347 259.507 97.3532 259.837 97.2548 260.195L96.7747 261.941C96.6985 262.219 96.4132 262.383 96.1349 262.31L96.0131 262.278C95.7914 262.22 95.5658 262.358 95.5161 262.582C95.4849 262.722 95.5302 262.867 95.635 262.965L97.8467 265.028C98.0911 265.256 98.4661 265.269 98.7262 265.059L98.7792 265.016C99.0187 264.823 99.0714 264.479 98.9009 264.222C98.7656 264.019 98.77 263.751 98.9089 263.55C99.1168 263.25 99.5436 263.193 99.8174 263.435L100.295 263.857C100.357 263.912 100.393 263.991 100.391 264.074L100.39 264.126C100.386 264.404 100.753 264.507 100.893 264.267C100.935 264.196 101.006 264.148 101.087 264.136L103.178 263.831C103.534 263.779 103.897 263.84 104.216 264.006L105.147 264.491C105.33 264.587 105.555 264.539 105.685 264.378L105.778 264.262C105.89 264.122 106.097 264.111 106.223 264.237C106.322 264.336 106.339 264.489 106.266 264.607L105.826 265.315C105.609 265.665 105.563 266.094 105.701 266.481L105.87 266.955C106.075 267.53 106.052 268.163 105.806 268.722L105.584 269.227C105.293 269.887 105.198 270.617 105.309 271.329L105.726 274.016C106.031 275.976 105.886 277.98 105.302 279.875L104.627 282.068C104.512 282.442 104.473 282.835 104.514 283.224L104.715 285.156C104.771 285.687 104.384 286.163 103.853 286.217L103.822 286.22C103.407 286.263 103.072 286.577 103.003 286.988C102.94 287.368 102.647 287.669 102.269 287.744L101.374 287.919C101.037 287.985 100.688 287.887 100.435 287.654C100.302 287.531 100.201 287.376 100.144 287.204L99.4618 285.174C99.2219 284.46 99.332 283.675 99.7592 283.054C100.114 282.538 100.253 281.904 100.146 281.288L99.8048 279.314C99.7261 278.86 99.6046 278.413 99.4418 277.982L99.355 277.751C98.9596 276.703 98.389 275.729 97.6676 274.871L96.1654 273.085C95.34 272.103 94.3748 271.248 93.3009 270.548C92.1265 269.781 90.8366 269.209 89.4805 268.852L87.7603 268.399C87.0569 268.214 86.3783 267.945 85.7391 267.598L85.3678 267.396C83.9749 266.64 82.3832 266.329 80.8081 266.507L78.793 266.735C78.3564 266.785 77.9159 266.684 77.5438 266.45C76.8574 266.019 75.9753 266.061 75.3322 266.554L74.8046 266.959C74.1742 267.442 73.3727 267.646 72.588 267.521L71.6212 267.367C70.8648 267.247 70.0947 267.477 69.5281 267.993C69.241 268.254 68.8974 268.445 68.5241 268.552L67.6462 268.803C67.1528 268.944 66.744 269.291 66.5237 269.754C66.3679 270.082 66.1162 270.354 65.8019 270.535L64.946 271.028C64.6143 271.219 64.2616 271.371 63.8949 271.481L62.114 272.015C60.5911 272.471 59.1251 273.1 57.7443 273.888L53.6935 276.2C53.42 276.356 53.1182 276.456 52.8056 276.495C52.1189 276.58 51.5031 276.959 51.1185 277.535L51.0676 277.611C50.7366 278.106 50.6038 278.707 50.6954 279.295L50.7776 279.823C50.8274 280.143 50.741 280.469 50.5394 280.722C50.233 281.107 49.7169 281.255 49.2526 281.093L48.6452 280.881C48.3588 280.781 48.098 280.619 47.8813 280.406L46.0841 278.644C45.6329 278.202 45.0333 277.943 44.4019 277.918C43.7725 277.894 43.1747 277.636 42.7239 277.197L42.3118 276.794C41.9389 276.431 41.433 276.236 40.9123 276.255L40.563 276.268C40.3246 276.277 40.0977 276.373 39.925 276.538C39.4785 276.963 39.5327 277.691 40.0373 278.046L40.127 278.109C40.4567 278.341 40.6034 278.756 40.4925 279.143C40.4176 279.405 40.2338 279.621 39.9879 279.738L38.325 280.526C37.6202 280.86 37.3255 281.706 37.6708 282.406C37.7881 282.643 37.9706 282.843 38.197 282.98L39.4396 283.736C39.6334 283.854 39.7577 284.059 39.7729 284.285C39.7943 284.605 39.5954 284.898 39.2906 284.996L36.2484 285.974C35.2942 286.281 34.2676 286.281 33.3136 285.973L30.7836 285.157C29.87 284.862 28.9267 284.669 27.9708 284.582L27.3481 284.525C25.2371 284.331 23.1743 283.78 21.2481 282.894L13.296 279.239C10.7133 278.051 8.53856 276.128 7.04454 273.71L5.7346 271.589C5.28859 270.867 5.0363 270.043 5.00208 269.195L4.94315 267.734C4.9002 266.67 4.23345 265.731 3.24271 265.34C1.69622 264.73 1.06805 262.877 1.92454 261.452L2.25171 260.908C2.4227 260.623 2.63654 260.367 2.88569 260.147L3.72588 259.408C5.57806 257.777 8.17277 257.289 10.4911 258.134L11.8535 258.63C12.0956 258.718 12.357 258.74 12.6104 258.693L13.8151 258.468C14.3169 258.375 14.7412 258.843 14.5988 259.333C14.5641 259.453 14.5625 259.579 14.5943 259.699L14.707 260.126C15.022 261.319 16.229 262.044 17.4298 261.762L18.0167 261.624C19.5781 261.257 20.5445 259.692 20.1727 258.132L19.7478 256.349C19.4968 255.295 20.1555 254.24 21.2122 254.003C22.275 253.764 22.934 252.698 22.6728 251.641L21.3854 246.429C21.2701 245.962 20.8548 245.632 20.3741 245.624C19.5982 245.612 19.0984 244.797 19.4398 244.1L20.7619 241.401C20.9114 241.096 21.1123 240.819 21.3558 240.581L21.9366 240.016C22.4981 239.469 23.2789 239.208 24.0563 239.309L25.3698 239.48C25.8696 239.545 26.3419 239.235 26.482 238.751C26.534 238.571 26.5356 238.38 26.4865 238.199L26.4559 238.087C26.1729 237.046 27.0955 236.075 28.1496 236.306C28.367 236.353 28.5923 236.349 28.808 236.295L32.6171 235.333C33.5493 235.098 34.1375 234.178 33.9599 233.233C33.7848 232.302 34.354 231.392 35.2682 231.142L36.4976 230.806C38.1393 230.358 39.1429 228.703 38.7822 227.04L37.6961 222.032C37.6123 221.646 37.6444 221.244 37.7883 220.876L37.8483 220.723C37.955 220.45 37.9777 220.152 37.9134 219.866L37.7451 219.117C37.6586 218.732 37.903 218.351 38.2889 218.268L38.6331 218.195C38.8877 218.141 39.0305 217.869 38.9307 217.628C38.831 217.388 38.9735 217.116 39.2278 217.062L50.695 214.601C51.9733 214.327 53.0384 213.448 53.5503 212.245C54.1401 210.858 53.8918 209.242 52.928 208.084C51.6577 206.558 51.6452 204.318 52.9238 202.799L54.9003 200.45C56.8642 198.116 56.5084 194.62 54.1146 192.729C52.1835 191.204 51.5265 188.567 52.5163 186.315L52.7844 185.704C53.4385 184.216 53.4882 182.531 52.923 181.006L50.6852 174.969C50.0435 173.238 51.2436 171.375 53.0851 171.245L55.0964 171.102C55.54 171.07 55.8711 170.68 55.8304 170.238C55.7925 169.824 55.4421 169.51 55.0269 169.517L53.8845 169.536C53.643 169.54 53.4367 169.362 53.4046 169.123C53.3691 168.857 53.5596 168.615 53.8261 168.586L55.4147 168.417C55.917 168.363 56.3514 168.043 56.5517 167.58C56.7057 167.223 57.0005 166.947 57.3659 166.816L58.1088 166.551C58.4146 166.441 58.7352 166.379 59.0597 166.366L63.6343 166.179C64.4936 166.143 65.1831 165.456 65.2214 164.597C65.2533 163.884 65.7388 163.271 66.4261 163.077L67.0897 162.89C68.6712 162.443 70.2569 163.584 70.3352 165.226L70.4267 167.145C70.4369 167.359 70.607 167.531 70.8211 167.543C70.9955 167.553 71.1453 167.671 71.1971 167.837L71.3282 168.26C71.4537 168.664 71.3256 169.105 71.0028 169.379L70.3764 169.911C69.6311 170.544 69.3671 171.578 69.7183 172.491L70.4178 174.309C70.6704 174.965 70.54 175.707 70.0787 176.238L69.3401 177.089C68.7998 177.711 69.0675 178.682 69.85 178.939C70.2427 179.069 70.6745 178.978 70.9817 178.701L71.9945 177.789C72.2009 177.603 72.3069 177.33 72.28 177.053C72.2449 176.692 72.4362 176.347 72.761 176.185L73.9647 175.585C74.2308 175.452 74.5537 175.526 74.7348 175.762C74.9078 175.988 75.2115 176.067 75.4726 175.955L75.5551 175.92C75.9323 175.758 76.1046 175.319 75.9383 174.944L75.265 173.425C75.1276 173.115 75.2276 172.751 75.5042 172.555C75.78 172.359 75.8803 171.996 75.7442 171.687L75.6947 171.574C75.5047 171.142 75.6973 170.637 76.1272 170.441L76.407 170.313C76.8827 170.096 77.158 169.591 77.0826 169.074L76.9691 168.295C76.9311 168.034 77.0461 167.774 77.2649 167.627C77.6166 167.391 78.0966 167.526 78.2721 167.912L81.2892 174.548C80.9149 173.287 81.2494 171.923 82.1643 170.978L83.3216 169.784C84.2862 168.788 85.8741 168.759 86.8749 169.718L87.7202 170.528C88.2035 170.992 88.2441 171.751 87.813 172.263C87.3729 172.786 87.4257 173.564 87.9323 174.022L88.2655 174.324C88.5101 174.546 88.8128 174.693 89.1381 174.748L90.3945 174.963C91.7119 175.189 92.7572 176.197 93.0297 177.506L93.5029 179.778C93.5953 180.222 94.0223 180.513 94.4694 180.437L94.676 180.402C94.9481 180.356 95.2155 180.506 95.3172 180.763C95.4163 181.013 95.6735 181.163 95.9401 181.126L97.5971 180.899C99.0693 180.697 100.106 179.35 99.9246 177.875L99.4579 174.083C99.4252 173.817 99.5578 173.559 99.7924 173.43C100.104 173.26 100.495 173.369 100.672 173.677L100.804 173.906C101.005 174.254 101.407 174.433 101.799 174.348L103.876 173.9C104.18 173.834 104.443 173.647 104.604 173.382C104.811 173.042 104.824 172.619 104.64 172.267L104.148 171.331C103.971 170.992 104.103 170.574 104.442 170.399C104.661 170.286 104.923 170.299 105.13 170.432L106.241 171.146C106.87 171.551 107.323 172.178 107.51 172.902L108.038 174.946C108.148 175.373 108.403 175.749 108.76 176.009L109.891 176.834C110.191 177.053 110.238 177.483 109.991 177.762C109.727 178.061 109.803 178.527 110.148 178.726L113.449 180.638C114 180.958 114.687 180.538 114.653 179.901C114.639 179.635 114.758 179.379 114.97 179.218L116.716 177.894C117.612 177.215 118.821 177.115 119.816 177.638L120.98 178.25C121.305 178.421 121.702 178.381 121.986 178.147C122.234 177.944 122.57 177.885 122.872 177.992L123.3 178.143C123.759 178.305 124.265 178.265 124.693 178.033L125.472 177.61C126.185 177.224 127.059 177.298 127.697 177.799C128.375 178.331 129.314 178.378 130.041 177.917L133.188 175.921C133.396 175.79 133.5 175.544 133.45 175.303C133.351 174.827 132.75 174.668 132.429 175.034L132.349 175.125C132.035 175.484 131.456 175.394 131.265 174.957L131.159 174.716C131.1 174.581 131.006 174.464 130.886 174.378L130.558 174.144C130.426 174.049 130.251 174.038 130.108 174.116L129.945 174.204C129.829 174.266 129.685 174.224 129.622 174.109L129.51 173.905C129.412 173.728 129.141 173.809 129.157 174.011C129.17 174.176 128.978 174.276 128.849 174.171L128.567 173.938C128.375 173.78 128.085 173.871 128.017 174.109L127.975 174.253C127.91 174.482 127.675 174.618 127.444 174.562L127.083 174.473C126.741 174.389 126.547 174.029 126.664 173.697C126.802 173.307 126.509 172.898 126.095 172.904L124.767 172.922C124.447 172.927 124.195 172.648 124.232 172.33C124.262 172.076 124.106 171.837 123.862 171.761L123.018 171.501C122.721 171.409 122.696 170.999 122.98 170.872C123.292 170.732 123.221 170.269 122.881 170.23L122.599 170.198C122.488 170.185 122.387 170.128 122.319 170.04L122.121 169.784C121.961 169.577 121.931 169.297 122.043 169.061L122.351 168.41C122.46 168.18 122.266 167.922 122.015 167.962L121.867 167.986C121.748 168.005 121.641 167.911 121.645 167.79L121.654 167.454C121.658 167.296 121.437 167.254 121.384 167.403C121.358 167.478 121.274 167.515 121.2 167.485L120.915 167.368C120.725 167.289 120.506 167.355 120.391 167.526L120.002 168.104C119.939 168.197 119.834 168.253 119.722 168.253C119.498 168.253 119.336 168.039 119.398 167.824L119.499 167.467C119.576 167.199 119.247 167.004 119.048 167.198L118.723 167.518C118.607 167.63 118.418 167.515 118.465 167.361C118.496 167.26 118.419 167.158 118.314 167.16L117.93 167.167C117.692 167.171 117.494 166.982 117.489 166.743L117.487 166.662C117.482 166.405 117.287 166.191 117.031 166.162L116.613 166.114C116.381 166.088 116.249 165.833 116.362 165.629C116.453 165.464 116.388 165.258 116.22 165.175L115.751 164.943C115.568 164.853 115.514 164.618 115.638 164.456C115.723 164.344 115.727 164.19 115.646 164.074L114.918 163.033C114.902 163.011 114.877 162.999 114.85 163C114.756 163.004 114.737 162.868 114.829 162.846L118.35 162.014C118.668 161.939 118.781 161.546 118.552 161.313L118.329 161.086C118.223 160.978 118.162 160.835 118.157 160.685L118.145 160.314C118.132 159.889 118.294 159.477 118.593 159.175L118.89 158.876C119.473 158.287 119.73 157.449 119.579 156.634L119.311 155.188C119.116 154.143 119.239 153.064 119.661 152.089L120.064 151.16C120.543 150.055 120.786 148.863 120.777 147.659L120.758 144.744C120.752 143.963 120.565 143.193 120.211 142.497L118.843 139.808C118.457 139.049 118.705 138.121 119.417 137.655L119.745 137.44C119.846 137.374 119.967 137.344 120.087 137.354C120.494 137.39 120.791 136.977 120.627 136.602L120.439 136.172C120.365 136.005 120.238 135.867 120.077 135.78L119.807 135.635C119.245 135.333 118.561 135.371 118.035 135.732L117.576 136.048C116.777 136.598 115.676 136.316 115.239 135.449L114.798 134.572C114.701 134.38 114.758 134.146 114.931 134.018C115.068 133.918 115.135 133.748 115.104 133.581L114.888 132.453C114.722 131.582 113.894 131.001 113.018 131.141L112.642 131.201C112.357 131.247 112.11 131.428 111.981 131.687C111.856 131.937 111.623 132.114 111.349 132.167L108.07 132.805C106.685 133.074 105.316 132.268 104.879 130.926L103.717 127.354C103.609 127.024 103.192 126.921 102.944 127.165C102.862 127.245 102.753 127.293 102.639 127.299L99.9764 127.431C99.1586 127.472 98.4331 126.91 98.2669 126.109C98.073 125.172 97.131 124.593 96.2079 124.841L93.9933 125.438C93.6424 125.532 93.2704 125.392 93.0691 125.089C92.732 124.583 93.0242 123.897 93.6231 123.789L94.1101 123.701C94.6443 123.604 95.0422 123.153 95.0714 122.611L95.3624 117.21C95.3885 116.724 95.6926 116.296 96.1431 116.112C96.6999 115.885 97.0179 115.295 96.902 114.705L96.5061 112.69C96.2702 111.489 95.1699 110.656 93.9499 110.756L92.5553 110.87C92.0289 110.913 91.6329 111.368 91.6633 111.895L91.6783 112.155C91.6965 112.47 91.488 112.754 91.1817 112.831C90.8352 112.918 90.4827 112.712 90.3877 112.368L89.6868 109.827C89.5979 109.504 89.2734 109.307 88.9463 109.376L88.9247 109.381C88.568 109.456 88.2247 109.205 88.1884 108.843C88.1579 108.537 88.3579 108.257 88.6563 108.186L90.9324 107.645C92.6353 107.241 93.7227 105.573 93.4057 103.852L92.2745 97.7084C92.1047 96.7865 92.6829 95.8921 93.5931 95.6684C94.4907 95.4478 95.0675 94.574 94.9177 93.662L94.0423 88.3328C93.6906 86.1919 91.6726 84.7394 89.5308 85.0856L89.1362 85.1494C88.8886 85.1894 88.6513 85.2776 88.4376 85.409L88.0928 85.621C87.7309 85.8436 87.5128 86.2403 87.5188 86.6652L87.5267 87.2201C87.5283 87.3332 87.5933 87.4358 87.6948 87.4857C87.9097 87.5912 87.921 87.8933 87.7147 88.0146L87.4719 88.1574C87.3325 88.2394 87.2475 88.3896 87.2489 88.5513L87.256 89.3615C87.2626 90.1015 86.8286 90.7745 86.1518 91.0739L84.3937 91.8516C83.9813 92.0341 83.5029 91.8082 83.3818 91.3738C83.2738 90.9864 82.8761 90.7563 82.4864 90.8556L82.3375 90.8936C81.8506 91.0177 81.3568 90.7177 81.2425 90.2285L80.5982 87.4711C80.5149 87.1147 80.6501 86.7429 80.9428 86.5233C81.2283 86.3091 81.3646 85.9495 81.2928 85.5999L81.206 85.177C81.0209 84.275 80.1159 83.7137 79.2256 83.9486L79.0966 83.9827C78.1223 84.2397 77.1353 83.6132 76.9535 82.6221L76.4519 79.8889C76.1877 78.4495 74.6601 77.6234 73.3109 78.1903L73.0667 78.2929C72.9357 78.3479 72.8174 78.4296 72.7195 78.5327L72.6625 78.5927C72.0717 79.2148 71.0233 78.8436 70.9555 77.9884C70.8891 77.1498 69.874 76.7699 69.2733 77.3589L68.622 77.9974C68.0063 78.6011 66.9689 78.3243 66.7358 77.4942C66.6308 77.1205 66.7242 76.7191 66.9834 76.4301L67.4873 75.8681C67.5777 75.7674 67.5959 75.6212 67.533 75.5014C67.4399 75.3238 67.2093 75.2727 67.0498 75.3943L65.7874 76.3569C65.6464 76.4645 65.4463 76.4451 65.3285 76.3124C65.2003 76.1679 65.2186 75.9455 65.3689 75.824L66.4783 74.9267C66.8677 74.6118 67.0986 74.1414 67.1096 73.6407L67.1693 70.908C67.1718 70.7954 67.1366 70.6851 67.0694 70.5947C66.929 70.4058 66.6771 70.3384 66.4612 70.432L65.7873 70.7239C65.1164 71.0146 64.3343 70.7536 63.9723 70.1184L63.5177 69.3205C62.76 67.9906 63.3893 66.2991 64.832 65.7878L66.0575 65.3535C66.5048 65.1949 66.8214 64.7938 66.8717 64.322C66.8971 64.0846 66.9907 63.8598 67.1413 63.6746L68.6159 61.8619C68.9006 61.5118 68.9923 61.0431 68.8605 60.6116L68.7169 60.1413C68.6499 59.9218 68.7168 59.6834 68.8882 59.5309L69.3051 59.16C69.5784 58.9168 69.3953 58.4652 69.0298 58.481C68.728 58.4941 68.5272 58.173 68.6711 57.9074L69.1878 56.953C69.2703 56.8006 69.312 56.6294 69.3088 56.4561L69.2789 54.8619C69.2756 54.6873 69.392 54.5331 69.5608 54.4884C69.7896 54.4278 69.9075 54.1747 69.8067 53.9606L68.7464 51.708C68.476 51.1334 68.4442 50.4751 68.6579 49.8771C68.8468 49.3485 69.2149 48.9028 69.6982 48.6174L70.0906 48.3857C70.8282 47.9502 71.3898 47.2697 71.6775 46.4629L72.5688 43.9635C72.7925 43.3362 72.4822 42.6441 71.865 42.3939C71.46 42.2297 70.9984 42.2903 70.6495 42.5535L70.5526 42.6265C69.9043 43.1155 68.9814 42.9801 68.5007 42.3256L68.3058 42.0602C68.082 41.7554 67.9647 41.3854 67.972 41.0072C67.9778 40.7081 68.0614 40.4156 68.2147 40.1586L68.8754 39.0505C69.3377 38.2751 69.9544 37.603 70.6873 37.0759L72.6992 35.6287C72.8089 35.5498 72.8905 35.4381 72.9323 35.3096C73.0738 34.8753 72.7243 34.438 72.2694 34.4803L69.2182 34.7641C69.1512 34.7703 69.0942 34.716 69.0971 34.6488C69.1028 34.5202 68.9216 34.4869 68.8811 34.6091L68.8016 34.849C68.7818 34.9087 68.726 34.9491 68.663 34.9491H68.4602C68.2531 34.9491 68.0758 34.8003 68.0399 34.5963L66.4829 25.7566C66.3556 25.0341 65.7383 24.5003 65.0049 24.4787L63.579 24.4368C63.283 24.4281 63.0592 24.7022 63.127 24.9904C63.1929 25.2706 62.9827 25.54 62.6949 25.5442L60.7637 25.5723C60.6646 25.5737 60.5695 25.6115 60.4964 25.6786C60.288 25.8699 60.3358 26.2107 60.5888 26.3373L60.6694 26.3777C60.7964 26.4412 60.8839 26.5634 60.9033 26.7041L60.9301 26.8992C60.9703 27.1916 60.6463 27.3943 60.401 27.2303C60.143 27.0578 59.8071 27.2902 59.8775 27.5924L60.0404 28.2908C60.1119 28.5976 59.9441 28.9098 59.6487 29.0193L59.0206 29.2521C58.8174 29.3275 58.5993 29.3541 58.384 29.3298L57.5426 29.2351C56.6301 29.1323 55.7643 28.7775 55.0421 28.2104L53.1149 26.6971C52.3939 26.131 51.3905 26.0933 50.6292 26.6038C49.7009 27.2263 48.4487 27.0196 47.7697 26.1318L46.3068 24.2193C46.1009 23.95 45.9917 23.6192 45.9971 23.2802C46.0046 22.7986 45.7815 22.3424 45.3967 22.0527L44.7884 21.5948C43.8519 20.8897 43.4681 19.6667 43.8338 18.5529L43.9531 18.1895C44.0168 17.9955 44.0312 17.7886 43.9948 17.5877L43.8896 17.0063C43.8646 16.8678 43.7584 16.7582 43.6208 16.7287C43.327 16.6659 43.2465 16.2847 43.4898 16.1084L43.6109 16.0207C43.7627 15.9107 43.9696 15.9166 44.1149 16.035L44.5718 16.4075C44.8769 16.6561 45.3366 16.4789 45.3959 16.0898C45.4251 15.898 45.561 15.7395 45.7461 15.6813L47.459 15.1426C48.6331 14.7734 49.5148 13.7966 49.7621 12.5909L50.2114 10.4004C50.4091 9.43607 51.4383 8.89249 52.3463 9.27276L52.77 9.45022C53.0686 9.57528 53.4125 9.51704 53.6532 9.30066C53.8499 9.1239 54.1185 9.05042 54.3777 9.10244L54.4806 9.12308C54.8703 9.20129 55.1821 9.4936 55.2853 9.87752L55.775 11.7005C55.8698 12.0531 56.2775 12.215 56.5883 12.0233C56.8211 11.8797 56.9116 11.586 56.8001 11.3363L56.7199 11.1568C56.6034 10.8961 56.6407 10.5924 56.8168 10.3676L57.2666 9.79369C57.5965 9.37276 57.742 8.83628 57.6701 8.30634L57.5629 7.51598C57.5106 7.13053 57.6464 6.74339 57.9279 6.475L58.2584 6.15998C58.3992 6.02575 58.4492 5.82193 58.3864 5.6378C58.298 5.37867 58.435 5.09674 58.6933 5.00602L58.7069 5.00124C58.8841 4.93904 59.081 4.97846 59.2206 5.10405L62.9943 8.50038C63.2069 8.69173 63.5032 8.75989 63.778 8.68068L63.9111 8.64232C64.0944 8.58951 64.2919 8.63185 64.4374 8.75515L64.6371 8.92435C64.7933 9.05666 64.7978 9.29602 64.6467 9.43412C64.4109 9.64976 64.5763 10.0421 64.8953 10.0238L66.3966 9.93777C66.5481 9.92908 66.6993 9.95999 66.8353 10.0275L67.5244 10.3694C67.8648 10.5383 68.2763 10.4566 68.5265 10.1705C68.7038 9.96774 68.9678 9.86268 69.236 9.88823L70.166 9.97687C70.3332 9.99281 70.503 9.94954 70.6431 9.85688C71.0331 9.59894 71.5697 9.76834 71.7318 10.2069C71.8906 10.6367 71.6152 11.1053 71.1623 11.1738L71.1307 11.1786C70.9048 11.2127 70.7122 11.3605 70.6207 11.5699C70.5244 11.7901 70.3168 11.9413 70.0776 11.9653L69.4417 12.0291C68.8689 12.0866 68.5694 12.7391 68.8994 13.2109C69.0863 13.4781 69.4239 13.5949 69.7359 13.5001L70.7763 13.1842C71.4187 12.9892 72.0977 13.3514 72.2935 13.9935C72.3896 14.3087 72.6095 14.5715 72.9028 14.7216L73.2096 14.8787C73.4244 14.9886 73.6571 15.0594 73.8968 15.0877L75.1651 15.2374C75.4873 15.2754 75.8139 15.239 76.1199 15.1311L77.9156 14.4976C78.0811 14.4393 78.2617 14.5311 78.3121 14.6991C78.3684 14.8868 78.5835 14.9746 78.755 14.8798L79.2017 14.6329C79.3314 14.5611 79.4946 14.6008 79.5769 14.7241C79.6556 14.842 79.8089 14.8842 79.9368 14.8232L80.2442 14.6767C80.5181 14.5462 80.6518 14.2321 80.5561 13.9442C80.4963 13.7646 80.5246 13.5674 80.6324 13.4119L80.867 13.0734C81.0853 12.7585 81.4213 12.5447 81.7991 12.4804L85.2579 11.8917C85.8722 11.7871 86.4807 12.1052 86.7455 12.6693C86.8985 12.9954 87.1724 13.2491 87.5093 13.3767L88.1611 13.6236C88.4253 13.7237 88.7019 13.7873 88.9833 13.8126L92.9604 14.1706C93.1436 14.187 93.3178 14.0887 93.3983 13.9234C93.4764 13.7632 93.6429 13.6653 93.8208 13.6751L93.9212 13.6806C94.2216 13.6971 94.4336 13.3907 94.3123 13.1154C94.2239 12.9147 94.3121 12.6801 94.5109 12.5874L94.7884 12.4579C94.9867 12.3654 95.1318 12.1874 95.1824 11.9745L95.209 11.8627C95.337 11.3248 95.894 11.008 96.4217 11.173L97.4999 11.5103C97.8086 11.6068 98.0067 11.9075 97.9735 12.2293C97.9372 12.5806 98.1758 12.9013 98.5228 12.9674L99.3958 13.1338C99.5893 13.1707 99.7824 13.0684 99.8605 12.8876L99.9076 12.7787C99.9657 12.6442 99.9135 12.4875 99.7863 12.4147C99.5664 12.289 99.6045 11.9611 99.8473 11.889L99.91 11.8705C100.032 11.8344 100.12 11.7291 100.134 11.603L100.537 8.00837C100.562 7.78888 100.524 7.56691 100.427 7.36846L99.914 6.31931C99.6502 5.77953 100.169 5.18969 100.738 5.38254C100.917 5.44327 101.114 5.4261 101.28 5.33521L102.715 4.54927C103.377 4.18629 104.122 4.00009 104.878 4.00861L106.933 4.0318C107.063 4.03327 107.187 3.97698 107.272 3.87812Z" fill="#393939" stroke="#1D1D1D" stroke-width="2" stroke-linecap="round" stroke-linejoin="round"/>
</svg>
