<svg width="235" height="185" viewBox="0 0 235 185" fill="none" xmlns="http://www.w3.org/2000/svg">
<path d="M67.3259 4.85229C67.918 4.24096 68.7641 3.94551 69.608 4.05551L70.121 4.12237C70.4485 4.16507 70.7487 4.32718 70.9641 4.57761C71.3618 5.04015 72.0217 5.17581 72.5697 4.90767L74.1867 4.11639C74.907 3.76392 75.7751 3.95286 76.2837 4.57281C76.52 4.86082 76.843 5.06483 77.2046 5.15445L78.1678 5.39317C78.4898 5.47297 78.8298 5.43383 79.1253 5.28296C79.5443 5.06897 79.8251 4.65581 79.8698 4.18741L79.9781 3.05085C80.0426 2.37523 80.4276 1.7717 81.0132 1.42857L81.0426 1.41132C81.911 0.902469 83.0194 1.09119 83.6705 1.85875L83.8331 2.05045C83.9936 2.23965 84.2068 2.37673 84.4456 2.44417L84.6867 2.51227C84.9838 2.59619 85.2101 2.83767 85.2745 3.1396C85.3552 3.51741 85.6851 3.79009 86.0714 3.79809L88.0134 3.83834C88.6476 3.85148 89.1702 4.34004 89.2259 4.9719C89.2841 5.63268 89.851 6.13128 90.5138 6.10473L90.6714 6.09842C91.2998 6.07325 91.8687 6.46775 92.0655 7.06508L92.2231 7.54371C92.259 7.65274 92.3282 7.74777 92.4209 7.81546L92.6761 8.00179C92.9152 8.17633 93.2528 8.01849 93.2722 7.72312C93.2818 7.57543 93.3774 7.44721 93.5161 7.3957L94.8181 6.91233C95.0701 6.8188 95.3457 6.81061 95.6028 6.88901L95.9873 7.00629C96.1307 7.05004 96.2436 7.16126 96.2895 7.30403C96.4102 7.67928 96.9171 7.73675 97.1187 7.39803L97.3455 7.01687C97.569 6.64133 98.0898 6.58402 98.3896 6.90196L98.7101 7.24178C99.0944 7.64932 99.7369 7.66644 100.142 7.27994L100.203 7.22217C100.343 7.0887 100.516 6.99475 100.704 6.94991L101.586 6.73968C102.303 6.56883 103.051 6.57864 103.764 6.76823L111.89 8.93149C112.302 9.04115 112.691 9.22477 113.037 9.47339L113.469 9.78378C113.857 10.0617 114.329 10.1956 114.804 10.1623C115.219 10.1332 115.616 9.97797 115.94 9.71743L116.967 8.89303C117.482 8.48002 118.058 8.15105 118.676 7.91832L121.008 7.03894C121.208 6.96386 121.371 6.81628 121.466 6.62577C121.61 6.33615 121.576 5.9895 121.378 5.73348L121.363 5.71409C121.218 5.52641 121.004 5.40502 120.768 5.37726L119.68 5.24905C119.471 5.22444 119.294 5.08436 119.221 4.88679C119.118 4.60471 119.257 4.29154 119.535 4.1784L122.933 2.79671C123.174 2.69897 123.431 2.64871 123.69 2.64871H123.893C124.312 2.64871 124.713 2.82025 125.003 3.12351C125.642 3.79141 126.721 3.74884 127.305 3.03273L127.627 2.6374C128.292 1.82218 129.476 1.66617 130.329 2.28156L133.75 4.74963C133.878 4.84147 133.938 5.00015 133.905 5.15346C133.829 5.49778 134.209 5.76041 134.504 5.56765L135.821 4.70763C136.098 4.52667 136.445 4.48895 136.755 4.60611L137.903 5.04054C138.454 5.24906 138.647 5.93 138.289 6.39728L138.193 6.52158C137.969 6.81338 138.006 7.22811 138.278 7.47596C138.536 7.71115 138.927 7.72326 139.199 7.50448L139.581 7.19734C139.86 6.97288 140.032 6.64177 140.056 6.28441L140.07 6.06847C140.113 5.42008 140.507 4.84713 141.097 4.57523L143.088 3.65791C143.536 3.45169 144.035 3.38212 144.521 3.4579L145.153 3.5562C145.531 3.61508 145.915 3.49305 146.19 3.2266C146.633 2.79765 147.326 2.76595 147.806 3.15269L148.287 3.54054C148.694 3.86853 148.95 4.3483 148.995 4.86906L149.364 9.10111C149.56 11.3587 150.681 13.4347 152.462 14.837L157.955 19.1643C158.204 19.3605 158.261 19.7149 158.086 19.9793C157.926 20.222 157.959 20.5443 158.166 20.749L159.199 21.7706C159.658 22.2247 159.814 22.9028 159.599 23.5116C159.382 24.1243 159.541 24.8067 160.006 25.2605L160.092 25.3441L161.763 26.7362C162.347 27.2225 163.057 27.5322 163.811 27.6288L164.434 27.7088C165.863 27.8922 166.989 29.0139 167.178 30.4417L167.335 31.6271C167.352 31.7571 167.423 31.8739 167.531 31.9488L167.722 32.0814C167.906 32.2092 168.16 32.1081 168.206 31.8889C168.242 31.7192 168.409 31.6109 168.578 31.6476L169.243 31.7915C169.476 31.8419 169.682 31.9747 169.825 32.1654L170.179 32.6388C170.724 33.367 170.843 34.3289 170.492 35.168L170.43 35.3164C170.298 35.6339 170.109 35.9249 169.872 36.1751L168.299 37.8413C167.956 38.2049 167.96 38.7744 168.308 39.1331C168.547 39.3784 168.632 39.7343 168.53 40.0609L168.405 40.464C168.28 40.8661 168.314 41.3009 168.5 41.6786L169.025 42.7432C169.206 43.1113 169.476 43.4286 169.81 43.6667L170.576 44.2124C170.917 44.4555 171.371 44.4722 171.729 44.2549C172.051 44.0597 172.452 44.0519 172.782 44.2343L174.56 45.22C174.897 45.4071 175.304 45.4219 175.654 45.2597L176.162 45.0244C176.367 44.9297 176.61 44.9863 176.751 45.1618C176.942 45.3984 177.3 45.4066 177.502 45.1791L177.886 44.7458C178.013 44.6017 178.225 44.5684 178.391 44.6665L178.464 44.7097C178.595 44.7868 178.648 44.9479 178.591 45.0878C178.511 45.2801 178.644 45.4937 178.851 45.5076L179.242 45.5338C179.578 45.5564 179.864 45.2904 179.866 44.953L179.876 43.1197C179.88 42.3034 180.315 41.55 181.02 41.1383L181.793 40.6873C182.002 40.5652 182.256 40.5479 182.479 40.6404L182.797 40.7718C183.017 40.8627 183.121 41.1144 183.031 41.3342C182.897 41.6585 183.186 41.9983 183.528 41.9177L186.382 41.2446C186.537 41.2081 186.665 41.1006 186.729 40.9546C186.813 40.7589 187.012 40.6379 187.225 40.6523L188.677 40.7503C188.982 40.7708 189.282 40.6712 189.514 40.4729C189.783 40.2426 190.142 40.1472 190.49 40.2135L194.45 40.9683C195.432 41.1555 196.026 42.1626 195.715 43.1126C195.649 43.3153 195.622 43.5289 195.637 43.7417L195.754 45.4524C195.795 46.0473 196.01 46.6169 196.374 47.0895C197.221 48.1905 197.209 49.727 196.345 50.8146L192.897 55.1533C191.45 56.9748 191.061 59.4205 191.87 61.6015L192.33 62.8412C192.392 63.0065 192.491 63.155 192.621 63.2746L192.633 63.2862C192.906 63.5375 193.287 63.6333 193.645 63.5406C194.136 63.4136 194.65 63.6419 194.884 64.0914L195.956 66.1456C196.197 66.6075 196.533 67.0126 196.943 67.3342L197.83 68.0296C198.103 68.2439 198.456 68.3291 198.797 68.263C199.204 68.1841 199.623 68.3214 199.904 68.6259L199.992 68.7209C200.521 69.2938 201.412 69.3365 201.994 68.817L202.13 68.6955C202.394 68.4598 202.738 68.3337 203.092 68.3428C203.662 68.3575 204.165 68.7183 204.361 69.2532L204.565 69.8083C204.849 70.5817 205.531 71.1394 206.345 71.2639L208.289 71.5612C208.625 71.6125 208.967 71.5715 209.281 71.4428C209.807 71.2265 210.404 71.2624 210.901 71.5401L214.273 73.4249C214.82 73.7308 215.191 74.2771 215.274 74.8987L215.402 75.8563C215.451 76.2263 215.235 76.5805 214.884 76.7067C214.455 76.8609 214.244 77.3447 214.423 77.7641L214.643 78.2798C214.72 78.4579 214.756 78.6505 214.749 78.844L214.669 81.1853C214.649 81.7776 214.868 82.3532 215.277 82.7824L215.418 82.9311C215.684 83.2099 216.039 83.3865 216.421 83.43L216.892 83.4836C217.36 83.537 217.732 83.9008 217.797 84.3676L217.847 84.7328C217.873 84.9177 217.786 85.1002 217.627 85.1974L217.42 85.3238C217.189 85.4647 217.208 85.8062 217.453 85.9205C217.633 86.0045 217.703 86.225 217.603 86.3972L217.332 86.8671C217.096 87.2769 217.246 87.801 217.664 88.0232L218.362 88.395C218.543 88.4913 218.741 88.5519 218.945 88.5736L222.092 88.9085C222.663 88.9692 223.191 89.2374 223.577 89.6621C224.099 90.2369 224.873 90.5153 225.641 90.4052L228.774 89.9568C229.288 89.8832 229.69 90.3915 229.501 90.8751C229.414 91.0985 229.451 91.3516 229.599 91.5405L230.464 92.6438C230.642 92.8718 230.789 93.1234 230.898 93.3916L232.103 96.3402C232.85 98.1708 231.754 100.231 229.818 100.634L228.656 100.876C228.526 100.903 228.412 100.984 228.344 101.099C228.179 101.379 228.337 101.739 228.655 101.805L229.002 101.879C229.331 101.948 229.57 102.232 229.581 102.568L229.605 103.284C229.627 103.968 230.072 104.567 230.721 104.786L232.302 105.32C232.983 105.551 233.422 106.213 233.368 106.929C233.298 107.862 232.435 108.529 231.514 108.36L225.525 107.262C224.237 107.026 222.977 107.798 222.603 109.053L222.385 109.78C222.108 110.708 222.621 111.688 223.541 111.99C224.405 112.273 224.919 113.16 224.735 114.051L224.321 116.048C224.234 116.472 224.462 116.896 224.864 117.056C225.427 117.281 225.607 117.99 225.217 118.455L220.499 124.092C219.898 124.81 219.665 125.766 219.869 126.681L219.989 127.221C220.055 127.516 220.022 127.824 219.895 128.098L219.84 128.216C219.53 128.887 218.711 129.146 218.071 128.776L216.89 128.093C216.674 127.968 216.655 127.663 216.854 127.512C217.039 127.372 217.036 127.092 216.851 126.952C216.779 126.898 216.688 126.872 216.599 126.882L212.092 127.383C211.389 127.461 210.678 127.373 210.016 127.124L209.789 127.039C209.351 126.875 208.883 126.804 208.417 126.831L207.828 126.866C207.005 126.914 206.219 126.522 205.762 125.837C205.531 125.49 205.211 125.213 204.836 125.032L203.417 124.351C203.04 124.17 202.593 124.212 202.257 124.46C202.086 124.586 201.955 124.758 201.877 124.955L200.062 129.568C199.39 131.278 199.274 133.157 199.733 134.937L201.499 141.792C201.529 141.911 201.47 142.034 201.359 142.086C201.193 142.162 201.003 142.043 200.999 141.86L200.991 141.413C200.988 141.258 200.919 141.111 200.802 141.01L197.871 138.481C197.315 138.001 196.505 137.958 195.901 138.376C195.611 138.577 195.394 138.868 195.285 139.205L194.81 140.675C194.69 141.044 194.443 141.357 194.113 141.559C193.628 141.855 193.025 141.876 192.521 141.614L191.436 141.05C191.247 140.951 191.153 140.733 191.211 140.528C191.27 140.319 191.469 140.183 191.685 140.202L192.453 140.273C192.659 140.291 192.859 140.197 192.976 140.025C193.192 139.706 193.035 139.268 192.665 139.159L191.245 138.742C191.083 138.694 190.948 138.58 190.875 138.427C190.763 138.192 190.511 138.057 190.254 138.093L188.621 138.326C188.371 138.362 188.224 138.627 188.326 138.858C188.396 139.017 188.35 139.204 188.213 139.312L187.918 139.544C187.671 139.739 187.336 139.784 187.046 139.66L186.247 139.321C185.873 139.162 185.448 139.171 185.082 139.346C184.594 139.578 184.281 140.068 184.273 140.608L184.262 141.398C184.253 142.069 183.65 142.574 182.989 142.466C182.731 142.424 182.466 142.476 182.243 142.612L180.672 143.565C180.439 143.707 180.158 143.75 179.892 143.683C179.495 143.583 179.076 143.73 178.828 144.057L178.414 144.603C178.268 144.797 178.054 144.928 177.816 144.973C177.471 145.037 177.118 144.911 176.891 144.643L176.859 144.605C176.596 144.293 176.179 144.16 175.784 144.261L175.358 144.37C175.029 144.455 174.732 144.632 174.502 144.882L173.953 145.477C173.782 145.662 173.537 145.759 173.286 145.741L173.177 145.733C172.738 145.702 172.371 146.062 172.395 146.502L172.41 146.786C172.43 147.153 172.079 147.429 171.727 147.323C171.48 147.249 171.216 147.362 171.1 147.593L170.799 148.189C170.654 148.478 170.619 148.811 170.702 149.125L170.829 149.603C170.974 150.151 170.713 150.725 170.206 150.977C169.832 151.162 169.389 151.139 169.036 150.915L167.828 150.147C167.436 149.898 166.934 149.912 166.557 150.181C166.158 150.467 165.62 150.464 165.224 150.174L164.84 149.893C164.589 149.709 164.245 149.718 164.004 149.914C163.768 150.105 163.434 150.118 163.184 149.946L162.088 149.191C161.165 148.556 159.946 149.393 160.207 150.482C160.331 151 160.105 151.539 159.648 151.814L157.817 152.914C157.196 153.288 156.709 153.849 156.427 154.517L156.273 154.882C156.168 155.131 156.007 155.351 155.802 155.527L155.368 155.899C154.808 156.378 154.793 157.239 155.335 157.738C155.783 158.151 155.862 158.828 155.521 159.333L153.945 161.665C153.591 162.189 153.351 162.781 153.241 163.404L152.738 166.259C152.661 166.694 152.713 167.141 152.889 167.546C153.056 167.933 153.329 168.265 153.676 168.505L154.499 169.074C154.8 169.282 154.974 169.63 154.96 169.996L154.939 170.54C154.929 170.783 155.106 170.993 155.346 171.026C155.587 171.058 155.763 171.268 155.754 171.511L155.75 171.614C155.738 171.905 155.513 172.144 155.223 172.172L154.723 172.221C154.393 172.254 154.131 172.515 154.099 172.845L154.083 172.998C154.065 173.18 154.157 173.355 154.316 173.444C154.712 173.667 154.58 174.268 154.128 174.305L152.899 174.404C152.442 174.441 152.1 174.839 152.132 175.297L152.223 176.598C152.27 177.274 152.956 177.713 153.59 177.473L153.735 177.418C153.959 177.333 154.212 177.365 154.408 177.504C154.778 177.768 154.816 178.304 154.485 178.616L153.789 179.272C153.425 179.616 153.255 180.119 153.338 180.614L153.509 181.644C153.535 181.797 153.503 181.955 153.419 182.086L152.798 183.055C152.612 183.346 152.16 183.197 152.184 182.853C152.191 182.74 152.141 182.631 152.051 182.563L151.779 182.359C151.617 182.237 151.42 182.169 151.218 182.166L150.318 182.152C149.564 182.139 148.842 181.847 148.293 181.33C147.925 180.985 147.478 180.737 146.99 180.609L146.322 180.433C145.857 180.311 145.432 180.07 145.087 179.733L144.6 179.258C144.201 178.868 143.626 178.717 143.087 178.861C142.76 178.948 142.413 178.928 142.098 178.803L141.467 178.554C141.116 178.415 140.818 178.169 140.615 177.851C140.374 177.472 140.284 177.017 140.363 176.576L140.559 175.474C140.601 175.237 140.56 174.991 140.441 174.781C140.277 174.49 139.984 174.295 139.652 174.257L137.842 174.05C137.058 173.96 136.31 173.671 135.67 173.209L134.955 172.693C134.593 172.432 134.296 172.091 134.087 171.696C133.575 170.729 132.548 170.132 131.455 170.15C131.072 170.156 130.687 170.088 130.331 169.949L128.951 169.41C127.777 168.951 126.694 168.283 125.757 167.44L125.416 167.133C124.906 166.674 124.361 166.257 123.786 165.885L120.885 164.006C119.836 163.327 118.673 162.845 117.451 162.584L116.464 162.372C115.842 162.239 115.2 162.225 114.573 162.332L114.199 162.396C113.024 162.595 111.82 162.283 110.89 161.537L110.695 161.381C110.442 161.178 110.226 160.931 110.058 160.653L109.53 159.777C109.215 159.255 108.596 159.001 108.005 159.15L107.826 159.196C107.388 159.307 107.061 159.673 106.999 160.121C106.961 160.399 106.819 160.652 106.601 160.83L104.982 162.148C104.79 162.305 104.821 162.607 105.04 162.722C105.223 162.818 105.281 163.052 105.164 163.223L104.385 164.354C104.238 164.569 104.004 164.709 103.745 164.738L102.591 164.867C102.439 164.884 102.36 165.057 102.447 165.183C102.542 165.322 102.438 165.509 102.27 165.501L101.419 165.462C101.177 165.45 100.963 165.301 100.87 165.077L100.722 164.722C100.471 164.121 99.7961 163.818 99.1803 164.03L98.1527 164.384C97.113 164.743 96.0418 163.932 96.1037 162.834L96.1489 162.033C96.1646 161.755 95.9809 161.506 95.7114 161.439L93.2144 161.146C93.1344 161.137 93.055 161.169 93.0035 161.231L92.9078 161.346C92.8046 161.47 92.6029 161.404 92.5924 161.243C92.5861 161.148 92.5065 161.075 92.4114 161.076L91.9449 161.084C91.6141 161.089 91.3369 161.335 91.2927 161.663L91.2403 162.052C91.126 162.901 90.1427 163.316 89.4548 162.806L88.272 161.928C87.8503 161.615 87.3215 161.483 86.8022 161.56L85.7236 161.72C85.5371 161.748 85.3535 161.655 85.2659 161.488C85.1406 161.249 85.2559 160.954 85.5101 160.864L85.5524 160.849C85.8226 160.753 85.9499 160.444 85.8255 160.185L84.7136 157.875C84.3082 157.032 84.4707 156.027 85.1209 155.355C85.7695 154.684 85.933 153.682 85.531 152.84L85.3956 152.557C85.2494 152.251 85.2106 151.904 85.2857 151.573L85.3307 151.374C85.43 150.937 85.2724 150.48 84.924 150.197L84.4605 149.821C84.3415 149.724 84.298 149.562 84.3526 149.418C84.4313 149.212 84.3048 148.985 84.0881 148.943L83.0015 148.733C82.8741 148.709 82.7554 148.651 82.6574 148.566C82.2248 148.191 82.3663 147.487 82.9103 147.308L82.9726 147.287C83.1879 147.216 83.3614 147.055 83.4474 146.845L83.6882 146.258C83.9827 145.54 83.7893 144.714 83.2067 144.201L82.5083 143.587C82.4071 143.498 82.2636 143.475 82.1398 143.528C81.9273 143.62 81.6863 143.483 81.6558 143.254L81.5515 142.468C81.5274 142.286 81.4512 142.115 81.3321 141.976L80.2825 140.748C80.22 140.675 80.1237 140.64 80.0287 140.656C79.8642 140.683 79.7617 140.849 79.8115 141.009L80.2712 142.479C80.319 142.632 80.3438 142.791 80.3448 142.951L80.3708 147.115C80.378 148.276 79.4853 149.245 78.3272 149.333L78.0315 149.355C77.5882 149.389 77.1517 149.231 76.8327 148.921L76.6706 148.764C76.4152 148.516 76.0563 148.405 75.7057 148.467C75.0623 148.579 74.4611 148.115 74.4079 147.464L74.2805 145.903C74.2569 145.614 74.1603 145.335 73.9998 145.094L73.8732 144.903C73.6266 144.532 73.5874 144.06 73.7694 143.654C73.9519 143.246 73.912 142.773 73.6636 142.401L72.5482 140.732C71.6726 139.422 70.2236 138.61 68.6493 138.546L67.0148 138.479C66.3351 138.452 65.7009 138.13 65.2772 137.598L65.1271 137.409C64.8358 137.044 64.4112 136.809 63.9466 136.756L63.8159 136.742C63.3855 136.693 62.9981 136.458 62.7562 136.099C62.5591 135.806 62.4734 135.452 62.5146 135.101L62.6443 133.998C62.6875 133.631 62.5469 133.266 62.2684 133.023C61.9473 132.742 61.4947 132.668 61.1007 132.832L59.6389 133.438C59.0723 133.674 58.4557 133.763 57.8457 133.698L57.1176 133.621C56.41 133.546 55.7193 133.356 55.0728 133.059L54.6819 132.879C54.0629 132.595 53.4007 132.415 52.7226 132.349L51.9994 132.278C51.3462 132.214 50.6881 132.332 50.098 132.619L48.8477 133.229C47.9945 133.644 46.9657 133.376 46.4238 132.597C46.2081 132.287 45.9061 132.048 45.5552 131.908L45.1827 131.76C44.5783 131.519 43.9159 131.465 43.2805 131.604L40.8877 132.128C40.3462 132.246 39.7801 132.123 39.3374 131.789L38.7743 131.365C38.4872 131.148 38.0966 131.13 37.7911 131.32C37.3726 131.58 36.8223 131.441 36.577 131.014L35.9925 129.996C35.7597 129.591 35.3926 129.28 34.9546 129.117L34.544 128.963C34.0401 128.775 33.5959 128.456 33.2576 128.038C32.8835 127.576 32.3807 127.235 31.8129 127.058L30.4739 126.642C30.0926 126.523 29.7368 126.335 29.4247 126.086L27.5774 124.612C27.3461 124.427 27.2911 124.098 27.4498 123.848L27.6038 123.606C27.7718 123.342 27.594 122.994 27.2814 122.976C27.1064 122.966 26.9572 122.846 26.91 122.677L26.9029 122.652C26.8567 122.486 26.9089 122.31 27.0372 122.196L27.6551 121.649C27.8546 121.472 28.0116 121.253 28.1142 121.007L28.9881 118.912C29.4671 117.764 30.9921 117.531 31.7918 118.484C32.0663 118.811 32.4561 119.02 32.8804 119.067L34.7844 119.278C35.6111 119.37 36.4122 119.621 37.1434 120.017L39.1143 121.085C39.7062 121.406 40.365 121.584 41.0379 121.603L44.3678 121.702C45.1683 121.726 45.8103 121.046 45.7412 120.248C45.7081 119.867 45.5132 119.517 45.2057 119.289L44.5931 118.834C44.2961 118.613 43.9327 118.501 43.563 118.515C42.969 118.537 42.4101 118.233 42.1059 117.723L42.0049 117.553C41.7878 117.189 41.695 116.764 41.7402 116.342L41.8559 115.265C41.9031 114.825 41.6968 114.397 41.3237 114.16L41.1058 114.021C40.5342 113.658 40.4944 112.839 41.0281 112.422C41.2561 112.244 41.3938 111.974 41.4043 111.685L41.5096 108.785C41.5433 107.856 42.2897 107.112 43.2182 107.081C43.6521 107.067 44.0656 106.893 44.3798 106.594L45.1368 105.872C46.0548 104.997 46.5621 103.776 46.5346 102.508L46.481 100.034C46.4783 99.9104 46.5267 99.791 46.6147 99.7038C46.8157 99.5048 46.7861 99.172 46.5531 99.0116L43.8333 97.1392C43.401 96.8416 43.3435 96.2252 43.7133 95.8528C43.9347 95.6298 44.0135 95.3021 43.9176 95.0028L43.1522 92.6138C43.0831 92.3982 43.1086 92.1635 43.2223 91.9677C43.494 91.5002 43.2333 90.9034 42.7056 90.7851L42.4175 90.7204C42.1829 90.6678 41.9746 90.5338 41.8295 90.3421L41.2841 89.6218C40.8647 89.0678 40.2891 88.6519 39.6314 88.4275L37.9985 87.8705C35.9611 87.1755 34.5791 85.2766 34.5442 83.1242L34.5348 82.5456C34.5261 82.0093 34.3734 81.4853 34.0925 81.0283L33.9504 80.797C33.5706 80.1791 32.9334 79.7643 32.2146 79.6671L31.9476 79.6311C31.1561 79.5241 30.5012 78.9501 30.2836 78.1816C29.9912 77.1491 28.9283 76.5243 27.8873 76.7848C26.8963 77.0329 25.8787 76.4885 25.535 75.5265L25.3432 74.9897C25.2429 74.709 25.0953 74.4474 24.9068 74.2164L21.4199 69.943C21.1577 69.6218 21.1958 69.1509 21.5061 68.8759L21.5977 68.7947C21.8737 68.5501 22.2972 68.5819 22.5336 68.8649C22.7388 69.1107 23.0918 69.1718 23.3677 69.0092L23.8174 68.7443C24.4851 68.3508 24.6235 67.4436 24.1035 66.8689C23.8589 66.5986 23.7476 66.2333 23.7998 65.8725L24.0131 64.3983C24.0301 64.2814 24.1084 64.1825 24.2184 64.1393C24.4491 64.0488 24.5004 63.7452 24.3123 63.5838L24.1355 63.4321C24.0027 63.3182 23.9444 63.1398 23.9842 62.9694L24.1878 62.0994C24.3774 61.2894 24.0294 60.4487 23.3228 60.0096L22.5282 59.5158C21.7547 59.0352 21.2189 58.2517 21.0516 57.3566L20.4298 54.0301C20.3668 53.6933 20.0981 53.4329 19.7594 53.3807C19.3149 53.3121 19.0121 52.8935 19.0863 52.4498L19.096 52.3918C19.1437 52.1064 19.0296 51.8181 18.7996 51.6426C18.3828 51.3249 17.7775 51.5001 17.595 51.9913L17.4089 52.4922C17.3267 52.7135 17.1289 52.8712 16.8949 52.9022C16.679 52.9308 16.4634 52.8472 16.3233 52.6805L13.3717 49.1714C13.0286 48.7634 12.9973 48.1774 13.2951 47.7352L13.5013 47.4292C13.6995 47.1348 13.6624 46.7415 13.4126 46.4894C13.0015 46.0744 13.2067 45.3692 13.7763 45.2396L14.8103 45.0044C15.4933 44.849 15.9396 44.1915 15.8318 43.4994L15.7964 43.2717C15.7009 42.6585 15.2553 42.158 14.6573 41.9922L8.67703 40.3341C7.76676 40.0818 7.0183 39.4333 6.63881 38.5683C6.42294 38.0762 6.08449 37.6477 5.65581 37.3237L3.48457 35.6827C3.15713 35.4353 3.08581 34.9723 3.32357 34.6377L3.37644 34.5633C3.58241 34.2735 3.52337 33.8729 3.24257 33.6548C3.21396 33.6326 3.18722 33.6081 3.16262 33.5815L2.59814 32.9717C1.84548 32.1586 1.58301 31.0061 1.90936 29.9472L2.37492 28.4368C2.41044 28.3215 2.38235 28.1961 2.30107 28.107C2.15864 27.9509 2.19135 27.7041 2.36953 27.5904L4.21497 26.4136C4.58948 26.1747 4.69617 25.6757 4.45204 25.3046C4.2696 25.0273 4.27833 24.6659 4.47392 24.3977L5.38456 23.1492C5.53267 22.9462 5.56451 22.6807 5.46862 22.4484C5.29668 22.0318 5.54421 21.5613 5.98489 21.467L9.69409 20.6733C9.93644 20.6214 10.188 20.7033 10.3533 20.8879L10.4653 21.0129C10.6486 21.2177 10.9605 21.2423 11.1737 21.0689C11.3541 20.9223 11.6105 20.9147 11.7993 21.0505L11.8973 21.121C12.2374 21.3657 12.716 21.2434 12.897 20.8656L13.1318 20.3757C13.2345 20.1613 13.2197 19.9092 13.0926 19.7083C12.8435 19.3148 13.0477 18.7926 13.4977 18.6725L14.2914 18.4606C14.7909 18.3273 15.163 17.9095 15.2379 17.3981L15.2458 17.3442C15.3148 16.8725 15.623 16.4701 16.0604 16.2806L16.5538 16.0668C16.9995 15.8738 17.2087 15.3596 17.0245 14.9102C16.9157 14.6447 16.9413 14.343 17.0933 14.0996L17.1076 14.0767C17.2641 13.826 17.529 13.6631 17.8233 13.6363L19.4397 13.4896C19.9461 13.4436 20.4081 13.7802 20.5196 14.2763C20.5878 14.5796 20.7915 14.8349 21.0721 14.9686L21.8843 15.3557C22.0775 15.4478 22.307 15.4158 22.4677 15.2744C22.626 15.1351 22.8513 15.1018 23.0431 15.1894L25.113 16.1342C25.4306 16.2792 25.7767 16.3513 26.1258 16.3451L26.7653 16.3338C27.8684 16.3143 28.7274 17.2858 28.5731 18.3781C28.4915 18.9559 28.696 19.5373 29.1214 19.9367L29.6221 20.4068C30.5165 21.2464 31.8556 21.4002 32.917 20.7851C33.3968 20.507 33.9488 20.3789 34.5021 20.4172L37.7325 20.6409C38.1014 20.6664 38.4312 20.4126 38.5011 20.0496C38.5606 19.7398 38.8121 19.5032 39.1248 19.4626L40.563 19.2756C40.9259 19.2284 41.2405 19.5267 41.2128 19.8916C41.1873 20.2266 41.4523 20.5124 41.7882 20.5124H45.6368C45.7301 20.5124 45.8148 20.5671 45.853 20.6522C45.9302 20.8239 46.1672 20.8414 46.2688 20.6829L46.2953 20.6415C46.3877 20.4975 46.5906 20.4782 46.7085 20.6022L47.183 21.1016C47.3244 21.2505 47.563 21.246 47.6987 21.092C47.8006 20.9764 47.9661 20.9411 48.1062 21.0051L48.8891 21.3625C49.1312 21.473 49.4177 21.3996 49.5768 21.1863C49.7768 20.9183 49.7015 20.5362 49.4149 20.3639L49.3967 20.353C49.1742 20.2193 49.0666 19.9549 49.1324 19.7038L49.1468 19.649C49.217 19.3813 49.4467 19.1859 49.7222 19.1594L51.6382 18.9757C52.1876 18.923 52.7162 18.7379 53.1786 18.4365L57.3409 15.7226C57.6854 15.4979 57.8663 15.0922 57.8032 14.6857L57.781 14.5429C57.7141 14.1128 57.9724 13.6985 58.3881 13.5692L59.0816 13.3535C59.3256 13.2776 59.4202 12.9825 59.2659 12.7788C59.1489 12.6244 59.1714 12.4057 59.3175 12.2783L59.7509 11.9003C59.9134 11.7586 60.1302 11.6959 60.3433 11.7291C60.7142 11.7868 61.0685 11.554 61.1627 11.1906L61.3495 10.4701C61.3943 10.2972 61.5197 10.1564 61.6864 10.092C61.9578 9.98709 62.1013 9.68816 62.016 9.40999C61.9031 9.04173 62.1856 8.66866 62.5706 8.68215L63.5224 8.71551C64.1097 8.73609 64.6306 8.34136 64.7698 7.77042L65.0518 6.61262C65.1753 6.10577 65.6046 5.73156 66.1235 5.67829C66.4122 5.64865 66.6812 5.5181 66.8831 5.30962L67.3259 4.85229Z" fill="#2969F6" stroke="#1D1D1D" stroke-width="2" stroke-linecap="round" stroke-linejoin="round"/>
</svg>
