<svg width="183" height="202" viewBox="0 0 183 202" fill="none" xmlns="http://www.w3.org/2000/svg">
<path d="M51.2318 4.11141C51.3663 4.21954 51.5275 4.28926 51.6984 4.31319L56.1942 4.94269C57.752 5.16081 59.3393 4.90024 60.7455 4.19553L61.3907 3.87222C61.8724 3.63085 62.3968 3.48637 62.9341 3.44697L63.0415 3.43909C63.4738 3.4074 63.9082 3.45544 64.3231 3.58083L65.684 3.99216C65.9926 4.08542 66.2322 4.32976 66.3194 4.6401C66.4188 4.99367 66.7142 5.25746 67.0768 5.31623L68.3958 5.53006C69.0787 5.64076 69.7033 5.98128 70.1664 6.49528L72.3923 8.96619C72.5474 9.13842 72.7804 9.21856 73.0087 9.17827L73.0425 9.1723C73.4131 9.10688 73.76 9.37339 73.7924 9.74834C73.825 10.1268 74.1777 10.3939 74.5509 10.3228L74.865 10.2629C75.1206 10.2142 75.3847 10.2778 75.59 10.4375C75.8621 10.649 76.2307 10.6877 76.5408 10.5371L77.5325 10.0556C77.9535 9.85112 78.4207 9.76062 78.8876 9.79309L82.2648 10.028C82.6655 10.0558 83.0479 10.2063 83.3601 10.459C83.74 10.7665 84.2213 10.9207 84.7092 10.8912L87.7878 10.7051C87.9861 10.6931 88.1776 10.6285 88.3427 10.5181C89.0664 10.0337 90.0415 10.5252 90.0828 11.395L90.1396 12.5901C90.1671 13.1705 90.6867 13.6021 91.2623 13.5228C91.633 13.4717 92.0007 13.6342 92.2125 13.9427L92.9531 15.0212C93.19 15.3662 93.5458 15.6118 93.9525 15.7109L94.4235 15.8258C94.8074 15.9194 95.097 16.2352 95.1571 16.6257C95.2283 17.089 95.6188 17.4362 96.0872 17.4529L99.0287 17.5576C99.7116 17.5819 100.347 17.2107 100.662 16.6041C100.875 16.1921 101.242 15.8805 101.684 15.7367L103.005 15.3059C103.187 15.2463 103.327 15.0986 103.377 14.9132C103.464 14.5882 103.813 14.4099 104.127 14.5298L104.823 14.7951C104.976 14.8533 105.138 14.8807 105.301 14.8759L109.104 14.7635C109.842 14.7417 110.554 15.0369 111.06 15.5745C111.346 15.8791 111.703 16.1094 112.098 16.2457L113.906 16.869C114.19 16.9669 114.435 17.1545 114.603 17.4035C114.812 17.7122 114.887 18.0919 114.813 18.457L114.796 18.5426C114.649 19.2643 115.015 19.9927 115.682 20.3052L116.626 20.7473C116.821 20.8386 116.975 20.9987 117.059 21.1969C117.228 21.5951 117.663 21.8096 118.081 21.701L119.64 21.2967C120.487 21.0769 121.388 21.2753 122.064 21.8305L122.314 22.0352C122.869 22.4912 123.556 22.7577 124.273 22.796L125.115 22.841C125.494 22.8612 125.863 22.9752 126.188 23.1727C127.131 23.7465 128.349 23.5691 129.09 22.7501L129.9 21.8537C130.58 21.1015 131.535 20.6558 132.549 20.6176L139.72 20.3473C142.783 20.2318 145.362 22.6166 145.486 25.6795L145.644 29.5617C145.688 30.662 146.652 31.4967 147.747 31.384L147.85 31.3734C148.288 31.3284 148.725 31.4589 149.066 31.7361C149.701 32.2515 149.866 33.1524 149.455 33.8593L148.402 35.6694C148.276 35.8864 148.206 36.1315 148.199 36.3825C148.172 37.2577 148.894 37.9718 149.769 37.9362L154.134 37.7586C154.547 37.7418 154.942 37.5815 155.25 37.3053C155.791 36.8193 156.574 36.7123 157.227 37.0351L157.932 37.3843C158.14 37.4874 158.365 37.5536 158.596 37.5802L160.04 37.7463C160.344 37.7813 160.619 37.5639 160.655 37.2601C160.677 37.0744 160.791 36.9123 160.959 36.8287L161.732 36.4425C162.1 36.2586 162.548 36.392 162.756 36.7475L162.776 36.7815C162.992 37.1513 163.475 37.263 163.832 37.0256L164.063 36.8717C164.275 36.7302 164.562 36.7866 164.705 36.9981C164.796 37.1316 164.81 37.3023 164.744 37.4493L164.597 37.7761C164.364 38.2951 164.568 38.9062 165.067 39.1802L165.231 39.2706C165.615 39.4813 166.095 39.3767 166.356 39.0256L167.058 38.082C167.224 37.8595 167.054 37.5449 166.778 37.5608C166.603 37.5707 166.452 37.442 166.434 37.2683L166.251 35.5154C166.234 35.3456 166.287 35.1759 166.398 35.0461C166.639 34.7642 167.072 34.7545 167.325 35.0252L167.562 35.2773C167.883 35.6205 168.444 35.561 168.686 35.158C168.896 34.81 169.354 34.7086 169.69 34.9359L172.86 37.0759C173.5 37.5079 174.337 37.5095 174.979 37.0801C175.387 36.8071 175.884 36.7025 176.367 36.7884L177.533 36.9956C177.835 37.0492 178.112 37.1964 178.325 37.4162C178.594 37.6928 178.961 37.852 179.346 37.8591L179.665 37.8649C180.363 37.8777 180.968 38.3521 181.148 39.0272C181.214 39.2767 181.217 39.5387 181.158 39.7899L180.966 40.596C180.742 41.54 180.241 42.3953 179.526 43.0517L178.427 44.0613C178.047 44.4106 177.813 44.8907 177.772 45.4053L177.706 46.2482C177.686 46.492 177.533 46.7048 177.307 46.7997C177.017 46.9221 176.855 47.2343 176.922 47.5424L177.011 47.9522C177.109 48.3994 176.687 48.7852 176.25 48.6485C176.024 48.5775 175.776 48.6479 175.621 48.8276L174.674 49.9232C174.29 50.3666 173.76 50.6572 173.18 50.742C171.963 50.9199 171.069 51.9758 171.093 53.2056L171.136 55.3892C171.145 55.8036 171.483 56.1352 171.898 56.1352C172.224 56.1352 172.514 56.3434 172.619 56.6527L172.936 57.5928C173.171 58.2883 172.658 59.0103 171.924 59.017C171.534 59.0205 171.173 58.8132 170.979 58.4749L170.712 58.0103C170.55 57.7271 170.32 57.4881 170.044 57.3143L168.24 56.1802C167.861 55.9423 167.659 55.5034 167.724 55.0611L167.758 54.8304C167.843 54.2562 167.388 53.7451 166.807 53.7625C166.345 53.7765 165.962 54.1277 165.909 54.5875L165.217 60.5697C165.143 61.2075 165.49 61.8197 166.076 62.0834C166.597 62.3183 166.936 62.8337 166.945 63.4057L166.957 64.2697C166.966 64.8633 166.788 65.4446 166.449 65.9317L165.738 66.9519C165.376 67.4717 164.827 67.8311 164.205 67.9548C162.765 68.2415 161.898 69.7215 162.352 71.1181L162.898 72.7961C162.981 73.0493 162.912 73.3273 162.721 73.5129C162.378 73.8461 162.464 74.4173 162.89 74.6353L163.206 74.7974C163.478 74.9367 163.667 75.1978 163.714 75.4997L163.718 75.5275C163.77 75.8595 163.652 76.1954 163.406 76.4234L160.728 78.8968C160.167 79.4146 159.685 80.0113 159.297 80.6682L157.19 84.2324C157.079 84.4209 157.053 84.6478 157.118 84.8566L157.128 84.8877C157.237 85.2344 157.076 85.6087 156.749 85.7676C156.493 85.8924 156.332 86.1547 156.337 86.4401L156.375 88.6549C156.396 89.8719 155.789 91.0139 154.768 91.6764L154.538 91.8256C153.876 92.255 153.418 92.9365 153.272 93.7117L153.154 94.3335C153.117 94.5292 153.143 94.7315 153.228 94.9115C153.519 95.5255 153.084 96.2358 152.405 96.2562L151.138 96.2942C150.833 96.3033 150.564 96.4963 150.458 96.7823C150.356 97.0571 150.103 97.2471 149.81 97.2687L147.983 97.4034C147.24 97.4582 146.683 98.1073 146.742 98.8502L146.752 98.9725C146.791 99.4649 146.516 99.9289 146.066 100.132C145.469 100.401 145.209 101.107 145.489 101.699L147.577 106.113C147.635 106.236 147.668 106.37 147.674 106.506L147.675 106.544C147.693 106.961 147.442 107.343 147.051 107.49C146.731 107.612 146.498 107.893 146.44 108.231L146.413 108.387C146.338 108.823 146.499 109.266 146.837 109.551L148.418 110.884C148.707 111.127 148.779 111.543 148.591 111.871L148.432 112.145C148.328 112.325 148.373 112.555 148.538 112.683C148.689 112.801 148.741 113.006 148.664 113.182L148.426 113.719C148.313 113.975 148.295 114.262 148.376 114.53L148.419 114.674C148.555 115.125 148.483 115.612 148.222 116.004L147.874 116.527C147.583 116.963 147.554 117.522 147.797 117.986C147.947 118.272 147.996 118.6 147.936 118.916L147.551 120.96C147.496 121.253 147.593 121.554 147.809 121.76C147.988 121.93 148.087 122.167 148.082 122.413L148.064 123.419C148.055 123.961 148.38 124.452 148.881 124.655C149.491 124.902 149.822 125.564 149.655 126.2L149.598 126.42C149.522 126.706 149.53 127.008 149.62 127.291L149.823 127.932C150.111 128.84 150.055 129.822 149.667 130.693L148.666 132.934C148.328 133.689 147.653 134.24 146.845 134.419L146.173 134.568C145.976 134.611 145.803 134.726 145.686 134.889L145.619 134.982C145.416 135.267 145.459 135.659 145.719 135.893C145.876 136.035 145.96 136.241 145.945 136.452L145.882 137.361C145.859 137.677 145.729 137.977 145.513 138.21C144.942 138.825 145.042 139.802 145.727 140.288L146.053 140.519C146.668 140.956 146.877 141.774 146.547 142.453L146.477 142.596C146.31 142.941 146.313 143.345 146.487 143.686C146.855 144.409 146.431 145.283 145.636 145.441L144.929 145.582C144.841 145.599 144.752 145.61 144.663 145.614L142.253 145.721C141.271 145.764 140.449 144.984 140.442 144.001L140.439 143.625C140.437 143.277 140.259 142.953 139.967 142.763C139.635 142.548 139.211 142.54 138.872 142.743L137.109 143.794C136.7 144.038 136.436 144.466 136.4 144.941C136.334 145.824 135.505 146.446 134.639 146.263L134.089 146.147C133.314 145.983 132.543 146.438 132.311 147.195C132.174 147.639 131.843 147.998 131.41 148.169L131.046 148.313C130.812 148.405 130.624 148.586 130.523 148.816C130.334 149.242 129.866 149.47 129.414 149.356L127.238 148.806C126.977 148.741 126.729 148.632 126.505 148.484C125.479 147.81 124.11 148.014 123.325 148.957L122.414 150.051C121.974 150.579 121.175 150.614 120.691 150.126L120.448 149.88C120.295 149.727 120.071 149.669 119.863 149.731C119.671 149.789 119.521 149.941 119.466 150.134L119.338 150.588C119.166 151.198 118.617 151.624 117.984 151.64L117.438 151.654C117.005 151.664 116.619 151.929 116.453 152.328L116.285 152.73C116.222 152.883 116.076 152.984 115.911 152.989C115.706 152.995 115.535 153.149 115.508 153.352L115.411 154.069C115.356 154.479 115.742 154.809 116.139 154.69L116.538 154.57C116.801 154.491 117.046 154.736 116.967 154.998C116.931 155.119 116.832 155.21 116.709 155.236L114.692 155.664C114.27 155.753 113.889 155.392 113.955 154.966L114.022 154.536C114.059 154.294 113.834 154.095 113.598 154.161C113.484 154.193 113.396 154.282 113.365 154.396L112.935 155.972C112.893 156.128 112.908 156.295 112.977 156.441L113.138 156.783C113.3 157.125 113.016 157.51 112.641 157.457C112.378 157.419 112.136 157.605 112.103 157.868L111.863 159.778C111.818 160.135 111.472 160.372 111.123 160.285C110.804 160.205 110.48 160.397 110.397 160.716L109.93 162.511C109.822 162.922 109.416 163.18 108.998 163.103C108.592 163.028 108.195 163.269 108.075 163.664L107.844 164.423C107.608 165.201 106.854 165.702 106.045 165.618L105.815 165.595C104.906 165.501 104.052 166.041 103.747 166.902L103.535 167.499C103.358 167.999 102.978 168.4 102.489 168.605L101.457 169.036C101.17 169.156 101.018 169.471 101.102 169.77L101.171 170.015C101.246 170.279 101.051 170.541 100.777 170.547L100.766 170.547C100.537 170.552 100.357 170.743 100.367 170.972C100.378 171.238 100.135 171.444 99.8738 171.388L99.6881 171.348C99.3853 171.282 99.0879 171.478 99.0278 171.782L98.9464 172.194C98.9001 172.428 98.7692 172.636 98.5786 172.78L98.1016 173.138C97.9415 173.259 97.8912 173.477 97.9827 173.655C98.1178 173.919 97.9388 174.234 97.6433 174.254L97.3764 174.271C97.0544 174.292 96.8097 174.569 96.8284 174.891L96.8696 175.597C96.8731 175.657 96.9089 175.712 96.9634 175.739C97.1261 175.821 97.0649 176.066 96.8829 176.062L90.9575 175.924C90.4988 175.913 90.0603 176.113 89.7673 176.466L89.6446 176.614C89.3351 176.987 88.8892 177.22 88.4064 177.262C88.0303 177.294 87.6737 177.444 87.3865 177.689L85.5899 179.222C85.4128 179.373 85.247 179.537 85.0938 179.712L84.6703 180.196C84.2432 180.685 83.9915 181.304 83.9554 181.952C83.9259 182.479 83.7527 182.99 83.4546 183.427C83.0222 184.06 82.3567 184.496 81.6036 184.639L79.817 184.98C79.2661 185.085 78.6979 184.926 78.2817 184.55C78.2107 184.486 78.1347 184.427 78.0544 184.375L76.6251 183.451C75.9231 182.996 75.6527 182.101 75.9859 181.334L76.1115 181.045C76.1921 180.859 76.2041 180.651 76.1453 180.458C75.9736 179.892 76.4158 179.328 77.006 179.36L77.0806 179.364C77.5672 179.39 77.9869 179.025 78.0297 178.54L78.1565 177.105C78.2186 176.403 77.6265 175.818 76.9255 175.888C76.5686 175.924 76.2502 176.128 76.0687 176.438L75.5781 177.274C74.8189 178.568 73.227 179.112 71.8345 178.553L68.6628 177.28C67.8489 176.954 66.9233 177.079 66.2252 177.609L64.4596 178.952C64.1453 179.191 63.6916 179.088 63.5113 178.737C63.4352 178.589 63.3038 178.476 63.1456 178.424L61.751 177.964C61.4116 177.852 61.1105 177.648 60.882 177.373C60.5155 176.932 59.9702 176.68 59.3971 176.686L59.2728 176.687C58.6915 176.693 58.1368 176.932 57.7332 177.35L55.3428 179.829C54.9098 180.278 54.5565 180.797 54.2979 181.365L53.9885 182.044C53.5834 182.934 52.8418 183.626 51.9266 183.969L51.7458 184.037C51.1888 184.246 50.5829 184.287 50.0028 184.155C49.4743 184.036 48.9234 184.059 48.4069 184.223L47.6812 184.454C47.2869 184.579 46.8635 184.579 46.4693 184.454L45.2446 184.064C44.8522 183.94 44.4338 184.161 44.3156 184.555C44.2081 184.914 43.8483 185.135 43.4795 185.069L42.4333 184.881C41.9394 184.792 41.4303 184.899 41.0143 185.18L39.0751 186.488C38.2559 187.041 37.1865 187.053 36.3552 186.518L35.6838 186.087C34.8691 185.563 33.7824 185.822 33.2915 186.657C32.9332 187.266 32.2364 187.591 31.5394 187.474L29.4297 187.121C29.1981 187.082 29.034 186.873 29.0507 186.639C29.0681 186.396 28.8915 186.183 28.6498 186.154L27.8358 186.058C27.4833 186.017 27.1291 186.12 26.8537 186.344L26.4136 186.701C25.7553 187.236 25.3922 188.054 25.4367 188.901L25.4714 189.562C25.4818 189.761 25.5309 189.955 25.6159 190.135C25.8266 190.58 26.2393 190.896 26.7241 190.984L27.3622 191.099C27.6705 191.155 27.9162 191.388 27.9873 191.694C28.0806 192.094 27.8493 192.499 27.4569 192.621L26.4158 192.947C26.0023 193.076 25.7524 193.496 25.836 193.921C25.895 194.22 25.7884 194.529 25.5569 194.728L25.1193 195.105C24.8329 195.351 24.6294 195.68 24.5362 196.046L24.5222 196.102C24.3234 196.883 23.679 197.472 22.8826 197.6L20.9333 197.912C20.144 198.039 19.5073 198.626 19.3176 199.402L19.2849 199.536C18.9613 200.86 17.3881 201.421 16.3001 200.6C16.1518 200.488 16.0207 200.354 15.9111 200.204L9.55271 191.495C8.6951 190.32 8.30208 188.87 8.44924 187.423L8.57064 186.229C8.59276 186.011 8.67017 185.803 8.79551 185.624C9.2025 185.042 9.05894 184.24 8.47533 183.836L7.01821 182.825C6.64098 182.564 6.39821 182.149 6.35463 181.693L6.30585 181.181C6.27891 180.899 6.41596 180.626 6.6586 180.478C6.94786 180.303 7.08123 179.954 6.98247 179.63L6.95234 179.531C6.87345 179.273 6.91881 178.992 7.07516 178.772L7.59762 178.035C7.72242 177.859 7.92478 177.755 8.14052 177.755C8.50022 177.755 8.79484 177.469 8.8058 177.109L8.84585 175.796C8.87081 174.978 8.3994 174.225 7.65218 173.891L7.16357 173.672C6.55521 173.4 5.87002 173.352 5.22961 173.537L3.85375 173.934C3.53136 174.027 3.18619 174 2.88199 173.858C2.62384 173.738 2.40884 173.542 2.26609 173.295L2.03419 172.895C1.84994 172.577 1.84174 172.187 2.01247 171.861L2.11736 171.661C2.24365 171.42 2.49637 171.273 2.76811 171.281L3.04785 171.29C3.31935 171.299 3.53845 171.07 3.51862 170.799C3.50453 170.607 3.61279 170.426 3.78924 170.348L4.68625 169.949C5.4487 169.61 5.69446 168.648 5.18787 167.985C5.05769 167.815 4.97199 167.615 4.93849 167.403L4.71561 165.994C4.64923 165.574 4.84622 165.155 5.2098 164.935C5.75819 164.604 6.47767 164.841 6.71497 165.436L6.73445 165.485C6.90592 165.915 7.35672 166.165 7.81232 166.082C8.11953 166.026 8.38132 165.826 8.51619 165.545L8.74458 165.068C8.99696 164.541 8.96353 163.922 8.65588 163.425L8.48572 163.15C8.28293 162.823 7.92682 162.622 7.5417 162.617C6.9555 162.61 6.47263 162.155 6.43173 161.57L6.36825 160.662C6.35139 160.421 6.27495 160.188 6.14578 159.984L5.79449 159.429C5.66389 159.223 5.4147 159.125 5.17847 159.187C4.74875 159.299 4.36486 158.891 4.50363 158.469L4.83116 157.473C4.94636 157.123 4.79531 156.74 4.47187 156.563L4.01921 156.315C3.35992 155.954 3.69864 154.948 4.44214 155.059C4.80298 155.113 5.14109 154.869 5.20457 154.51L5.62023 152.157C5.69617 151.728 5.64203 151.285 5.46475 150.886C5.31207 150.543 5.0736 150.244 4.77226 150.02L3.79879 149.294C3.42076 149.012 3.21209 148.557 3.24499 148.087C3.29511 147.37 3.8847 146.811 4.60291 146.799L7.32089 146.752C7.62342 146.747 7.90159 146.917 8.03428 147.189C8.15046 147.427 8.37968 147.59 8.64277 147.621L10.7392 147.869C11.0045 147.901 11.2513 148.021 11.4393 148.211C11.6899 148.464 12.0413 148.59 12.3957 148.555L13.46 148.448C14.4757 148.347 15.3553 147.699 15.7546 146.76L15.9277 146.353C16.0118 146.155 16.1479 145.984 16.3216 145.857L16.4157 145.788C16.7688 145.53 16.92 145.077 16.7926 144.659L16.6205 144.094C16.5348 143.812 16.2241 143.667 15.9532 143.782C15.571 143.944 15.171 143.592 15.2826 143.193L15.5125 142.369C15.564 142.184 15.5558 141.988 15.4892 141.809L14.7325 139.771C14.5335 139.235 14.9343 138.666 15.506 138.673C15.7402 138.676 15.9618 138.78 16.1142 138.958L16.5787 139.5C16.8782 139.849 17.3023 140.068 17.7606 140.109L18.4468 140.17C18.6423 140.188 18.8141 140.307 18.8987 140.485C18.9988 140.694 19.219 140.82 19.4506 140.799L19.8302 140.764C20.7715 140.678 21.1761 139.526 20.4948 138.871L20.1964 138.584C20.0648 138.457 19.9757 138.293 19.9412 138.114L19.8136 137.45C19.7907 137.331 19.675 137.254 19.5564 137.279C19.3643 137.318 19.2222 137.103 19.3339 136.942L19.5908 136.571C19.6771 136.447 19.8265 136.382 19.9763 136.404L20.1787 136.434C20.46 136.476 20.7398 136.35 20.895 136.111L21.5376 135.124C21.5961 135.034 21.612 134.923 21.5809 134.82C21.463 134.43 21.9766 134.17 22.2208 134.496L22.3064 134.61C22.3649 134.688 22.4505 134.742 22.5464 134.76L26.0675 135.418C26.3196 135.465 26.5327 135.23 26.4607 134.983C26.4121 134.817 26.4943 134.641 26.6527 134.572L29.8492 133.172L34.7444 131.481C34.8549 131.443 34.9764 131.453 35.0787 131.51C35.3732 131.673 35.7285 131.433 35.6873 131.099L35.6349 130.675C35.5873 130.289 35.8969 129.953 36.2851 129.968L37.6609 130.023C37.8506 130.031 38.0403 130.008 38.223 129.957L40.461 129.323C41.2525 129.099 42.0419 129.684 42.0576 130.507C42.0636 130.822 42.1883 131.124 42.4067 131.351L43.8971 132.905C44.0844 133.1 44.092 133.406 43.9147 133.61C43.6377 133.929 43.8335 134.428 44.2536 134.473L45.188 134.574C45.3272 134.589 45.468 134.575 45.6016 134.533L46.7845 134.161C47.3773 133.974 48.0226 134.064 48.5414 134.406C48.8634 134.619 49.1194 134.918 49.2804 135.268L50.8727 138.738C50.9625 138.933 51.128 139.084 51.3311 139.154L51.4287 139.188C51.6774 139.275 51.9539 139.201 52.1252 139C52.3239 138.768 52.3306 138.428 52.1412 138.188L51.7885 137.742C51.4242 137.28 51.4054 136.635 51.7423 136.153L53.6928 133.364C54.0841 132.805 54.3696 132.178 54.535 131.516C54.7033 130.842 54.7445 130.143 54.6567 129.455L54.5397 128.537C54.4124 127.538 54.5511 126.524 54.9418 125.597C55.2281 124.917 55.3801 124.189 55.3894 123.452L55.4057 122.171C55.4123 121.657 55.5221 121.149 55.7288 120.678C56.4258 119.088 58.1021 118.164 59.818 118.423L62.7596 118.867C63.8403 119.03 64.906 118.493 65.4171 117.527L65.5691 117.239C65.6909 117.009 65.7468 116.75 65.7308 116.49C65.7077 116.116 65.5371 115.766 65.2565 115.517L64.2339 114.611C64.0674 114.464 63.8599 114.37 63.639 114.343C63.043 114.27 62.6161 113.732 62.6802 113.135L63.2459 107.87C63.2994 107.373 63.0899 106.884 62.6932 106.58L62.4619 106.403C61.6705 105.796 61.8543 104.556 62.7877 104.204C62.8943 104.164 63.0057 104.139 63.119 104.128L66.9046 103.78C67.8861 103.69 68.6603 102.907 68.7391 101.924L68.7935 101.245C68.8248 100.855 69.0846 100.52 69.4552 100.392C69.9342 100.227 70.2102 99.7259 70.0935 99.233L69.4904 96.6856C69.2579 95.7037 68.6516 94.8511 67.8005 94.3091L65.8754 93.0832C64.8707 92.4434 63.6751 92.1723 62.4927 92.3162L61.9147 92.3865C61.6238 92.4219 61.3287 92.3995 61.0465 92.3205L60.2939 92.1098C59.5378 91.8982 59.0927 91.1176 59.2955 90.3591L59.3302 90.2293C59.4096 89.9325 59.3636 89.6161 59.203 89.3542C58.8529 88.7831 59.0787 88.0346 59.6861 87.7523L59.829 87.6859C60.0461 87.585 60.2874 87.548 60.5247 87.5792L61.6323 87.7248C62.096 87.7858 62.5088 87.428 62.5142 86.9603L62.5172 86.7066C62.5209 86.3845 62.8002 86.135 63.1207 86.1675L63.1399 86.1694C63.3428 86.19 63.5148 86.3276 63.5794 86.5211C63.6748 86.8069 63.9928 86.9515 64.2708 86.8355L66.2484 86.0108C66.5009 85.9055 66.6673 85.6607 66.6722 85.3871L66.6744 85.2659C66.6799 84.962 66.9253 84.7172 67.2291 84.7123C67.5779 84.7068 67.838 84.389 67.7745 84.046L67.46 82.3468C67.3886 81.9616 67.2071 81.6053 66.9373 81.3212L63.8628 78.0836C63.3722 77.567 62.7374 77.21 62.041 77.0593L60.5765 76.7424C59.8675 76.589 59.3504 75.974 59.3169 75.2493C59.3014 74.9131 59.1792 74.5891 58.9681 74.3271L58.8059 74.1257C58.5683 73.8308 58.4973 73.4352 58.6174 73.0761C58.7679 72.6262 58.6162 72.1304 58.2398 71.8417L57.397 71.1954C57.2112 71.0529 56.9871 70.9689 56.7534 70.9543C56.2349 70.9219 55.7988 70.5537 55.6798 70.048L55.5655 69.5616C55.4329 68.9979 55.0442 68.5287 54.515 68.2935L53.6176 67.8948C53.1911 67.7054 52.8046 67.4366 52.4785 67.1027L52.2828 66.9024C51.6802 66.2854 51.3668 65.4422 51.4203 64.5813L51.5083 63.1648C51.5144 63.0661 51.4723 62.9705 51.3953 62.9084C51.2145 62.7626 51.2565 62.4763 51.4715 62.3884L51.8392 62.2382C52.1402 62.1152 52.2649 61.7559 52.1047 61.4729L51.9911 61.2722C51.7718 60.8846 51.263 60.7759 50.9044 61.04L50.3013 61.4843C49.9888 61.7144 49.5824 61.7741 49.217 61.6435L49.0059 61.568C48.7947 61.4925 48.5604 61.5204 48.3728 61.6433C48.1574 61.7845 47.8828 61.799 47.6538 61.6814L47.0994 61.3969C46.7099 61.197 46.4892 60.7729 46.5489 60.3392C46.6347 59.7163 46.1477 59.1623 45.5189 59.1678L45.125 59.1712C44.7284 59.1746 44.3597 59.3758 44.1423 59.7075L43.7973 60.2337C43.7285 60.3386 43.7332 60.4754 43.809 60.5754C43.9834 60.8052 43.7601 61.1234 43.4847 61.0375L43.4344 61.0218C43.3258 60.9879 43.2072 61.0158 43.1248 61.0943C42.9157 61.2936 42.5701 61.1316 42.5912 60.8435L42.6251 60.3804C42.6395 60.1836 42.4737 60.0209 42.2773 60.0391C42.1302 60.0526 41.9931 59.9636 41.9456 59.8238L41.6967 59.0916C41.6092 58.834 41.4431 58.6104 41.2217 58.4521L40.1372 57.6768C39.1562 56.9755 38.5757 55.8422 38.5799 54.6362L38.5911 51.386C38.5924 51.017 38.2837 50.7226 37.9152 50.7413L37.7323 50.7506C37.4025 50.7674 37.1464 50.4669 37.2152 50.1439C37.2808 49.8362 37.0508 49.5446 36.7363 49.5367L36.4354 49.5291C36.1125 49.521 35.8799 49.2163 35.9573 48.9027C36.0412 48.5628 35.7625 48.2426 35.4143 48.2788L33.1799 48.5114C32.8585 48.5449 32.5632 48.3319 32.4935 48.0164C32.4248 47.7053 32.5971 47.3914 32.8964 47.2822L34.9146 46.5463C35.1944 46.4443 35.3782 46.1755 35.3719 45.8778C35.366 45.6063 35.2029 45.363 34.9539 45.2547L34.6437 45.1197C34.0173 44.8471 33.7352 44.1145 34.0171 43.4922L34.0702 43.375C34.2005 43.0874 34.4274 42.8546 34.7115 42.7169L34.7767 42.6853C35.2096 42.4754 35.5207 42.0765 35.6187 41.6055L35.7311 41.0653C35.8701 40.3973 35.742 39.7015 35.3742 39.1269L34.7974 38.2258C34.6118 37.9359 34.2769 37.7773 33.935 37.8174C33.4996 37.8685 33.0908 37.5983 32.9672 37.1778L32.7785 36.5365C32.675 36.1845 32.2696 36.0218 31.9514 36.2046C31.5731 36.422 31.1012 36.1489 31.1012 35.7126V35.638C31.1012 35.3204 31.3447 35.0558 31.6612 35.0295L33.2149 34.9002C33.4208 34.8831 33.5786 35.0799 33.517 35.2771C33.4666 35.4388 33.5643 35.6092 33.7293 35.6475L33.8362 35.6722C34.0278 35.7167 34.2228 35.6126 34.2925 35.4286L34.7218 34.2954C34.8553 33.9432 35.2377 33.7535 35.5988 33.8603C35.9118 33.9529 36.2479 33.8232 36.4176 33.5445L38.188 30.6358C38.47 30.1725 38.677 29.6675 38.8012 29.1395L39.2003 27.444C39.2787 27.1111 39.4538 26.8089 39.7036 26.5754L39.8217 26.4649C40.1652 26.1438 40.3283 25.6738 40.2575 25.2089C40.2128 24.9158 40.2607 24.6161 40.3943 24.3515L41.2963 22.5658C41.4268 22.3075 41.4398 22.0057 41.3322 21.7372L41.0982 21.1534C40.9586 20.8049 40.5191 20.6947 40.2316 20.9362L40.1895 20.9715C40.0533 21.0859 39.8636 21.1123 39.7012 21.0395C39.4683 20.935 39.3635 20.662 39.4668 20.4285L39.703 19.8947C39.8749 19.5062 39.7958 19.0524 39.5028 18.7448L38.6999 17.9022C38.2597 17.4402 38.1021 16.7772 38.2874 16.1666L38.3729 15.8845C38.4372 15.6728 38.5732 15.49 38.7576 15.3678C39.1327 15.119 39.2822 14.6415 39.1159 14.2233L38.8139 13.4637C38.5861 12.891 38.6413 12.2445 38.9628 11.7187L39.5405 10.7737C39.8998 10.1859 40.3991 9.6962 40.9937 9.34827L41.9161 8.80851C42.0551 8.72717 42.1731 8.6144 42.2607 8.47924C42.6245 7.9178 42.3657 7.16393 41.7337 6.94441L40.9083 6.65771C40.6999 6.58531 40.4795 6.55377 40.2591 6.56483L39.2781 6.61404C38.386 6.6588 37.502 6.42554 36.748 5.94645L35.6959 5.27782C35.5973 5.21518 35.5215 5.12248 35.4797 5.01343C35.3339 4.63317 35.6424 4.23348 36.0472 4.27808L42.41 4.97907C42.9311 5.03648 43.4583 5.00129 43.9671 4.87513L46.5316 4.23928C46.637 4.21316 46.7467 4.21016 46.8534 4.23048C47.4157 4.33769 47.8868 3.80211 47.7087 3.25804L47.4356 2.42389C47.3165 2.06002 47.5263 1.67056 47.8958 1.56995C48.0066 1.53978 48.1233 1.53862 48.2347 1.5666L50.1608 2.05041C50.6638 2.17675 50.9835 2.67043 50.893 3.18108L50.8897 3.19988C50.8289 3.54339 50.96 3.89277 51.2318 4.11141Z" fill="#E0FC52" stroke="#1D1D1D" stroke-width="2" stroke-linecap="round" stroke-linejoin="round"/>
</svg>
