<svg width="40" height="41" viewBox="0 0 40 41" fill="none" xmlns="http://www.w3.org/2000/svg">
<path d="M12.5906 2.37861C12.9285 1.83502 13.492 1.47115 14.1265 1.38676C14.6023 1.32347 15.0857 1.42195 15.4988 1.66639L15.8728 1.88763C16.3617 2.17692 16.9155 2.33891 17.4833 2.35878L20.3052 2.45751C20.7685 2.47372 21.213 2.64527 21.5671 2.94459C21.9071 3.232 22.1452 3.62154 22.246 4.05521L22.5104 5.19324C22.6547 5.81437 22.3495 6.45263 21.7755 6.7303C21.5333 6.84744 21.2619 6.89037 20.9954 6.85371L20.0968 6.7301C19.6881 6.67387 19.2774 6.81907 18.9948 7.11972C18.7306 7.40089 18.6079 7.78667 18.6614 8.16882L18.6914 8.38363C18.7479 8.78695 18.945 9.15735 19.248 9.42941L19.4318 9.59441C20.098 10.1924 21.0412 10.3707 21.8796 10.057L23.5048 9.44884C24.7074 8.99884 26.0477 9.10613 27.1634 9.74169L27.6958 10.0449C28.4094 10.4515 28.9199 11.1385 29.1031 11.9391L29.2189 12.4452C29.272 12.6768 29.2556 12.9189 29.1719 13.1412C29.0721 13.4061 28.8827 13.6275 28.6366 13.7671L28.1002 14.0712C27.2153 14.573 26.6563 15.5002 26.6259 16.517L26.5907 17.6906C26.5798 18.0553 26.6686 18.416 26.8477 18.7339C27.0506 19.0941 27.3601 19.3827 27.7336 19.5601L29.9873 20.6304C31.8244 21.503 33.1266 23.2097 33.4828 25.2121C33.628 26.0282 33.933 26.8076 34.3803 27.5055L38.3343 33.6743C38.6651 34.1904 38.6816 34.8476 38.3772 35.3796L38.3402 35.4442C38.0699 35.9165 37.5674 36.2079 37.0232 36.2079H36.8876C36.5927 36.2079 36.306 36.3217 36.0896 36.5219C35.8687 36.7263 35.7337 37.0114 35.7184 37.3119C35.6867 37.9313 35.1707 38.4147 34.5505 38.406L33.37 38.3893C33.0826 38.3852 32.7968 38.4333 32.5265 38.5312L29.4851 39.6329C29.0948 39.7743 28.6856 39.857 28.271 39.8784L27.7673 39.9043C26.6128 39.9638 25.5112 39.4156 24.8624 38.4588L24.753 38.2975C24.1447 37.4004 23.0966 36.9052 22.0172 37.005L21.6205 37.0417C21.2566 37.0753 20.8914 36.9936 20.5765 36.808C20.1757 36.5718 19.8861 36.1851 19.7723 35.7339L19.1904 33.4264C19.0258 32.7738 18.717 32.1664 18.2867 31.6489L17.9089 31.1946C17.7238 30.9721 17.4909 30.7943 17.2275 30.6745C16.908 30.5291 16.5549 30.4741 16.2064 30.5154L14.8509 30.6759C13.9567 30.7817 13.0503 30.6596 12.2161 30.3208L10.505 29.6259C10.2306 29.5145 9.92232 29.5216 9.65335 29.6455C9.19291 29.8576 8.64681 29.7181 8.34459 29.3111L7.02366 27.5321C6.78407 27.2095 6.49483 26.9268 6.1667 26.6948L3.15933 24.5679C2.99146 24.4492 2.84423 24.3038 2.72349 24.1374L1.83077 22.907C1.61181 22.6052 1.71792 22.1789 2.05281 22.015L2.25069 21.9181C2.55492 21.7692 2.91053 21.9881 2.9146 22.3268L2.92192 22.9347C2.92357 23.0718 3.08236 23.1469 3.18942 23.0612L3.29929 22.9733C3.35536 22.9284 3.43883 22.9643 3.44475 23.0359C3.45318 23.1377 3.59797 23.1485 3.62145 23.0491L3.87933 21.9577C3.92134 21.7799 4.15919 21.745 4.25051 21.9033C4.37008 22.1105 4.68691 21.9742 4.61874 21.7449L4.47077 21.2471C4.44032 21.1447 4.47489 21.034 4.55821 20.9671L4.99101 20.6197C5.12047 20.5157 5.27198 20.4428 5.43395 20.4064L10.3304 19.3061C10.4422 19.281 10.5571 19.2716 10.6715 19.2781L13.7067 19.4515C14.2511 19.4826 14.4663 18.7587 13.9934 18.4873C13.9395 18.4563 13.8805 18.4354 13.8191 18.4254L12.0815 18.1429C11.5098 18.0499 11.3486 17.3041 11.831 16.9834C11.9493 16.9048 12.038 16.7888 12.0828 16.654L12.6022 15.0935C12.8269 14.4183 12.9164 13.7055 12.8655 12.9957L12.2084 3.8253C12.1737 3.3404 12.2932 2.85693 12.5499 2.44407L12.5906 2.37861Z" fill="#393939" stroke="#1D1D1D" stroke-width="2" stroke-linecap="round" stroke-linejoin="round"/>
</svg>
