<svg width="287" height="173" viewBox="0 0 287 173" fill="none" xmlns="http://www.w3.org/2000/svg">
<path d="M285.416 80.2211C285.51 80.2916 285.576 80.3919 285.605 80.5053C285.662 80.7311 285.56 80.9672 285.357 81.0806L284.906 81.332C284.726 81.4323 284.575 81.5776 284.469 81.7538L284.14 82.2975C283.503 83.3495 282.371 84.0018 281.142 84.0255L280.282 84.042C279.516 84.0568 278.756 83.9002 278.059 83.5838L276.575 82.9106C276.065 82.6791 275.474 82.6975 274.978 82.9587C274.506 83.2075 274.166 83.6537 274.054 84.1756L274.008 84.3888C273.875 85.003 274.141 85.6343 274.673 85.9683L275.137 86.2594C275.716 86.6228 275.805 87.4312 275.318 87.9114C275.188 88.0396 275.027 88.132 274.851 88.1798L272.714 88.7598C272.384 88.8495 272.079 89.0141 271.822 89.2409L271.046 89.9279C270.894 90.0625 270.831 90.2712 270.882 90.4677L271.168 91.5558C271.228 91.7846 271.551 91.7876 271.616 91.56C271.676 91.3443 271.978 91.3317 272.056 91.5417L272.161 91.8225C272.194 91.9082 272.189 92.0033 272.148 92.0853L270.826 94.7522C270.139 96.137 269.917 97.7061 270.192 99.227L270.934 103.327C271.018 103.789 271.189 104.231 271.439 104.629C272.515 106.341 272.007 108.6 270.302 109.687L268.852 110.612C268.101 111.091 267.244 111.377 266.356 111.445L261.35 111.829C260.431 111.9 259.561 112.27 258.874 112.884C257.934 113.723 256.667 114.096 255.423 113.9L244.622 112.202C244.156 112.129 243.682 112.132 243.217 112.211L242.724 112.295C241.96 112.424 241.274 112.837 240.801 113.451C240.514 113.823 240.145 114.125 239.723 114.333L239.617 114.385C238.935 114.721 238.164 114.832 237.415 114.701L236.513 114.543C235.77 114.413 235.006 114.493 234.306 114.773L231.666 115.832C231.111 116.054 230.48 115.797 230.239 115.25C230.14 115.025 229.968 114.839 229.751 114.722L229.573 114.626C229.031 114.334 228.697 113.766 228.704 113.152C228.71 112.719 228.545 112.302 228.246 111.989L226.776 110.454C226.386 110.046 225.946 109.688 225.468 109.388L222.73 107.67C221.219 106.721 219.585 105.984 217.874 105.478L216.825 105.168C214.459 104.469 211.959 104.358 209.541 104.844L209.466 104.859C208.087 105.137 206.756 105.612 205.512 106.269L204.68 106.71C203.798 107.176 203 107.786 202.318 108.515L200.351 110.617C199.918 111.079 199.694 111.699 199.732 112.332L199.778 113.086C199.8 113.458 200.023 113.789 200.36 113.95C201.135 114.319 201.141 115.42 200.37 115.797L198.272 116.824C197.918 116.997 197.657 117.317 197.558 117.698C197.464 118.063 197.527 118.451 197.732 118.768L197.958 119.117C198.089 119.319 198.273 119.481 198.491 119.585L199.514 120.072C199.693 120.158 199.754 120.383 199.643 120.547C199.555 120.678 199.386 120.727 199.242 120.663L196.211 119.313C195.528 119.009 194.778 118.889 194.035 118.965L191.641 119.209C191.249 119.25 190.888 119.442 190.636 119.745C190.348 120.092 190.23 120.549 190.314 120.991L190.342 121.137C190.421 121.549 190.355 121.976 190.155 122.345L190.026 122.583C189.675 123.232 189.063 123.699 188.345 123.867L187.026 124.176C186.52 124.294 186.035 124.487 185.587 124.749C184.673 125.281 183.942 126.08 183.493 127.037L182.948 128.197C182.683 128.763 182.508 129.367 182.429 129.986L182.359 130.538C182.22 131.638 181.681 132.649 180.845 133.377L179.656 134.411C179.183 134.823 178.527 134.953 177.933 134.752L177.388 134.569C176.932 134.415 176.642 133.968 176.686 133.488C176.715 133.177 176.602 132.87 176.38 132.651L175.898 132.179C175.584 131.87 175.193 131.652 174.766 131.546L173.77 131.299C173.534 131.24 173.284 131.283 173.08 131.417C172.795 131.606 172.426 131.61 172.136 131.428L171.668 131.134C171.253 130.874 170.747 130.802 170.276 130.935L168.129 131.541C167.9 131.606 167.741 131.811 167.735 132.049C167.729 132.282 167.574 132.485 167.351 132.553L166.631 132.773C166.318 132.869 165.982 132.865 165.671 132.762L165.201 132.607C164.787 132.471 164.351 132.422 163.917 132.463L157.909 133.034C155.897 133.226 153.945 133.822 152.17 134.786C151.273 135.273 150.329 135.668 149.353 135.963L148.775 136.138C147.343 136.571 145.962 137.156 144.655 137.884L138.357 141.393C136.945 142.18 135.688 143.218 134.649 144.456C133.764 145.511 133.048 146.698 132.527 147.973L130.502 152.934C130.348 153.31 130.062 153.616 129.697 153.795C129.15 154.062 128.795 154.609 128.771 155.218L128.767 155.325C128.725 156.422 127.735 157.237 126.65 157.067L126.549 157.051C126.104 156.982 125.65 157.07 125.263 157.3L124.692 157.641C124.147 157.967 123.694 158.424 123.373 158.972L123.194 159.278C122.45 160.548 121.198 161.439 119.754 161.725L119.383 161.798C117.502 162.171 115.914 163.421 115.111 165.161L114.972 165.461C114.14 167.263 112.475 168.541 110.519 168.88L110.094 168.953C109.427 169.069 108.797 169.341 108.257 169.749C107.594 170.249 106.8 170.544 105.973 170.598L104.56 170.69C104.201 170.714 103.855 170.837 103.562 171.045C103.138 171.346 102.612 171.465 102.1 171.375L97.7254 170.606C97.1167 170.499 96.6832 169.955 96.7148 169.338L96.7159 169.316C96.7315 169.011 96.8658 168.724 97.0902 168.516C97.3066 168.316 97.5907 168.205 97.8856 168.205H98.0212C98.5654 168.205 99.0679 167.913 99.3382 167.441L99.3751 167.376C99.6796 166.844 99.6631 166.187 99.3323 165.671L95.3783 159.502C94.9309 158.804 94.6259 158.025 94.4807 157.209C94.1245 155.206 92.8224 153.5 90.9852 152.627L88.7315 151.557C88.358 151.38 88.0486 151.091 87.8456 150.731C87.6666 150.413 87.5777 150.052 87.5886 149.687L87.6238 148.514C87.6543 147.497 88.2132 146.57 89.0982 146.068L89.6345 145.764C89.8807 145.624 90.0701 145.403 90.1698 145.138C90.2535 144.916 90.2699 144.674 90.2169 144.442L90.1011 143.936C89.9178 143.135 89.4073 142.448 88.6937 142.042L88.1613 141.739C87.0456 141.103 85.7053 140.996 84.5027 141.446L82.8776 142.054C82.0392 142.367 81.0959 142.189 80.4298 141.591L80.246 141.426C79.943 141.154 79.7458 140.784 79.6894 140.38L79.6593 140.166C79.6059 139.783 79.7285 139.398 79.9928 139.117C80.2754 138.816 80.686 138.671 81.0948 138.727L81.9933 138.851C82.2598 138.887 82.5312 138.844 82.7734 138.727C83.3475 138.449 83.6526 137.811 83.5083 137.19L83.2439 136.052C83.1431 135.618 82.905 135.229 82.565 134.941C82.2109 134.642 81.7665 134.471 81.3031 134.454L78.4812 134.356C77.9134 134.336 77.3597 134.174 76.8707 133.884L76.1802 133.476C75.9721 133.353 75.7287 133.303 75.489 133.335C74.7943 133.427 74.1975 132.843 74.2752 132.147L74.3162 131.779C74.3765 131.239 74.8617 130.848 75.4026 130.905C75.6075 130.926 75.8139 130.883 75.9932 130.781L76.4127 130.544C76.8668 130.286 77.2289 129.893 77.4482 129.42L77.7177 128.837C77.9178 128.405 78.0479 127.944 78.1031 127.47L78.2637 126.092C78.3967 124.951 78.3797 123.798 78.2132 122.661L77.6833 119.045C77.6119 118.558 77.6141 118.062 77.69 117.575C77.8137 116.781 77.7409 115.968 77.4777 115.209L76.133 111.326C75.4293 109.295 74.4182 107.373 73.1445 105.641C72.2265 104.392 71.1723 103.241 70.0082 102.218L68.0445 100.492C67.5887 100.091 67.0763 99.7601 66.5238 99.5091L64.984 98.8095C63.7906 98.2673 62.3929 98.4491 61.3779 99.2784C60.802 99.7489 60.0894 100.021 59.3465 100.053L58.7281 100.08C57.8836 100.116 57.1097 100.562 56.6542 101.274L56.3458 101.756C56.0481 102.221 55.5289 102.497 54.9767 102.484C54.5394 102.473 54.126 102.282 53.8352 101.955L52.9759 100.989C52.4355 100.381 51.7423 99.9295 50.9684 99.6802L50.2697 99.4551C49.5753 99.2315 48.9187 98.9043 48.322 98.4847L47.8666 98.1645C47.1307 97.6469 46.4615 97.0404 45.8743 96.3587L42.5251 92.4703C41.4579 91.2313 40.3027 90.0708 39.0685 88.9981L37.2085 87.3813C36.1723 86.4807 35.0605 85.6712 33.8852 84.9617L32.0376 83.8463C30.8216 83.1122 29.484 82.6015 28.0882 82.3385C27.1827 82.1679 26.2605 82.103 25.34 82.145L23.2288 82.2414C21.1016 82.3385 19.0387 83.0006 17.2523 84.1594L14.7007 85.8147C13.4353 86.6355 11.8781 86.8728 10.4256 86.4661L3.44029 84.5099C2.78229 84.3257 2.55826 83.5064 3.03093 83.013C3.17834 82.8591 3.26669 82.6581 3.28042 82.4454L3.2932 82.2473C3.3226 81.7917 3.13559 81.3489 2.78853 81.0523L2.53456 80.8352C1.67444 80.1002 1.54447 78.8187 2.23949 77.9259L4.73962 74.7143C5.07068 74.2891 5.4543 73.9075 5.88133 73.5787L8.38857 71.6484L13.4026 68.7879C13.6805 68.6294 13.9766 68.5052 14.2844 68.4181L15.4417 68.0908C15.5819 68.0512 15.7316 68.0619 15.8647 68.1211C16.2267 68.2822 16.6452 68.069 16.7278 67.6815L16.7602 67.5292C16.8046 67.3208 16.9356 67.1412 17.1205 67.0352L21.6343 64.4471C21.976 64.2512 22.4032 64.2864 22.7083 64.5356L22.7951 64.6065C23.0356 64.8031 23.3699 64.838 23.6459 64.6955L23.934 64.5468C24.0685 64.4773 24.2327 64.5042 24.3381 64.613C24.4939 64.7739 24.7595 64.7449 24.877 64.5542L25.725 63.1774C25.8562 62.9644 25.8611 62.6969 25.7377 62.4793L25.7187 62.4458C25.605 62.2453 25.3897 62.1241 25.1593 62.1308L24.6934 62.1445C24.4693 62.151 24.3111 61.9269 24.3923 61.718C24.4125 61.666 24.4462 61.6204 24.49 61.5858L28.9613 58.0506C29.9594 57.2616 31.0262 56.5637 32.1489 55.9653L42.4431 50.4791C42.8801 50.2462 43.3529 50.0876 43.8419 50.0099L44.2215 49.9496C45.35 49.7703 46.3314 49.0773 46.8777 48.0736C47.0398 47.7759 47.16 47.4571 47.2349 47.1265L48.4952 41.5611L48.3246 42.1142C48.1118 42.8038 48.2011 43.5513 48.5703 44.1714C48.7472 44.4686 48.9828 44.7267 49.2626 44.93L50.7083 45.9805C51.0987 46.2642 51.5507 46.4516 52.0274 46.5273C52.5833 46.6156 53.1528 46.549 53.6733 46.3346L59.229 44.0468C60.0368 43.7142 60.7786 43.2398 61.4195 42.6461L64.9037 39.4184C65.2441 39.103 65.7525 39.0517 66.1491 39.2927L66.4886 39.499C66.8169 39.6985 67.2454 39.5795 67.4239 39.2393C67.51 39.0751 67.6608 38.9542 67.8399 38.9058L68.1446 38.8235C68.514 38.7238 68.7706 38.3887 68.7706 38.006C68.7706 37.7044 68.9311 37.4255 69.1919 37.2739L69.4725 37.1108C69.5556 37.0625 69.6482 37.0332 69.7439 37.0249C70.0484 36.9985 70.3304 37.1872 70.4221 37.4788L70.4502 37.5679C70.5808 37.9829 71.0295 38.2068 71.4396 38.0618L71.9553 37.8793C72.3397 37.7433 72.7621 37.9407 72.9044 38.3228L72.9872 38.5452C73.05 38.7139 73.2137 38.8234 73.3936 38.8171C73.5443 38.8118 73.6805 38.7256 73.7499 38.5917L75.0156 36.1485C75.1574 35.8748 75.4587 35.7227 75.7631 35.771C75.977 35.805 76.1947 35.7403 76.3553 35.5951L77.1748 34.854C77.8994 34.1987 79.0132 34.2243 79.7121 34.907C79.9643 35.1533 80.2839 35.3226 80.6296 35.3917L81.0155 35.4688C81.2313 35.5119 81.4219 35.6372 81.5472 35.8182C82.029 36.5147 83.1217 36.1535 83.0936 35.3071L83.0131 32.892C82.9995 32.4818 83.3404 32.1482 83.7501 32.1707C83.9344 32.1809 84.1153 32.1177 84.2532 31.995L85.534 30.8556C85.9276 30.5054 86.4616 30.358 86.9791 30.4566L87.8241 30.6177C88.0354 30.658 88.2488 30.5587 88.3541 30.3712C88.4335 30.23 88.4396 30.0591 88.3705 29.9125L88.0191 29.1674C87.6934 28.4768 87.0179 28.0177 86.2558 27.9691L82.2268 27.7122C81.9163 27.6924 81.6052 27.7385 81.3139 27.8475L80.3543 28.2064C80.2338 28.2514 80.1453 28.3558 80.1205 28.482C80.0774 28.7011 79.8518 28.8326 79.64 28.7622L79.4117 28.6864C79.0529 28.5672 78.9009 28.1432 79.1023 27.8232L79.4607 27.2539C79.5997 27.0332 79.6564 26.7705 79.6211 26.5121L78.721 19.9345C78.5946 19.011 78.8141 18.0733 79.3372 17.3017L79.4685 17.108C80.0793 16.2072 80.2113 15.0647 79.822 14.0484L78.8773 11.5819C78.7178 11.1655 78.9361 10.7 79.3582 10.5563C79.7265 10.4309 79.9478 10.055 79.8786 9.67214L78.7671 3.51858C78.6339 2.78088 79.131 2.07711 79.8708 1.95603C80.2825 1.88863 80.7022 2.01665 81.0063 2.30239L83.1524 4.31924C83.3091 4.46651 83.5019 4.56985 83.7113 4.61881C84.1699 4.72605 84.5262 5.08722 84.6272 5.54729L84.9538 7.03574C85.0227 7.34972 85.4048 7.47249 85.6436 7.25741C85.7611 7.15165 85.9281 7.12096 86.0755 7.17804L86.1148 7.19326C86.3288 7.27612 86.4561 7.49693 86.4205 7.72363L86.3098 8.42994C86.2517 8.80042 86.3475 9.17855 86.575 9.4767L86.7306 9.68065C86.9238 9.93389 87.1864 10.1255 87.4865 10.2323L88.0566 10.435C88.2566 10.5062 88.4793 10.4653 88.641 10.3278C88.9037 10.1045 89.3006 10.1506 89.505 10.4283L90.6603 11.9976C90.7138 12.0703 90.7881 12.125 90.8734 12.1546C91.0594 12.219 91.2657 12.1539 91.381 11.9944L92.7788 10.0598C93.034 9.7066 92.8816 9.20734 92.4726 9.05688C92.2627 8.97965 92.1064 8.80108 92.0577 8.58279L91.8263 7.54716C91.7333 7.1309 91.9103 6.70088 92.2694 6.47073C92.6162 6.24843 93.063 6.25767 93.4003 6.49411L93.9256 6.8623C94.1176 6.99686 94.2841 7.16459 94.4172 7.35759L95.3597 8.72415C95.5486 8.99803 95.6498 9.32288 95.6498 9.65559C95.6498 10.0464 95.5102 10.4245 95.2563 10.7216L94.004 12.1865C93.9254 12.2785 93.9137 12.4102 93.9748 12.5146C94.1074 12.7411 93.8883 13.0108 93.6395 12.9275L93.3179 12.8198C93.0787 12.7397 92.8245 12.8918 92.7819 13.1404L92.7789 13.158C92.737 13.4024 92.9116 13.6309 93.1585 13.6547L94.2682 13.7615C94.5504 13.7887 94.8186 13.8973 95.0402 14.0742L95.9875 14.8303C96.7668 15.4524 97.3368 16.2983 97.6208 17.2541L98.1235 18.9457C98.156 19.0551 98.1454 19.1727 98.0939 19.2745L98.0693 19.323C97.9711 19.5168 97.7342 19.5939 97.5408 19.495L97.4332 19.4399C97.2502 19.3463 97.029 19.4577 96.9952 19.6605L96.9388 19.9999C96.9022 20.2199 97.1829 20.3438 97.3208 20.1685C97.3994 20.0686 97.5469 20.0581 97.6388 20.1458L98.1308 20.6147C98.2588 20.7367 98.4582 20.7426 98.5931 20.6283C98.673 20.5606 98.7179 20.4604 98.7153 20.3558L98.6785 18.8609C98.6659 18.3449 98.8515 17.8437 99.1973 17.4605L99.2975 17.3493C99.4484 17.1821 99.6373 17.0537 99.8482 16.9748L100.393 16.771C100.496 16.7328 100.61 16.7486 100.698 16.813L100.777 16.8708C100.947 16.9945 100.916 17.2557 100.722 17.3364C100.603 17.3861 100.536 17.5136 100.562 17.64L100.698 18.2883C100.712 18.3523 100.731 18.415 100.756 18.4756L101.387 20.0091C101.474 20.2205 101.662 20.3738 101.886 20.4167L101.963 20.4312C102.072 20.4521 102.185 20.4331 102.282 20.3779C102.525 20.2391 102.592 19.9195 102.425 19.6948L102.146 19.3174C101.752 18.7859 102.06 18.0261 102.713 17.9189L103.934 17.7185C104.345 17.651 104.507 17.1466 104.211 16.853C104.076 16.7179 103.876 16.6702 103.693 16.7296L103.135 16.9117C102.706 17.0516 102.236 16.9868 101.861 16.7358L101.185 16.2835C100.732 15.9805 100.622 15.3614 100.944 14.921C101.097 14.711 101.328 14.5721 101.586 14.5361L104.177 14.1736C105.603 13.9743 107.047 14.379 108.161 15.2903L109.303 16.2239C109.459 16.3516 109.653 16.4232 109.855 16.4271C110.257 16.435 110.604 16.7078 110.708 17.0959L110.954 18.0241C111.145 18.7405 111.687 19.3106 112.393 19.5366L112.976 19.7232C113.545 19.9053 114.053 20.2386 114.447 20.6875L116.302 22.8007C116.386 22.8961 116.495 22.9654 116.617 23.0004C117.103 23.1402 117.259 23.7515 116.9 24.1076L114.81 26.1793C114.71 26.2776 114.572 26.3261 114.433 26.3114C114.238 26.2907 114.077 26.1494 114.031 25.9585L113.964 25.6846C113.872 25.3042 113.519 25.046 113.129 25.0737C112.552 25.1146 112.207 25.7337 112.476 26.2454L112.96 27.1687C113.17 27.57 113.578 27.8291 114.031 27.8489L114.958 27.8894C115.244 27.9019 115.453 28.1655 115.399 28.447C115.334 28.7877 115.648 29.079 115.983 28.9891L118.04 28.4363C118.188 28.3967 118.317 28.3085 118.408 28.186L118.55 27.9944C118.713 27.7756 119.028 27.7447 119.23 27.9278L119.381 28.0653C119.539 28.2085 119.791 28.1555 119.877 27.9609C119.939 27.822 119.892 27.6588 119.766 27.574L119.401 27.3285C119.206 27.1981 119.076 26.9923 119.04 26.7611L118.568 23.6854C118.518 23.3605 118.34 23.069 118.075 22.8757L117.67 22.5815C117.451 22.4227 117.369 22.1359 117.469 21.8852L117.553 21.6753C117.643 21.4525 117.513 21.2022 117.28 21.1458L117.04 21.0878C116.775 21.0237 116.57 21.3199 116.723 21.5458C116.837 21.7142 116.753 21.9452 116.557 22.0008L116.46 22.0282C116.309 22.0711 116.147 22.014 116.056 21.8857L114.354 19.4832C114.218 19.2915 114.047 19.1268 113.851 18.9979L113.077 18.4898C112.978 18.4249 112.851 18.4193 112.747 18.475C112.498 18.6084 112.209 18.3791 112.283 18.106L112.396 17.6903C112.49 17.3415 112.908 17.1993 113.195 17.4181L114.229 18.205C114.637 18.5156 115.186 18.569 115.647 18.3429C116.014 18.1623 116.444 18.1579 116.815 18.3308L118.546 19.137C118.757 19.2351 118.997 19.2521 119.219 19.1849C119.521 19.0937 119.848 19.1588 120.092 19.3583L121.061 20.1515C121.286 20.3364 121.415 20.6145 121.41 20.9063L121.405 21.2326C121.401 21.4615 121.247 21.6606 121.026 21.7219C120.715 21.8083 120.559 22.1555 120.7 22.4459L121.267 23.615C121.352 23.7891 121.582 23.8305 121.722 23.697C121.807 23.616 121.833 23.4913 121.789 23.3825L121.509 22.6935C121.338 22.2736 121.385 21.7965 121.634 21.4176L123.012 19.3207C123.24 18.9745 123.717 18.9014 124.038 19.1635C124.27 19.3536 124.355 19.6712 124.249 19.9521L123.899 20.8732C123.744 21.2803 123.737 21.7285 123.877 22.1406C124.082 22.7394 124.575 23.1943 125.189 23.3493L126.682 23.7267C126.795 23.7554 126.879 23.8517 126.892 23.9681C126.916 24.1975 127.192 24.3002 127.361 24.1426L127.69 23.8351C127.861 23.6754 127.9 23.4194 127.784 23.2162L127.606 22.905C127.526 22.764 127.527 22.5908 127.608 22.4504C127.757 22.1939 127.625 21.8659 127.34 21.7835L126.625 21.5763C126.443 21.5235 126.328 21.3427 126.359 21.1553C126.387 20.9861 126.526 20.8573 126.697 20.8423L127.858 20.7406C128.057 20.7231 128.247 20.6489 128.406 20.5267C128.856 20.1805 129.499 20.2545 129.858 20.6936L131.233 22.3738C131.46 22.6512 131.64 22.9639 131.766 23.2995L132.13 24.2664C132.599 25.5179 133.408 26.614 134.465 27.4321L136.76 29.208C137.703 29.9374 138.107 31.1671 137.781 32.3135L137.668 32.7106C137.593 32.9721 137.593 33.2491 137.667 33.5107L137.698 33.6196C137.936 34.4582 138.885 34.8653 139.657 34.4594C139.942 34.3093 140.165 34.0636 140.287 33.7653L140.926 32.2069C141.271 31.3631 142.272 31.005 143.074 31.4382L143.423 31.6266C143.69 31.7706 144.013 31.7613 144.271 31.6022C144.625 31.3841 144.768 30.9421 144.61 30.558L143.118 26.929C142.987 26.6102 143.041 26.2452 143.258 25.9779L143.754 25.3694C143.788 25.3276 143.783 25.2667 143.744 25.2301C143.654 25.146 143.762 25.0036 143.867 25.0683L148.557 27.9593C148.652 28.0174 148.729 28.0987 148.783 28.1955L148.975 28.5408C149.264 29.0615 149.325 29.6786 149.143 30.2458L148.651 31.7831C148.207 33.1675 147.198 34.2992 145.873 34.8979L143.913 35.7836C143.286 36.067 142.881 36.6884 142.873 37.3765C142.868 37.8942 142.636 38.3836 142.239 38.7154L140.55 40.1252C140.362 40.2826 140.229 40.4968 140.173 40.7358C140.057 41.2254 139.633 41.5806 139.13 41.6089L137.905 41.678C137.262 41.7143 136.859 42.3875 137.13 42.9711C137.308 43.3523 137.723 43.5626 138.135 43.4799L140.99 42.9071C141.921 42.7202 142.772 42.2503 143.426 41.5616L145.716 39.1496C146.345 38.4872 147.033 37.8832 147.771 37.345L147.9 37.251C149.299 36.2303 150.859 35.4503 152.516 34.9431L154.805 34.2419C154.962 34.1938 155.11 34.1197 155.242 34.0226L155.454 33.8673C156.034 33.4408 156.856 33.6068 157.226 34.2254L157.35 34.4316C157.508 34.6963 157.506 35.027 157.344 35.2895C157.086 35.7087 156.52 35.8106 156.132 35.5081L155.807 35.2546C155.439 34.9684 154.939 34.9215 154.524 35.1345L152.103 36.3789C151.459 36.7103 150.998 37.3149 150.85 38.0244L150.818 38.1735C150.453 39.9227 152.122 41.4092 153.818 40.8436L155.527 40.2733C156.01 40.1121 156.521 40.4286 156.592 40.933L156.646 41.3179C156.685 41.5919 156.952 41.772 157.221 41.7047C157.384 41.6636 157.558 41.7144 157.673 41.8373L157.925 42.1051C158.281 42.4831 158.321 43.0592 158.022 43.483L157.375 44.3984C157.237 44.5944 157.041 44.7463 156.817 44.8333C156.421 44.9875 156.13 45.3407 156.059 45.7601C155.971 46.2845 155.55 46.6895 155.023 46.7573L153.98 46.8914C153.583 46.9425 153.215 47.1277 152.938 47.4164L151.62 48.7885C151.319 49.1022 151.454 49.6235 151.87 49.7512C152.049 49.8061 152.19 49.9432 152.251 50.12L152.265 50.1597C152.39 50.5265 152.802 50.7088 153.158 50.5556L155.835 49.4047C156.082 49.2986 156.355 49.2698 156.618 49.3221C156.978 49.3936 157.352 49.3126 157.651 49.0984L158.63 48.3958C158.755 48.3061 158.895 48.2401 159.044 48.2011L161.636 47.5229C162.383 47.3275 162.86 48.2972 162.249 48.7695L161.737 49.1657C161.49 49.3569 161.565 49.748 161.866 49.8339C162.033 49.8819 162.147 50.0376 162.142 50.212L162.133 50.5089C162.115 51.1187 162.784 51.5024 163.301 51.1786L164.227 50.5989C164.586 50.3736 165.058 50.4523 165.325 50.7822L165.534 51.0406C165.75 51.3083 165.675 51.7063 165.376 51.8762C165.204 51.9734 165.097 52.1537 165.093 52.3506L165.088 52.632C165.082 52.9363 165.209 53.2281 165.435 53.432L165.501 53.4921C165.929 53.8783 166.565 53.9215 167.041 53.5965L167.293 53.4243C167.484 53.2939 167.701 53.2054 167.929 53.1648L169.584 52.8695C170.287 52.7442 170.898 53.3595 170.768 54.0611C170.708 54.3832 170.807 54.7144 171.033 54.9516L171.587 55.5334C171.901 55.8633 172.296 56.1046 172.734 56.2332L173.248 56.3846C174.418 56.7289 175.403 57.5243 175.987 58.5956L178.503 63.2164C178.962 64.0601 179.308 64.961 179.53 65.8956L180.423 69.6513C180.666 70.676 180.404 71.7554 179.717 72.5538C179.348 72.9824 178.875 73.3086 178.344 73.5009L176.775 74.0679C176.418 74.1973 176.106 74.4297 175.88 74.7359C175.47 75.291 175.387 76.0228 175.664 76.6552L176.904 79.4922C177.125 79.9978 177.402 80.4766 177.732 80.9194L178.516 81.9755C179.033 82.6702 179.662 83.2733 180.378 83.7596L182.258 85.0367C182.523 85.217 182.843 85.2997 183.163 85.2704L183.228 85.2645C183.543 85.2356 183.835 85.0859 184.042 84.8467C184.318 84.5276 184.739 84.3734 185.157 84.4384L186.025 84.5737C186.395 84.6314 186.751 84.7628 187.07 84.9599L190.804 87.2671C191.626 87.7744 192.494 88.2016 193.397 88.5425L197.037 89.9172C197.202 89.9796 197.348 90.0858 197.457 90.2243C197.781 90.6335 197.726 91.2254 197.332 91.5677L197.026 91.8334C196.508 92.2836 196.559 93.1034 197.129 93.4859L197.529 93.7544C197.593 93.7974 197.629 93.8717 197.624 93.9488C197.606 94.1773 197.911 94.2701 198.024 94.0709L198.744 92.8051C198.821 92.6697 198.952 92.5739 199.105 92.5423L203.8 91.5694C203.909 91.5467 204.023 91.5773 204.106 91.6519C204.324 91.847 204.671 91.7068 204.692 91.4151L204.805 89.866C204.849 89.27 204.414 88.7458 203.821 88.6774L202.792 88.5587C202.112 88.4802 201.507 88.0883 201.157 87.4991L200.287 86.0349C199.804 85.222 199.125 84.5438 198.311 84.0626L197.772 83.744C197.232 83.4248 196.79 82.9632 196.495 82.4098L195.441 80.4354C195.283 80.1394 194.938 79.9966 194.617 80.0947C194.312 80.188 193.982 80.0637 193.814 79.7922L188.525 71.2249L186.153 68.1402C185.703 67.5556 185.179 67.0329 184.592 66.5858C183.906 66.0627 183.305 65.4368 182.811 64.7303L178.9 59.1469C178.655 58.7966 178.343 58.4977 177.983 58.2671C177.456 57.9295 177.036 57.4479 176.774 56.8793L175.836 54.8426C175.707 54.5627 175.533 54.3053 175.323 54.0802L174.689 53.4032C174.549 53.2536 174.353 53.1687 174.148 53.1687C173.833 53.1687 173.552 52.9688 173.449 52.6708L171.256 46.3502C171.178 46.1233 171.064 45.9099 170.921 45.7175L169.658 44.0274C169.44 43.7359 169.54 43.3183 169.867 43.1572C170.148 43.0185 170.488 43.1272 170.637 43.403L177.382 55.9189C177.755 56.6125 178.182 57.2763 178.658 57.9042L194.079 78.251L199.337 83.7061C200.407 84.8153 201.575 85.8243 202.829 86.7203L204.144 87.6605C204.541 87.9446 204.964 88.1912 205.407 88.397C207.508 89.3729 209.932 89.3752 212.035 88.4034L213.67 87.6477C214.367 87.3258 215.093 87.0727 215.839 86.8922L221.36 85.5559C222.025 85.395 222.556 84.8963 222.759 84.2429C222.862 83.9118 223.052 83.6142 223.308 83.381L224.808 82.0179C224.995 81.8474 225.119 81.6181 225.159 81.3677L225.176 81.2608C225.216 81.0117 225.147 80.7576 224.986 80.5633C224.671 80.1825 224.733 79.6168 225.122 79.3127L228.558 76.6296C229.109 76.1989 229.412 75.5231 229.366 74.8249L229.364 74.7964C229.311 74.002 229.72 73.248 230.414 72.8577L230.938 72.5625C231.165 72.4352 231.437 72.4198 231.677 72.5208C232.243 72.76 232.369 73.5066 231.912 73.9182L231.668 74.1383C231.299 74.4708 231.214 75.0165 231.464 75.4456L232.282 76.8494C232.459 77.1527 232.687 77.4232 232.956 77.649L235.314 79.6292C236.065 80.2593 236.91 80.7668 237.819 81.1329L238.426 81.3773C239.356 81.752 240.361 81.9066 241.361 81.8292C242.481 81.7424 243.561 81.3666 244.493 80.7385L244.865 80.4879C245.228 80.2432 245.547 79.9388 245.808 79.5876L245.885 79.4846C246.376 78.8243 246.621 78.0128 246.576 77.191L246.532 76.3816C246.501 75.8234 246.727 75.2817 247.144 74.9098C247.322 74.7518 247.528 74.6297 247.752 74.5503L250.791 73.4711C251.969 73.0527 253.187 72.7561 254.425 72.5858L260.064 71.8108C260.745 71.7171 261.439 71.8093 262.072 72.0776L262.722 72.3529C263.201 72.5557 263.739 72.568 264.227 72.3873C264.675 72.2208 265.169 72.2177 265.62 72.3784L266.364 72.6437C266.734 72.7752 267.083 72.9575 267.401 73.1853L268.075 73.6669C269.123 74.4164 270.472 74.6057 271.686 74.1738L271.781 74.1401C272.225 73.9821 272.697 73.9168 273.167 73.9481C273.835 73.9925 274.476 74.23 275.011 74.6319L277.14 76.2297C277.513 76.509 277.939 76.7072 278.392 76.8115L279.032 76.9587C279.311 77.0229 279.603 76.9959 279.866 76.8817L279.994 76.8261C280.247 76.7158 280.445 76.5064 280.54 76.2468C280.701 75.8077 281.142 75.5363 281.607 75.5901L281.79 75.6113C282.122 75.6499 282.425 75.8204 282.63 76.0845L283.164 76.7722C283.391 77.0631 283.477 77.4386 283.402 77.7991C283.302 78.2747 283.486 78.7651 283.874 79.0577L285.416 80.2211Z" fill="#393939" stroke="#1D1D1D" stroke-width="2" stroke-linecap="round" stroke-linejoin="round"/>
</svg>
