<svg width="190" height="237" viewBox="0 0 190 237" fill="none" xmlns="http://www.w3.org/2000/svg">
<path d="M61.2994 1.59508C62.2516 1.82623 63.0354 2.49981 63.407 3.40649L63.783 4.3237C63.9234 4.66619 63.8889 5.0555 63.6905 5.36798C63.3523 5.90054 63.5105 6.60644 64.0437 6.9437L65.0345 7.57051C65.2102 7.68163 65.4002 7.76821 65.5993 7.82785L67.0629 8.26631C67.2696 8.32823 67.491 8.23366 67.5892 8.04152C67.7057 7.81365 67.9893 7.72987 68.2109 7.85789L68.3555 7.94142C68.4308 7.98494 68.4959 8.04417 68.5463 8.11508L69.5937 9.58949C69.9891 10.146 70.1709 10.8261 70.1061 11.5056L69.9317 13.3345C69.8928 13.7423 70.168 14.1138 70.5695 14.1953C70.8875 14.2599 71.1351 14.5101 71.1964 14.8288L71.2061 14.879C71.2733 15.2286 71.5453 15.5029 71.8944 15.5731L72.6714 15.7293C73.4271 15.8813 74.0346 16.443 74.2451 17.1845L74.2524 17.2103C74.4812 18.0158 75.1663 18.6086 75.9963 18.7193L76.1208 18.7359C76.9773 18.8501 77.6968 19.4361 77.982 20.2517L78.0424 20.4242C78.1483 20.7271 78.178 21.0513 78.1288 21.3684C78.0141 22.1089 78.333 22.8499 78.9498 23.2755L80.5677 24.392C81.3322 24.9196 81.7267 25.8388 81.5823 26.7565L81.5579 26.9111C81.4912 27.3353 81.2866 27.7257 80.9758 28.0219L80.5919 28.3879C80.2361 28.727 80.1266 29.2506 80.3168 29.7038L80.3493 29.7812C80.5272 30.2052 80.4139 30.6954 80.0681 30.9982L78.8919 32.0282C78.6199 32.2664 78.7684 32.7144 79.1287 32.743C79.2801 32.755 79.4123 32.85 79.4721 32.9896L80.2954 34.9148C80.5359 35.4772 80.5736 36.1058 80.4021 36.6929L80.3954 36.7157C80.2822 37.1033 80.2629 37.5123 80.3393 37.9087L80.4182 38.3187C80.5467 38.9867 81.0325 39.5297 81.6821 39.7315L82.0899 39.8581C82.7981 40.0782 83.2102 40.8141 83.0276 41.533C82.9386 41.8835 82.9892 42.2548 83.1688 42.5687L83.2299 42.6755C83.542 43.2208 84.1295 43.5493 84.7575 43.5296L85.1563 43.5171C86.1475 43.486 87.0526 44.0773 87.4224 44.9974L87.8244 45.9977C87.9388 46.2822 88.1149 46.5378 88.34 46.746L89.0546 47.4068C89.2342 47.5729 89.2967 47.8306 89.213 48.0606C89.0993 48.373 89.2579 48.7189 89.5689 48.8365L90.5583 49.2109C91.2162 49.4599 91.6492 50.0926 91.6429 50.7961L91.6348 51.707C91.6337 51.8298 91.591 51.9487 91.5137 52.0441L91.47 52.098C91.2323 52.3911 91.3918 52.8318 91.7619 52.905C91.9218 52.9366 92.087 52.8886 92.2049 52.7762L92.5867 52.4122C92.869 52.1431 93.2442 51.993 93.6342 51.993H93.7007C94.1363 51.993 94.5549 52.1617 94.8688 52.4638L95.9124 53.4684C96.2603 53.8032 96.6714 54.0654 97.1217 54.2397L97.7743 54.4922C98.2268 54.6673 98.5944 55.0098 98.801 55.4487L98.8524 55.5578C99.0633 56.0058 99.4658 56.3342 99.947 56.4508C100.229 56.5191 100.487 56.6611 100.696 56.8623L101.062 57.2149C101.864 57.9866 102.252 59.0922 102.11 60.1954L102.062 60.5617C101.915 61.7041 102.238 62.8574 102.957 63.7572L103.107 63.9448C103.54 64.4874 103.815 65.1398 103.9 65.8292L103.913 65.929C104.004 66.6669 103.854 67.4144 103.486 68.0604C103.034 68.8533 102.287 69.435 101.407 69.6783L99.9452 70.0826C99.2473 70.2757 98.5132 70.2985 97.8046 70.1492L96.306 69.8334C95.5346 69.6709 94.738 69.9609 94.2518 70.5814C93.9558 70.9591 93.5377 71.2221 93.0691 71.3254L90.5043 71.8905C90.1994 71.9577 89.8817 71.9381 89.5873 71.8338L89.1877 71.6921C88.754 71.5384 88.2705 71.6774 87.9847 72.038C87.8487 72.2095 87.6638 72.3355 87.4544 72.3992L85.6835 72.9379C85.1858 73.0893 84.6617 73.1332 84.1457 73.0668L83.7197 73.0119C83.0568 72.9265 82.3864 73.0997 81.8479 73.4957L80.0133 74.8443C79.7884 75.0097 79.7512 75.331 79.9322 75.5434C80.0488 75.6803 80.2321 75.7406 80.4073 75.6997L80.5177 75.674C80.854 75.5955 81.1946 75.7866 81.3027 76.1146L81.3837 76.3601C81.488 76.6765 81.7726 76.8989 82.1048 76.9237L82.4809 76.9517C82.6895 76.9672 82.8524 77.1383 82.8576 77.3475C82.8636 77.5848 83.0704 77.7667 83.3065 77.7423L84.1985 77.6502C84.8221 77.5858 85.3952 77.9983 85.5322 78.6101L86.1659 81.4401C86.2886 81.9881 86.8087 82.3522 87.3656 82.2801L87.5305 82.2587C88.0425 82.1924 88.5094 82.5589 88.5665 83.072L88.6353 83.69C88.6839 84.127 89.1893 84.3455 89.5409 84.0814C89.8219 83.8703 90.2253 83.9626 90.3866 84.2748L91.2248 85.8965C91.3608 86.1598 91.4399 86.4488 91.457 86.7447L91.4999 87.4914C91.553 88.4145 92.2983 89.1551 93.2208 89.219C93.7691 89.2569 94.2773 89.545 94.5862 89.9995L94.8629 90.4066C94.9668 90.5594 95.0022 90.7487 94.9608 90.9288C94.8922 91.2264 94.6267 91.4389 94.3214 91.4437C93.9374 91.4497 93.6327 91.7756 93.6572 92.1588L93.735 93.3752C93.7826 94.1184 93.3624 94.8126 92.682 95.1153C92.4304 95.2272 92.2083 95.396 92.0329 95.6082L91.4302 96.3381C91.0385 96.8124 90.9028 97.4481 91.0669 98.041L91.1432 98.3169C91.2365 98.6542 91.1829 99.0153 90.9955 99.3109L90.9111 99.4441C90.7792 99.6522 90.5662 99.7955 90.3238 99.8392L89.8082 99.9322C89.5047 99.987 89.3339 100.313 89.4617 100.594L89.4977 100.673C89.5928 100.881 89.4893 101.127 89.2734 101.205C89.0786 101.275 88.9718 101.485 89.0293 101.684L89.2192 102.341C89.3667 102.851 89.8515 103.188 90.3811 103.149L90.454 103.143C90.8168 103.116 91.1726 103.254 91.4232 103.518L92.1248 104.256C92.2851 104.425 92.5172 104.506 92.7476 104.473L93.1125 104.421C93.4182 104.378 93.6769 104.646 93.6221 104.95C93.5674 105.253 93.8249 105.521 94.13 105.479L94.416 105.439C94.5501 105.421 94.6866 105.444 94.8073 105.505L96.1481 106.188C96.4998 106.367 96.7562 106.69 96.8504 107.073C96.9481 107.471 96.8613 107.891 96.6139 108.217L95.6062 109.546C95.3954 109.824 95.0581 109.977 94.7101 109.951L94.3683 109.926C93.804 109.884 93.3766 110.426 93.5494 110.965C93.6032 111.133 93.5999 111.314 93.54 111.48L93.2949 112.159C93.2449 112.297 93.1023 112.379 92.9577 112.352C92.8029 112.324 92.6524 112.42 92.6124 112.572L92.4762 113.091C92.4035 113.369 92.2 113.594 91.931 113.693L91.3744 113.9C90.9265 114.066 90.716 114.579 90.9184 115.011C91.1191 115.441 90.9137 115.95 90.4714 116.12L90.2733 116.196C90.0628 116.277 89.9061 116.457 89.8549 116.676C89.7843 116.979 89.9283 117.292 90.2047 117.435L94.5489 119.682C94.9523 119.891 95.4079 119.977 95.8595 119.93C96.3667 119.877 96.8424 119.659 97.2135 119.309L98.6744 117.932C99.6527 117.009 101.096 116.781 102.311 117.357L103.388 117.867C103.616 117.975 103.882 117.972 104.108 117.859C104.362 117.731 104.665 117.745 104.907 117.894L106.878 119.109C107.132 119.266 107.417 119.367 107.714 119.404L108.365 119.485C108.731 119.531 109.092 119.37 109.304 119.068C109.493 118.797 109.804 118.638 110.134 118.643L110.45 118.648C110.756 118.652 111.055 118.745 111.309 118.915L112.304 119.578C113.032 120.063 114.014 119.891 114.534 119.187C114.905 118.684 115.529 118.436 116.144 118.547L116.983 118.698C118.297 118.935 119.298 120.009 119.441 121.336L119.616 122.944C119.71 123.818 120.164 124.613 120.868 125.139L122.427 126.304C122.778 126.566 123.267 126.534 123.58 126.228C123.795 126.019 124.101 125.932 124.394 125.998L126.449 126.458C126.747 126.524 127.058 126.421 127.256 126.189C127.564 125.829 128.11 125.801 128.452 126.128L128.94 126.593C129.119 126.763 129.347 126.873 129.592 126.908L129.748 126.929C130.295 127.006 130.803 126.633 130.894 126.089C130.931 125.862 131.045 125.655 131.216 125.501L132.238 124.58C132.562 124.288 133.044 124.256 133.404 124.501C133.641 124.663 133.939 124.708 134.213 124.624L134.836 124.434C135.135 124.343 135.399 124.166 135.597 123.924L135.691 123.808C135.972 123.464 136.41 123.286 136.851 123.338L137.007 123.356C137.556 123.42 138.069 123.075 138.216 122.543C138.285 122.294 138.439 122.077 138.65 121.928L139.836 121.091C140.463 120.649 141.227 120.447 141.99 120.521C142.513 120.572 143.015 120.751 143.452 121.042L144.463 121.714C144.631 121.826 144.747 122 144.786 122.198C144.896 122.756 145.56 122.997 146.003 122.639L146.314 122.387C146.438 122.287 146.535 122.159 146.599 122.014L146.684 121.822C146.989 121.129 147.684 120.689 148.44 120.71L150.377 120.764C150.579 120.769 150.778 120.812 150.964 120.89C151.801 121.239 152.196 122.201 151.846 123.038L151.464 123.951C151.27 124.414 151.213 124.924 151.3 125.419L151.505 126.595C151.546 126.831 151.472 127.072 151.305 127.244C151.033 127.524 151.023 127.966 151.281 128.259L151.534 128.548C151.69 128.724 151.788 128.943 151.816 129.177L151.92 130.034C151.979 130.525 152.28 130.954 152.722 131.177L153.126 131.382C153.629 131.636 153.832 132.248 153.581 132.752C153.402 133.111 153.45 133.542 153.703 133.854L154.055 134.287C154.183 134.444 154.232 134.651 154.19 134.849C154.114 135.201 153.775 135.43 153.42 135.368L153.087 135.31C152.94 135.284 152.793 135.352 152.716 135.48C152.566 135.73 152.76 136.046 153.052 136.025L153.143 136.018C153.304 136.006 153.458 136.091 153.534 136.234L154.776 138.575C154.988 138.975 155.336 139.285 155.757 139.451C156.379 139.698 157.086 139.598 157.616 139.189L158.886 138.208C159.141 138.012 159.488 137.985 159.769 138.14L160.218 138.387C160.476 138.529 160.797 138.379 160.853 138.09C160.883 137.939 160.99 137.815 161.135 137.764L162.87 137.149C162.962 137.117 163.028 137.034 163.039 136.936C163.06 136.755 163.257 136.652 163.417 136.739L165.434 137.836C165.769 138.018 166.153 138.089 166.531 138.039L166.943 137.985C167.493 137.912 168.034 138.171 168.322 138.645C168.486 138.913 168.738 139.12 169.032 139.23C169.541 139.419 169.902 139.882 169.957 140.422L169.98 140.648C170.057 141.409 169.63 142.131 168.926 142.429L168.882 142.447C168.615 142.561 168.385 142.745 168.216 142.981L168.089 143.158C167.796 143.567 167.286 143.76 166.796 143.648C165.745 143.407 164.904 144.525 165.428 145.469L165.877 146.279C166.138 146.749 166.155 147.317 165.922 147.802L164.864 150.008C164.745 150.256 164.739 150.542 164.846 150.795C164.979 151.109 165.269 151.328 165.608 151.37L167.037 151.548C167.239 151.573 167.396 151.736 167.414 151.938C167.431 152.14 167.587 152.302 167.788 152.329L168.402 152.409C168.732 152.452 169.028 152.629 169.222 152.898L169.407 153.154C169.524 153.316 169.601 153.503 169.633 153.699L169.684 154.017C169.745 154.393 169.549 154.763 169.205 154.925C168.721 155.153 168.563 155.765 168.877 156.198L169.07 156.464C169.262 156.729 169.234 157.094 169.004 157.326C168.695 157.638 168.766 158.157 169.146 158.376L169.612 158.644C169.779 158.74 169.918 158.878 170.013 159.045L170.339 159.616C170.677 160.207 170.835 160.885 170.794 161.565L170.692 163.243C170.618 164.452 171.161 165.616 172.133 166.337L172.433 166.559C172.877 166.889 173.419 167.061 173.972 167.049L174.552 167.036C174.761 167.031 174.965 167.101 175.129 167.231C175.425 167.468 175.54 167.865 175.415 168.223L174.583 170.618C174.524 170.786 174.527 170.97 174.591 171.137C174.712 171.452 174.61 171.808 174.341 172.012L173.654 172.532C173.452 172.685 173.361 172.945 173.424 173.19L173.455 173.311C173.496 173.472 173.626 173.595 173.788 173.627C174.051 173.68 174.202 173.956 174.106 174.205L173.854 174.859C173.758 175.109 173.764 175.386 173.869 175.632L174.076 176.11C174.229 176.467 174.471 176.779 174.778 177.017L175.482 177.563C175.826 177.83 175.982 178.273 175.882 178.697L175.868 178.754C175.699 179.469 174.875 179.804 174.255 179.41C173.983 179.237 173.648 179.196 173.343 179.298L170.188 180.352C169.728 180.505 169.386 180.894 169.294 181.37C169.234 181.681 169.285 182.003 169.439 182.279L170.684 184.515C171.053 185.178 170.956 186.001 170.445 186.561C169.738 187.335 169.859 188.552 170.705 189.171L170.96 189.358C171.398 189.679 171.691 190.16 171.774 190.697L171.965 191.937C172.073 192.636 172.326 193.304 172.708 193.9L174.191 196.215C174.628 196.896 175.217 197.467 175.911 197.884L180.283 200.503C180.494 200.629 180.767 200.552 180.882 200.335C181.028 200.056 181.414 200.025 181.602 200.277L182.062 200.893C182.182 201.053 182.246 201.248 182.244 201.447L182.193 206.812C182.189 207.302 182.453 207.755 182.882 207.993L183.639 208.413C183.921 208.569 184.008 208.935 183.826 209.201C183.673 209.424 183.706 209.726 183.905 209.911L184.767 210.711C184.99 210.919 185.283 211.036 185.589 211.041L187.161 211.065C187.361 211.069 187.488 211.282 187.395 211.46C187.314 211.615 187.4 211.805 187.57 211.846L188.137 211.983C188.522 212.076 188.761 212.46 188.674 212.846L188.584 213.247C188.511 213.568 188.27 213.823 187.954 213.914L187.928 213.921C187.636 214.005 187.411 214.237 187.337 214.53C187.241 214.908 186.901 215.172 186.512 215.172H186.265C186.068 215.172 185.876 215.112 185.714 215L185.184 214.632C185.076 214.556 185.043 214.411 185.108 214.296C185.192 214.147 185.109 213.96 184.942 213.921L183.466 213.581C183.076 213.491 182.667 213.574 182.342 213.808L181.843 214.169C181.579 214.359 181.267 214.472 180.942 214.493L179.036 214.619C178.447 214.657 178.143 215.342 178.51 215.804C178.704 216.048 178.722 216.388 178.555 216.651L178.539 216.677C178.311 217.037 177.835 217.146 177.473 216.919L177.111 216.693C176.911 216.567 176.653 216.59 176.477 216.747C176.278 216.925 175.976 216.927 175.775 216.75L174.041 215.233C173.796 215.019 173.489 214.887 173.164 214.857L172.975 214.839C172.62 214.807 172.299 214.612 172.107 214.311L172.06 214.239C171.675 213.639 170.829 213.563 170.343 214.084C170.142 214.3 169.863 214.425 169.568 214.431L169.021 214.443C168.578 214.452 168.23 214.826 168.252 215.269C168.285 215.922 167.555 216.328 167.018 215.956L165.974 215.233C165.351 214.801 164.499 214.939 164.043 215.544L163.25 216.596C162.897 217.065 163.015 217.735 163.508 218.055C164.123 218.455 164.122 219.357 163.505 219.755L163.314 219.879C163.11 220.011 162.871 220.075 162.63 220.064L162.059 220.037C161.173 219.996 160.391 220.61 160.222 221.48L160.067 222.272C159.989 222.674 159.631 222.96 159.222 222.948L158.973 222.94C158.761 222.934 158.57 223.064 158.497 223.262C158.399 223.53 158.095 223.658 157.835 223.541L156.199 222.804C155.955 222.695 155.669 222.811 155.571 223.06C155.472 223.312 155.18 223.428 154.935 223.311L153.691 222.718C153.015 222.396 152.208 222.539 151.684 223.074L150.48 224.303C150.16 224.629 149.778 224.887 149.356 225.061L147.998 225.623C147.466 225.843 147.135 226.377 147.174 226.951C147.197 227.275 147.1 227.596 146.903 227.854L145.523 229.664C145.369 229.866 145.112 229.96 144.863 229.907C144.578 229.845 144.368 229.602 144.349 229.31L144.34 229.179C144.317 228.826 144.072 228.527 143.731 228.434L143.111 228.265C142.984 228.231 142.852 228.299 142.807 228.422C142.737 228.61 142.486 228.646 142.366 228.485L142.287 228.379C142.232 228.305 142.148 228.257 142.056 228.249L141.28 228.179C140.498 228.108 139.89 228.844 140.107 229.598C140.272 230.174 139.953 230.778 139.384 230.966L138.749 231.176C138.456 231.272 138.144 231.293 137.842 231.235L132.492 230.215C132.144 230.149 131.785 230.244 131.516 230.474C131.284 230.673 130.984 230.772 130.679 230.752L129.227 230.654C129.014 230.639 128.815 230.761 128.73 230.956C128.667 231.102 128.539 231.21 128.384 231.246L125.529 231.919C125.188 232 124.899 231.66 125.032 231.336C125.123 231.116 125.019 230.864 124.799 230.773L124.481 230.642C124.258 230.549 124.004 230.567 123.795 230.689L123.022 231.14C122.317 231.552 121.882 232.305 121.878 233.121L121.868 234.955C121.866 235.292 121.58 235.558 121.244 235.535L120.853 235.509C120.646 235.495 120.513 235.282 120.593 235.089C120.65 234.949 120.597 234.788 120.466 234.711L120.393 234.668C120.227 234.57 120.015 234.603 119.888 234.747L119.504 235.181C119.302 235.408 118.944 235.4 118.753 235.163C118.612 234.988 118.369 234.931 118.164 235.026L117.656 235.261C117.306 235.423 116.899 235.409 116.562 235.222L114.784 234.236C114.454 234.053 114.053 234.061 113.731 234.257C113.373 234.474 112.919 234.457 112.578 234.214L111.812 233.668C111.478 233.43 111.208 233.113 111.026 232.745L110.502 231.68C110.316 231.302 110.282 230.868 110.407 230.466L110.532 230.063C110.634 229.736 110.549 229.38 110.31 229.135C109.962 228.776 109.958 228.206 110.301 227.843L111.874 226.177C112.111 225.926 112.3 225.636 112.432 225.318L112.494 225.17C112.845 224.33 112.725 223.369 112.181 222.64L111.827 222.167C111.684 221.976 111.478 221.844 111.245 221.793L110.58 221.649C110.411 221.612 110.244 221.721 110.208 221.891C110.162 222.11 109.908 222.211 109.724 222.083L109.533 221.95C109.425 221.875 109.354 221.759 109.337 221.629L109.18 220.443C108.991 219.015 107.865 217.894 106.436 217.71L105.812 217.63C105.059 217.534 104.349 217.224 103.765 216.738L102.094 215.346L102.008 215.262C101.543 214.808 101.384 214.126 101.601 213.513C101.815 212.904 101.66 212.226 101.201 211.772L100.168 210.751C99.961 210.546 99.9276 210.224 100.088 209.981C100.263 209.716 100.206 209.362 99.9569 209.166L94.4634 204.839C92.6832 203.436 91.562 201.36 91.3656 199.103L90.9972 194.871C90.9519 194.35 90.6962 193.87 90.2892 193.542L89.8079 193.154C89.3279 192.768 88.6349 192.799 88.1923 193.228C87.9173 193.495 87.5333 193.617 87.155 193.558L86.5234 193.46C86.0364 193.384 85.5379 193.453 85.0903 193.66L83.0992 194.577C82.509 194.849 82.1149 195.422 82.0719 196.07L82.0576 196.286C82.0339 196.643 81.8616 196.974 81.5825 197.199L81.2007 197.506C80.9286 197.725 80.5378 197.713 80.2798 197.478C80.008 197.23 79.9712 196.815 80.1952 196.523L80.2906 196.399C80.6493 195.932 80.4556 195.251 79.9046 195.042L78.7568 194.608C78.4473 194.491 78.1004 194.528 77.8233 194.709L76.5062 195.569C76.211 195.762 75.8308 195.499 75.9065 195.155C75.9402 195.002 75.8796 194.843 75.7523 194.751L72.3313 192.283C71.4783 191.668 70.2935 191.824 69.6289 192.639L69.3066 193.034C68.7228 193.75 67.6435 193.793 67.0051 193.125C66.7153 192.822 66.314 192.65 65.8945 192.65H65.6922C65.4327 192.65 65.1756 192.701 64.9352 192.798L61.5369 194.18C61.2587 194.293 61.12 194.606 61.2232 194.888C61.2955 195.086 61.4728 195.226 61.6818 195.251L62.7701 195.379C63.0057 195.407 63.2202 195.528 63.3653 195.716L63.3803 195.735C63.5782 195.991 63.6122 196.338 63.4679 196.627C63.373 196.818 63.2095 196.965 63.0104 197.041L60.6776 197.92C60.0602 198.153 59.4836 198.482 58.9691 198.895L57.942 199.719C57.6175 199.98 57.2211 200.135 56.8059 200.164C56.3305 200.197 55.8585 200.063 55.4714 199.785L55.039 199.475C54.6928 199.226 54.3042 199.043 53.8922 198.933L45.7656 196.77C45.0533 196.58 44.3052 196.57 43.5882 196.741L42.706 196.952C42.5178 196.996 42.3449 197.09 42.2049 197.224L42.1443 197.282C41.7388 197.668 41.0963 197.651 40.712 197.243L40.3915 196.904C40.0917 196.586 39.571 196.643 39.3475 197.018L39.1206 197.4C38.919 197.738 38.4121 197.681 38.2914 197.306C38.2455 197.163 38.1326 197.052 37.9892 197.008L37.6047 196.891C37.3477 196.812 37.072 196.82 36.8201 196.914L35.518 197.397C35.3793 197.449 35.2838 197.577 35.2741 197.725C35.2547 198.02 34.9171 198.178 34.678 198.003L34.4228 197.817C34.3301 197.749 34.2609 197.654 34.225 197.545L34.0674 197.067C33.8706 196.469 33.3017 196.075 32.6733 196.1L32.5157 196.106C31.8529 196.133 31.286 195.634 31.2278 194.973C31.1721 194.342 30.6495 193.853 30.0154 193.84L28.0733 193.8C27.6871 193.792 27.3571 193.519 27.2765 193.141C27.212 192.839 26.9858 192.598 26.6886 192.514L26.4475 192.446C26.2087 192.378 25.9955 192.241 25.835 192.052L25.6724 191.86C25.0214 191.093 23.9129 190.904 23.0445 191.413L23.0151 191.43C22.4296 191.773 22.0445 192.377 21.9801 193.052L21.8717 194.189C21.827 194.657 21.5462 195.071 21.1272 195.285C20.8317 195.435 20.4918 195.475 20.1698 195.395L19.2066 195.156C18.8449 195.066 18.5219 194.862 18.2856 194.574C17.777 193.954 16.9089 193.766 16.1886 194.118L14.5716 194.909C14.0236 195.177 13.3638 195.042 12.966 194.579C12.7507 194.329 12.4504 194.167 12.1229 194.124L11.2482 194.01C10.6297 193.929 10.0822 193.57 9.76259 193.034C9.31644 192.286 9.39491 191.338 9.95784 190.674L12.0902 188.158C12.2464 187.973 12.3512 187.751 12.3941 187.513L12.4953 186.952C12.5291 186.765 12.6692 186.614 12.8538 186.567L12.9258 186.549C13.318 186.449 13.3946 185.925 13.0474 185.717C12.8636 185.607 12.7815 185.383 12.8502 185.18L13.8561 182.208C13.9132 182.039 13.9123 181.856 13.8535 181.688C13.7206 181.308 13.8909 180.889 14.251 180.709L14.9213 180.375C15.4531 180.11 15.8011 179.579 15.8321 178.985L15.966 176.419C15.9777 176.195 15.9279 175.972 15.8219 175.774C15.437 175.056 15.8445 174.17 16.6398 173.994L19.9391 173.267C20.1147 173.228 20.2821 173.159 20.4336 173.062L21.5096 172.374C21.7268 172.235 21.7705 171.936 21.6023 171.741C21.5111 171.635 21.3736 171.581 21.2348 171.597L20.858 171.638C20.4921 171.679 20.1414 171.481 19.9882 171.146C19.8493 170.842 19.5463 170.648 19.2127 170.648H19.1124C18.7404 170.648 18.3986 170.443 18.2229 170.115L16.4377 166.784C16.2445 166.423 16.3337 165.976 16.6506 165.717C16.9192 165.498 17.0287 165.138 16.9279 164.806L16.492 163.371C16.3393 162.869 16.4571 162.323 16.8035 161.928L17.7872 160.807C17.9921 160.573 17.9063 160.207 17.6189 160.089C17.3781 159.99 17.2701 159.709 17.3826 159.474L17.7206 158.769C17.8504 158.498 17.8732 158.188 17.7843 157.901L17.501 156.986C17.376 156.583 17.4932 156.143 17.8026 155.856L17.8321 155.828C18.0198 155.654 18.2675 155.558 18.5238 155.561C19.1728 155.568 19.6564 154.964 19.5073 154.333L19.1518 152.826C19.1 152.607 19.0821 152.381 19.0987 152.156L19.2014 150.764C19.2837 149.649 18.3704 148.715 17.2539 148.771L17.0275 148.783C16.8079 148.794 16.5965 148.87 16.4201 149.001L16.2418 149.134C16.0099 149.306 15.6998 149.331 15.4431 149.198C15.2597 149.103 15.123 148.938 15.065 148.739L14.2554 145.976C13.9513 144.938 12.7617 144.452 11.8176 144.979L11.2181 145.315C11.0679 145.398 10.9734 145.556 10.9699 145.728C10.9629 146.068 10.6177 146.295 10.3028 146.167L9.48087 145.834C8.94671 145.618 8.67142 145.025 8.85096 144.477L9.51183 142.461C9.59683 142.202 9.76305 141.977 9.98588 141.82L10.2785 141.613C10.8204 141.23 10.8457 140.435 10.3293 140.019C10.002 139.755 9.87492 139.314 10.0113 138.916L10.0431 138.824C10.2685 138.167 9.85802 137.462 9.17501 137.335L8.78235 137.261C8.50203 137.209 8.28947 136.978 8.25973 136.695C8.22966 136.408 8.013 136.176 7.72905 136.127L3.10576 135.322C2.98102 135.301 2.85612 135.36 2.79385 135.47C2.7012 135.634 2.48185 135.673 2.33868 135.55L2.15203 135.391C1.96495 135.231 1.9217 134.959 2.04997 134.748L4.35323 130.975C4.76344 130.303 4.6427 129.435 4.06468 128.9L4.00827 128.848C3.43967 128.322 3.34166 127.459 3.77781 126.819L4.35726 125.969C4.46953 125.804 4.44179 125.582 4.2925 125.45C4.12575 125.302 4.11348 125.046 4.26535 124.883L4.67971 124.439C4.85767 124.248 5.10389 124.135 5.36463 124.125L7.17387 124.056C7.37538 124.049 7.57096 123.986 7.73952 123.875C8.13014 123.619 8.3177 123.145 8.20832 122.69L8.0705 122.118C7.91738 121.482 8.09426 120.812 8.54121 120.334L9.75235 119.04C10.0978 118.671 10.172 118.124 9.93711 117.676C9.77592 117.368 9.75709 117.006 9.88555 116.684L10.5005 115.14C10.5906 114.914 10.4558 114.662 10.218 114.611L9.28877 114.411C9.09016 114.369 9.09009 114.085 9.28867 114.043C9.44512 114.009 9.49116 113.808 9.36496 113.709L9.21669 113.594C9.03966 113.456 9.09231 113.175 9.30736 113.111L9.94628 112.92C10.1131 112.87 10.2513 112.752 10.3271 112.595L10.6188 111.992C10.8843 111.442 10.9031 110.805 10.6702 110.241L10.3472 109.459C10.1782 109.049 9.77514 108.785 9.33222 108.794C8.70514 108.807 8.20053 108.282 8.23789 107.656L8.28241 106.91C8.30041 106.609 8.24065 106.307 8.10886 106.036L7.50685 104.794C7.19017 104.14 7.39607 103.354 7.99221 102.939L8.62653 102.499C8.78611 102.388 8.99961 102.395 9.1514 102.516C9.35112 102.676 9.37274 102.972 9.19836 103.159L8.94118 103.434C8.58415 103.817 8.69242 104.435 9.15834 104.674L9.39454 104.795C9.66927 104.936 9.83791 105.223 9.8273 105.531C9.81401 105.918 10.0805 106.258 10.4591 106.338L11.2785 106.51C11.4521 106.547 11.6309 106.552 11.8064 106.526L12.4919 106.424C12.8977 106.363 13.184 105.994 13.1418 105.586L13.1382 105.552C13.1021 105.203 12.8213 104.929 12.4712 104.903L12.3064 104.89C12.1571 104.879 12.0244 104.791 11.956 104.657C11.8016 104.357 12.0381 104.003 12.3749 104.032L12.808 104.068C13.0592 104.089 13.2775 104.248 13.3734 104.482L13.4753 104.729C13.5645 104.946 13.7695 105.093 14.0034 105.107C14.3146 105.127 14.5906 104.909 14.6444 104.602L14.764 103.918C14.817 103.615 14.668 103.312 14.3954 103.169C14.0033 102.963 13.8941 102.452 14.1678 102.104L14.2537 101.995C14.5225 101.654 14.4794 101.162 14.1553 100.872L13.9138 100.657C13.618 100.392 13.4766 99.9959 13.5382 99.6041L13.8421 97.6732C13.8957 97.3325 14.0401 97.0125 14.2601 96.7469C14.623 96.3087 14.7729 95.7321 14.6693 95.1726L14.5823 94.7027C14.548 94.5174 14.5659 94.3262 14.634 94.1504L14.7961 93.7318C14.9155 93.4237 15.2666 93.2761 15.5702 93.4064C15.7299 93.4749 15.9118 93.4686 16.0664 93.3893L17.0247 92.898C18.0564 92.369 18.6363 91.2413 18.4664 90.0944L18.3725 89.4606C18.3055 89.0079 18.0271 88.6141 17.6226 88.3999C17.3331 88.2466 17.1046 87.9992 16.9749 87.6984L16.3943 86.3526C16.3249 86.1916 16.3144 86.0113 16.3647 85.8433C16.4617 85.5199 16.7639 85.302 17.1014 85.3123L19.4124 85.3824C19.5955 85.388 19.7725 85.3165 19.9004 85.1854C20.2684 84.8082 20.0619 84.1729 19.5424 84.0842L18.9564 83.984C18.7444 83.9478 18.5507 83.842 18.4057 83.6832L16.9349 82.0726C16.4505 81.5422 16.1644 80.8606 16.1253 80.1434L16.0385 78.5529C16.0179 78.1757 15.7598 77.8533 15.3962 77.7506C14.8627 77.5999 14.598 77.0008 14.846 76.5049L15.2025 75.7921C15.3304 75.5361 15.3847 75.2496 15.3593 74.9646L15.0216 71.1856C14.9123 69.9622 14.3997 68.8098 13.5644 67.9094L13.29 67.6137C12.8966 67.1896 12.6053 66.6814 12.4381 66.1276L11.9103 64.3787C11.8689 64.2415 11.761 64.1344 11.6234 64.0941C11.3449 64.0124 11.2287 63.6814 11.3951 63.4435L11.4535 63.3599C11.5574 63.2114 11.7337 63.1311 11.9138 63.1502L12.0359 63.1631C12.3325 63.1945 12.6169 63.0361 12.7462 62.7673L13.7741 60.6307C13.9098 60.3487 14.1431 60.1255 14.4308 60.0024L14.5667 59.9443C15.1233 59.7063 15.3959 59.074 15.1869 58.5059L15.1338 58.3616C15.0578 58.1549 14.8987 57.9896 14.6951 57.9057C14.4311 57.7968 14.2467 57.5535 14.2134 57.2698L14.0938 56.25C13.9781 55.2635 14.4496 54.3004 15.2997 53.7867L16.9339 52.7993C17.3488 52.5486 17.608 52.1045 17.6223 51.62C17.6437 50.8907 18.2119 50.2951 18.9393 50.2393L20.2456 50.139C20.4748 50.1214 20.6415 49.9137 20.6089 49.6861C20.576 49.4562 20.7462 49.2472 20.9779 49.2328L21.8718 49.1772C22.2103 49.1562 22.5221 48.9864 22.7235 48.7136C22.9963 48.3441 23.4631 48.1729 23.91 48.2784L24.4503 48.406C24.9273 48.5186 25.4112 48.2475 25.5643 47.7819C25.6605 47.4894 25.8932 47.2622 26.1878 47.173L26.3469 47.1249C26.749 47.0032 27.1852 47.0893 27.5109 47.3545L27.5624 47.3964C27.8186 47.6049 28.1407 47.7154 28.471 47.7078L28.528 47.7065C29.1899 47.6913 29.7683 47.2556 29.9657 46.6237L30.5244 44.8349C30.9513 43.468 30.644 41.9775 29.7113 40.8909L28.7551 39.7768C28.5772 39.5695 28.3524 39.4077 28.0995 39.3047L27.5003 39.0607C26.9066 38.819 26.6403 38.1261 26.9193 37.549C27.1097 37.1549 27.5139 36.9094 27.9515 36.9221L28.8616 36.9486C29.5135 36.9676 30.1473 36.7327 30.6293 36.2936L31.8417 35.189C32.0455 35.0033 32.3142 34.9054 32.5897 34.9163C32.9282 34.9298 33.2394 35.1059 33.4252 35.3892L33.7459 35.8783C34.3244 36.7607 35.4508 37.1036 36.4229 36.6933L37.2468 36.3455C37.4617 36.2548 37.6917 36.205 37.9248 36.1988L38.1669 36.1923C39.0403 36.169 39.7381 35.4578 39.7449 34.5841L39.7682 31.5792C39.7701 31.3307 39.4767 31.1976 39.291 31.3628C39.2145 31.4309 39.1074 31.4529 39.0102 31.4207L37.0703 30.7768C36.9628 30.7411 36.8472 30.7375 36.7377 30.7664L36.4242 30.8491C36.0845 30.9388 35.7896 30.5997 35.9256 30.2758C35.971 30.1675 35.9695 30.0453 35.9213 29.9382L35.6365 29.3046C35.4799 28.9565 35.1853 28.6893 34.8236 28.5674L34.275 28.3824C33.9625 28.2771 33.7706 27.9629 33.8194 27.6368C33.865 27.3331 33.7015 27.0366 33.4204 26.913L29.1534 25.0371C29.0248 24.9806 28.877 24.9888 28.7555 25.0593L28.2324 25.3629C28.1432 25.4146 28.1495 25.5455 28.2433 25.5884C28.3764 25.6493 28.318 25.8498 28.173 25.8298L27.8241 25.7816C27.7222 25.7675 27.6531 25.6705 27.6732 25.5696L27.9552 24.1507C27.9825 24.0132 28.0841 23.9023 28.2187 23.8631C28.4671 23.7908 28.5699 23.495 28.4198 23.2842L27.4472 21.9186C27.3059 21.7203 27.2128 21.4917 27.1753 21.2511L27.1139 20.8574C27.0488 20.4405 27.1906 20.018 27.4939 19.7247L27.8866 19.3448C28.1647 19.0758 28.1825 18.6358 27.927 18.3453C27.5917 17.964 27.7423 17.3651 28.218 17.1877L29.0952 16.8605C29.3923 16.7496 29.6418 16.5392 29.801 16.265L30.5774 14.928C30.7228 14.6776 30.7504 14.3758 30.6528 14.1032L30.4625 13.5722C30.3488 13.2548 30.5575 12.9135 30.8918 12.8701C31.0431 12.8504 31.1785 12.7663 31.2632 12.6395L31.5368 12.2296C31.7314 11.9381 31.8258 11.5911 31.8057 11.2412L31.779 10.7767C31.7642 10.52 31.854 10.2683 32.0279 10.0789L32.3695 9.70672C32.503 9.56128 32.5057 9.33868 32.3758 9.19004C32.1952 8.98346 32.2808 8.65978 32.5399 8.56954L32.6029 8.54761C32.8424 8.4642 32.9589 8.19351 32.8549 7.96222L32.653 7.51301C32.4416 7.04286 32.676 6.49233 33.1614 6.31882L33.3992 6.23378C33.7024 6.12541 33.9441 5.89145 34.0622 5.59193L34.6715 4.0473C34.7587 3.82629 35.0001 3.70824 35.2281 3.77511C35.5964 3.88314 35.9269 3.51849 35.7832 3.16252L35.7472 3.07314C35.6771 2.89943 35.7087 2.7012 35.8294 2.55791L36.3303 1.96297C36.5966 1.64679 37.0925 1.67737 37.3179 2.02387C37.4266 2.19103 37.6095 2.29521 37.8088 2.30347L39.8102 2.38642C40.3678 2.40953 40.8489 2.78469 41.0073 3.3198L41.023 3.37287C41.1264 3.7225 41.064 4.10027 40.8535 4.39799C40.6665 4.66251 40.3797 4.83941 40.0594 4.88787L39.9938 4.8978C39.5554 4.96412 39.1828 5.25293 39.0092 5.66088C38.7005 6.38614 39.1156 7.21516 39.8812 7.4025L43.0656 8.18168C43.4266 8.27002 43.7987 8.08476 43.9457 7.7434L44.088 7.4133C44.1285 7.31919 44.1062 7.20979 44.032 7.13909C43.8288 6.94535 44.0583 6.6176 44.3098 6.74236L45.0597 7.11429C45.2247 7.19614 45.4248 7.14484 45.5301 6.99369L46.4481 5.67579C46.7901 5.18474 47.3148 4.85136 47.9047 4.75028L49.9259 4.40391C50.3549 4.33039 50.7624 4.16308 51.1193 3.91391L51.7112 3.5007C51.9049 3.36552 52.0441 3.16586 52.104 2.93744C52.1962 2.58589 52.4728 2.31262 52.8254 2.22466L53.7811 1.98626C54.1798 1.88682 54.602 1.9807 54.921 2.2397C55.2824 2.53319 55.7728 2.61217 56.2081 2.44701L58.3823 1.62213C59.152 1.33011 59.9921 1.27775 60.7921 1.47195L61.2994 1.59508Z" fill="#E0FC52" stroke="#1D1D1D" stroke-width="2" stroke-linecap="round" stroke-linejoin="round"/>
</svg>
