<svg width="121" height="179" viewBox="0 0 121 179" fill="none" xmlns="http://www.w3.org/2000/svg">
<path d="M46.6083 29.4783C45.4196 28.8037 44.8232 27.422 45.1476 26.0942C45.4395 24.8994 46.419 23.9959 47.6334 23.8013L48.8812 23.6013C49.6776 23.4737 50.322 22.8849 50.5208 22.1032L50.5348 22.048C50.628 21.6818 50.8316 21.3531 51.1179 21.1065L51.5555 20.7297C51.787 20.5304 51.8936 20.2222 51.8346 19.9224C51.751 19.4973 52.0009 19.0774 52.4144 18.9482L53.4555 18.6229C53.8479 18.5002 54.0792 18.0956 53.9859 17.6952C53.9148 17.3902 53.6691 17.1566 53.3608 17.1009L52.7227 16.9857C52.2379 16.8981 51.8252 16.5819 51.6145 16.1365C51.5295 15.9568 51.4804 15.7623 51.47 15.5638L51.4353 14.9026C51.3909 14.0554 51.7539 13.238 52.4122 12.703L52.8523 12.3453C53.1277 12.1215 53.4819 12.0186 53.8344 12.0602L54.6484 12.1561C54.8901 12.1845 55.0667 12.398 55.0494 12.6408C55.0326 12.875 55.1967 13.0836 55.4283 13.1224L57.538 13.476C58.235 13.5928 58.9318 13.2677 59.2901 12.6585C59.781 11.8238 60.8677 11.5648 61.6824 12.0884L62.3538 12.52C63.1851 13.0542 64.2545 13.0424 65.0737 12.4898L67.0129 11.1816C67.4289 10.901 67.938 10.7936 68.4319 10.8824L69.4781 11.0704C69.8469 11.1367 70.2067 10.9156 70.3142 10.5567C70.4324 10.1624 70.8508 9.94141 71.2432 10.0661L72.4679 10.4552C72.8622 10.5805 73.2855 10.5805 73.6798 10.4552L74.4055 10.2246C74.922 10.0605 75.4729 10.0372 76.0014 10.1572C76.5815 10.2888 77.1875 10.2477 77.7444 10.0388L77.9252 9.971C78.8404 9.62778 79.582 8.93542 79.9871 8.04594L80.2966 7.36669C80.5551 6.79908 80.9085 6.27964 81.3414 5.83066L83.7318 3.35181C84.1354 2.93332 84.6901 2.69437 85.2714 2.6886L85.3958 2.68736C85.9688 2.68167 86.5141 2.93401 86.8806 3.37456C87.1091 3.64922 87.4102 3.85416 87.7496 3.96601L89.1442 4.42568C89.3024 4.47784 89.4338 4.59018 89.5099 4.73843C89.6902 5.08958 90.144 5.19258 90.4582 4.95367L92.2238 3.61114C92.9219 3.08033 93.8475 2.95535 94.6614 3.282L97.8331 4.55494C99.2256 5.11384 100.818 4.5698 101.577 3.27551L102.067 2.43924C102.249 2.12983 102.567 1.92571 102.924 1.8899C103.625 1.81956 104.217 2.40457 104.155 3.10645L104.028 4.54172C103.985 5.02707 103.566 5.39121 103.079 5.3652L103.005 5.36121C102.414 5.32966 101.972 5.894 102.144 6.45955C102.203 6.65305 102.191 6.86115 102.11 7.04663L101.939 7.4412C101.632 8.14729 101.881 8.97168 102.527 9.38991L103.704 10.1514C103.945 10.3074 103.98 10.6464 103.775 10.8479C103.66 10.9621 103.615 11.1298 103.658 11.2865L103.946 12.3351C103.999 12.5278 103.938 12.7338 103.789 12.8669C103.576 13.0566 103.553 13.3815 103.737 13.5991L104.134 14.0681C104.261 14.2177 104.45 14.3004 104.646 14.2923L104.865 14.2832C105.252 14.2672 105.513 14.6731 105.338 15.0182C105.225 15.2397 105.29 15.5099 105.491 15.6563L107.491 17.1151C107.691 17.2606 107.809 17.4926 107.809 17.7395C107.809 18.1466 107.493 18.4839 107.087 18.5107L104.762 18.6638C103.687 18.7346 102.858 19.6383 102.88 20.7152L102.882 20.8428C102.894 21.4258 103.192 21.9657 103.679 22.2865L103.978 22.4833C104.168 22.6087 104.303 22.8029 104.353 23.0252L104.519 23.7575C104.559 23.9346 104.425 24.1032 104.243 24.1032C104.091 24.1032 103.967 24.2229 103.96 24.3745L103.951 24.5953C103.94 24.8614 103.727 25.0749 103.461 25.0868L102.917 25.1111C102.736 25.1191 102.562 25.184 102.42 25.2965C101.89 25.7163 102.028 26.555 102.664 26.7838L102.716 26.8024C103.16 26.9622 103.403 27.4407 103.27 27.894L103.076 28.5559C102.915 29.1019 102.394 29.4606 101.827 29.4151L101.262 29.3699C100.918 29.3422 100.615 29.5977 100.584 29.9423C100.568 30.1219 100.476 30.286 100.331 30.3932L99.8715 30.7331C99.4469 31.0472 99.172 31.5237 99.1127 32.0485L99.0614 32.5018C99.0102 32.9539 99.0643 33.4117 99.2195 33.8394L99.7504 35.303C100.076 36.1995 99.7838 37.2035 99.0288 37.7861L98.4494 38.2332C98.2768 38.3663 98.1758 38.5719 98.1758 38.7898C98.1758 39.0609 98.3317 39.3078 98.5764 39.4244L99.6499 39.9361C99.8403 40.0268 99.9757 40.2032 100.014 40.4106C100.052 40.6148 100.184 40.7891 100.37 40.8811L101.341 41.361C102.12 41.7454 102.356 42.7433 101.832 43.4357C101.47 43.9142 101.458 44.5714 101.802 45.063L103.268 47.1589C103.626 47.6707 103.878 48.2488 104.009 48.8593L104.321 50.3068C104.395 50.6477 104.606 50.9432 104.904 51.1233C105.234 51.322 105.455 51.66 105.505 52.0416L105.585 52.6502C105.72 53.6841 105.21 54.6958 104.298 55.201L104.174 55.2695C103.855 55.4458 103.585 55.6977 103.388 56.003C102.711 57.0467 103.026 58.4428 104.084 59.0956L105.128 59.7388C105.392 59.9019 105.634 60.1004 105.845 60.3288L107.385 61.9965C107.53 62.1535 107.627 62.3485 107.666 62.5587L107.714 62.824C107.781 63.1894 107.585 63.5523 107.243 63.6967C106.96 63.8161 106.771 64.0885 106.759 64.3955L106.756 64.4804C106.735 65.0016 106.288 65.403 105.768 65.3676L105.744 65.3659C105.317 65.3369 104.924 65.5963 104.783 65.9997L104.696 66.2496C104.618 66.4706 104.483 66.6665 104.303 66.8166L103.856 67.19C103.22 67.7211 103.017 68.611 103.359 69.3653L103.536 69.7556C103.67 70.0506 103.654 70.392 103.493 70.6728C103.36 70.9041 103.324 71.1786 103.393 71.4361L103.908 73.3474C103.989 73.6483 103.822 73.9604 103.527 74.0597L103.499 74.069C103.228 74.1601 102.933 74.0317 102.814 73.7715C102.677 73.4707 102.31 73.3544 102.025 73.5214L101.414 73.8792C101.237 73.9826 101.09 74.1296 100.986 74.3061L100.376 75.3469C99.4934 76.8502 99.7831 78.7658 101.07 79.9412C101.802 80.6095 102.235 81.5441 102.27 82.5347L102.343 84.5633C102.378 85.5232 102.747 86.4408 103.387 87.1571L104.392 88.2824C104.803 88.7428 104.923 89.3947 104.7 89.9708L104.471 90.5652C104.312 90.9794 104.477 91.4481 104.862 91.6699L105.048 91.7774C105.412 91.9873 105.514 92.4661 105.267 92.8059L105.208 92.8871C105.082 93.0603 105.068 93.2907 105.172 93.4778L105.361 93.8163C105.504 94.0736 105.291 94.3837 105 94.3433C104.787 94.3137 104.596 94.4782 104.594 94.6934L104.583 95.8225C104.58 96.2055 104.739 96.572 105.021 96.8307L105.571 97.3337C105.914 97.648 106.101 98.098 106.081 98.563L106.064 98.9561C106.056 99.1341 106.121 99.3075 106.245 99.4361L106.574 99.7795C106.731 99.944 106.675 100.215 106.466 100.304C106.303 100.373 106.225 100.559 106.29 100.724L106.434 101.088C106.496 101.244 106.361 101.407 106.196 101.376C106.006 101.34 105.87 101.554 105.983 101.71L106.429 102.327C106.582 102.539 106.552 102.833 106.359 103.01L105.94 103.393C105.794 103.527 105.715 103.719 105.727 103.918C105.75 104.299 105.443 104.62 105.061 104.615L104.212 104.603C103.528 104.594 102.962 105.132 102.937 105.816L102.914 106.463C102.906 106.661 102.765 106.828 102.571 106.869C102.311 106.923 102.162 107.199 102.258 107.447L102.31 107.579C102.365 107.72 102.359 107.879 102.294 108.016L102.058 108.511C101.825 109 101.821 109.567 102.049 110.059L102.225 110.44C102.322 110.649 102.336 110.887 102.264 111.106L102.18 111.363C102.105 111.591 102.188 111.841 102.384 111.979L102.7 112.201C102.991 112.405 102.883 112.858 102.532 112.909C102.285 112.945 102.135 113.199 102.221 113.433L102.88 115.213C102.967 115.447 102.909 115.71 102.731 115.885C102.585 116.03 102.518 116.238 102.551 116.441L102.908 118.596C102.957 118.889 102.932 119.19 102.835 119.471L102.387 120.774C102.284 121.074 102.461 121.398 102.769 121.472C103.195 121.575 103.326 122.117 102.993 122.403L102.423 122.892C102.047 123.215 101.993 123.777 102.301 124.165L102.894 124.914C103.142 125.227 103.174 125.661 102.973 126.007C102.782 126.338 102.801 126.75 103.023 127.061L103.603 127.876C103.729 128.053 103.74 128.288 103.63 128.475C103.5 128.7 103.23 128.803 102.983 128.723L102.621 128.606C102.366 128.524 102.086 128.568 101.869 128.726L101.752 128.81C101.484 129.005 101.397 129.366 101.548 129.662L101.566 129.695C101.644 129.849 101.787 129.961 101.955 130.001C102.502 130.132 102.568 130.884 102.056 131.118C101.666 131.296 101.583 131.818 101.902 132.104L102.596 132.727C103.002 133.091 103.113 133.684 102.865 134.171L102.495 134.9C102.391 135.104 102.351 135.334 102.379 135.56L102.497 136.521C102.519 136.695 102.383 136.849 102.208 136.849C101.985 136.849 101.844 137.089 101.953 137.283L102.183 137.693C102.35 137.991 102.74 138.075 103.015 137.872L103.407 137.583C103.508 137.509 103.639 137.488 103.758 137.527C104.028 137.615 104.116 137.952 103.923 138.161L103.474 138.647C103.271 138.867 103.205 139.181 103.303 139.465L103.518 140.088C103.655 140.484 103.658 140.914 103.527 141.312L103.211 142.272C103.068 142.707 103.264 143.18 103.672 143.386C103.878 143.49 104.037 143.667 104.119 143.882L105.019 146.249C105.108 146.483 105.315 146.653 105.563 146.694L105.993 146.766C106.341 146.824 106.494 147.238 106.268 147.508C106.15 147.651 105.956 147.707 105.78 147.651L105.375 147.522C105.025 147.411 104.691 147.734 104.792 148.087L104.815 148.168C104.932 148.58 104.445 148.896 104.116 148.62C103.952 148.481 103.711 148.484 103.549 148.625L103.542 148.632C103.41 148.747 103.359 148.93 103.41 149.098L103.7 150.043C103.793 150.348 104.04 150.582 104.35 150.658L104.369 150.662C104.858 150.782 105.147 151.292 105.008 151.776C104.908 152.126 105.035 152.506 105.329 152.72L105.683 152.979C105.793 153.059 105.835 153.203 105.785 153.329C105.73 153.47 105.578 153.547 105.431 153.509L105.414 153.504C105.108 153.423 104.884 153.791 105.097 154.026L105.582 154.56C105.71 154.702 105.752 154.901 105.693 155.083L105.041 157.074C104.952 157.347 104.983 157.646 105.127 157.894L105.141 157.919C105.376 158.325 105.289 158.842 104.932 159.147L104.61 159.423C104.45 159.561 104.407 159.792 104.508 159.978C104.598 160.145 104.783 160.237 104.971 160.208L105.146 160.181C105.555 160.118 105.929 160.423 105.951 160.836L105.952 160.856C105.974 161.257 106.319 161.562 106.719 161.535L106.969 161.518C107.484 161.483 107.9 161.932 107.826 162.443L107.772 162.818C107.713 163.224 108.093 163.556 108.487 163.443L108.939 163.314C109.332 163.202 109.635 163.662 109.378 163.979C109.17 164.234 109.327 164.618 109.653 164.656L110.648 164.772C110.791 164.789 110.916 164.878 110.978 165.008C111.086 165.235 110.972 165.505 110.734 165.586L110.51 165.662C109.989 165.839 109.929 166.552 110.414 166.814L111.026 167.144C111.193 167.234 111.328 167.373 111.414 167.542L112.449 169.577C112.512 169.701 112.647 169.771 112.785 169.752C113.08 169.709 113.272 170.053 113.081 170.282L112.611 170.845C112.364 171.141 112.453 171.591 112.794 171.77L113.553 172.169C113.857 172.33 114.016 172.675 113.941 173.01L113.842 173.447C113.783 173.709 113.985 173.956 114.253 173.949C114.422 173.945 114.572 173.838 114.63 173.679L114.743 173.371C114.98 172.722 115.834 172.578 116.272 173.113L116.579 173.487C116.881 173.856 117.376 174.004 117.83 173.863L118.542 173.642C118.737 173.581 118.948 173.664 119.051 173.84C119.213 174.119 119.027 174.472 118.705 174.496L116.557 174.661C116.125 174.694 115.719 174.883 115.416 175.192L114.117 176.515C113.592 177.05 112.787 177.198 112.105 176.884L111.957 176.815C111.58 176.641 111.146 176.641 110.769 176.814C110.161 177.093 109.441 176.91 109.039 176.375L108.502 175.659C107.867 174.812 106.772 174.45 105.757 174.751L103.254 175.494C102.809 175.626 102.34 175.657 101.882 175.586C101.061 175.458 100.324 175.009 99.8337 174.338L99.7699 174.251C99.3757 173.711 99.1497 173.067 99.1203 172.399L98.9807 169.23C98.9565 168.681 98.7394 168.157 98.3675 167.752L97.6681 166.99C97.339 166.632 96.8057 166.549 96.3834 166.791C96.1353 166.932 95.9564 167.17 95.8885 167.448L95.8228 167.717C95.7134 168.165 95.792 168.638 96.0404 169.026L97.4442 171.22C97.5931 171.453 97.6832 171.719 97.7066 171.994C97.7593 172.614 97.4667 173.216 96.9486 173.56C96.1893 174.065 95.1628 173.894 94.6145 173.165L93.2021 171.288C92.5777 170.458 92.5509 169.323 93.1354 168.465C93.4684 167.976 93.6112 167.382 93.5369 166.795L93.2663 164.658C93.2415 164.462 93.1558 164.278 93.0213 164.134C92.7665 163.86 92.3739 163.762 92.0203 163.884L91.8839 163.932C91.5019 164.064 91.2158 164.385 91.1279 164.78L91.0218 165.256C90.7783 166.351 89.6283 166.982 88.5743 166.599C87.8805 166.348 87.1035 166.53 86.5947 167.065L85.1813 168.55C84.844 168.904 84.4158 169.159 83.9436 169.287C83.2673 169.47 82.5462 169.381 81.9354 169.038L80.9351 168.476C80.7351 168.363 80.5036 168.321 80.2767 168.354C79.5996 168.454 79.0135 167.881 79.0976 167.202L79.1607 166.693C79.2071 166.319 79.103 165.941 78.8711 165.643L76.1537 162.149C75.8937 161.814 75.5691 161.536 75.1992 161.33L74.7157 161.06C74.5398 160.962 74.3409 160.913 74.1397 160.918C73.8329 160.926 73.5425 161.058 73.3355 161.285L72.7189 161.959C72.6194 162.068 72.5351 162.19 72.4684 162.322L72.269 162.715C71.7612 163.715 70.3407 163.74 69.7979 162.758C69.5961 162.393 69.2416 162.137 68.8313 162.06L63.9755 161.15C63.813 161.12 63.6669 161.032 63.5636 160.903C63.3276 160.608 63.3722 160.179 63.6636 159.939L64.9513 158.878C65.1219 158.738 65.2285 158.534 65.247 158.314C65.2777 157.948 65.0617 157.607 64.7183 157.478L62.989 156.829C62.7653 156.745 62.5952 156.559 62.5308 156.329C62.4466 156.028 62.558 155.707 62.8103 155.522L63.9758 154.67C64.1268 154.56 64.238 154.404 64.2927 154.225C64.4092 153.844 64.2507 153.433 63.9086 153.229L62.0504 152.12C61.807 151.975 61.5815 151.802 61.3785 151.604L59.0659 149.352C58.3538 148.658 57.4339 148.218 56.4472 148.098C55.6832 148.004 54.9553 147.719 54.3321 147.267L52.0477 145.612C51.9045 145.508 51.7916 145.368 51.7205 145.206C51.565 144.852 51.6287 144.44 51.884 144.149L52.0222 143.992C52.4734 143.478 52.4592 142.706 51.9894 142.209L51.9214 142.137C51.7807 141.988 51.6097 141.871 51.42 141.794L50.7372 141.517C50.5759 141.451 50.3918 141.478 50.256 141.587C50.0876 141.722 50.0297 141.952 50.1143 142.151L50.5463 143.163C50.652 143.411 50.6104 143.697 50.4387 143.904C50.2434 144.14 49.9202 144.227 49.6334 144.12L46.1631 142.825C46.0107 142.768 45.8485 142.742 45.6859 142.748C44.9605 142.774 44.4134 143.416 44.5025 144.136L44.9069 147.407C44.9388 147.665 44.7731 147.907 44.5205 147.97C44.3228 148.02 44.1145 147.948 43.9889 147.788L43.4421 147.09C43.2776 146.879 43.0383 146.741 42.7741 146.702C42.4487 146.655 42.1202 146.765 41.8886 146.998L41.202 147.69C40.9652 147.929 40.7786 148.213 40.6534 148.525L40.3766 149.214C40.1263 149.838 39.4957 150.223 38.8265 150.16C38.3654 150.117 37.9491 149.866 37.696 149.479L37.3889 149.008C37.1175 148.592 37.0187 148.087 37.1134 147.6C37.2126 147.089 37.5159 146.641 37.9531 146.359L38.0876 146.273C38.4498 146.039 38.8705 145.913 39.3014 145.908L41.5592 145.884C41.9787 145.879 42.3642 145.653 42.5718 145.288L42.7716 144.937C42.9097 144.695 42.8731 144.391 42.6816 144.188C42.5416 144.04 42.339 143.968 42.1369 143.994L41.7731 144.043C41.2239 144.116 40.6859 143.846 40.4157 143.362L40.2648 143.092C40.0158 142.647 39.59 142.327 39.0926 142.213L38.8517 142.157C38.0571 141.974 37.2322 142.303 36.7803 142.981L36.376 143.589C36.265 143.755 36.0781 143.855 35.8779 143.855C35.4526 143.855 35.163 143.424 35.324 143.031L36.2463 140.775C36.335 140.559 36.389 140.329 36.4064 140.096L36.6271 137.14C36.6771 136.47 35.9623 136.013 35.3752 136.339L35.2747 136.395C35.1299 136.475 34.9578 136.491 34.801 136.437L34.6722 136.393C34.2689 136.256 33.8814 136.637 34.0127 137.042C34.0767 137.24 34.0164 137.457 33.8595 137.593L32.9729 138.362C32.4233 138.839 32.1329 139.548 32.1905 140.273L32.2609 141.16C32.2856 141.469 32.1417 141.769 31.8843 141.943C31.663 142.093 31.3847 142.132 31.1307 142.049L30.9485 141.989C30.545 141.856 30.2359 141.529 30.1271 141.118L29.0624 137.101C28.9169 136.552 29.0756 135.967 29.4786 135.567C30.1602 134.89 30.0897 133.767 29.3287 133.181L28.6756 132.678C28.4066 132.471 28.2668 132.137 28.3077 131.8L28.4086 130.971C28.4824 130.363 27.7581 129.994 27.31 130.411C27.0962 130.61 26.7768 130.643 26.5262 130.494L22.8508 128.297C22.3342 127.988 21.6959 127.964 21.1572 128.232L19.8181 128.9C19.2263 129.195 18.5341 128.751 18.5558 128.09C18.5638 127.845 18.4684 127.607 18.2929 127.436L15.095 124.316C14.5976 123.831 14.4077 123.111 14.6009 122.444C14.8783 121.485 15.8548 120.909 16.8279 121.13L19.5665 121.751C19.8692 121.82 20.1496 121.571 20.1166 121.262C20.0964 121.074 19.9609 120.918 19.7771 120.871L19.6257 120.833C19.2806 120.746 19.0618 120.407 19.1251 120.057L19.3978 118.547C19.5408 117.756 19.1478 116.964 18.4308 116.6C18.2281 116.497 18.008 116.433 17.7817 116.411L16.4309 116.279C14.9733 116.137 13.6205 115.459 12.6355 114.375L11.6974 113.343C11.3488 112.959 11.15 112.463 11.1374 111.945C11.124 111.397 11.3194 110.865 11.6839 110.456L13.0088 108.971C14.5257 107.27 13.9835 104.589 11.925 103.612L11.1876 103.261C10.6018 102.983 10.1967 102.427 10.1115 101.784L10.1004 101.701C10.0522 101.337 9.88553 101 9.62625 100.741C9.33745 100.453 9.16461 100.068 9.14057 99.6609L9.05299 98.177C9.01618 97.5532 9.19239 96.9355 9.55273 96.425L10.4035 95.2197C10.8375 94.6049 10.6756 93.7527 10.0463 93.3399C9.78535 93.1687 9.59288 92.9111 9.50256 92.6124L9.06933 91.1791C8.99584 90.936 8.84123 90.7254 8.63128 90.5824C8.30669 90.3614 7.88952 90.3283 7.53409 90.4952L7.24828 90.6295C6.91016 90.7883 6.51865 90.7872 6.18143 90.6265C5.82995 90.459 5.57687 90.1369 5.4972 89.7558L4.77265 86.2893C4.64032 85.6562 4.43528 85.0405 4.16161 84.4545L3.02679 82.0246C2.21327 80.2826 1.85383 78.3631 1.98197 76.4447L2.10891 74.5443C2.1228 74.3363 2.09641 74.1276 2.03118 73.9296C1.69548 72.9107 2.42544 71.8529 3.49719 71.8052L5.77159 71.7039C6.23775 71.6832 6.63807 71.3659 6.76466 70.9167C6.85966 70.5797 7.11196 70.3094 7.44172 70.1916L8.79443 69.708C8.92568 69.6611 9.07213 69.7072 9.15292 69.8208C9.33737 70.0801 9.74615 69.9283 9.7166 69.6114L9.69904 69.4232C9.67939 69.2125 9.84382 69.0299 10.0554 69.0274L10.8372 69.0183C11.1398 69.0148 11.4228 68.8677 11.5995 68.6219L11.7098 68.4685C11.9156 68.182 12.2974 68.0847 12.6153 68.2376L13.5446 68.6844C13.8145 68.8142 14.1027 68.5441 13.9906 68.2664C13.9384 68.137 13.9739 67.9887 14.0789 67.8969L14.3098 67.6952C14.509 67.5212 14.7844 67.4634 15.0367 67.5427L16.0932 67.8748C16.2711 67.9307 16.4356 67.7582 16.3714 67.5832C16.3138 67.4264 16.4415 67.2639 16.6075 67.2826L17.0782 67.3359C17.294 67.3603 17.502 67.2473 17.599 67.053L18.1463 65.9564C18.3256 65.597 18.6441 65.3267 19.0277 65.2081C19.5731 65.0395 19.9716 64.5706 20.05 64.0052L20.6492 59.6849C20.689 59.398 20.7611 59.1165 20.8642 58.8458L21.7157 56.6112C21.9765 55.9265 22.7327 55.5715 23.4261 55.8081C23.6822 55.8955 23.9065 56.0573 24.0701 56.2729L24.1449 56.3714C24.787 57.2169 26.0246 57.3087 26.7844 56.5672L27.1534 56.207C28.0165 55.3646 28.0181 53.9772 27.157 53.1328L26.8711 52.8524C26.3155 52.3076 26.2149 51.4493 26.6294 50.7909C26.836 50.4626 26.9207 50.0722 26.8686 49.6879L26.7364 48.7125C26.5805 47.5626 27.664 46.6354 28.776 46.967L28.9735 47.0259C29.5826 47.2075 30.2357 46.9375 30.5387 46.3787C30.7882 45.9187 31.2819 45.6453 31.8041 45.6781L32.1463 45.6995C32.359 45.7129 32.5663 45.6294 32.7104 45.4725C32.9127 45.252 33.232 45.1832 33.5072 45.3006L36.2592 46.4749C36.4306 46.5481 36.6191 46.5719 36.8034 46.5437L37.1144 46.496C37.4239 46.4486 37.6524 46.1824 37.6524 45.8693C37.6524 45.5783 37.8505 45.3247 38.1328 45.2542L38.2222 45.2319C38.4015 45.1871 38.5909 45.21 38.7545 45.296L38.9554 45.4018C39.7173 45.8027 40.6546 45.3958 40.8819 44.5653L40.9338 44.3756C41.0774 43.8509 41.4929 43.4446 42.0206 43.3127L44.6062 42.6668C45.5923 42.4204 46.4025 41.7198 46.7884 40.7795L47.0864 40.0536C47.3112 39.506 47.2439 38.882 46.9076 38.3949C46.5869 37.9305 46.5099 37.34 46.7008 36.8089L46.9728 36.0521C47.0806 35.7521 47.3221 35.5194 47.626 35.4229L48.5008 35.1449C48.991 34.9892 49.0725 34.3301 48.6351 34.0596C48.4092 33.9199 48.3016 33.6488 48.3702 33.3922L48.6016 32.5279C48.704 32.1452 48.6777 31.7394 48.5267 31.3732L48.4293 31.1368C48.2114 30.6081 47.8228 30.1676 47.3255 29.8853L46.6083 29.4783Z" fill="#E0FC52" stroke="#1D1D1D" stroke-width="2" stroke-linecap="round" stroke-linejoin="round"/>
</svg>
