<svg width="183" height="183" viewBox="0 0 183 183" fill="none" xmlns="http://www.w3.org/2000/svg">
<path d="M32.434 15.3232C32.4245 14.9144 32.8373 14.63 33.2159 14.7846L33.2369 14.7932C33.3453 14.8375 33.4646 14.848 33.5792 14.8235L35.1168 14.4937C35.5792 14.3945 36.0008 14.1577 36.3261 13.8144C36.732 13.386 37.2848 13.1266 37.8738 13.088L38.3039 13.0599C38.7746 13.0291 39.2339 12.9019 39.6534 12.6863L39.7534 12.6349C40.4458 12.2789 41.2273 12.1336 42.0013 12.2168L48.0221 12.8643C48.467 12.9121 48.9152 12.9206 49.3615 12.8894L49.573 12.8747C50.6259 12.8012 51.6465 12.4802 52.5519 11.9378C53.5037 11.3675 54.5821 11.0424 55.6905 10.9917L58.396 10.8678C58.5444 10.861 58.6901 10.9092 58.8052 11.0032C59.0295 11.1866 59.3526 11.1844 59.5745 10.9981L60.3458 10.3507C60.4732 10.2438 60.5522 10.0901 60.5651 9.92428C60.6056 9.40388 61.2321 9.1638 61.61 9.52395L61.758 9.66505C61.8624 9.76454 61.9943 9.83023 62.1366 9.85351L65.9222 10.473C66.3877 10.5492 66.8411 10.6866 67.2707 10.8817L68.5495 11.4625C69.2335 11.7732 70.0221 11.7534 70.6895 11.4087C71.2551 11.1167 71.685 10.6164 71.8885 10.0133L72.0945 9.40287C72.4456 8.36237 73.4213 7.66182 74.5195 7.66182H75.15C75.6022 7.66182 76.0251 7.88543 76.2796 8.25911C76.6337 8.77881 77.2966 8.9899 77.886 8.77058L78.3463 8.59927C79.2156 8.27579 80.1931 8.59443 80.7047 9.36803L82.1089 11.4912C82.4884 12.0649 83.2165 12.2963 83.8576 12.0469C84.3935 11.8383 84.7573 11.3349 84.787 10.7605L84.823 10.0644C84.8567 9.41232 85.3066 8.85613 85.9372 8.6868C86.1839 8.62055 86.4434 8.61811 86.6914 8.6797L89.5464 9.38901C89.9168 9.48103 90.3038 9.48333 90.6752 9.39573L91.2467 9.26094C91.7531 9.1415 92.2842 9.30964 92.6296 9.69874L92.94 10.0484C93.088 10.2151 93.3144 10.2889 93.5322 10.2414C93.7508 10.1938 93.9264 10.0314 93.9911 9.81718L94.9849 6.52207C95.1586 5.94608 95.6991 5.55986 96.3003 5.58211L96.8562 5.60269C97.1505 5.61358 97.413 5.41872 97.4877 5.13383C97.5459 4.9121 97.7201 4.73958 97.9424 4.68359L100.173 4.12164C100.99 3.91602 101.65 3.31685 101.933 2.52417L102.192 1.79986C102.326 1.4234 102.647 1.14391 103.038 1.06185C103.285 1.01017 103.541 1.04086 103.769 1.1492L104.307 1.4056C104.719 1.60194 104.963 2.0358 104.917 2.48986C104.877 2.88864 105.061 3.27689 105.395 3.49867L108.254 5.39803C108.616 5.63878 108.801 6.07175 108.724 6.49995L108.567 7.37333C108.517 7.65239 108.749 7.90146 109.031 7.8716C109.232 7.85033 109.42 7.97319 109.481 8.16565L109.7 8.85465C109.838 9.28609 109.743 9.75785 109.449 10.1027L108.856 10.8005C108.483 11.2388 108.643 11.9129 109.173 12.1367C109.491 12.271 109.697 12.5841 109.693 12.9293L109.688 13.529C109.682 14.1092 109.965 14.6543 110.443 14.9836L110.846 15.2614C111.719 15.8631 112.115 16.9515 111.833 17.9737C111.731 18.3447 111.544 18.6871 111.287 18.9738L109.702 20.7435C109.031 21.4923 109.094 22.6431 109.842 23.3145C110.079 23.5271 110.256 23.7982 110.356 24.1007L110.661 25.0285C110.782 25.3959 111.044 25.6999 111.39 25.873C112.167 26.262 112.431 27.2414 111.955 27.9679L111.71 28.3405C111.532 28.613 111.442 28.9344 111.455 29.26C111.48 29.9092 111.903 30.4757 112.518 30.6842L112.923 30.8217C113.181 30.9091 113.453 30.9476 113.725 30.9353L118.7 30.7103C119.066 30.6937 119.424 30.8218 119.696 31.0669C120.091 31.4221 120.654 31.5223 121.147 31.3256L121.785 31.0712C122.137 30.9307 122.517 30.8721 122.895 30.9L126.173 31.1414C126.554 31.1695 126.932 31.0594 127.238 30.8314L127.924 30.3209C128.335 30.0146 128.922 30.1426 129.168 30.5923C129.317 30.8628 129.601 31.0309 129.909 31.0309H129.985C130.492 31.0309 130.914 30.6409 130.954 30.1352L131.032 29.1335C131.118 28.0397 132.047 27.2056 133.144 27.2368L134.156 27.2657C134.409 27.2729 134.643 27.4005 134.787 27.609L134.818 27.6538C135.12 28.0928 135.77 28.09 136.068 27.6484C136.28 27.3361 136.688 27.2269 137.027 27.3922L137.225 27.4885C137.726 27.7332 138.331 27.5247 138.575 27.0229L139.646 24.8219C139.812 24.4822 140.228 24.3502 140.559 24.5325L140.752 24.6392C141.009 24.7806 141.331 24.6574 141.428 24.3808C141.507 24.1551 141.742 24.0237 141.975 24.0745L146.312 25.0169C146.512 25.0604 146.702 25.1416 146.872 25.2562L147.079 25.3963C147.833 25.9053 147.917 26.9836 147.25 27.603C147.034 27.8042 146.886 28.0682 146.827 28.3579L146.664 29.1639C146.476 30.0953 146.628 31.0633 147.092 31.8923L147.848 33.2422C148.235 33.9327 148.514 34.6785 148.675 35.4534L148.995 36.995C149.128 37.6344 149.464 38.2136 149.954 38.6456L150.884 39.4657C151.018 39.5846 151.202 39.6324 151.377 39.5945L151.444 39.5801C151.796 39.5042 152.116 39.8013 152.066 40.1578C152.042 40.3357 151.927 40.4882 151.763 40.5607L150.293 41.21C149.855 41.4033 149.612 41.8756 149.709 42.344C149.758 42.5836 149.892 42.7972 150.087 42.9457L150.646 43.373C151.831 44.2781 152.136 45.934 151.353 47.2023L150.929 47.8882C150.538 48.5196 149.972 49.0225 149.298 49.3345L147.586 50.1278C147.017 50.3916 146.617 50.9225 146.521 51.5424L146.494 51.7162C146.406 52.2799 146.63 52.8471 147.079 53.1991C147.415 53.4623 147.63 53.8502 147.674 54.2743L147.841 55.8531C147.884 56.2624 148.039 56.6519 148.29 56.9787C148.733 57.5583 149.432 57.8851 150.161 57.8544L150.484 57.8408C151.004 57.8188 151.521 57.9396 151.978 58.1901L153.427 58.984C154.052 59.3265 154.336 60.0718 154.098 60.7436C154.011 60.9888 153.992 61.2528 154.042 61.508L154.208 62.3576C154.232 62.4796 154.331 62.5726 154.455 62.5885C154.684 62.6181 154.787 62.8928 154.634 63.0662L154.354 63.3823C154.163 63.5975 154.187 63.9275 154.406 64.1132L155.366 64.9255C155.758 65.2576 156.278 65.3993 156.784 65.3126L157.091 65.2602C157.391 65.2087 157.7 65.2783 157.95 65.4538C158.57 65.8895 159.434 65.621 159.698 64.911L159.775 64.7039C159.831 64.5522 159.944 64.4281 160.089 64.3573C160.456 64.1784 160.894 64.3917 160.98 64.7913L161.334 66.4441C161.374 66.631 161.495 66.7906 161.664 66.8797L161.737 66.9182C162.054 67.0856 162.143 67.4996 161.922 67.7826L161.893 67.8198C161.775 67.9712 161.581 68.0417 161.393 68.0014C160.965 67.9094 160.633 68.3725 160.858 68.7484L161.539 69.8871C161.669 70.1043 161.719 70.3602 161.679 70.6101L160.938 75.2589C160.895 75.5269 160.937 75.8015 161.058 76.0445L161.27 76.4719C161.36 76.6534 161.546 76.7681 161.748 76.7681C162.028 76.7681 162.261 76.9846 162.281 77.264L162.288 77.3739C162.31 77.6825 162.113 77.964 161.815 78.0479L159.633 78.6624C159.142 78.8005 158.834 79.2846 158.915 79.7874C159.035 80.5226 158.333 81.1248 157.623 80.9026C157.113 80.7434 156.565 81.0082 156.377 81.5076L155.344 84.2462C155.258 84.4743 154.949 84.5082 154.816 84.3041L154.714 84.1488C154.582 83.9469 154.268 84.0404 154.268 84.2816C154.268 84.3822 154.206 84.4725 154.112 84.5083L154.043 84.5346C153.843 84.6109 153.758 84.8477 153.864 85.034L155.442 87.811C155.776 88.3993 156.494 88.6504 157.122 88.3991L157.7 88.1679C158.29 87.9318 158.936 88.3533 158.957 88.9885L158.965 89.2219C158.97 89.3902 159.062 89.5439 159.207 89.6293C159.452 89.7738 159.524 90.0959 159.363 90.3309L156.982 93.812C156.803 94.0746 156.838 94.4282 157.065 94.6506C157.293 94.8734 157.327 95.2278 157.147 95.4905L157.069 95.6034C156.849 95.9232 156.885 96.3534 157.153 96.6334L158.61 98.151C158.884 98.4372 159.316 98.5041 159.665 98.3144C159.915 98.1779 160.217 98.1715 160.473 98.2971L161.208 98.6576C161.67 98.8843 161.776 99.4962 161.418 99.8656C161.127 100.165 161.133 100.643 161.431 100.935L161.452 100.955C161.561 101.062 161.637 101.198 161.67 101.347L162.086 103.221C162.214 103.797 162.57 104.296 163.073 104.604C163.646 104.956 164.025 105.553 164.099 106.221L164.37 108.681C164.539 110.214 165.601 111.501 167.075 111.958L170.948 113.16C171.192 113.235 171.311 113.512 171.198 113.741C171.132 113.876 171.143 114.035 171.227 114.159L172.076 115.411C172.343 115.804 172.115 116.341 171.647 116.422C171.437 116.459 171.259 116.595 171.168 116.787L170.786 117.593C170.658 117.863 170.741 118.185 170.984 118.36L171.136 118.47C171.286 118.578 171.339 118.776 171.264 118.944C171.151 119.194 171.326 119.478 171.599 119.491L171.978 119.51C172.135 119.517 172.284 119.582 172.397 119.691L174.667 121.887C174.887 122.099 175.177 122.222 175.483 122.232L175.9 122.246C176.38 122.261 176.749 122.678 176.705 123.157C176.67 123.551 176.915 123.916 177.294 124.032L178.115 124.283C178.488 124.397 178.762 124.713 178.821 125.098L178.879 125.475C178.918 125.73 179.131 125.922 179.388 125.936C179.727 125.954 179.967 126.273 179.89 126.603L179.718 127.344C179.606 127.826 179.206 128.187 178.715 128.249L178.056 128.333C177.495 128.404 177.048 128.838 176.959 129.397C176.912 129.695 176.973 130 177.13 130.258L177.24 130.438C177.48 130.833 177.86 131.124 178.304 131.252L179.105 131.484C180.149 131.786 180.937 132.646 181.147 133.711L181.765 136.836C181.811 137.068 181.629 137.282 181.393 137.275L180.896 137.26C180.647 137.252 180.552 137.582 180.766 137.708C180.85 137.757 180.896 137.853 180.883 137.949L180.785 138.638C180.711 139.16 180.326 139.583 179.814 139.705L179.509 139.778C178.768 139.954 178.252 140.624 178.27 141.385C178.276 141.677 178.203 141.966 178.058 142.221L177.715 142.823C177.257 143.627 176.541 144.254 175.683 144.601L171.67 146.223C171.387 146.337 171.257 146.664 171.384 146.942C171.485 147.164 171.424 147.426 171.235 147.58L167.366 150.741C166.632 151.34 166.517 152.419 167.107 153.16L167.161 153.228C167.496 153.648 167.593 154.209 167.42 154.716L167.344 154.939C167.213 155.322 166.89 155.61 166.494 155.695C166.068 155.788 165.73 156.111 165.619 156.533L165.269 157.869C165.206 158.107 165.082 158.325 164.908 158.499L164.56 158.846C164.439 158.968 164.264 159.018 164.097 158.98C163.795 158.912 163.504 159.133 163.489 159.442L163.488 159.46C163.481 159.598 163.53 159.734 163.625 159.835L164.426 160.697C164.825 161.126 165.022 161.703 164.969 162.286L164.968 162.306C164.931 162.712 165.019 163.12 165.221 163.474C165.511 163.984 165.563 164.595 165.362 165.145L165.187 165.628C165.062 165.972 165.073 166.351 165.219 166.687L165.379 167.055C165.5 167.334 165.451 167.657 165.252 167.888C165.1 168.064 164.878 168.164 164.645 168.161L162.752 168.14C161.996 168.132 161.251 168.318 160.588 168.681L159.154 169.466C158.988 169.557 158.791 169.575 158.611 169.514C158.041 169.321 157.521 169.91 157.783 170.452L158.302 171.52C158.398 171.718 158.436 171.939 158.413 172.158L158.028 175.745C158.014 175.876 157.922 175.986 157.795 176.022L157.732 176.041C157.483 176.113 157.44 176.448 157.663 176.581C157.789 176.657 157.842 176.813 157.785 176.95L157.747 177.041C157.674 177.22 157.485 177.323 157.294 177.289L156.421 177.132C156.072 177.069 155.831 176.748 155.868 176.396C155.901 176.076 155.704 175.777 155.397 175.681L154.314 175.343C153.785 175.177 153.224 175.49 153.087 176.027L153.06 176.131C153.007 176.341 152.864 176.517 152.669 176.612L152.376 176.754C152.182 176.849 152.097 177.081 152.186 177.279C152.308 177.55 152.103 177.855 151.806 177.844L151.684 177.839C151.511 177.833 151.351 177.928 151.273 178.082C151.192 178.243 151.02 178.338 150.84 178.323L146.882 177.981C146.597 177.957 146.318 177.893 146.051 177.792L145.403 177.547C145.066 177.419 144.792 177.165 144.639 176.839C144.375 176.275 143.766 175.957 143.152 176.062L139.693 176.65C139.315 176.715 138.979 176.928 138.761 177.243L138.525 177.584C138.418 177.738 138.39 177.934 138.449 178.111C138.545 178.4 138.408 178.714 138.132 178.84L137.831 178.978C137.702 179.037 137.55 178.994 137.472 178.876C137.389 178.752 137.225 178.712 137.094 178.785L136.643 179.034C136.472 179.128 136.258 179.045 136.195 178.86C136.139 178.695 135.959 178.608 135.794 178.666L134.007 179.296C133.692 179.407 133.356 179.445 133.024 179.406L131.773 179.258C131.532 179.229 131.298 179.157 131.082 179.045L130.792 178.893C130.501 178.742 130.284 178.48 130.188 178.167C129.992 177.523 129.311 177.16 128.666 177.355L127.626 177.671C127.316 177.765 126.98 177.651 126.792 177.387C126.455 176.915 126.754 176.255 127.331 176.198L127.952 176.135C128.191 176.111 128.398 175.96 128.494 175.74C128.586 175.531 128.779 175.383 129.005 175.349L129.052 175.342C129.507 175.275 129.784 174.806 129.625 174.374C129.463 173.936 128.935 173.764 128.545 174.021L128.535 174.028C128.395 174.121 128.227 174.163 128.06 174.147L127.13 174.058C126.862 174.033 126.598 174.138 126.42 174.34C126.17 174.627 125.759 174.708 125.418 174.539L124.726 174.196C124.592 174.129 124.443 174.099 124.294 174.108L122.786 174.194C122.472 174.212 122.31 173.824 122.545 173.614C122.694 173.481 122.693 173.247 122.542 173.115L122.335 172.934C122.187 172.806 121.985 172.761 121.796 172.815L121.669 172.852C121.396 172.93 121.102 172.862 120.891 172.672L117.118 169.259C116.976 169.131 116.776 169.09 116.596 169.154L116.584 169.158C116.326 169.249 116.186 169.528 116.268 169.789C116.326 169.974 116.274 170.175 116.134 170.309L115.808 170.62C115.522 170.892 115.384 171.284 115.437 171.675L115.544 172.473C115.616 173.005 115.468 173.543 115.135 173.963L114.691 174.522C114.514 174.745 114.474 175.047 114.586 175.309L114.663 175.488C114.769 175.738 114.677 176.029 114.446 176.171C114.133 176.364 113.723 176.202 113.627 175.847L113.139 174.028C113.036 173.644 112.724 173.352 112.334 173.274L112.232 173.253C111.972 173.201 111.703 173.275 111.506 173.452C111.266 173.668 110.922 173.727 110.624 173.603L110.207 173.43C109.305 173.056 108.285 173.597 108.088 174.554L107.633 176.773C107.388 177.97 106.509 178.938 105.341 179.298L103.601 179.834C103.416 179.891 103.28 180.05 103.254 180.242C103.202 180.627 102.749 180.806 102.448 180.56L102.131 180.302C101.897 180.111 101.806 179.795 101.902 179.509L102.151 178.768C102.303 178.314 102.274 177.818 102.069 177.385L101.691 176.586C101.441 176.056 100.897 175.728 100.312 175.753L99.897 175.771C99.6388 175.782 99.3939 175.655 99.2531 175.439C99.0765 175.167 98.7419 175.044 98.4313 175.137L97.3556 175.458C96.8719 175.603 96.3478 175.474 95.9855 175.123C95.6462 174.794 95.1632 174.659 94.7025 174.765L92.0703 175.369C91.4626 175.509 90.8484 175.163 90.6517 174.572C90.4759 174.043 89.9616 173.703 89.4062 173.748L88.6072 173.812C88.3808 173.831 88.1758 173.678 88.1279 173.456C88.0925 173.292 87.9693 173.161 87.8078 173.116L86.108 172.638C85.7802 172.546 85.4846 172.364 85.2543 172.113L84.5477 171.343C84.3435 171.121 84.0077 171.08 83.7565 171.248C83.5352 171.396 83.2439 171.384 83.0356 171.218L82.9794 171.174C82.7204 170.968 82.3537 170.968 82.0948 171.174L80.0184 172.826C79.9088 172.913 79.7781 172.969 79.6395 172.99L79.2978 173.04C78.8442 173.106 78.6333 173.639 78.9185 173.998C79.1217 174.254 79.0807 174.626 78.8267 174.831L78.409 175.168C78.2054 175.333 78.0648 175.563 78.011 175.819L77.7306 177.155L77.4777 180.364C77.4714 180.443 77.4877 180.523 77.5247 180.593C77.6986 180.925 77.3865 181.302 77.0283 181.193L75.917 180.854C75.7062 180.79 75.526 180.652 75.4099 180.464L73.3832 177.196C72.9293 176.464 72.9318 175.538 73.3895 174.808C73.7355 174.257 73.8265 173.583 73.639 172.959L73.5854 172.781C73.2971 171.823 72.4445 171.144 71.4458 171.077C70.5229 171.015 69.6467 171.489 69.1931 172.295L68.3869 173.728C68.0498 174.327 67.4663 174.747 66.7913 174.877L66.3652 174.959C66.0389 175.022 65.7009 174.954 65.4235 174.771C65.0418 174.52 64.8245 174.082 64.8545 173.626L64.8812 173.217C64.9228 172.584 65.2664 172.008 65.8047 171.671L66.7974 171.05C67.399 170.673 67.8971 170.152 68.2466 169.534L68.3726 169.311C68.7621 168.623 68.9727 167.847 68.9853 167.056L68.9994 166.171C69.0041 165.877 68.9273 165.587 68.7776 165.334L68.7365 165.264C68.2993 164.525 67.336 164.296 66.6132 164.76L66.5119 164.825C66.0967 165.092 65.5677 165.104 65.1406 164.857C64.7444 164.628 64.2579 164.621 63.8552 164.839L58.7393 167.599C58.2504 167.863 57.6537 167.824 57.2033 167.499C56.8286 167.228 56.6055 166.795 56.6028 166.333L56.594 164.769C56.5895 163.986 56.1753 163.263 55.5023 162.863L55.3329 162.762C55.1351 162.645 54.9119 162.577 54.6821 162.564C54.0606 162.529 53.4885 162.902 53.2678 163.484L53.2077 163.642C53.0934 163.943 52.8939 164.205 52.6334 164.395L51.7543 165.036C51.4726 165.241 51.1236 165.332 50.7774 165.291C50.308 165.235 49.8997 164.943 49.6954 164.516L49.5611 164.236C49.3764 163.851 49.3237 163.415 49.4111 162.997L49.9645 160.348C50.12 159.603 50.0086 158.828 49.6497 158.157C49.3407 157.579 48.8641 157.109 48.2825 156.808L48.1689 156.749C47.7533 156.534 47.3001 156.401 46.8341 156.356L42.9252 155.986C41.2967 155.832 39.7466 155.213 38.459 154.204L37.9893 153.836C37.0635 153.111 36.3548 152.145 35.9405 151.044L35.8277 150.745C35.2731 149.271 34.1321 148.094 32.6767 147.493C31.9051 147.175 31.213 146.691 30.6498 146.075L29.8761 145.228C29.3279 144.629 28.6413 144.172 27.8762 143.899C26.7518 143.497 25.5204 143.512 24.4063 143.942L23.1575 144.424C22.3244 144.745 21.4305 144.879 20.5399 144.814L19.9921 144.775C19.4877 144.738 18.997 144.594 18.5531 144.352L17.0574 143.534C16.3268 143.135 16.0138 142.25 16.3313 141.48L16.5568 140.934C16.6464 140.716 16.6097 140.467 16.461 140.285C16.2716 140.053 15.9464 139.983 15.6785 140.118L13.3308 141.294C12.3921 141.765 11.2843 141.754 10.355 141.265C9.79253 140.969 9.32888 140.516 9.02115 139.96L8.80828 139.575C8.37174 138.786 8.16983 137.889 8.22635 136.989L8.25923 136.466C8.31368 135.599 8.19448 134.73 7.90861 133.91L6.99497 131.288C6.56179 130.046 5.68532 129.006 4.53342 128.369L4.01516 128.083C2.17745 127.067 1.26467 124.933 1.79958 122.902L1.84787 122.719C1.97528 122.235 2.20026 121.783 2.50897 121.389L2.7281 121.11C3.38016 120.279 3.55303 119.168 3.18448 118.178L2.87845 117.356C2.74505 116.998 2.78447 116.598 2.98529 116.272C3.27525 115.803 3.21957 115.198 2.84873 114.789L2.23943 114.117C2.12405 113.989 2.05542 113.827 2.04484 113.655L2.03903 113.561C2.0175 113.212 2.2731 112.907 2.62055 112.868L2.84852 112.842C3.11752 112.811 3.2997 112.553 3.23824 112.289C3.2089 112.163 3.23475 112.031 3.30929 111.925L3.96193 111.001C4.37354 110.418 4.38066 109.641 3.9798 109.05C3.69785 108.635 3.6122 108.117 3.74548 107.633L3.86345 107.204C3.92719 106.973 3.95949 106.734 3.95949 106.494V105.739L3.91954 103.01C3.90608 102.09 3.62321 101.195 3.10595 100.435L3.0858 100.405C2.52564 99.5815 2.24826 98.5983 2.29543 97.6035L2.33638 96.7398C2.3671 96.092 2.6507 95.482 3.12624 95.041L3.26072 94.9163C3.65642 94.5493 3.89008 94.0401 3.91028 93.5008C3.92898 93.0018 3.76351 92.5134 3.44539 92.1285L2.6655 91.185C2.47907 90.9595 2.42742 90.6515 2.53009 90.3774L2.53609 90.3614C2.67058 90.0025 2.53043 89.5986 2.2025 89.4002C1.81636 89.1665 1.70124 88.659 1.94872 88.2816L4.94882 83.706C5.25317 83.2419 5.76264 82.9529 6.31722 82.9299L8.07041 82.8573C8.72134 82.8303 9.07301 82.0823 8.67851 81.5638C8.4471 81.2597 8.46107 80.8348 8.71195 80.5465L9.23013 79.9511C9.55543 79.5773 9.65794 79.059 9.49942 78.5895L9.4045 78.3084C9.27545 77.9262 9.39726 77.504 9.7101 77.2493L9.72134 77.2402C9.99096 77.0207 10.3595 76.9674 10.6803 77.1015L11.3742 77.3918C11.7193 77.5361 12.0934 77.2594 12.0564 76.8872C12.0158 76.4782 12.4632 76.2013 12.8111 76.4202L14.1546 77.2654C14.6442 77.5734 15.2799 77.512 15.7014 77.1159L15.847 76.9792C16.1943 76.6528 16.3657 76.1807 16.3086 75.7075C16.2125 74.9117 16.7597 74.1813 17.5503 74.0497L18.4385 73.9019C18.5955 73.8757 18.7384 73.7955 18.8424 73.6751C19.0718 73.4095 19.4654 73.3616 19.7519 73.5643L22.5137 75.5183C22.9069 75.7965 23.4298 75.8075 23.8344 75.5461C24.1609 75.3351 24.5705 75.2986 24.9292 75.4487L25.1554 75.5434C25.6751 75.7609 26.2745 75.6478 26.6792 75.2559L27.0446 74.902C27.1923 74.7591 27.2494 74.5466 27.1933 74.3489C27.1272 74.1158 27.2191 73.8666 27.4208 73.7322L28.5301 72.9934C28.672 72.8989 28.7542 72.7373 28.7471 72.567L28.7269 72.0813C28.7102 71.6793 29.2498 71.5332 29.4382 71.8887C29.5475 72.095 29.816 72.1537 30.0015 72.0118L30.7346 71.4509C30.9558 71.2817 31.2778 71.3767 31.3716 71.639C31.4375 71.8232 31.6241 71.9355 31.8177 71.9074L32.1156 71.8642C32.3075 71.8364 32.5028 71.8811 32.6635 71.9896L33.0778 72.2693C33.5792 72.6078 34.2035 72.7103 34.7869 72.5498L35.3868 72.3848C35.6754 72.3054 35.9392 72.1543 36.1538 71.9456C36.5802 71.5311 36.7708 70.9307 36.6617 70.3461L36.4538 69.2327C36.4266 69.087 36.3629 68.9505 36.2685 68.8361C36.081 68.6085 35.7916 68.4905 35.4984 68.5221L35.4699 68.5251C35.031 68.5724 34.6194 68.3045 34.4848 67.8841L34.1756 66.9178C34.0631 66.5663 34.1779 66.1818 34.4646 65.9494C34.8642 65.6257 34.9095 65.0326 34.5637 64.6519L34.2295 64.2841C33.8044 63.8162 33.7563 63.1175 34.1133 62.5958L34.1721 62.5098C34.3296 62.2796 34.4197 62.01 34.4321 61.7314L34.4658 60.9773C34.4841 60.5665 34.383 60.1562 34.1772 59.8002C33.8903 59.3036 33.8128 58.7086 33.9661 58.1559C34.1106 57.6349 34.0522 57.0785 33.8028 56.5988L33.3976 55.8195C33.1676 55.3771 32.7795 55.0374 32.3105 54.868L31.5529 54.5944C31.2896 54.4993 31.1052 54.2603 31.08 53.9815L31.0719 53.8917C31.0428 53.5696 31.2652 53.2788 31.5837 53.2226L31.696 53.2028C31.9346 53.1607 32.1065 52.9506 32.1006 52.7084C32.0949 52.4727 31.9219 52.2745 31.6892 52.2368L31.4062 52.191C31.1764 52.1538 30.9969 51.9723 30.9624 51.742C30.9254 51.4952 31.064 51.2555 31.2965 51.1644L31.824 50.9578C32.1717 50.8216 32.44 50.5365 32.5549 50.1811L33.1345 48.388C33.2929 47.898 32.8174 47.4406 32.3339 47.6179C32.1008 47.7033 31.8392 47.641 31.6697 47.4595L30.8594 46.5919C30.6272 46.3433 30.2672 46.2606 29.9498 46.3831C29.7431 46.4628 29.5132 46.457 29.3107 46.367L28.1258 45.8399C27.9238 45.75 27.6938 45.7472 27.4897 45.8321C27.0611 46.0104 26.5684 45.7825 26.4173 45.3435C26.3289 45.0869 26.3726 44.7993 26.5361 44.5826L26.9512 44.0326C27.0516 43.8995 27.1325 43.7527 27.1914 43.5968L27.48 42.8327C27.5798 42.5685 27.8401 42.4002 28.122 42.4177L28.1635 42.4203C28.4111 42.4357 28.6416 42.2931 28.7384 42.0646C28.877 41.7373 28.6941 41.363 28.3507 41.2713L27.1042 40.9383C26.3539 40.7379 25.8336 40.0561 25.8383 39.2794L25.8472 37.8007C25.8492 37.4604 26.0373 37.1486 26.3373 36.988C26.7244 36.7809 27.2037 36.8734 27.486 37.2097L27.5744 37.315C27.9695 37.7858 28.6742 37.8404 29.1371 37.4359L29.1605 37.4155C29.3819 37.222 29.519 36.9498 29.5426 36.6568L29.6038 35.8993C29.6693 35.0877 29.3523 34.2919 28.7467 33.7475L28.308 33.3531C27.6714 32.7808 27.5079 31.8478 27.912 31.0931L27.9506 31.0211C28.1208 30.7031 28.3924 30.451 28.7221 30.3046L28.9425 30.2068C29.2238 30.082 29.4386 29.8433 29.5331 29.5505L29.8198 28.6625C29.8865 28.4559 30.1279 28.3649 30.3144 28.476C30.5236 28.6007 30.7921 28.4698 30.8227 28.2281L30.8923 27.6784C30.8969 27.642 30.8986 27.6053 30.8975 27.5686L30.8909 27.3591C30.858 26.3016 30.3296 25.3213 29.4644 24.7125L28.7157 24.1856C28.1551 23.7911 27.8022 23.165 27.7549 22.4811L27.7013 21.7046C27.6485 20.9417 28.1982 20.2694 28.9563 20.1695L30.2615 19.9973C30.543 19.9602 30.7131 19.6667 30.6056 19.404C30.5389 19.2411 30.5774 19.054 30.7031 18.9308L31.7221 17.9312C32.2628 17.4007 32.5405 16.6578 32.4802 15.9027L32.434 15.3232Z" fill="#E0FC52" stroke="#1D1D1D" stroke-width="2" stroke-linecap="round" stroke-linejoin="round"/>
</svg>
