<svg width="173" height="177" viewBox="0 0 173 177" fill="none" xmlns="http://www.w3.org/2000/svg">
<path d="M110.243 2.08065C110.893 2.35176 111.629 2.37935 112.296 2.15131C113.134 1.86438 114.058 1.979 114.801 2.46214L117.548 4.24829C118.397 4.80066 119.346 5.18312 120.341 5.37452L122.917 5.86997C123.187 5.92205 123.429 6.07377 123.593 6.29516C123.801 6.57511 124.129 6.74018 124.477 6.74018H127.827C128.139 6.74018 128.43 6.58474 128.603 6.3258C128.87 5.9272 129.395 5.79556 129.818 6.02126L129.913 6.07178C130.397 6.32974 130.997 6.17319 131.294 5.71197L131.417 5.51991C131.746 5.00701 132.388 4.79194 132.96 5.00266L135.579 5.96759C135.949 6.10381 136.242 6.39298 136.383 6.76093C136.488 7.03496 136.679 7.2679 136.926 7.4253L137.749 7.94801C138.503 8.42709 139.387 8.66036 140.279 8.6156L141.26 8.56638C141.48 8.55533 141.701 8.58686 141.909 8.65926L142.735 8.94596C143.367 9.16548 143.625 9.91935 143.262 10.4808C143.174 10.616 143.056 10.7287 142.917 10.8101L141.995 11.3498C141.4 11.6978 140.901 12.1875 140.541 12.7752L139.964 13.7202C139.642 14.2461 139.587 14.8926 139.815 15.4653L140.117 16.2248C140.283 16.6431 140.134 17.1206 139.758 17.3693C139.574 17.4916 139.438 17.6743 139.374 17.8861L139.288 18.1682C139.103 18.7788 139.261 19.4418 139.701 19.9037L140.504 20.7464C140.797 21.0539 140.876 21.5077 140.704 21.8962L140.468 22.43C140.364 22.6635 140.469 22.9366 140.702 23.0411C140.864 23.1139 141.054 23.0875 141.19 22.973L141.232 22.9377C141.52 22.6963 141.959 22.8064 142.099 23.1549L142.333 23.7387C142.441 24.0072 142.428 24.3091 142.297 24.5673L141.395 26.353C141.262 26.6176 141.214 26.9173 141.258 27.2104C141.329 27.6754 141.166 28.1453 140.823 28.4665L140.704 28.5769C140.455 28.8104 140.28 29.1127 140.201 29.4455L139.802 31.1411C139.678 31.669 139.471 32.174 139.189 32.6373L137.418 35.546C137.249 35.8248 136.913 35.9545 136.6 35.8619C136.239 35.755 135.856 35.9448 135.723 36.2969L135.293 37.4301C135.224 37.6141 135.029 37.7182 134.837 37.6738L134.73 37.649C134.565 37.6108 134.467 37.4403 134.518 37.2787C134.579 37.0814 134.422 36.8846 134.216 36.9018L132.662 37.0311C132.346 37.0574 132.102 37.322 132.102 37.6396V37.7141C132.102 38.1504 132.574 38.4235 132.952 38.2062C133.27 38.0234 133.676 38.1861 133.779 38.5381L133.968 39.1794C134.092 39.5999 134.5 39.87 134.936 39.8189C135.278 39.7788 135.613 39.9374 135.798 40.2274L136.375 41.1284C136.743 41.7031 136.871 42.3989 136.732 43.0668L136.62 43.607C136.522 44.0781 136.211 44.477 135.778 44.6868L135.712 44.7184C135.428 44.8561 135.201 45.089 135.071 45.3766L135.018 45.4937C134.736 46.116 135.018 46.8487 135.645 47.1213L135.955 47.2563C136.204 47.3646 136.367 47.6079 136.373 47.8793C136.379 48.177 136.195 48.4458 135.915 48.5478L133.897 49.2838C133.598 49.3929 133.426 49.7068 133.494 50.0179C133.564 50.3334 133.859 50.5464 134.181 50.513L136.415 50.2804C136.763 50.2442 137.042 50.5644 136.958 50.9043C136.881 51.2179 137.113 51.5226 137.436 51.5307L137.737 51.5382C138.052 51.5461 138.282 51.8377 138.216 52.1455C138.147 52.4685 138.403 52.7689 138.733 52.7522L138.916 52.7429C139.285 52.7241 139.593 53.0186 139.592 53.3875L139.581 56.6378C139.577 57.8438 140.157 58.977 141.138 59.6784L142.223 60.4537C142.444 60.6119 142.61 60.8355 142.698 61.0931L142.946 61.8254C142.994 61.9652 143.131 62.0542 143.278 62.0406C143.475 62.0225 143.64 62.1851 143.626 62.3819L143.592 62.8451C143.571 63.1332 143.917 63.2951 144.126 63.0958C144.208 63.0173 144.327 62.9895 144.435 63.0234L144.486 63.039C144.761 63.125 144.984 62.8067 144.81 62.5769C144.734 62.477 144.729 62.3401 144.798 62.2352L145.143 61.7091C145.361 61.3774 145.729 61.1762 146.126 61.1728L146.52 61.1693C147.149 61.1639 147.636 61.7178 147.55 62.3407C147.49 62.7744 147.711 63.1985 148.1 63.3984L148.655 63.683C148.884 63.8006 149.158 63.786 149.374 63.6449C149.561 63.522 149.796 63.4941 150.007 63.5696L150.218 63.645C150.583 63.7756 150.99 63.716 151.302 63.4859L151.905 63.0416C152.264 62.7775 152.773 62.8862 152.992 63.2738L153.106 63.4745C153.266 63.7575 153.141 64.1168 152.84 64.2398L152.472 64.39C152.257 64.4778 152.215 64.7641 152.396 64.9099C152.473 64.972 152.515 65.0676 152.509 65.1663L152.421 66.5829C152.368 67.4437 152.681 68.2869 153.284 68.9039L153.479 69.1043C153.805 69.4381 154.192 69.7069 154.618 69.8964L155.516 70.2951C156.045 70.5302 156.434 70.9995 156.566 71.5632L156.681 72.0495C156.8 72.5553 157.236 72.9235 157.754 72.9559C157.988 72.9705 158.212 73.0544 158.398 73.1969L159.241 73.8433C159.617 74.132 159.769 74.6278 159.618 75.0776C159.498 75.4368 159.569 75.8324 159.807 76.1273L159.969 76.3286C160.18 76.5907 160.302 76.9147 160.318 77.2509C160.351 77.9756 160.868 78.5905 161.577 78.744L163.042 79.0609C163.738 79.2116 164.373 79.5685 164.864 80.0852L167.938 83.3228C168.208 83.6069 168.39 83.9632 168.461 84.3484L168.775 86.0476C168.839 86.3906 168.579 86.7084 168.23 86.7139C167.926 86.7188 167.681 86.9636 167.675 87.2674L167.673 87.3887C167.668 87.6623 167.502 87.9071 167.249 88.0124L165.272 88.8371C164.994 88.953 164.676 88.8084 164.58 88.5227C164.516 88.3292 164.344 88.1916 164.141 88.171L164.122 88.169C163.801 88.1365 163.522 88.386 163.518 88.7082L163.515 88.9619C163.51 89.4295 163.097 89.7874 162.633 89.7264L161.526 89.5808C161.288 89.5496 161.047 89.5866 160.83 89.6875L160.687 89.7539C160.08 90.0361 159.854 90.7847 160.204 91.3557C160.364 91.6177 160.41 91.9341 160.331 92.2309L160.296 92.3607C160.094 93.1192 160.539 93.8997 161.295 94.1114L162.047 94.322C162.33 94.401 162.625 94.4235 162.916 94.3881L163.494 94.3177C164.676 94.1739 165.872 94.445 166.876 95.0847L168.801 96.3106C169.652 96.8527 170.259 97.7053 170.491 98.6872L171.094 101.235C171.211 101.728 170.935 102.229 170.456 102.394C170.085 102.521 169.826 102.856 169.794 103.247L169.74 103.926C169.661 104.908 168.887 105.692 167.905 105.782L164.12 106.13C164.007 106.14 163.895 106.166 163.789 106.206C162.855 106.557 162.671 107.797 163.463 108.404L163.694 108.582C164.091 108.886 164.3 109.375 164.247 109.872L163.681 115.137C163.617 115.734 164.044 116.272 164.64 116.345C164.861 116.372 165.068 116.465 165.235 116.613L166.257 117.519C166.538 117.767 166.709 118.117 166.732 118.491C166.748 118.751 166.692 119.011 166.57 119.241L166.418 119.528C165.907 120.494 164.841 121.032 163.76 120.869L160.819 120.425C159.103 120.166 157.427 121.09 156.73 122.679C156.523 123.15 156.413 123.658 156.407 124.173L156.39 125.453C156.381 126.19 156.229 126.919 155.943 127.598C155.552 128.526 155.413 129.54 155.541 130.538L155.658 131.456C155.745 132.145 155.704 132.844 155.536 133.517C155.37 134.18 155.085 134.806 154.694 135.366L152.743 138.155C152.406 138.636 152.425 139.282 152.789 139.743L153.142 140.19C153.331 140.43 153.325 140.77 153.126 141.002C152.955 141.202 152.678 141.277 152.43 141.19L152.332 141.156C152.129 141.085 151.963 140.935 151.874 140.739L150.281 137.27C150.12 136.919 149.864 136.621 149.542 136.408C149.024 136.066 148.378 135.975 147.785 136.162L146.602 136.535C146.469 136.577 146.328 136.591 146.189 136.576L145.255 136.475C144.834 136.43 144.639 135.931 144.916 135.612C145.093 135.407 145.085 135.102 144.898 134.906L143.408 133.353C143.189 133.125 143.064 132.824 143.058 132.508C143.043 131.686 142.253 131.1 141.462 131.325L139.224 131.958C139.041 132.01 138.851 132.032 138.662 132.025L137.286 131.97C136.898 131.954 136.588 132.29 136.636 132.676L136.688 133.1C136.729 133.435 136.374 133.675 136.08 133.511C135.977 133.455 135.856 133.444 135.745 133.482L130.85 135.174L127.654 136.573C127.495 136.643 127.413 136.819 127.462 136.985C127.534 137.231 127.32 137.467 127.068 137.42L123.547 136.761C123.451 136.743 123.366 136.69 123.307 136.612L123.222 136.498C122.977 136.172 122.464 136.432 122.582 136.821C122.613 136.924 122.597 137.035 122.538 137.125L121.896 138.113C121.741 138.351 121.461 138.477 121.18 138.436L120.977 138.406C120.827 138.383 120.678 138.448 120.592 138.573L120.335 138.944C120.223 139.105 120.365 139.32 120.557 139.28C120.676 139.256 120.792 139.333 120.814 139.452L120.942 140.115C120.977 140.294 121.066 140.459 121.197 140.585L121.496 140.872C122.177 141.527 121.772 142.68 120.831 142.766L120.451 142.8C120.22 142.821 120 142.696 119.9 142.486C119.815 142.309 119.643 142.189 119.448 142.172L118.761 142.11C118.303 142.069 117.879 141.851 117.58 141.501L117.115 140.959C116.963 140.781 116.741 140.678 116.507 140.675C115.935 140.668 115.534 141.237 115.733 141.773L116.49 143.81C116.557 143.99 116.565 144.186 116.513 144.37L116.283 145.194C116.172 145.594 116.572 145.945 116.954 145.784C117.225 145.669 117.536 145.814 117.621 146.095L117.794 146.661C117.921 147.079 117.77 147.532 117.417 147.79L117.322 147.858C117.149 147.985 117.013 148.157 116.929 148.354L116.755 148.762C116.356 149.701 115.477 150.348 114.461 150.45L113.397 150.556C113.042 150.592 112.691 150.465 112.44 150.212C112.252 150.023 112.005 149.902 111.74 149.871L109.644 149.623C109.381 149.592 109.151 149.429 109.035 149.191C108.902 148.919 108.624 148.748 108.322 148.754L105.604 148.8C104.886 148.813 104.296 149.372 104.246 150.088C104.213 150.559 104.422 151.014 104.8 151.296L105.773 152.021C106.074 152.246 106.313 152.544 106.466 152.888C106.643 153.287 106.697 153.729 106.621 154.159L106.205 156.512C106.142 156.871 105.804 157.114 105.443 157.06C104.7 156.949 104.361 157.955 105.02 158.317L105.473 158.565C105.796 158.742 105.947 159.124 105.832 159.475L105.504 160.471C105.366 160.893 105.75 161.301 106.179 161.188C106.416 161.126 106.665 161.224 106.795 161.431L107.147 161.986C107.276 162.19 107.352 162.423 107.369 162.664L107.433 163.572C107.473 164.156 107.956 164.612 108.543 164.619C108.928 164.623 109.284 164.824 109.487 165.152L109.657 165.427C109.964 165.923 109.998 166.542 109.745 167.069L109.517 167.546C109.382 167.828 109.12 168.028 108.813 168.083C108.358 168.166 107.907 167.916 107.735 167.486L107.716 167.437C107.479 166.842 106.759 166.605 106.211 166.937C105.847 167.156 105.65 167.576 105.716 167.996L105.939 169.405C105.973 169.616 106.059 169.816 106.189 169.987C106.695 170.65 106.45 171.612 105.687 171.951L104.79 172.349C104.614 172.428 104.505 172.608 104.519 172.801C104.539 173.072 104.32 173.3 104.049 173.292L103.769 173.283C103.497 173.275 103.245 173.422 103.118 173.663L102.851 174.172C102.781 174.305 102.785 174.464 102.86 174.595C103.068 174.953 102.708 175.372 102.322 175.222L100.511 174.516C100.048 174.336 99.7593 173.872 99.8019 173.377L99.9136 172.081C99.9389 171.787 99.8907 171.491 99.7734 171.221C99.5002 170.591 98.8889 170.174 98.2027 170.151L97.8983 170.14C97.3723 170.122 96.8692 169.921 96.4755 169.572L92.561 166.098C92.1614 165.743 91.5427 165.812 91.2311 166.246C91.0993 166.43 91.0413 166.656 91.0687 166.881L91.2128 168.062C91.328 169.006 90.5876 169.838 89.6357 169.833L88.7188 169.827C88.3341 169.825 88.0266 169.507 88.0382 169.122C88.049 168.759 87.7751 168.451 87.4136 168.419L87.2275 168.403C86.9269 168.376 86.6336 168.505 86.4498 168.745L86.404 168.804C86.2347 169.025 85.9828 169.167 85.7064 169.197L81.9066 169.615C81.5836 169.651 81.2758 169.771 81.0146 169.964C80.6354 170.245 80.163 170.369 79.695 170.31L78.0707 170.109C76.9877 169.974 76.2366 168.962 76.4213 167.887C76.5572 167.096 76.1849 166.304 75.489 165.905L72.2549 164.047C72.1114 163.965 72.0229 163.812 72.0229 163.646C72.0229 163.406 71.8385 163.206 71.5989 163.186L70.0837 163.06C68.9551 162.967 68.1007 162.001 68.1461 160.869L68.2382 158.578C68.2434 158.449 68.1813 158.326 68.0741 158.253C67.8561 158.106 67.8548 157.785 68.0716 157.636L68.1132 157.607C68.254 157.51 68.3195 157.336 68.2773 157.17L67.7363 155.045C67.7017 154.909 67.7362 154.765 67.8284 154.659L67.9248 154.549C68.0577 154.397 68.0128 154.161 67.8335 154.068C67.6536 153.975 67.4341 154.076 67.3877 154.273L67.3293 154.521C67.285 154.709 67.138 154.856 66.9498 154.9L66.3043 155.052C66.0275 155.117 65.7363 155.045 65.5214 154.859C65.3166 154.681 65.2043 154.42 65.2166 154.149L65.2732 152.897C65.3027 152.247 65.1487 151.601 64.8289 151.034L63.7291 149.084C63.5432 148.754 63.241 148.506 62.8815 148.388C62.4901 148.259 62.0631 148.296 61.6988 148.488L59.8684 149.456C59.5093 149.646 59.107 149.74 58.701 149.728C58.2612 149.714 57.834 149.578 57.468 149.334L55.8168 148.232C55.4189 147.967 55.1272 147.569 54.9931 147.11L54.8999 146.791C54.8081 146.477 54.845 146.139 55.0025 145.852C55.2641 145.375 55.1827 144.783 54.8019 144.395L54.1233 143.703C53.7444 143.317 53.1178 143.331 52.7566 143.733C52.5772 143.934 52.3206 144.047 52.052 144.045L51.0193 144.037C50.3249 144.032 49.6975 144.451 49.4354 145.094C49.1346 145.832 48.3605 146.261 47.575 146.125L45.1338 145.703C44.4747 145.589 43.8469 145.338 43.291 144.966L42.096 144.166C41.7003 143.901 41.3941 143.523 41.2177 143.081L41.0485 142.657C40.8806 142.236 40.5247 141.918 40.0875 141.799C39.7175 141.699 39.4028 141.455 39.213 141.121L37.7176 138.497C37.2568 137.688 36.3766 137.211 35.4474 137.267L34.2524 137.339C33.7756 137.367 33.3457 137.053 33.2277 136.59L33.2224 136.569C33.1389 136.241 32.8885 135.982 32.5637 135.887C32.1099 135.753 31.8212 135.309 31.8837 134.841L32.1307 132.991C32.2334 132.222 31.5476 131.581 30.7873 131.735C30.5625 131.781 30.3292 131.757 30.1184 131.667L29.836 131.546C29.1051 131.233 28.6118 130.536 28.5593 129.742L28.4929 128.736C28.4868 128.645 28.5257 128.556 28.597 128.499L28.6493 128.457C28.8023 128.333 28.7555 128.089 28.5677 128.031C28.4131 127.983 28.3462 127.802 28.4327 127.665L28.7248 127.203C28.8996 126.927 28.8472 126.565 28.6013 126.349L28.5515 126.306C28.3809 126.156 28.1511 126.093 27.9281 126.134L26.7318 126.356C26.2726 126.442 25.8006 126.298 25.4669 125.971C25.3252 125.833 25.2138 125.666 25.1398 125.482L24.9095 124.91C24.6316 124.22 24.5482 123.467 24.6683 122.733C24.7732 122.092 25.0301 121.485 25.4175 120.963L26.0604 120.098C26.3125 119.758 26.6389 119.481 27.0147 119.287L27.1462 119.219C27.4929 119.041 27.8806 118.956 28.2702 118.975L30.2153 119.069C30.3521 119.076 30.4582 119.191 30.453 119.328C30.4473 119.482 30.5798 119.604 30.7322 119.586L33.8881 119.214C34.4087 119.152 34.9039 118.954 35.3231 118.639L36.7559 117.564C36.8922 117.461 36.995 117.321 37.0513 117.16C37.2342 116.637 36.882 116.08 36.331 116.021L35.8447 115.969C35.5757 115.94 35.3233 115.824 35.1256 115.64L34.1955 114.771C33.6726 114.282 33.007 113.974 32.2963 113.892C31.5037 113.8 30.7701 113.428 30.2276 112.842L26.5552 108.881C25.7936 108.059 25.2577 107.055 24.9993 105.965L24.5705 104.156C24.4891 103.813 24.2872 103.51 24.0015 103.302L21.8952 101.773C21.7277 101.651 21.777 101.389 21.9774 101.337L22.2034 101.278C22.3941 101.228 22.3897 100.956 22.1975 100.912C22.1375 100.898 22.0879 100.856 22.0647 100.799L21.7788 100.095C21.6805 99.8531 21.7347 99.576 21.9168 99.3887L22.049 99.2528C22.3259 98.9682 22.2103 98.4921 21.8337 98.3661C21.6289 98.2976 21.4847 98.1133 21.4675 97.898L21.3021 95.8239C21.2594 95.2883 20.9407 94.8136 20.4611 94.5712L19.7706 94.2223C19.6411 94.1568 19.485 94.1747 19.3735 94.2676C19.1633 94.443 18.8421 94.3321 18.7847 94.0645L18.602 93.212C18.554 92.9881 18.4217 92.7913 18.2324 92.6625L18.2019 92.6417C17.8835 92.4249 17.721 92.0421 17.7864 91.6624L17.8042 91.5595C17.8653 91.2047 17.756 90.8418 17.5092 90.5798L17.3422 90.4025C17.1401 90.1881 17.0762 89.8781 17.177 89.6012L17.2117 89.506C17.2989 89.2662 17.5225 89.1029 17.7775 89.0928C18.0914 89.0803 18.3479 88.8381 18.3783 88.5254L18.4484 87.8038C18.4974 87.2993 18.2813 86.8055 17.8775 86.4993L17.0369 85.8617C16.7888 85.6735 16.4757 85.5926 16.1675 85.6372C15.6616 85.7102 15.1673 85.4446 14.9491 84.9824L14.629 84.3042C14.3727 83.7613 13.8952 83.3548 13.3183 83.1883C12.9098 83.0705 12.547 82.8309 12.2782 82.5015L10.9113 80.8263C10.7836 80.6698 10.5991 80.5702 10.3982 80.5493C9.96426 80.5042 9.65607 80.1056 9.72165 79.6742L9.73762 79.5692C9.77884 79.2981 9.68914 79.0235 9.49581 78.829L9.19753 78.5288C8.88644 78.2158 8.70878 77.7945 8.70187 77.3532L8.69158 76.6957C8.67911 75.8993 8.3821 75.1336 7.85426 74.5371L6.77072 73.3126C6.7336 73.2707 6.71197 73.2173 6.70942 73.1613L6.69313 72.8042C6.68704 72.6707 6.51185 72.6256 6.44209 72.7396C6.41123 72.79 6.35124 72.8146 6.29385 72.8004L4.64469 72.3917C4.47992 72.3509 4.30709 72.4165 4.21094 72.5564C4.08622 72.7378 3.8399 72.7874 3.65474 72.6682L3.56956 72.6134C3.34812 72.4709 3.27091 72.1837 3.39108 71.9494L3.43805 71.8578C3.55086 71.6379 3.52352 71.3721 3.36827 71.1797L3.06949 70.8095C2.90395 70.6043 2.80173 70.3554 2.77531 70.0931L2.62234 68.5742C2.59228 68.2758 2.73015 67.9853 2.98036 67.8199L3.52686 67.4586C3.67974 67.3575 3.69903 67.1406 3.56636 67.0141C3.47948 66.9313 3.45373 66.803 3.50194 66.693L4.28528 64.9069C4.388 64.6726 4.60905 64.512 4.86354 64.4867L4.95744 64.4773C5.38073 64.4352 5.64473 63.9981 5.48508 63.6038C5.40691 63.4108 5.428 63.1917 5.54157 63.0171L5.79854 62.622C5.90333 62.4609 5.86176 62.2457 5.70448 62.1353C5.48428 61.9806 5.5079 61.6471 5.7477 61.5251L6.53319 61.1252C6.81529 60.9816 6.98791 60.6868 6.97515 60.3705L6.96294 60.068C6.95848 59.9574 6.89383 59.8581 6.7945 59.8094L6.55037 59.6895C6.43869 59.6346 6.43311 59.4775 6.54062 59.4149C6.67642 59.3358 6.62308 59.1282 6.46597 59.1243L6.32541 59.1209C6.26445 59.1194 6.20768 59.0896 6.17185 59.0403L5.55033 58.1845C5.40747 57.9878 5.37877 57.7305 5.47479 57.5071C5.65233 57.0942 5.39357 56.6246 4.94966 56.5541L4.12661 56.4233C3.69719 56.3551 3.36476 56.0109 3.3115 55.5793C3.26741 55.2221 3.42359 54.8697 3.71782 54.6624L4.34201 54.2226C4.7958 53.9029 5.00125 53.3336 4.85619 52.7977L4.84691 52.7635C4.79941 52.588 4.71169 52.426 4.59071 52.2903C4.2847 51.9472 3.80611 51.815 3.36733 51.9524L3.33294 51.9632C2.92408 52.0912 2.47803 51.9966 2.15637 51.7136L1.42346 51.0687C1.38386 51.0339 1.35912 50.9851 1.35436 50.9326L1.29123 50.2363C1.27981 50.1103 1.45612 50.0693 1.50144 50.1874C1.51504 50.2228 1.5461 50.2486 1.58343 50.2555L4.06498 50.7123C4.30909 50.7572 4.56032 50.6877 4.74667 50.5238C5.03381 50.2711 5.1051 49.852 4.91763 49.5187L3.33097 46.697C2.85557 45.8516 2.98078 44.7958 3.64074 44.0851L3.79136 43.9228C3.98504 43.7142 4.11446 43.4542 4.16411 43.1739C4.27542 42.5455 3.97129 41.9164 3.40957 41.6133L2.84411 41.3083C2.43069 41.0852 2.0929 40.7443 1.87368 40.3288L1.82446 40.2355C1.1001 38.8627 1.67149 37.1631 3.07805 36.5067L3.94856 36.1005C4.2256 35.9712 4.46574 35.7744 4.64696 35.5282C5.05902 34.9682 5.75331 34.6909 6.43773 34.8129L6.82973 34.8827C7.25622 34.9587 7.6952 34.921 8.10249 34.7734L11.7345 33.4572C12.1181 33.3183 12.5476 33.4235 12.8234 33.724C12.9856 33.9007 13.0797 34.1293 13.0889 34.369L13.0927 34.47C13.1246 35.3057 13.9333 35.889 14.7364 35.6554L15.1195 35.544C15.3938 35.4643 15.6844 35.4595 15.9612 35.5303L18.7575 36.2454C19.9253 36.5441 20.3544 37.979 19.5422 38.8697L19.3874 39.0394C19.1745 39.2729 19.0731 39.587 19.1093 39.9009C19.1857 40.5636 19.8328 41.0039 20.4773 40.8315L21.4607 40.5685C21.8516 40.4639 22.2653 40.4822 22.6454 40.6208L25.1083 41.5187C26.3171 41.9594 27.6722 41.5811 28.478 40.5781C28.7215 40.275 29.0216 40.0221 29.3615 39.8333L30.4781 39.2134C31.8208 38.468 32.9632 37.4086 33.8077 36.1259L34.0486 35.7601C35.1005 34.1622 36.5409 32.8575 38.2348 31.9684L44.8835 28.4783C45.4972 28.1561 46.0543 27.736 46.5327 27.2343L46.8553 26.8961C48.2102 25.4754 48.714 23.4448 48.1804 21.5555C47.7399 19.996 48.0028 18.3218 48.9002 16.9724L50.4686 14.6138C50.6397 14.3566 50.6915 14.0381 50.6107 13.7399C50.493 13.305 50.6597 12.8428 51.028 12.5833L52.6964 11.4074C53.3794 10.9261 54.1962 10.6713 55.0317 10.6792L58.7641 10.7141C59.5244 10.7213 60.2843 10.6727 61.0375 10.5689L65.4813 9.95613C66.0447 9.87844 66.6005 9.75238 67.1423 9.57935L68.6509 9.09762C69.7634 8.74238 70.9623 8.7664 72.0597 9.16591L72.2021 9.21774C72.9069 9.47436 73.6634 9.5569 74.407 9.45832L75.1024 9.36613C75.8847 9.26243 76.676 9.47456 77.3016 9.95563L77.6644 10.2346C77.9479 10.4527 78.2954 10.5709 78.6531 10.5709C78.978 10.5709 79.2954 10.4733 79.5642 10.2908L83.4344 7.66267C83.6145 7.54037 83.8358 7.49457 84.0497 7.53534C84.3422 7.5911 84.5816 7.80081 84.6754 8.08342L84.7147 8.20186C84.8898 8.72924 85.4504 9.02392 85.9841 8.8691L89.1721 7.94424C89.7404 7.77938 90.3482 8.02006 90.6495 8.52926C90.883 8.9237 91.3073 9.16563 91.7656 9.16563H92.378C92.9759 9.16563 93.5517 8.93971 93.9901 8.53311L94.8921 7.69656C95.3202 7.29959 95.8599 7.04388 96.4382 6.96409C96.8636 6.90541 97.2702 6.75122 97.6275 6.51307L100.846 4.36771C101.765 3.75547 102.843 3.42544 103.946 3.41833C104.8 3.41284 105.641 3.21429 106.407 2.83756L107.801 2.1515C108.563 1.77691 109.46 1.75403 110.243 2.08065Z" fill="#E0FC52" stroke="#1D1D1D" stroke-width="2" stroke-linecap="round" stroke-linejoin="round"/>
</svg>
