<svg width="172" height="120" viewBox="0 0 172 120" fill="none" xmlns="http://www.w3.org/2000/svg">
<path d="M36.277 5.47866C36.5053 5.81328 36.8201 6.07966 37.1879 6.24941L37.6912 6.48168C38.2077 6.72009 38.817 6.62414 39.2353 6.23852C39.5742 5.92606 40.0446 5.79933 40.4946 5.89926L42.8172 6.41501C43.1367 6.48595 43.4702 6.38787 43.7004 6.15527C44.0584 5.79353 44.6376 5.77729 45.0153 6.11839L47.0704 7.97423C47.2875 8.17023 47.5744 8.27043 47.8663 8.25219C48.33 8.22319 48.7609 8.49238 48.9381 8.9219L49.0935 9.29834C49.3945 10.0275 50.1681 10.4431 50.9422 10.2914L51.9713 10.0899C52.3266 10.0203 52.6039 9.74161 52.6718 9.38596C52.7277 9.09261 52.6322 8.7908 52.4177 8.58303L51.7941 7.97898C51.6267 7.81688 51.591 7.56173 51.7074 7.35992C51.8446 7.12214 52.1459 7.03629 52.3878 7.16601L54.068 8.06692C54.8648 8.49412 54.9167 9.61722 54.1628 10.1161C53.7068 10.4179 53.5139 10.9907 53.6944 11.5068L54.1294 12.7508C54.3107 13.2694 53.9305 13.8133 53.381 13.821C53.2144 13.8234 53.0526 13.8774 52.918 13.9756L52.3885 14.3619C51.8206 14.7763 51.474 15.4281 51.448 16.1306C51.4352 16.4753 51.5003 16.8184 51.6385 17.1345L52.1105 18.2144C52.5912 19.314 53.3303 20.2814 54.265 21.0342L55.0297 21.6502C55.3064 21.873 55.6161 22.0514 55.9477 22.179C57.0661 22.6091 57.8779 23.5928 58.0881 24.7725L58.1588 25.1695C58.2479 25.6696 58.4657 26.138 58.7908 26.5284L59.1401 26.948C59.2477 27.0772 59.3881 27.175 59.5466 27.2313C59.9217 27.3643 60.3399 27.2456 60.5892 26.9355L61.0246 26.3938C61.2467 26.1175 61.5412 25.9082 61.8752 25.7893L62.36 25.6168C62.6963 25.4972 63.0629 25.4935 63.4015 25.6065C63.8394 25.7526 64.319 25.7022 64.717 25.4683L65.6274 24.9333C66.3412 24.5137 67.2219 24.4958 67.9522 24.8859L68.5406 25.2002C68.9003 25.3923 69.1351 25.7567 69.1615 26.1636L69.1732 26.3442C69.2008 26.7711 69.5123 27.126 69.9321 27.2088C70.2214 27.2659 70.4675 27.455 70.597 27.7199L72.6476 31.9132C73.3879 33.4271 74.9499 34.3635 76.6341 34.3029L77.5723 34.2692C77.9435 34.2558 78.2989 34.1152 78.5788 33.871C79.1608 33.3631 80.0205 33.337 80.6323 33.8086L81.4706 34.455C81.9852 34.8517 82.6921 34.887 83.2437 34.5436C84.0693 34.0295 85.1589 34.39 85.5149 35.2951L85.5995 35.5101C85.7668 35.9354 86.0939 36.2783 86.5108 36.4654L88.9907 37.5787L90.7737 38.096C91.7145 38.3689 92.725 38.2605 93.5864 37.7941C94.3491 37.3811 95.2318 37.2471 96.0827 37.4151L97.5936 37.7135L99.9514 38.2984C100.325 38.391 100.636 38.6483 100.797 38.9976C100.999 39.4369 101.434 39.7225 101.918 39.7338L102.271 39.742C102.603 39.7497 102.922 39.8705 103.176 40.0843C103.48 40.3405 103.666 40.7099 103.691 41.1068L103.704 41.3141C103.736 41.8081 103.954 42.2715 104.315 42.6099L107.132 45.2472C107.923 45.9884 108.951 46.4254 110.034 46.4807L110.871 46.5234C112.673 46.6154 114.133 48.0189 114.295 49.8156C114.373 50.6765 114.756 51.4813 115.375 52.0845L116.812 53.4842C117.614 54.2649 118.746 54.6047 119.845 54.3941L120.701 54.23C121.442 54.0881 122.199 54.3741 122.661 54.9699C123.016 55.4289 123.155 56.0198 123.041 56.5892L122.221 60.6885C122.11 61.2409 122.201 61.8146 122.477 62.3059C122.797 62.8762 123.339 63.2881 123.974 63.4432L125.908 63.9152C126.15 63.9742 126.405 63.9204 126.602 63.7689C126.855 63.5746 126.973 63.2511 126.903 62.9396L126.885 62.8585C126.84 62.6555 126.862 62.4432 126.949 62.2542L127.531 60.9882C127.954 60.0686 128.944 59.5504 129.941 59.7271C130.525 59.8308 131.127 59.6965 131.612 59.3543L132.659 58.6154C132.838 58.4889 133.076 58.4817 133.262 58.597C133.509 58.7496 133.832 58.683 133.998 58.4453L134.406 57.8616C134.553 57.6523 134.757 57.4907 134.995 57.397L136.204 56.9206C136.524 56.7944 136.888 56.8699 137.132 57.1127C137.417 57.397 137.469 57.8406 137.256 58.1827L137.154 58.3471C137.036 58.5365 136.978 58.757 136.988 58.9799L137.054 60.5347C137.067 60.8387 137.187 61.1283 137.394 61.352C137.807 61.8004 137.849 62.4777 137.494 62.9735L137.358 63.1621C137.136 63.4719 137.034 63.852 137.071 64.2314L137.132 64.8516C137.173 65.2657 137.352 65.6541 137.639 65.9547C138.023 66.3557 138.208 66.9072 138.142 67.4584L138.031 68.4011C137.988 68.7623 138.118 69.1227 138.381 69.3736L138.391 69.3831C138.655 69.6344 138.781 69.9974 138.73 70.358C138.669 70.794 138.866 71.2259 139.236 71.4645L140.455 72.2505C140.6 72.3438 140.683 72.5075 140.673 72.6792C140.659 72.9171 140.823 73.1288 141.057 73.175L144.789 73.9128C144.947 73.944 145.092 74.0212 145.205 74.1347C145.559 74.4876 146.144 74.4404 146.436 74.0353L147.887 72.0251C147.999 71.8705 148.051 71.6808 148.034 71.4909C147.986 70.9647 148.458 70.5407 148.976 70.6434L151.086 71.0615C151.38 71.1196 151.654 71.2509 151.883 71.4431L152.017 71.5557C152.44 71.9101 152.632 72.4694 152.516 73.0088C152.419 73.463 152.539 73.9367 152.841 74.2895L153.064 74.5497C153.254 74.7707 153.485 74.9516 153.746 75.0816L154.986 75.7009C156.139 76.2767 157.129 77.1335 157.864 78.1923C158.352 78.8953 158.955 79.5118 159.646 80.0163L161.175 81.132C161.409 81.3024 161.601 81.5234 161.737 81.7784C161.943 82.1631 162.012 82.6064 161.932 83.0354L161.91 83.1557C161.713 84.2222 162.297 85.2795 163.304 85.6804L164.007 85.96C164.251 86.0568 164.468 86.2084 164.644 86.4031L164.75 86.5214C165.29 87.122 165.271 88.0387 164.706 88.616L164.253 89.0788C164.119 89.2156 164.075 89.417 164.14 89.5971C164.21 89.7909 164.154 90.0077 163.998 90.1429L163.836 90.2847C163.541 90.5414 163.47 90.9716 163.667 91.3094C163.829 91.5874 163.812 91.9348 163.624 92.1959L163.334 92.5986C162.973 93.1003 162.938 93.7664 163.244 94.3033L164.296 96.1481C164.518 96.5381 164.872 96.8364 165.293 96.9899L165.381 97.0219C165.881 97.2037 166.268 97.6085 166.426 98.1163C166.55 98.5148 166.817 98.8538 167.174 99.0691L168.345 99.774C168.972 100.151 169.479 100.699 169.806 101.354L169.842 101.426C170.627 102.994 170.223 104.896 168.87 106.011C168.161 106.594 167.691 107.416 167.546 108.323L167.033 111.553C166.987 111.844 166.858 112.115 166.662 112.334C166.342 112.692 165.873 112.88 165.394 112.841L164.828 112.795C164.462 112.765 164.101 112.885 163.825 113.127C163.456 113.452 162.939 113.55 162.476 113.384L159.709 112.391C158.672 112.019 157.524 112.113 156.561 112.65L156.376 112.753C155.628 113.17 155.071 113.862 154.824 114.683L154.723 115.019C154.53 115.659 154.086 116.194 153.491 116.501L153.071 116.718C152.545 116.989 151.913 116.958 151.416 116.637C150.873 116.285 150.174 116.284 149.629 116.632L148.247 117.516C147.771 117.821 147.211 117.966 146.647 117.932L146.567 117.927C146.143 117.902 145.72 117.99 145.342 118.184C144.502 118.613 143.489 118.505 142.758 117.911L142.402 117.621C141.807 117.137 141.052 116.892 140.285 116.935L137.745 117.077C136.67 117.138 135.658 116.571 135.147 115.623C134.928 115.215 134.609 114.868 134.221 114.615L133.291 114.008C132.828 113.706 132.268 113.587 131.722 113.675L131.551 113.703C130.926 113.804 130.292 113.587 129.861 113.125L129.511 112.75C129.167 112.381 128.626 112.271 128.166 112.478L127.631 112.718C127.396 112.824 127.118 112.738 126.983 112.517C126.87 112.333 126.654 112.239 126.442 112.283L125.799 112.416C125.369 112.505 125.003 112.784 124.803 113.175L124.763 113.253C124.518 113.732 124.052 114.06 123.518 114.128L120.737 114.485C120.46 114.52 120.197 114.636 119.982 114.814C119.506 115.212 118.826 115.267 118.295 114.945C118.044 114.793 117.845 114.569 117.724 114.302L117.123 112.975C116.559 111.73 115.598 110.709 114.389 110.071L114.242 109.994C113.57 109.639 112.835 109.42 112.079 109.349C111.486 109.293 110.889 109.328 110.307 109.454L107.753 110.006C106.357 110.307 104.899 110.034 103.706 109.248L103.471 109.094C102.546 108.484 101.431 108.231 100.334 108.383L99.2815 108.528C98.8957 108.581 98.5034 108.496 98.174 108.288L97.9472 108.145C97.0876 107.604 95.9509 108.08 95.7339 109.072C95.6951 109.25 95.6234 109.419 95.5226 109.571L95.0858 110.228C94.3528 111.33 92.9952 111.838 91.7187 111.487L91.4622 111.416C91.0616 111.306 90.7013 111.083 90.4242 110.773L90.1058 110.417C89.8371 110.117 89.4392 109.966 89.0389 110.012C88.6078 110.062 88.182 109.883 87.9161 109.54L87.7571 109.335C87.4743 108.97 87.0553 108.736 86.5965 108.686L86.4158 108.666C85.9633 108.617 85.5384 108.424 85.2036 108.116L84.1726 107.167C84.0246 107.031 83.8298 106.956 83.6285 106.959C83.1462 106.967 82.7712 106.542 82.8388 106.064L82.8476 106.002C82.9073 105.58 82.6405 105.18 82.2275 105.073L80.3456 104.584C80.1093 104.523 79.8953 104.396 79.7286 104.218C79.3805 103.845 79.2849 103.303 79.4849 102.834L79.5082 102.779C79.7434 102.228 79.5953 101.587 79.1417 101.195L78.7197 100.831C78.5065 100.646 78.3693 100.39 78.3348 100.11L78.2875 99.7261C78.2518 99.4373 78.0252 99.2092 77.7367 99.1717C77.4932 99.14 77.2533 99.2509 77.1196 99.4568L77.0766 99.523C76.9158 99.7705 76.6267 99.9032 76.3342 99.8635L74.2534 99.5817C73.5495 99.4864 72.9483 99.0264 72.6723 98.3718L72.4709 97.8942C72.3566 97.6231 72.1233 97.4202 71.839 97.3445C71.5736 97.2739 71.2906 97.3215 71.0629 97.4749L70.7061 97.7154C70.4082 97.9161 70.1733 98.1973 70.0289 98.5263L69.7089 99.2548C69.5895 99.5268 69.3709 99.743 69.0976 99.8594L68.4136 100.151C68.0978 100.285 67.9816 100.674 68.1714 100.96C68.3215 101.186 68.2838 101.488 68.0827 101.67L67.716 102.002C67.4036 102.285 67.2911 102.728 67.4302 103.126L67.4451 103.168C67.5566 103.487 67.4939 103.842 67.2796 104.103L67.0712 104.357C66.8897 104.578 66.8956 104.898 67.0851 105.113C67.2696 105.322 67.2806 105.632 67.1114 105.853L66.4245 106.752C66.3075 106.905 66.3397 107.125 66.4958 107.238C66.6247 107.331 66.6724 107.501 66.6107 107.648L66.4909 107.933C66.3816 108.194 66.1324 108.368 65.8503 108.382L62.8966 108.524C62.5231 108.542 62.1719 108.707 61.9196 108.983C61.4401 109.508 60.6461 109.595 60.0635 109.189L58.504 108.099C58.2744 107.939 57.9769 107.913 57.7229 108.03C57.5096 108.129 57.2632 108.127 57.0513 108.026L55.7947 107.421C55.436 107.249 55.0055 107.401 54.8346 107.76C54.6775 108.091 54.7938 108.486 55.1047 108.679L55.4246 108.878C55.6846 109.039 55.8687 109.298 55.9357 109.596L56.1084 110.366C56.3392 111.395 55.7374 112.427 54.7287 112.733L53.8748 112.992C53.3591 113.148 52.8094 112.885 52.6088 112.384C52.5002 112.114 52.2827 111.901 52.0096 111.799L49.422 110.827C49.2213 110.751 49.0629 110.593 48.9873 110.393C48.887 110.126 48.9473 109.826 49.1426 109.619L50.4532 108.231C50.6957 107.975 50.8697 107.661 50.9593 107.319L51.7472 104.315C51.8117 104.069 51.5846 103.846 51.3397 103.915C51.1577 103.966 50.9701 103.854 50.9292 103.669L50.6793 102.541C50.5908 102.141 50.334 101.798 49.9747 101.601L49.5504 101.369C49.1413 101.145 48.8035 100.81 48.5755 100.403L48.1986 99.7303C48.0529 99.4702 47.986 99.1732 48.0061 98.8758L48.0719 97.9036C48.086 97.696 47.9448 97.5098 47.7411 97.4673L47.7282 97.4647C47.5619 97.43 47.3918 97.5046 47.3047 97.6506L47.2879 97.6787C47.1081 97.9798 46.6523 97.9042 46.5794 97.5612C46.5226 97.2939 46.2135 97.1688 45.9868 97.3213L45.9452 97.3493C45.8373 97.4219 45.7018 97.4404 45.5784 97.3993L45.1211 97.2471C44.8611 97.1605 44.6116 97.4033 44.6911 97.6656C44.7345 97.8089 44.6785 97.9636 44.5534 98.0459L44.5042 98.0782C44.321 98.1986 44.0758 98.1564 43.9434 97.9817L43.6582 97.6053C43.4894 97.3824 43.2284 97.2483 42.9489 97.2407L42.5156 97.2289C42.1643 97.2193 41.8178 97.3114 41.5176 97.4941L38.73 99.1903C37.9173 99.6849 36.9336 99.8132 36.0212 99.5436L32.7476 98.5764C32.3545 98.4603 32.1705 98.0097 32.3698 97.6516C32.4567 97.4955 32.4744 97.3102 32.4186 97.1404L31.8555 95.4286C31.8019 95.2658 31.8889 95.0902 32.0508 95.0341C32.242 94.9678 32.3214 94.7404 32.2129 94.5695L31.5801 93.5724C31.4931 93.4353 31.3309 93.3657 31.1716 93.3971C30.9854 93.4339 30.7995 93.3324 30.7295 93.1559L30.3017 92.0758C30.1726 91.7498 30.1505 91.3911 30.2386 91.0517C30.4404 90.2742 30.0541 89.4641 29.323 89.1315L28.584 88.7953C28.1508 88.5982 27.7796 88.2869 27.51 87.8948L26.9453 87.0732C26.8321 86.9084 26.7749 86.7114 26.7822 86.5116L26.7915 86.2587C26.8029 85.9492 26.5886 85.6769 26.2851 85.6152L26.0717 85.5719C25.8107 85.5189 25.6557 85.2486 25.7418 84.9965C25.8113 84.793 25.724 84.569 25.5351 84.4661L25.2675 84.3203C25.0221 84.1867 24.725 84.1902 24.4828 84.3296L23.8761 84.6788C23.232 85.0497 22.4376 85.0433 21.7994 84.6622L21.7588 84.638C21.3677 84.4044 20.9122 84.3022 20.4588 84.3462L19.4221 84.4468C19.1338 84.4748 18.8647 84.6038 18.6623 84.8109C18.1164 85.3695 17.1947 85.2834 16.7617 84.6335L15.254 82.3707C14.9269 81.8799 14.7319 81.3129 14.6878 80.7247L14.6274 79.9184C14.5793 79.2764 14.3158 78.6693 13.8796 78.1957L13.5647 77.8537C13.1807 77.4367 13.0051 76.8688 13.0867 76.3078C13.2299 75.324 12.5831 74.3986 11.61 74.1948L10.858 74.0374C10.2075 73.9012 9.63004 73.5297 9.23633 72.9942L8.5446 72.0533C8.24843 71.6505 8.23835 71.1047 8.51945 70.6912L8.76336 70.3324C9.17033 69.7338 8.77028 68.9198 8.0477 68.8763C7.86506 68.8653 7.68969 68.8009 7.54338 68.691L6.95129 68.2463C6.23013 67.7047 5.25995 67.6316 4.46577 68.059L4.20011 68.202C2.9127 68.8948 1.32864 68.0949 1.12199 66.6476C1.09627 66.4674 1.09405 66.2847 1.11536 66.104L2.42265 55.0219C2.53882 54.0371 2.7995 53.0749 3.19629 52.1662L3.68708 51.0422C3.99335 50.3408 4.45925 49.7206 5.04764 49.2311L6.06403 48.3856C6.26484 48.2186 6.51656 48.1249 6.77772 48.1201C7.17921 48.1128 7.54771 47.8963 7.74968 47.5493L8.50679 46.2482C8.73914 45.8489 9.04193 45.4951 9.40049 45.2038L11.867 43.2C12.2272 42.9074 12.641 42.6878 13.0852 42.5535C14.2181 42.2111 15.1076 41.3297 15.4603 40.2L16.3403 37.3818C16.387 37.2321 16.4048 37.0749 16.3928 36.9186C16.3659 36.567 16.1901 36.2437 15.9097 36.0299L15.7692 35.9228C15.3813 35.627 15.1886 35.141 15.2683 34.6598C15.3026 34.4528 15.3858 34.2569 15.5111 34.0886L16.6665 32.5356C17.5941 31.2888 17.9322 29.6997 17.5926 28.1833C17.4392 27.4981 17.4224 26.7893 17.5434 26.0976L17.6694 25.3765C17.7586 24.8666 17.9449 24.3785 18.2183 23.9388L18.4164 23.6201C18.6507 23.2431 18.9777 22.9324 19.3662 22.7176C20.0286 22.3512 20.4985 21.7143 20.6531 20.9733L21.0661 18.9941C21.1116 18.7759 21.0788 18.5486 20.9734 18.3522C20.8015 18.032 20.8278 17.6416 21.0412 17.3474L23.803 13.5397C23.9887 13.2836 24.1162 12.99 24.1766 12.6794L24.1881 12.62C24.3136 11.9741 24.7413 11.4276 25.338 11.1504L25.3881 11.1272C25.7612 10.9539 26.1806 10.9073 26.5827 10.9944L26.7032 11.0205C27.0846 11.1031 27.4831 11.0406 27.8208 10.8451L28.2637 10.5888C28.6823 10.3466 28.8601 9.83425 28.6817 9.38478C28.529 9.00008 28.6357 8.56089 28.9479 8.28917L28.9997 8.24413C29.2266 8.04666 29.3601 7.76298 29.3677 7.46229L29.4456 4.36823C29.4658 3.56437 29.7754 2.79481 30.3176 2.20093L30.5946 1.89742C30.7496 1.72768 30.9407 1.59493 31.1538 1.50898C31.61 1.325 32.1268 1.37098 32.5433 1.63261L33.7296 2.37772C34.228 2.69074 34.6564 3.10322 34.9881 3.58938L36.277 5.47866Z" fill="#393939" stroke="#1D1D1D" stroke-width="2" stroke-linecap="round" stroke-linejoin="round"/>
</svg>
