<svg width="211" height="199" viewBox="0 0 211 199" fill="none" xmlns="http://www.w3.org/2000/svg">
<path d="M2.68641 67.8469C0.943604 66.996 1.23052 64.4288 3.11818 63.9837C3.23074 63.9572 3.34087 63.9212 3.4474 63.8762L5.57839 62.9763C8.29012 61.8311 11.1578 61.0977 14.0864 60.8005L14.8974 60.7182C17.2216 60.4823 19.5153 60.0075 21.7421 59.3013L26.5809 57.7668C28.1095 57.282 29.7155 57.0881 31.3156 57.195C32.5755 57.2792 33.8161 57.5489 34.9973 57.9953L36.3636 58.5118C37.3872 58.8987 38.4375 59.211 39.5062 59.4462L46.2247 60.9252C47.0269 61.1017 47.8483 61.1761 48.6693 61.1464L49.6843 61.1096C50.3043 61.0872 50.9137 60.9416 51.4769 60.6814L52.3686 60.2696C52.9319 60.0093 53.3678 59.5346 53.5792 58.9511L53.6599 58.7283C53.7735 58.4147 53.7855 58.0732 53.6944 57.7524L53.4198 56.7861C53.3569 56.5645 53.1385 56.4248 52.9109 56.4605L52.5279 56.5205C52.2454 56.5649 52.0588 56.2354 52.2421 56.0159C52.3729 55.8593 52.3191 55.6211 52.1336 55.5359L51.3829 55.191C51.1709 55.0936 51.1769 54.7902 51.3926 54.7012L51.4053 54.696C51.5051 54.6549 51.5669 54.554 51.5582 54.4464L51.5304 54.1018C51.5189 53.9596 51.699 53.889 51.7872 54.0011C51.8495 54.0803 51.9718 54.0727 52.0238 53.9864L52.3383 53.4645C52.417 53.3339 52.4395 53.1771 52.4009 53.0296L51.7445 50.5272C51.6681 50.2356 51.3971 50.038 51.0961 50.0542C50.7791 50.0713 50.4982 49.8517 50.4382 49.54L50.0998 47.7807C49.9737 47.125 50.3732 46.4826 51.017 46.3057C51.6443 46.1333 52.0422 45.5177 51.9419 44.875L51.7503 43.6474C51.6755 43.1682 52.0144 42.7231 52.4962 42.6678C52.9425 42.6165 53.2727 42.228 53.2513 41.7792L53.1821 40.3281C53.1738 40.1543 53.2798 39.9954 53.4434 39.9362C53.6233 39.8712 53.7311 39.6871 53.6999 39.4984L53.5614 38.6625C53.4335 37.8904 52.7033 37.3688 51.9315 37.4983L51.1564 37.6282C49.9508 37.8304 48.8117 37.0107 48.6204 35.8033L48.2096 33.2097C48.1175 32.6284 48.3664 32.0457 48.8501 31.7104L48.929 31.6557C49.3499 31.3639 49.5737 30.8622 49.5095 30.3541L49.4783 30.1067C49.4065 29.5385 48.9117 29.1197 48.3394 29.143C47.8219 29.1639 47.3594 28.8219 47.228 28.3208L47.1676 28.0904C46.9571 27.288 46.0787 26.8642 45.3196 27.1989C44.5356 27.5446 43.6323 27.0808 43.4563 26.2422L43.1326 24.6991C42.9355 23.7601 43.5767 22.8511 44.5274 22.7217L45.4897 22.5907C45.8605 22.5402 46.1206 22.1991 46.0712 21.8281C46.0291 21.5119 46.2127 21.209 46.5126 21.1001L47.1131 20.882C47.4371 20.7643 47.796 20.9262 47.9222 21.2471C48.0361 21.5365 48.3424 21.7011 48.6466 21.6364L49.2778 21.5022C50.0002 21.3485 50.4784 20.6596 50.3698 19.9291L50.0253 17.6122C49.9185 16.8936 49.2771 16.3781 48.5524 16.4282C47.8544 16.4765 47.229 15.9992 47.0914 15.3131L46.7994 13.8561C46.7563 13.641 46.5727 13.4827 46.3536 13.4717C46.1243 13.4602 45.9354 13.2877 45.9033 13.0604L45.6441 11.2282C45.5485 10.552 45.9948 9.91794 46.6636 9.77982C47.3502 9.638 47.799 8.97507 47.6756 8.28488L46.7031 2.84748C46.6196 2.3806 46.9716 1.94902 47.4457 1.93698L47.7952 1.9281C47.9497 1.92417 48.0867 2.02709 48.1259 2.17663C48.1684 2.33883 48.3249 2.44414 48.4911 2.42247L49.2276 2.32647C49.9342 2.23436 50.5598 2.7866 50.5561 3.49916L50.5529 4.10447C50.5476 5.1318 51.4452 5.93055 52.4649 5.80593L54.9203 5.50587C55.1307 5.48015 55.3357 5.58458 55.4387 5.76993C55.5528 5.9753 55.7902 6.07887 56.0184 6.02275L57.7256 5.60279C58.3935 5.4385 58.9784 5.03593 59.3703 4.47073L59.6117 4.12261C60.0834 3.44241 60.7573 2.92797 61.5378 2.65224L62.1699 2.4289C62.8674 2.1825 63.6043 2.06681 64.3437 2.08763L66.8561 2.15836C67.6186 2.17984 68.3779 2.04984 69.0899 1.77592L70.3775 1.28054C71.0079 1.038 71.7096 1.06066 72.3231 1.3434C72.8882 1.60383 73.53 1.64436 74.1234 1.45708L74.5515 1.32195C75.6242 0.983374 76.793 1.15636 77.7217 1.79115L78.4504 2.28927C79.025 2.68208 79.6693 2.96178 80.3486 3.1134L91.1618 5.52678C91.5102 5.60455 91.7749 5.88869 91.8278 6.24178C91.9144 6.8192 92.5369 7.14621 93.0615 6.88973L101.78 2.62636C103.293 1.88652 105.121 2.40901 106.014 3.83683L106.135 4.03052C106.709 4.94712 107.743 5.47043 108.821 5.38954L109.998 5.30122C110.813 5.24015 111.542 5.80273 111.689 6.60568C111.855 7.51034 112.749 8.08819 113.642 7.86828L121.642 5.89857C122.07 5.79306 122.523 5.8743 122.888 6.12208L123.234 6.35692C123.406 6.47349 123.516 6.66169 123.533 6.86863C123.554 7.12799 123.426 7.37682 123.203 7.51085L122.904 7.69012C122.741 7.78822 122.648 7.97042 122.663 8.16022L122.7 8.60971C122.717 8.81291 122.952 8.9165 123.113 8.79145C123.212 8.7148 123.352 8.72038 123.444 8.80466L123.523 8.87696C123.664 9.0058 123.689 9.21876 123.581 9.3766L123.567 9.39736C123.356 9.70611 123.632 10.1134 123.997 10.0331L126.783 9.4201C127.593 9.24206 128.399 9.73406 128.61 10.5354L128.845 11.426C129.001 12.0177 128.681 12.6308 128.106 12.8407L127.778 12.9606C127.33 13.1242 127.106 13.6256 127.283 14.0683C127.384 14.3217 127.602 14.5107 127.867 14.5756L128.114 14.6361C128.617 14.7593 129.005 15.1619 129.108 15.6699L129.326 16.7373C129.419 17.1956 129.194 17.6597 128.776 17.8701L128.254 18.1332C128.146 18.1879 128.087 18.3085 128.111 18.4277C128.143 18.5865 128.307 18.6815 128.46 18.6306L128.906 18.483C129.291 18.3556 129.702 18.5881 129.792 18.9837L130.135 20.5105C130.261 21.0679 130.9 21.3338 131.384 21.03L131.49 20.9632C131.803 20.7667 132.215 20.8493 132.429 21.1513L132.517 21.2765C132.675 21.5001 132.636 21.8072 132.427 21.9842C132.223 22.1572 132.18 22.4557 132.328 22.6789L132.954 23.624C133.227 24.0366 133.318 24.5433 133.207 25.0255L132.816 26.7225C132.65 27.4392 132.012 27.9469 131.277 27.9469H130.466C129.936 27.9469 129.528 28.4149 129.601 28.9397C129.661 29.3739 130.034 29.6963 130.472 29.6932L134.863 29.662C135.031 29.6608 135.199 29.6276 135.355 29.5641L136.366 29.154C136.968 28.9102 137.59 29.4568 137.425 30.0845C137.348 30.3781 137.447 30.6897 137.678 30.8859L137.76 30.9551C137.932 31.101 138.15 31.1814 138.375 31.1823L141.977 31.197C142.454 31.1989 142.891 31.463 143.115 31.8843C143.37 32.3638 143.897 32.6334 144.435 32.5597L146.217 32.3157C146.692 32.2506 147.042 31.8369 147.026 31.3575C147.008 30.8006 147.477 30.3513 148.033 30.3933L149.875 30.5324C150.131 30.5518 150.346 30.7338 150.407 30.9834C150.466 31.2285 150.675 31.409 150.926 31.4333L155.513 31.8785C155.877 31.9138 156.243 31.9099 156.606 31.8669L159.845 31.4828C160.105 31.452 160.315 31.2575 160.367 31.001C160.413 30.7703 160.589 30.5872 160.817 30.5319L164.582 29.6217L165.162 29.4941C165.574 29.4035 165.985 29.6492 166.1 30.0545C166.138 30.1872 166.14 30.3273 166.107 30.4613L165.699 32.1349C165.646 32.3518 165.473 32.519 165.255 32.5647C164.982 32.6218 164.788 32.865 164.794 33.1436L164.81 33.9416C164.828 34.8612 165.643 35.5601 166.555 35.4391L167.876 35.2636C169.339 35.0694 170.691 36.0702 170.933 37.5253L171.468 40.7389C171.516 41.0257 171.755 41.2412 172.046 41.2582C172.334 41.275 172.574 41.4888 172.623 41.774L173.061 44.3226C173.222 45.2581 174.079 45.9095 175.024 45.8137L177.029 45.6102C177.696 45.5425 178.145 46.2799 177.794 46.8512C177.613 47.1456 177.258 47.2912 176.924 47.2043L176.546 47.1062C176.33 47.05 176.11 47.1812 176.057 47.3979C176.018 47.5556 175.887 47.6742 175.727 47.6982L175.031 47.802C174.283 47.9137 173.771 48.6165 173.895 49.3626L173.906 49.4271C174.021 50.1221 174.674 50.5953 175.37 50.4888L176.241 50.3559C176.52 50.3132 176.775 50.5188 176.793 50.8005C176.809 51.0406 176.644 51.2552 176.408 51.3028L176.128 51.3591C175.711 51.4431 175.431 51.8368 175.488 52.2587L175.5 52.3534C175.542 52.6658 175.743 52.9341 176.031 53.0625L176.259 53.1642C176.616 53.3231 177.023 53.3209 177.378 53.158L178.303 52.7334C179.967 51.9694 181.94 52.5737 182.89 54.1388L184.455 56.7149C185.102 57.7796 186.529 58.0487 187.519 57.2927L188.256 56.7296C188.785 56.3257 189.543 56.4352 189.935 56.9725L190.269 57.4288C190.461 57.6912 190.826 57.7543 191.095 57.5713C191.374 57.3814 191.754 57.4572 191.939 57.7395L192.537 58.6529C192.814 59.0766 193.412 59.135 193.766 58.7731C194.125 58.4064 194.732 58.4719 195.005 58.9067L197.936 63.5899C198.045 63.764 198.285 63.7967 198.437 63.658C198.559 63.5463 198.745 63.5427 198.872 63.6496L202.082 66.3669C202.828 66.998 203.963 66.7957 204.445 65.9459L204.859 65.2158C205.015 64.9409 205.353 64.8271 205.643 64.9514L205.757 65.0002C205.969 65.0906 206.084 65.3197 206.032 65.5434C205.964 65.8322 206.175 66.1115 206.472 66.1242L207.863 66.1838C208.76 66.2223 209.451 66.9883 209.398 67.8844L209.333 68.9613C209.322 69.1522 209.17 69.305 208.98 69.3179C208.837 69.3276 208.712 69.4161 208.656 69.5471L206.336 74.9397C206.199 75.2593 206.184 75.6183 206.294 75.9482C206.519 76.624 206.208 77.3621 205.567 77.6723L205.431 77.738C204.634 78.1235 203.675 77.7829 203.3 76.9807L202.628 75.5429C202.406 75.0664 201.878 74.813 201.367 74.9373C200.763 75.084 200.399 75.6989 200.561 76.2983L200.791 77.1498C201.018 77.9934 200.662 78.8859 199.915 79.3401L198.622 80.1268C198.445 80.2346 198.354 80.4411 198.393 80.6446C198.437 80.8739 198.316 81.103 198.101 81.1948L196.337 81.9486C195.885 82.1416 195.361 81.9603 195.125 81.5296C194.947 81.2057 194.599 81.0132 194.23 81.0355L189.86 81.2998C189.6 81.3155 189.359 81.1593 189.268 80.9148C189.17 80.6503 188.898 80.4919 188.619 80.5362L188.572 80.5437C188.201 80.6027 187.956 80.9627 188.038 81.3296L189.894 89.6181C190.14 90.7168 189.248 91.7379 188.126 91.6411L185.358 91.4021C185.222 91.3903 185.127 91.5353 185.192 91.6558C185.253 91.7667 185.177 91.9026 185.051 91.9098L184.302 91.9525C183.761 91.9834 183.495 92.6268 183.857 93.0308L185.082 94.398C185.228 94.5608 185.456 94.6213 185.664 94.5519C185.902 94.4721 186.164 94.5648 186.299 94.7768L186.46 95.0294C186.579 95.2156 186.842 95.2391 186.992 95.0769C187.179 94.8743 187.518 94.9729 187.571 95.2436C187.616 95.4758 187.88 95.5934 188.081 95.4697L188.132 95.4389C188.329 95.318 188.587 95.4079 188.667 95.6249L188.681 95.664C188.744 95.835 188.935 95.9212 189.105 95.8552C189.244 95.8013 189.401 95.8486 189.488 95.97L191.423 98.6906C191.605 98.9457 191.923 99.0647 192.228 98.991C192.648 98.8892 193.069 99.1555 193.158 99.5789L193.647 101.925C193.717 102.257 193.565 102.597 193.272 102.768C192.717 103.091 192.76 103.907 193.345 104.17L197.873 106.208C198.252 106.379 198.695 106.327 199.025 106.074C199.488 105.718 200.146 105.774 200.542 106.203L200.71 106.384C201.167 106.878 201.207 107.628 200.806 108.169L200.155 109.047C199.603 109.79 199.759 110.84 200.503 111.391L200.852 111.649C201.666 112.252 201.587 113.494 200.702 113.987L200.009 114.374C199.863 114.456 199.681 114.429 199.565 114.308C199.436 114.173 199.225 114.157 199.076 114.271L196.427 116.315C195.324 117.165 195.066 118.723 195.834 119.884L196.216 120.46C196.831 121.389 196.56 122.642 195.616 123.233C195.393 123.373 195.145 123.466 194.885 123.509L193.97 123.659C192.829 123.846 191.758 124.33 190.863 125.062L188.884 126.679C187.344 127.938 186.05 129.471 185.066 131.201L183.686 133.628L181.226 139.86C180.902 140.68 180.463 141.45 179.921 142.145L177.124 145.733C177.047 145.831 176.928 145.887 176.804 145.881C176.43 145.866 176.295 145.38 176.608 145.174L177.407 144.649C177.549 144.555 177.652 144.413 177.696 144.248L177.819 143.786C177.918 143.413 178.126 143.078 178.417 142.824L180.346 141.132C180.604 140.906 180.805 140.623 180.935 140.306C181.17 139.73 181.151 139.083 180.884 138.522L180.324 137.345C180.05 136.771 179.673 136.252 179.211 135.815L178.34 134.991C177.653 134.342 176.883 133.785 176.051 133.336C174.373 132.43 172.483 131.986 170.577 132.049L168.76 132.108C167.246 132.158 165.763 132.547 164.42 133.247C163.91 133.513 163.378 133.735 162.83 133.91L154.351 136.625C153.381 136.935 152.457 137.375 151.604 137.931C150.715 138.511 149.912 139.213 149.217 140.016L147.227 142.319C146.036 143.696 144.961 145.169 144.014 146.724L138.348 156.019C138.201 156.26 138.03 156.484 137.838 156.689L136.832 157.762C136.47 158.147 135.933 158.314 135.417 158.201C135.043 158.12 134.653 158.184 134.325 158.381L132.616 159.406C132.536 159.454 132.443 159.475 132.35 159.466L132.299 159.462C132.076 159.44 131.918 159.235 131.954 159.013C131.993 158.775 132.238 158.63 132.465 158.71L132.798 158.828C133 158.899 133.224 158.871 133.403 158.753L133.821 158.475C134.101 158.289 134.318 158.025 134.447 157.715L134.678 157.159C134.886 156.658 135.358 156.317 135.899 156.277C136.167 156.257 136.425 156.162 136.642 156.003L138.009 155.003C138.781 154.438 139.435 153.729 139.935 152.914L141.404 150.522C141.85 149.795 142.095 148.963 142.112 148.111C142.134 147.069 141.816 146.049 141.207 145.204L141.073 145.018C140.609 144.375 140.011 143.84 139.321 143.45L138.515 142.995C137.655 142.509 136.674 142.277 135.688 142.326C135.136 142.353 134.593 142.467 134.077 142.665L133.761 142.786C132.534 143.255 131.204 143.387 129.909 143.169L128.064 142.857C126.742 142.634 125.395 142.599 124.063 142.753L122.699 142.911C120.634 143.151 118.609 143.658 116.676 144.422L115.933 144.715L110.349 147.818C107.437 149.437 104.778 151.475 102.459 153.867L100.112 156.286C97.9287 158.537 95.3481 160.365 92.5003 161.678C88.8803 163.346 85.7031 165.842 83.225 168.964L80.6531 172.204L69.7498 189.532C68.814 191.019 67.6144 192.322 66.21 193.378L65.1736 194.157C64.672 194.534 64.1151 194.831 63.5226 195.038L57.0308 197.305C56.2482 197.578 55.43 196.997 55.43 196.168C55.43 195.782 55.615 195.42 55.9274 195.193L57.9203 193.749C58.2026 193.544 58.3502 193.202 58.3048 192.856C58.2522 192.454 58.4599 192.064 58.8222 191.883L59.946 191.321C60.1787 191.205 60.427 191.122 60.6831 191.077L64.4612 190.403C65.2094 190.27 65.9377 190.043 66.6291 189.727L68.7489 188.76C70.0252 188.178 70.9499 187.025 71.2413 185.653C71.375 185.023 71.6446 184.43 72.0312 183.915L75.6563 179.087C75.9281 178.725 76.1175 178.308 76.2111 177.865L76.4598 176.687C76.5657 176.186 76.9601 175.797 77.4624 175.696C77.7983 175.63 78.0934 175.431 78.2817 175.145L80.3534 171.998C80.4753 171.812 80.4274 171.564 80.2456 171.437C80.1233 171.352 79.9643 171.34 79.8307 171.406L79.309 171.664C79.0819 171.776 78.903 171.967 78.8053 172.201L78.743 172.35C78.4462 173.06 77.4769 173.153 77.051 172.511C76.8897 172.268 76.6271 172.111 76.3366 172.085L75.8238 172.037C74.917 171.954 74.1755 171.279 74.0068 170.384L73.7258 168.894C73.5843 168.143 73.7554 167.367 74.1994 166.746L74.2565 166.666C74.5805 166.213 74.7447 165.665 74.7233 165.108L74.717 164.942C74.7031 164.58 74.588 164.23 74.3848 163.931C74.1538 163.59 73.8203 163.333 73.4329 163.195L71.8735 162.641C71.0621 162.353 70.3802 161.784 69.9503 161.038L69.3858 160.058C69.3069 159.921 69.1805 159.818 69.0306 159.768L68.907 159.727C68.6274 159.634 68.481 159.328 68.5846 159.052C68.7545 158.599 68.2684 158.18 67.846 158.415L67.6035 158.55C67.3378 158.698 67.218 159.016 67.3204 159.302L68.3631 162.217C68.5427 162.719 68.8528 163.164 69.2616 163.506C69.9178 164.055 70.308 164.859 70.3339 165.714L70.3686 166.859C70.3985 167.848 70.1437 168.824 69.6345 169.672C69.205 170.387 68.6084 170.987 67.896 171.421L66.0819 172.526C65.2732 173.018 64.6316 173.743 64.2406 174.606L63.4001 176.459C63.2171 176.863 62.8309 177.137 62.3895 177.176C61.7056 177.236 61.1049 176.725 61.0559 176.04L60.0373 161.81C59.9699 160.869 59.1256 160.176 58.1888 160.295C57.8273 160.341 57.4609 160.265 57.1469 160.08L53.2662 157.795C52.706 157.465 52.0502 157.336 51.4066 157.428L50.2121 157.598C49.3971 157.715 48.6306 157.182 48.4562 156.377L48.2453 155.405C48.1861 155.132 48.3514 154.861 48.6211 154.788C48.8766 154.719 49.0407 154.471 49.0035 154.209L48.8988 153.472C48.7921 152.72 48.0931 152.2 47.3427 152.314L41.1453 153.253C40.2604 153.387 39.429 152.793 39.2681 151.913L39.1734 151.395C39.0805 150.886 38.6294 150.522 38.1126 150.538C37.5962 150.555 37.1454 150.192 37.052 149.683L36.8692 148.689C36.7104 147.825 37.2404 146.983 38.0883 146.753C38.8971 146.534 39.4227 145.754 39.3233 144.922L39.1097 143.134C38.9665 141.935 37.8769 141.08 36.6783 141.227L35.2322 141.403C34.8733 141.447 34.5441 141.199 34.4874 140.842C34.4312 140.488 34.108 140.241 33.7522 140.279L32.7742 140.384C31.8683 140.481 31.0458 139.85 30.9057 138.949L30.7897 138.204C30.6914 137.572 31.1304 136.983 31.764 136.896L32.2313 136.831C32.5782 136.784 32.8257 136.471 32.7919 136.122C32.758 135.772 33.0074 135.458 33.356 135.412L37.718 134.836C37.9485 134.806 38.1189 134.606 38.1134 134.374C38.1075 134.129 38.2964 133.924 38.5407 133.909L38.5855 133.906C38.8484 133.89 39.0541 133.674 39.0567 133.41L39.0676 132.307C39.0702 132.044 39.2786 131.83 39.5411 131.82C39.8312 131.808 40.0488 131.55 40.0103 131.262L39.795 129.651C39.6519 128.58 40.3972 127.593 41.4663 127.438L41.5689 127.424C42.7164 127.257 43.5054 126.184 43.321 125.039L43.1058 123.703C42.9493 122.731 42.0717 122.044 41.0913 122.125C40.1029 122.207 39.2206 121.508 39.0736 120.527L38.411 116.106C38.2743 115.194 37.4244 114.566 36.5128 114.703L35.845 114.803C35.2883 114.887 34.7713 114.497 34.6981 113.939C34.6265 113.393 34.1287 113.006 33.5817 113.071L31.3897 113.332C30.8241 113.4 30.3099 112.999 30.2373 112.434L30.2134 112.247C30.1629 111.854 29.8371 111.555 29.4414 111.537C29.0714 111.521 28.759 111.257 28.6811 110.895L28.3427 109.324C28.2548 108.916 27.8696 108.643 27.4553 108.695C27.0126 108.75 26.6091 108.435 26.5556 107.992L25.8198 101.9C25.7436 101.269 25.1812 100.812 24.548 100.866C23.9265 100.919 23.3709 100.479 23.2803 99.8622L21.6568 88.8091C21.5487 88.0727 22.0466 87.3841 22.7798 87.2561C23.5173 87.1273 24.0159 86.4316 23.901 85.6918L23.8871 85.603C23.8729 85.5112 23.8499 85.4209 23.8186 85.3335L23.6291 84.8051C23.4497 84.3046 22.9417 84.0006 22.4159 84.079C21.8344 84.1656 21.2856 83.7856 21.1621 83.2108L20.9855 82.3891C20.822 81.628 21.2753 80.8701 22.0233 80.6542L22.4411 80.5336C22.7204 80.453 22.9308 80.2225 22.9856 79.937C23.0883 79.4022 22.6203 78.9319 22.0851 79.0319L17.3745 79.9115C16.7661 80.0251 16.3504 80.5916 16.4246 81.2061L16.4747 81.6215C16.5201 81.9977 16.2676 82.3452 15.8957 82.4182L15.6837 82.4598C15.4071 82.5141 15.2274 82.783 15.2831 83.0594C15.3387 83.3353 15.1598 83.6039 14.8838 83.6588L14.1244 83.8099C13.7575 83.883 13.3769 83.7919 13.0828 83.5607L12.9436 83.4513C12.5927 83.1755 12.1459 83.0521 11.7032 83.1087L11.0335 83.1942C10.6459 83.2437 10.2851 83.4183 10.0058 83.6915L9.45531 84.2298C9.12676 84.5511 8.61103 84.5794 8.24933 84.2959C8.07111 84.1563 7.95092 83.9555 7.91192 83.7325L6.6979 76.7894C6.653 76.5326 6.42469 76.3489 6.16421 76.3599C5.90447 76.3709 5.67659 76.1882 5.63086 75.9323L4.64554 70.4182C4.52363 69.7359 4.20409 69.1045 3.72657 68.6022L3.55583 68.4227C3.37825 68.2359 3.16872 68.0823 2.93712 67.9693L2.68641 67.8469Z" fill="#2969F6" stroke="#1D1D1D" stroke-width="2" stroke-linecap="round" stroke-linejoin="round"/>
</svg>
