<svg width="176" height="218" viewBox="0 0 176 218" fill="none" xmlns="http://www.w3.org/2000/svg">
<path d="M73.6028 6.81559C73.528 7.42484 74.0494 7.94028 74.6578 7.85841C74.9774 7.8154 75.2967 7.93978 75.503 8.18768L79.0401 12.4382C79.2975 12.7475 79.4723 13.1169 79.5483 13.5121L79.6431 14.0051C79.8926 15.3031 81.3103 16.0063 82.4947 15.4196C82.6338 15.3507 82.7644 15.2659 82.8838 15.1668L86.8649 11.8645C87.5897 11.2632 88.52 10.9674 89.4591 11.0397L90.7497 11.139C91.0627 11.1631 91.3467 11.3317 91.5177 11.595C91.6787 11.8429 91.9404 12.0076 92.2335 12.0456L93.3531 12.1906C93.6395 12.2277 93.8556 12.4689 93.8611 12.7577C93.867 13.069 94.1166 13.3207 94.4278 13.3294L99.168 13.4607C99.5734 13.4719 99.6851 14.0232 99.3161 14.1914L99.2071 14.2411C99.0718 14.3028 99.0137 14.4635 99.0781 14.5974L99.0861 14.6141C99.1409 14.7281 99.2737 14.7816 99.3923 14.7375L99.5555 14.6767C99.7661 14.5983 99.9342 14.8632 99.7735 15.0203C99.7204 15.0722 99.699 15.1484 99.7173 15.2204L102.353 25.5761C102.442 25.9274 102.692 26.216 103.027 26.355L103.059 26.3684C103.474 26.5408 103.953 26.4428 104.267 26.1209C104.958 25.413 106.159 25.9064 106.153 26.8956L106.152 27.0823C106.151 27.2689 106.194 27.4531 106.278 27.6196L106.607 28.2701C106.909 28.8681 107.708 28.9958 108.182 28.5217C108.343 28.3596 108.444 28.1461 108.465 27.918L108.63 26.1592C108.645 26.0015 108.745 25.8647 108.891 25.8029C109.072 25.7261 109.178 25.5358 109.149 25.3411L108.906 23.7604C108.86 23.4616 108.737 23.1801 108.549 22.9435C108.112 22.3931 108.049 21.6333 108.391 21.0189L111.372 15.6599C111.813 14.8676 112.579 14.3086 113.468 14.1307C113.876 14.049 114.264 13.8859 114.607 13.651L116.879 12.0975C117.482 11.6852 118.191 11.455 118.921 11.4345L121.02 11.3753C121.538 11.3607 121.999 11.7016 122.137 12.2012C122.282 12.7237 122.778 13.0691 123.318 13.0235L123.577 13.0017C123.842 12.9793 124.095 12.884 124.309 12.7265L125.395 11.9271C125.811 11.6209 126.187 11.264 126.515 10.8648L130.079 6.52226C130.915 5.50338 132.146 4.8888 133.463 4.83232L135.105 4.76187C135.314 4.75291 135.518 4.82942 135.669 4.97381C135.903 5.19655 135.973 5.54141 135.845 5.83757L135.492 6.64947C135.326 7.0326 135.506 7.47757 135.892 7.63746L135.949 7.66131C136.299 7.80635 136.465 8.20784 136.32 8.55762C136.201 8.84277 136.288 9.17204 136.532 9.3617L137.419 10.0522C137.855 10.3914 138.144 10.8849 138.227 11.431L138.263 11.6678C138.395 12.5333 139.043 13.2302 139.896 13.425C140.769 13.6242 141.424 14.3474 141.536 15.2354L141.731 16.7758C141.799 17.3121 141.767 17.8565 141.635 18.3809L141.319 19.642C141.081 20.59 141.25 21.5943 141.786 22.4116L142.138 22.9482C142.282 23.1681 142.359 23.4254 142.359 23.6883C142.359 24.2834 142.749 24.8083 143.318 24.9804L143.771 25.1172C144.436 25.3183 144.948 25.8529 145.121 26.5265L146.148 30.5453C146.193 30.7218 146.208 30.9046 146.192 31.086L146.12 31.8995C146.059 32.6023 146.707 33.1573 147.392 32.9879L148.149 32.8005C148.4 32.7383 148.645 32.9255 148.65 33.1846C148.655 33.4274 148.872 33.611 149.112 33.5764L149.881 33.4656C150.516 33.374 151.092 33.8474 151.126 34.4881L151.302 37.8255C151.344 38.6131 151.16 39.3963 150.772 40.0829L148.667 43.8064C148.51 44.0849 148.232 44.2746 147.915 44.3197L146.95 44.4572C146.801 44.4785 146.67 44.3572 146.679 44.2067C146.69 44.0407 146.531 43.9154 146.372 43.9642L144.09 44.6654C143.156 44.9523 142.595 45.9046 142.797 46.8605L144.298 53.95L145.837 59.2065C145.872 59.3251 145.966 59.4169 146.086 59.4483C146.293 59.5029 146.501 59.361 146.526 59.148L146.759 57.1297C146.809 56.7 147.122 56.3472 147.543 56.2469C147.818 56.1815 148.107 56.2317 148.344 56.3858L151.035 58.1393C151.921 58.7165 152.692 59.4538 153.307 60.3133L155.202 62.9576C155.404 63.2398 155.638 63.4972 155.9 63.7247C157.599 65.198 157.925 67.7091 156.661 69.5678L156.604 69.6516C156.049 70.467 155.778 71.4426 155.834 72.4273L155.926 74.0485C155.928 74.0969 155.949 74.1427 155.983 74.1771C156.133 74.3282 155.972 74.5771 155.773 74.503L154.34 73.9706C154.27 73.9446 154.195 73.9335 154.121 73.938L153.878 73.9528C153.005 74.0059 152.317 74.7172 152.293 75.5913L152.27 76.4505C152.249 77.2396 152.749 77.9487 153.5 78.1931C153.757 78.2766 153.991 78.4175 154.186 78.605L154.777 79.176C155.298 79.6781 155.711 80.2806 155.993 80.947L156.462 82.0601C156.828 82.9272 157.412 83.6852 158.156 84.261L158.819 84.7739C159.044 84.9478 159.226 85.1709 159.351 85.4261C159.601 85.9351 159.605 86.5302 159.362 87.0426L158.84 88.1455C158.492 88.8784 158.743 89.7553 159.426 90.1935L159.872 90.4804C160.046 90.5921 160.264 90.6096 160.454 90.5272L160.483 90.5143C160.803 90.3753 161.173 90.542 161.28 90.8735C161.417 91.2984 161.051 91.7161 160.612 91.6353L159.08 91.3536C158.871 91.3152 158.655 91.3476 158.466 91.4456C158.108 91.6319 157.906 92.0235 157.961 92.4237L158.015 92.8165C158.05 93.0709 158.2 93.2952 158.421 93.4253L158.927 93.7226C159.216 93.8926 159.233 94.3048 158.959 94.4979C158.801 94.6087 158.729 94.8059 158.778 94.9923L158.866 95.3292C158.926 95.5574 158.771 95.786 158.537 95.815C158.104 95.8686 158.073 96.4847 158.498 96.582L158.618 96.6095C158.721 96.6328 158.828 96.6163 158.918 96.5634L159.728 96.089C160.197 95.8141 160.747 95.709 161.285 95.7913L161.711 95.8565C162.587 95.9906 163.245 96.7277 163.278 97.6133C163.293 97.9981 163.428 98.3688 163.663 98.6734L163.891 98.968C164.572 99.8489 164.711 101.034 164.253 102.048L164.017 102.57C163.72 103.228 163.25 103.792 162.655 104.202L161.036 105.319C160.694 105.555 160.483 105.936 160.465 106.351C160.445 106.804 160.194 107.216 159.8 107.441L159.357 107.695C159.019 107.888 158.608 107.905 158.256 107.74L158.149 107.69C157.848 107.549 157.497 107.57 157.215 107.746L157.169 107.775C157.111 107.811 157.059 107.857 157.015 107.909C156.828 108.134 156.82 108.461 156.991 108.699C157.181 108.96 157.153 109.325 156.923 109.552L156.251 110.215C156.179 110.286 156.156 110.394 156.192 110.489C156.263 110.674 156.105 110.867 155.91 110.833L155.638 110.786C155.468 110.756 155.331 110.927 155.398 111.087C155.446 111.201 155.391 111.332 155.276 111.377L155.149 111.426C154.9 111.523 154.845 111.851 155.049 112.024L157.428 114.038C157.704 114.272 157.919 114.57 158.052 114.906L158.237 115.368C158.486 115.993 158.581 116.668 158.515 117.338L158.421 118.282C158.39 118.598 158.282 118.903 158.108 119.169L157.73 119.746C157.566 119.995 157.28 120.134 156.983 120.11L156.586 120.077C156.147 120.04 155.83 120.489 156.012 120.891C156.076 121.032 156.08 121.194 156.024 121.338L155.961 121.502C155.773 121.988 155.991 122.537 156.461 122.761L157.534 123.272C158.255 123.616 158.744 124.313 158.821 125.108L158.878 125.69C158.941 126.335 158.653 126.964 158.124 127.34L157.753 127.603C157.394 127.858 156.918 127.877 156.54 127.651L156.127 127.404C155.696 127.146 155.138 127.375 155.013 127.861C154.9 128.303 155.203 128.743 155.656 128.795L157.377 128.992C157.746 129.034 158.05 129.3 158.141 129.66C158.211 129.938 158.144 130.232 157.961 130.451L156.449 132.263C156.3 132.441 156.076 132.538 155.845 132.523L155.809 132.521C155.222 132.484 154.847 133.136 155.175 133.625C155.338 133.868 155.634 133.986 155.92 133.922L156.314 133.834C156.638 133.761 156.922 133.567 157.107 133.291L157.151 133.226C157.378 132.89 157.73 132.66 158.129 132.588L161.172 132.04C161.833 131.921 162.512 132.091 163.04 132.505C163.253 132.673 163.435 132.875 163.579 133.105L164.105 133.944C164.306 134.264 164.419 134.632 164.433 135.01L164.459 135.741C164.479 136.276 164.853 136.733 165.374 136.857L165.548 136.898C165.751 136.947 165.926 137.075 166.032 137.254L166.216 137.565C166.315 137.732 166.525 137.796 166.699 137.712C167.021 137.559 167.355 137.899 167.195 138.218L166.427 139.752C166.279 140.048 166.293 140.399 166.464 140.682L166.586 140.884C166.772 141.191 167.069 141.415 167.416 141.508L169.857 142.164C169.968 142.194 170.084 142.196 170.196 142.17C170.743 142.041 171.207 142.584 170.995 143.104L170.553 144.191C170.423 144.511 170.433 144.871 170.58 145.184L170.811 145.672C170.997 146.067 170.804 146.535 170.395 146.685C169.968 146.842 169.781 147.343 170.001 147.742L171.702 150.813C171.896 151.163 171.743 151.603 171.373 151.757C171.197 151.831 171.06 151.976 170.998 152.157L170.479 153.652C170.367 153.977 170.188 154.274 169.954 154.526L169.773 154.72C168.935 155.621 168.995 157.034 169.907 157.861C170.794 158.664 170.88 160.027 170.101 160.935L169.361 161.797C169.281 161.891 169.229 162.005 169.212 162.127L169.165 162.465C169.139 162.65 169.275 162.819 169.461 162.833C169.768 162.856 169.873 163.252 169.619 163.425L169.047 163.811C168.764 164.003 168.715 164.401 168.943 164.655L170.868 166.802C171.415 167.411 171.696 168.214 171.65 169.031L171.59 170.104C171.571 170.433 171.409 170.737 171.147 170.935C170.71 171.265 170.576 171.864 170.83 172.349L171.636 173.885C171.752 174.105 171.74 174.37 171.606 174.58C171.437 174.845 171.467 175.192 171.681 175.423L172.989 176.839C173.149 177.012 173.179 177.268 173.065 177.473C172.971 177.641 172.973 177.847 173.07 178.013L173.97 179.555C174.244 180.024 174.27 180.599 174.039 181.091C173.885 181.418 173.629 181.685 173.309 181.853L171.006 183.058C170.617 183.261 170.617 183.817 171.005 184.021C171.342 184.197 171.398 184.656 171.114 184.908L169.124 186.676C168.939 186.84 168.983 187.139 169.206 187.243C169.42 187.343 169.472 187.623 169.308 187.792L168.997 188.115C168.83 188.288 168.567 188.326 168.357 188.207C168.132 188.08 167.847 188.135 167.685 188.337L166.871 189.357C166.68 189.597 166.359 189.69 166.069 189.59C165.69 189.459 165.276 189.662 165.148 190.042L165.133 190.087C165.048 190.336 164.842 190.526 164.586 190.588L162.087 191.198C161.788 191.271 161.548 191.495 161.457 191.79C161.28 192.356 160.604 192.588 160.117 192.249L159.438 191.777C159.094 191.538 158.634 191.554 158.309 191.818L158.24 191.874C157.969 192.093 157.868 192.459 157.987 192.786C158.077 193.035 158.041 193.312 157.89 193.53L157.607 193.938C157.379 194.266 156.896 194.272 156.659 193.95C156.461 193.68 156.076 193.633 155.818 193.846L155.046 194.486C154.954 194.562 154.832 194.591 154.715 194.563C154.417 194.492 154.162 194.785 154.273 195.07L155.382 197.937C155.577 198.442 155.559 199.004 155.332 199.495L154.364 201.586C154.19 201.961 154.177 202.39 154.326 202.775C154.551 203.353 155.104 203.737 155.725 203.744L155.955 203.747C157.018 203.759 157.854 204.66 157.789 205.721L157.69 207.329C157.664 207.756 157.914 208.151 158.31 208.31L158.481 208.379C158.932 208.56 159.129 209.091 158.906 209.523C158.735 209.854 158.363 210.029 157.998 209.95L153.976 209.076C153.743 209.025 153.508 209.156 153.429 209.382C153.332 209.659 153.01 209.782 152.753 209.641L152.56 209.534C152.229 209.352 151.813 209.483 151.648 209.823L150.576 212.024C150.332 212.526 149.727 212.735 149.226 212.49L149.028 212.394C148.69 212.228 148.281 212.337 148.069 212.65C147.771 213.091 147.121 213.094 146.819 212.655L146.788 212.61C146.645 212.402 146.41 212.274 146.157 212.267L145.145 212.238C144.048 212.207 143.12 213.041 143.033 214.135L142.955 215.136C142.915 215.642 142.493 216.032 141.986 216.032H141.91C141.602 216.032 141.318 215.864 141.17 215.594C140.923 215.144 140.336 215.016 139.925 215.322L139.239 215.833C138.933 216.061 138.555 216.171 138.174 216.143L134.897 215.901C134.518 215.873 134.139 215.932 133.786 216.073L133.148 216.327C132.655 216.524 132.093 216.423 131.698 216.068C131.425 215.823 131.067 215.695 130.701 215.712L125.726 215.937C125.454 215.949 125.182 215.91 124.925 215.823L124.519 215.685C123.904 215.477 123.481 214.91 123.456 214.261C123.443 213.936 123.533 213.614 123.711 213.342L123.956 212.969C124.432 212.243 124.168 211.263 123.391 210.874C123.046 210.701 122.783 210.397 122.662 210.03L122.357 209.102C122.257 208.8 122.08 208.528 121.843 208.316C121.095 207.644 121.032 206.494 121.703 205.745L123.288 203.975C123.545 203.688 123.732 203.346 123.835 202.975C124.116 201.953 123.72 200.864 122.847 200.263L122.444 199.985C121.966 199.656 121.683 199.111 121.689 198.53L121.694 197.931C121.698 197.585 121.492 197.272 121.174 197.138C120.644 196.914 120.484 196.24 120.857 195.802L121.45 195.104C121.744 194.759 121.839 194.287 121.701 193.856L121.482 193.167C121.421 192.975 121.233 192.852 121.032 192.873C120.75 192.903 120.518 192.654 120.568 192.375L120.725 191.501C120.802 191.073 120.617 190.64 120.255 190.399L117.396 188.5C117.062 188.278 116.878 187.89 116.918 187.491C116.964 187.037 116.72 186.603 116.308 186.407L115.77 186.151C115.543 186.042 115.286 186.011 115.039 186.063C114.648 186.145 114.328 186.425 114.193 186.801L113.934 187.525C113.651 188.318 112.991 188.917 112.174 189.123L109.944 189.685C109.721 189.741 109.547 189.913 109.489 190.135C109.414 190.42 109.152 190.615 108.857 190.604L108.301 190.583C107.7 190.561 107.16 190.947 106.986 191.523L105.992 194.818C105.928 195.033 105.752 195.195 105.533 195.243C105.316 195.29 105.089 195.216 104.941 195.05L104.631 194.7C104.285 194.311 103.754 194.143 103.248 194.262L102.676 194.397C102.305 194.485 101.918 194.482 101.548 194.39L98.6925 193.681C98.4446 193.619 98.1851 193.622 97.9383 193.688C97.3077 193.857 96.8579 194.414 96.8241 195.066L96.7881 195.762C96.7584 196.336 96.3946 196.84 95.8587 197.048C95.2177 197.298 94.4895 197.066 94.1101 196.492L92.7059 194.369C92.1942 193.596 91.2167 193.277 90.3474 193.601L89.8871 193.772C89.2977 193.991 88.6348 193.78 88.2808 193.26C88.0262 192.887 87.6033 192.663 87.1511 192.663H86.5206C85.4225 192.663 84.4467 193.364 84.0956 194.404L83.8896 195.015C83.6861 195.618 83.2562 196.118 82.6907 196.41C82.0232 196.755 81.2346 196.775 80.5507 196.464L79.2718 195.883C78.8423 195.688 78.3888 195.55 77.9233 195.474L74.1378 194.855C73.9955 194.832 73.8635 194.766 73.7591 194.666L73.6111 194.525C73.2333 194.165 72.6067 194.405 72.5663 194.926C72.5534 195.091 72.4743 195.245 72.347 195.352L71.5756 195.999C71.3537 196.186 71.0307 196.188 70.8063 196.005C70.6912 195.911 70.5455 195.862 70.3971 195.869L67.6916 195.993C66.5832 196.044 65.5048 196.369 64.553 196.939C63.6477 197.482 62.627 197.803 61.5742 197.876L61.3626 197.891C60.9163 197.922 60.4681 197.913 60.0233 197.866L54.0024 197.218C53.2284 197.135 52.4469 197.28 51.7546 197.636L51.6545 197.688C51.235 197.903 50.7757 198.03 50.3051 198.061L49.8749 198.089C49.2859 198.128 48.7332 198.387 48.3272 198.816C48.0019 199.159 47.5803 199.396 47.1179 199.495L45.5803 199.825C45.4657 199.849 45.3464 199.839 45.238 199.794L44.9319 199.669C44.6879 199.57 44.4218 199.753 44.4279 200.017C44.4321 200.195 44.3075 200.35 44.1329 200.384L43.7027 200.469C43.372 200.534 43.1069 200.78 43.0185 201.106L42.9406 201.392C42.8178 201.843 42.4412 202.181 41.979 202.253C41.606 202.311 41.2275 202.189 40.9595 201.923L37.7555 198.742C37.5813 198.569 37.3593 198.452 37.1181 198.406C36.3005 198.25 35.8693 197.345 36.2631 196.612L36.3258 196.496C36.7571 195.692 36.2706 194.703 35.371 194.555L33.5109 194.247C33.2792 194.209 33.0478 194.318 32.9292 194.521C32.7102 194.895 32.169 194.895 31.9503 194.52L30.3059 191.704C30.0806 191.318 30.0088 190.862 30.1048 190.425C30.1787 190.089 30.1535 189.739 30.0323 189.417L29.3956 187.725C29.3154 187.512 29.3352 187.275 29.4494 187.078C29.7643 186.535 29.321 185.866 28.6982 185.945L28.6506 185.951C28.3932 185.983 28.1364 185.886 27.965 185.691L26.9245 184.508C26.6762 184.225 26.2389 184.218 25.9808 184.491C25.828 184.653 25.602 184.723 25.3843 184.677L25.3599 184.672C25.0477 184.606 24.8229 184.332 24.8185 184.013L24.7907 182.011C24.7878 181.804 24.9354 181.626 25.1388 181.591C25.3241 181.559 25.4654 181.408 25.4848 181.221L25.5284 180.798C25.5557 180.533 25.7356 180.308 25.9884 180.223C26.3562 180.1 26.5464 179.694 26.406 179.333L25.0804 175.918C25.0057 175.726 24.9642 175.522 24.9578 175.315L24.9207 174.113C24.9129 173.858 25.0999 173.639 25.353 173.606C25.5378 173.582 25.6936 173.457 25.7564 173.282L25.7809 173.213C25.8732 172.956 26.1249 172.79 26.3981 172.808L26.6172 172.821C26.7671 172.831 26.9122 172.878 27.0396 172.957L27.5435 173.272C28.4551 173.841 29.655 173.572 30.2355 172.667L30.6825 171.97C31.0178 171.448 31.7118 171.294 32.2366 171.626L32.3086 171.671C32.7517 171.951 33.3343 171.855 33.6642 171.448C33.8604 171.206 33.9368 170.888 33.8722 170.583L33.3538 168.135C33.2016 167.417 32.66 166.844 31.9511 166.652L30.9669 166.386C30.2458 166.19 29.8974 165.372 30.2566 164.717L30.3472 164.552C30.4328 164.396 30.4545 164.212 30.4078 164.041L30.2956 163.628C30.2442 163.439 30.3731 163.249 30.5677 163.226C30.8555 163.193 30.9546 162.825 30.7223 162.652L30.4816 162.473C30.3454 162.371 30.28 162.2 30.3137 162.034L30.5042 161.093C30.6285 160.479 31.0473 159.966 31.6238 159.721L32.7875 159.227C33.3948 158.97 33.5761 158.196 33.1464 157.695C33.0025 157.528 32.9199 157.316 32.9119 157.095L32.8831 156.292C32.863 155.732 32.3185 155.342 31.7816 155.503L31.6717 155.536C31.2895 155.651 31.0679 156.049 31.1716 156.434L31.2036 156.553C31.3021 156.92 31.0567 157.289 30.681 157.34C30.3608 157.384 30.0597 157.178 29.9843 156.864L29.1251 153.285C29.0701 153.055 28.8438 152.91 28.6125 152.956C28.3311 153.012 28.0726 152.788 28.0883 152.501L28.1714 150.99C28.2334 149.863 27.1494 149.022 26.0734 149.362L25.4262 149.566C24.8878 149.737 24.4415 150.118 24.1895 150.623L23.8016 151.401C23.6858 151.634 23.4546 151.786 23.1956 151.801C23.0351 151.81 22.8761 151.766 22.7437 151.675L21.5182 150.832C21.1734 150.595 20.9072 150.26 20.754 149.87L20.7016 149.737C20.4662 149.139 19.9365 148.706 19.3032 148.595L18.4772 148.45C18.0834 148.381 17.7943 148.042 17.7887 147.642L17.7873 147.54C17.7821 147.17 17.4966 146.864 17.1273 146.833L16.5806 146.787C16.4837 146.779 16.3988 146.851 16.3912 146.948C16.3801 147.091 16.2114 147.16 16.1026 147.067L14.7018 145.867C14.5374 145.726 14.6532 145.457 14.8685 145.48C15.0386 145.498 15.1635 145.324 15.0922 145.169L15.0798 145.141C15.0215 145.014 15.085 144.865 15.2169 144.818L15.4376 144.741C15.7529 144.63 15.8422 144.227 15.6033 143.993L13.719 142.152L13.1813 141.752C12.7562 141.436 12.2427 141.262 11.7132 141.253L11.4988 141.249C10.1921 141.227 9.16049 140.132 9.21612 138.826C9.25303 137.96 8.80459 137.145 8.05296 136.713L6.58321 135.868C5.3931 135.183 4.77354 133.814 5.04435 132.469C5.11852 132.1 5.25722 131.747 5.45405 131.427L7.17583 128.624C7.34909 128.341 7.46295 128.027 7.51042 127.699L7.75712 125.997C7.85284 125.336 7.31388 124.756 6.64809 124.803C6.13718 124.839 5.67528 124.5 5.55668 124.002L5.40344 123.358C5.2847 122.859 4.96168 122.433 4.51335 122.184L2.51446 121.075C2.04505 120.814 1.69208 120.385 1.52692 119.874L1.1438 118.689C0.957804 118.114 1.31535 117.505 1.90841 117.387C2.56549 117.257 2.91598 116.535 2.61197 115.938L2.48443 115.687C2.31037 115.346 2.30672 114.942 2.47457 114.597L2.54425 114.454C2.87456 113.775 2.66535 112.957 2.04975 112.52L1.72406 112.289C1.03916 111.803 0.938692 110.826 1.51046 110.21C1.72665 109.978 1.85664 109.678 1.8788 109.362L1.94231 108.453C1.95709 108.242 1.87364 108.036 1.71613 107.894C1.45579 107.66 1.41291 107.268 1.61656 106.983L1.68301 106.89C1.80001 106.727 1.97337 106.612 2.16974 106.569L2.84231 106.42C3.65014 106.241 4.3255 105.69 4.66289 104.935L5.66389 102.694C6.05249 101.823 6.10801 100.841 5.81991 99.9325L5.61674 99.292C5.52714 99.0094 5.51949 98.7073 5.59468 98.4206L5.65228 98.201C5.81917 97.5647 5.48783 96.9034 4.87825 96.6562C4.37666 96.4527 4.05207 95.9615 4.06161 95.4203L4.07936 94.4142C4.0837 94.1679 3.98473 93.9311 3.80647 93.7612C3.59048 93.5553 3.49344 93.2541 3.54865 92.9608L3.93342 90.9174C3.99309 90.6005 3.94406 90.2728 3.79427 89.9872C3.55092 89.5233 3.58029 88.9635 3.87087 88.5276L4.21926 88.005C4.48024 87.6134 4.55261 87.1258 4.41658 86.6754L4.37298 86.531C4.29215 86.2634 4.30992 85.9756 4.42308 85.7199L4.66084 85.1827C4.73847 85.0074 4.68662 84.8016 4.53513 84.684C4.3704 84.556 4.32535 84.3262 4.42959 84.1455L4.58769 83.8715C4.77661 83.5441 4.70377 83.1284 4.41479 82.8847L2.83465 81.5523C2.49657 81.2672 2.335 80.8242 2.41016 80.3884L2.43721 80.2316C2.49543 79.894 2.72787 79.6125 3.04829 79.4913C3.43871 79.3438 3.6904 78.9624 3.67254 78.5453L3.6709 78.5069C3.66507 78.3709 3.63208 78.2374 3.57387 78.1144L1.4858 73.6997C1.20589 73.1078 1.46603 72.4015 2.06294 72.1327C2.51337 71.9298 2.78783 71.4659 2.74875 70.9734L2.73906 70.8512C2.68011 70.1082 3.23689 69.4592 3.98015 69.4044L5.80754 69.2696C6.0999 69.2481 6.35286 69.058 6.45496 68.7832C6.56119 68.4973 6.83013 68.3043 7.13502 68.2951L8.4023 68.2571C9.08124 68.2368 9.51615 67.5264 9.22554 66.9125C9.14034 66.7325 9.11437 66.5301 9.15135 66.3344L9.26888 65.7127C9.41542 64.9374 9.8728 64.2559 10.5347 63.8265L10.7647 63.6773C11.7859 63.0149 12.3935 61.8728 12.3723 60.6558L12.3337 58.441C12.3287 58.1557 12.4897 57.8933 12.7463 57.7685C13.0732 57.6096 13.2344 57.2353 13.1253 56.8886L13.1155 56.8575C13.0497 56.6487 13.0758 56.4218 13.1872 56.2334L15.2943 52.6691C15.6826 52.0122 16.1646 51.4155 16.7251 50.8977L19.4028 48.4243C19.6496 48.1964 19.7667 47.8604 19.7151 47.5284L19.7107 47.5006C19.6638 47.1988 19.4751 46.9377 19.2033 46.7984L18.8867 46.6362C18.4614 46.4183 18.3757 45.8471 18.7183 45.5139C18.9093 45.3283 18.978 45.0502 18.8956 44.797L18.3495 43.119C17.8951 41.7225 18.762 40.2424 20.2024 39.9557C20.8238 39.8321 21.3732 39.4726 21.7354 38.9528L22.4462 37.9326C22.7856 37.4456 22.9634 36.8642 22.9546 36.2707L22.9417 35.4067C22.9332 34.8347 22.5946 34.3193 22.0731 34.0844C21.4877 33.8207 21.1402 33.2085 21.214 32.5707L21.9062 26.5885C21.9594 26.1286 22.3419 25.7774 22.8046 25.7635C23.3848 25.746 23.8398 26.2571 23.7554 26.8314L23.7214 27.0621C23.6564 27.5043 23.8586 27.9432 24.237 28.1811L26.0409 29.3153C26.3173 29.489 26.5468 29.728 26.7092 30.0113L26.9757 30.4758C27.1697 30.8142 27.5313 31.0215 27.9213 31.0179C28.6554 31.0112 29.1686 30.2892 28.9335 29.5937L28.6158 28.6537C28.5113 28.3444 28.2212 28.1362 27.8947 28.1362C27.4802 28.1362 27.1419 27.8045 27.1337 27.3901L27.0903 25.2066C27.0658 23.9767 27.9604 22.9209 29.1776 22.743C29.7576 22.6582 30.2877 22.3675 30.671 21.9241L31.6181 20.8286C31.7735 20.6489 32.0207 20.5785 32.2475 20.6494L32.5127 20.7325C32.8312 20.8322 33.1387 20.5508 33.0675 20.2247C32.9799 19.8229 33.4474 19.5352 33.7666 19.7945L37.5003 22.8267C37.7297 23.013 38.0078 23.1294 38.3014 23.1621C38.9613 23.2357 39.5942 22.8784 39.8721 22.2754L41.4424 18.8685C41.86 17.9625 42.7109 17.332 43.6993 17.1962L44.1673 17.132C44.3822 17.1025 44.5852 17.0155 44.7549 16.8802C45.1848 16.5373 45.3281 15.9469 45.1033 15.4451L44.3662 13.7996C44.0587 13.1132 44.0049 12.3399 44.2144 11.6176L44.691 9.97424C44.7797 9.66839 44.6662 9.33983 44.4076 9.154C43.9812 8.8476 43.9921 8.20964 44.4286 7.91794L45.1319 7.44804C45.4815 7.21445 45.9206 7.15875 46.3175 7.29764L49.1349 8.28363C49.6074 8.44901 50.0046 8.77903 50.2537 9.21328L50.3065 9.30523C50.481 9.60931 50.5595 9.95899 50.5319 10.3085L50.4488 11.3593C50.4002 11.9751 50.9507 12.4684 51.5574 12.3527C51.8185 12.3029 52.0462 12.1444 52.1836 11.9168L52.6418 11.1577C52.7496 10.979 52.9441 10.871 53.1528 10.8738C53.6177 10.8802 53.8913 11.3984 53.6344 11.7859L53.0992 12.5929C52.5736 13.3855 53.2171 14.4302 54.1615 14.3174L57.7384 13.8899C58.1538 13.8402 58.5525 13.6976 58.9051 13.4725L59.9351 12.8149C60.3474 12.5517 60.8346 12.4312 61.322 12.4718C62.1404 12.54 62.9302 12.1534 63.3785 11.4653L64.0886 10.3751C64.3944 9.90561 64.8858 9.5887 65.4396 9.50375C66.0028 9.41737 66.5009 9.09118 66.8053 8.60949L67.0437 8.23207C67.276 7.86444 67.4241 7.44998 67.4774 7.01839L67.4882 6.9309C67.6092 5.94981 68.1585 5.07267 68.9882 4.5353L73.0018 1.93592C73.2802 1.75559 73.6455 1.78705 73.889 2.01233C74.0602 2.17075 74.1448 2.40185 74.1164 2.63341L73.6028 6.81559Z" fill="#2969F6" stroke="#1D1D1D" stroke-width="2" stroke-linecap="round" stroke-linejoin="round"/>
</svg>
